%FSLAX34Y34*%
%MOMM*%
%LNOUTLINE*%
G71*
G01*
%ADD10C, 0.400*%
%LPD*%
G54D10*
X599900Y400000D02*
X2000Y400000D01*
X2000Y998000D01*
X599900Y998000D01*
X599900Y400000D01*
G54D10*
X600600Y998000D02*
X898600Y998000D01*
X898600Y750000D01*
X600600Y750000D01*
X600600Y998000D01*
G54D10*
X600500Y750000D02*
X898500Y750000D01*
X898500Y502000D01*
X600500Y502000D01*
X600500Y750000D01*
G54D10*
X698982Y126736D02*
X698982Y26936D01*
X350082Y26936D01*
X350082Y126436D01*
X698982Y126736D01*
G54D10*
X350182Y126536D02*
X350182Y26736D01*
X1282Y26736D01*
X1282Y126236D01*
X350182Y126536D01*
G54D10*
X898575Y998429D02*
X998375Y998429D01*
X998375Y649529D01*
X898875Y649529D01*
X898575Y998429D01*
G54D10*
X599575Y501429D02*
X699375Y501429D01*
X699375Y152529D01*
X599875Y152529D01*
X599575Y501429D01*
G54D10*
X1500Y400000D02*
X297500Y400000D01*
X297500Y127000D01*
X1500Y127000D01*
X1500Y399000D01*
G54D10*
X297500Y400000D02*
X593500Y400000D01*
X593500Y127000D01*
X297500Y127000D01*
X297500Y399000D01*
G54D10*
X698575Y501429D02*
X798375Y501429D01*
X798375Y152529D01*
X698875Y152529D01*
X698575Y501429D01*
G54D10*
X898575Y501429D02*
X998375Y501429D01*
X998375Y152529D01*
X898875Y152529D01*
X898575Y501429D01*
G54D10*
X798575Y501429D02*
X898375Y501429D01*
X898375Y152529D01*
X798875Y152529D01*
X798575Y501429D01*
G54D10*
X999000Y27000D02*
X2000Y27000D01*
X2000Y1000D01*
X999000Y1000D01*
X999000Y27000D01*
G54D10*
X996900Y26800D02*
X698875Y27000D01*
X698875Y152529D01*
X998375Y152529D01*
X999000Y27000D01*
G54D10*
X898875Y649529D02*
X998375Y649529D01*
X998375Y501429D01*
X898875Y501429D01*
X898875Y649529D01*
G54D10*
X698875Y152529D02*
X593500Y152529D01*
X593500Y127000D01*
X698875Y127000D01*
X698875Y152529D01*
M02*
