%FSLAX34Y34*%
%MOMM*%
%LNSOLDERMASK_TOP*%
G71*
G01*
%ADD10C, 4.100*%
%ADD11C, 3.600*%
%ADD12C, 2.900*%
%ADD13C, 2.200*%
%ADD14R, 1.500X2.000*%
%ADD15C, 2.200*%
%ADD16R, 2.000X1.500*%
%ADD17R, 1.070X1.800*%
%ADD18R, 1.250X2.200*%
%ADD19R, 2.200X1.200*%
%ADD20R, 1.100X2.200*%
%ADD21R, 4.300X2.600*%
%ADD22C, 2.200*%
%ADD23R, 1.700X1.800*%
%ADD24R, 1.800X1.800*%
%ADD25C, 2.200*%
%ADD26C, 1.600*%
%ADD27C, 1.800*%
%ADD28C, 2.120*%
%ADD29R, 1.800X1.070*%
%ADD30R, 2.200X1.100*%
%ADD31R, 2.600X4.300*%
%ADD32R, 1.800X1.700*%
%ADD33C, 1.800*%
%LPD*%
X24000Y535500D02*
G54D10*
D03*
X254000Y535500D02*
G54D10*
D03*
X70492Y907800D02*
G54D11*
D03*
X170492Y907800D02*
G54D11*
D03*
X20492Y642800D02*
G54D11*
D03*
X70492Y642800D02*
G54D11*
D03*
X24000Y535500D02*
G54D10*
D03*
X254000Y535500D02*
G54D10*
D03*
X229092Y912000D02*
G54D12*
D03*
X229092Y886600D02*
G54D12*
D03*
X229092Y861200D02*
G54D12*
D03*
X229092Y912000D02*
G54D12*
D03*
X229092Y886600D02*
G54D12*
D03*
X229092Y861200D02*
G54D12*
D03*
X575000Y442800D02*
G54D11*
D03*
X525000Y442800D02*
G54D11*
D03*
X241000Y442300D02*
G54D11*
D03*
X191000Y442300D02*
G54D11*
D03*
G36*
X212084Y682400D02*
X212084Y704400D01*
X234084Y704400D01*
X234084Y682400D01*
X212084Y682400D01*
G37*
X248584Y693400D02*
G54D13*
D03*
X223084Y769900D02*
G54D13*
D03*
X248584Y769900D02*
G54D13*
D03*
G36*
X209612Y805428D02*
X224612Y805428D01*
X224612Y785428D01*
X209612Y785428D01*
X209612Y805428D01*
G37*
X249612Y795328D02*
G54D14*
D03*
X234386Y668598D02*
G54D15*
D03*
G36*
X270786Y657598D02*
X248786Y657598D01*
X248786Y679598D01*
X270786Y679598D01*
X270786Y657598D01*
G37*
X475000Y442800D02*
G54D11*
D03*
X425000Y442800D02*
G54D11*
D03*
G36*
X17368Y612759D02*
X32368Y612759D01*
X32368Y592759D01*
X17368Y592759D01*
X17368Y612759D01*
G37*
X57368Y602659D02*
G54D14*
D03*
X134868Y603359D02*
G54D14*
D03*
G36*
X159868Y613259D02*
X174868Y613259D01*
X174868Y593259D01*
X159868Y593259D01*
X159868Y613259D01*
G37*
X79868Y603359D02*
G54D14*
D03*
X112368Y603259D02*
G54D14*
D03*
X20677Y602824D02*
G54D15*
D03*
G36*
X181048Y613159D02*
X196048Y613159D01*
X196048Y593159D01*
X181048Y593159D01*
X181048Y613159D01*
G37*
X221048Y603059D02*
G54D14*
D03*
X233544Y619749D02*
G54D16*
D03*
X233644Y652249D02*
G54D16*
D03*
X160492Y643800D02*
G54D11*
D03*
X20692Y906500D02*
G54D11*
D03*
X143800Y948800D02*
G54D12*
D03*
X118400Y948800D02*
G54D12*
D03*
X93000Y948800D02*
G54D12*
D03*
X143800Y948800D02*
G54D12*
D03*
X118400Y948800D02*
G54D12*
D03*
X93000Y948800D02*
G54D12*
D03*
X92400Y960500D02*
G54D16*
D03*
X92400Y973300D02*
G54D16*
D03*
X118700Y960500D02*
G54D16*
D03*
X118700Y973300D02*
G54D16*
D03*
X143700Y960500D02*
G54D16*
D03*
X143700Y973300D02*
G54D16*
D03*
X80300Y974400D02*
G54D17*
D03*
X110700Y974400D02*
G54D17*
D03*
X126200Y974200D02*
G54D17*
D03*
X156600Y974200D02*
G54D17*
D03*
X81400Y974200D02*
G54D14*
D03*
X118700Y973300D02*
G54D14*
D03*
X158100Y974400D02*
G54D14*
D03*
X507600Y955500D02*
G54D18*
D03*
X487600Y955500D02*
G54D18*
D03*
X467600Y955500D02*
G54D18*
D03*
X447600Y955500D02*
G54D18*
D03*
X427600Y955500D02*
G54D18*
D03*
X407600Y955500D02*
G54D18*
D03*
X387600Y955500D02*
G54D18*
D03*
X367600Y955500D02*
G54D18*
D03*
X507600Y795500D02*
G54D18*
D03*
X487600Y795500D02*
G54D18*
D03*
X467600Y795500D02*
G54D18*
D03*
X447600Y795500D02*
G54D18*
D03*
X427600Y795500D02*
G54D18*
D03*
X407600Y795500D02*
G54D18*
D03*
X387600Y795500D02*
G54D18*
D03*
X367600Y795500D02*
G54D18*
D03*
X352600Y925500D02*
G54D19*
D03*
X352600Y905500D02*
G54D19*
D03*
X352600Y885500D02*
G54D19*
D03*
X352600Y865500D02*
G54D19*
D03*
X352600Y845500D02*
G54D19*
D03*
X352600Y825500D02*
G54D19*
D03*
X316918Y540672D02*
G54D20*
D03*
X339118Y540672D02*
G54D20*
D03*
X361418Y540672D02*
G54D20*
D03*
X339118Y599472D02*
G54D21*
D03*
G36*
X311198Y522659D02*
X320895Y518137D01*
X313288Y501823D01*
X303590Y506346D01*
X311198Y522659D01*
G37*
G36*
X338749Y509811D02*
X348447Y505289D01*
X340840Y488976D01*
X331143Y493498D01*
X338749Y509811D01*
G37*
G36*
X374200Y696600D02*
X352200Y696600D01*
X352200Y718600D01*
X374200Y718600D01*
X374200Y696600D01*
G37*
X337800Y707600D02*
G54D22*
D03*
X312400Y707600D02*
G54D22*
D03*
X312400Y631400D02*
G54D22*
D03*
X337800Y631400D02*
G54D22*
D03*
X363200Y631400D02*
G54D22*
D03*
X387122Y599900D02*
G54D16*
D03*
X387221Y632400D02*
G54D16*
D03*
X387281Y577644D02*
G54D16*
D03*
X387182Y545144D02*
G54D16*
D03*
G36*
X345886Y505145D02*
X359481Y511484D01*
X367933Y493358D01*
X354339Y487019D01*
X345886Y505145D01*
G37*
G36*
X375384Y518790D02*
X388978Y525129D01*
X397431Y507003D01*
X383836Y500664D01*
X375384Y518790D01*
G37*
X310980Y514259D02*
G54D23*
D03*
X338231Y539436D02*
G54D15*
D03*
X311646Y538911D02*
G54D15*
D03*
X313743Y510842D02*
G54D15*
D03*
X386509Y512896D02*
G54D15*
D03*
X311546Y538911D02*
G54D24*
D03*
G54D25*
X339714Y540453D02*
X339909Y540626D01*
X367231Y540436D02*
G54D15*
D03*
X386775Y709229D02*
G54D16*
D03*
X386675Y676729D02*
G54D16*
D03*
X387122Y599900D02*
G54D15*
D03*
X375000Y442800D02*
G54D11*
D03*
X325000Y442800D02*
G54D11*
D03*
G54D26*
X342800Y495100D02*
X352757Y495100D01*
X356909Y499252D01*
X347448Y499252D01*
X342300Y504400D01*
X351761Y504400D01*
X356909Y499252D01*
X415943Y540543D02*
G54D20*
D03*
X438143Y540543D02*
G54D20*
D03*
X460443Y540543D02*
G54D20*
D03*
X438143Y599343D02*
G54D21*
D03*
G36*
X410223Y522532D02*
X419920Y518010D01*
X412312Y501697D01*
X402615Y506219D01*
X410223Y522532D01*
G37*
G36*
X437774Y509684D02*
X447472Y505162D01*
X439865Y488848D01*
X430168Y493370D01*
X437774Y509684D01*
G37*
G36*
X473225Y696471D02*
X451225Y696471D01*
X451225Y718471D01*
X473225Y718471D01*
X473225Y696471D01*
G37*
X436825Y707471D02*
G54D22*
D03*
X411425Y707471D02*
G54D22*
D03*
X411425Y631271D02*
G54D22*
D03*
X436825Y631271D02*
G54D22*
D03*
X462225Y631271D02*
G54D22*
D03*
X486147Y599771D02*
G54D16*
D03*
X486246Y632271D02*
G54D16*
D03*
X486306Y577515D02*
G54D16*
D03*
X486206Y545015D02*
G54D16*
D03*
G36*
X444911Y505017D02*
X458505Y511356D01*
X466958Y493230D01*
X453363Y486890D01*
X444911Y505017D01*
G37*
G36*
X474408Y518661D02*
X488003Y525000D01*
X496455Y506874D01*
X482860Y500535D01*
X474408Y518661D01*
G37*
X410004Y514130D02*
G54D23*
D03*
X437256Y539307D02*
G54D15*
D03*
X410671Y538783D02*
G54D15*
D03*
X412768Y510713D02*
G54D15*
D03*
X485534Y512768D02*
G54D15*
D03*
X410571Y538783D02*
G54D24*
D03*
G54D25*
X438739Y540324D02*
X438934Y540497D01*
X466256Y540307D02*
G54D15*
D03*
X485800Y709100D02*
G54D16*
D03*
X485700Y676600D02*
G54D16*
D03*
X486147Y599771D02*
G54D15*
D03*
G54D26*
X441825Y494971D02*
X451782Y494971D01*
X455934Y499123D01*
X446473Y499123D01*
X441325Y504271D01*
X450786Y504271D01*
X455934Y499123D01*
X515143Y540643D02*
G54D20*
D03*
X537343Y540643D02*
G54D20*
D03*
X559643Y540643D02*
G54D20*
D03*
X537343Y599443D02*
G54D21*
D03*
G36*
X509423Y522631D02*
X519120Y518108D01*
X511513Y501795D01*
X501815Y506317D01*
X509423Y522631D01*
G37*
G36*
X536974Y509783D02*
X546672Y505261D01*
X539065Y488948D01*
X529368Y493469D01*
X536974Y509783D01*
G37*
G36*
X572425Y696571D02*
X550425Y696571D01*
X550425Y718571D01*
X572425Y718571D01*
X572425Y696571D01*
G37*
X536025Y707571D02*
G54D22*
D03*
X510625Y707571D02*
G54D22*
D03*
X510625Y631371D02*
G54D22*
D03*
X536025Y631371D02*
G54D22*
D03*
X561425Y631371D02*
G54D22*
D03*
X585347Y599871D02*
G54D16*
D03*
X585446Y632371D02*
G54D16*
D03*
X585506Y577615D02*
G54D16*
D03*
X585406Y545115D02*
G54D16*
D03*
G36*
X544111Y505116D02*
X557705Y511456D01*
X566158Y493330D01*
X552563Y486990D01*
X544111Y505116D01*
G37*
G36*
X573608Y518761D02*
X587203Y525100D01*
X595655Y506974D01*
X582060Y500635D01*
X573608Y518761D01*
G37*
X509204Y514230D02*
G54D23*
D03*
X536456Y539407D02*
G54D15*
D03*
X509871Y538883D02*
G54D15*
D03*
X511968Y510813D02*
G54D15*
D03*
X584734Y512868D02*
G54D15*
D03*
X509771Y538883D02*
G54D24*
D03*
G54D25*
X537939Y540424D02*
X538134Y540597D01*
X565456Y540407D02*
G54D15*
D03*
X585000Y709200D02*
G54D16*
D03*
X584900Y676700D02*
G54D16*
D03*
X585347Y599871D02*
G54D15*
D03*
G54D26*
X541025Y495071D02*
X550982Y495071D01*
X555134Y499223D01*
X545673Y499223D01*
X540525Y504371D01*
X549986Y504371D01*
X555134Y499223D01*
X217189Y817486D02*
G54D17*
D03*
G36*
X242239Y826486D02*
X252939Y826486D01*
X252940Y808486D01*
X242240Y808486D01*
X242239Y826486D01*
G37*
X328922Y945322D02*
G54D15*
D03*
X328832Y817078D02*
G54D15*
D03*
X507639Y955295D02*
G54D27*
D03*
X487639Y955295D02*
G54D27*
D03*
X467639Y955295D02*
G54D27*
D03*
X447639Y955295D02*
G54D27*
D03*
X427639Y955295D02*
G54D27*
D03*
X407639Y955295D02*
G54D27*
D03*
X387639Y955295D02*
G54D27*
D03*
X367639Y955295D02*
G54D27*
D03*
X352639Y925295D02*
G54D27*
D03*
X352639Y905295D02*
G54D27*
D03*
X352639Y885295D02*
G54D27*
D03*
X352639Y865295D02*
G54D27*
D03*
X352639Y845295D02*
G54D27*
D03*
X352639Y825295D02*
G54D27*
D03*
X367600Y795500D02*
G54D27*
D03*
X387600Y795500D02*
G54D27*
D03*
X407600Y795500D02*
G54D27*
D03*
X427600Y795500D02*
G54D27*
D03*
X447600Y795500D02*
G54D27*
D03*
X467600Y795500D02*
G54D27*
D03*
X487600Y795500D02*
G54D27*
D03*
X507600Y795500D02*
G54D27*
D03*
X338000Y795600D02*
G54D15*
D03*
G36*
X235648Y612359D02*
X250648Y612359D01*
X250648Y592359D01*
X235648Y592359D01*
X235648Y612359D01*
G37*
X275648Y602259D02*
G54D14*
D03*
X279544Y619649D02*
G54D16*
D03*
X279644Y652149D02*
G54D16*
D03*
X328122Y842878D02*
G54D15*
D03*
X313222Y492178D02*
G54D15*
D03*
X141000Y442300D02*
G54D11*
D03*
X91000Y442300D02*
G54D11*
D03*
X413522Y492878D02*
G54D15*
D03*
X512322Y493278D02*
G54D15*
D03*
G36*
X264800Y792600D02*
X264800Y813800D01*
X286000Y813800D01*
X286000Y792600D01*
X264800Y792600D01*
G37*
X275400Y828600D02*
G54D28*
D03*
G36*
X265000Y850800D02*
X265000Y872000D01*
X286200Y872000D01*
X286200Y850800D01*
X265000Y850800D01*
G37*
X275600Y886800D02*
G54D28*
D03*
G36*
X300400Y983800D02*
X321600Y983800D01*
X321600Y962600D01*
X300400Y962600D01*
X300400Y983800D01*
G37*
G36*
X298000Y871900D02*
X298000Y893100D01*
X319200Y893100D01*
X319200Y871900D01*
X298000Y871900D01*
G37*
X308600Y907900D02*
G54D28*
D03*
X330522Y910509D02*
G54D29*
D03*
X330522Y880109D02*
G54D29*
D03*
G36*
X317622Y871909D02*
X317622Y893109D01*
X338822Y893109D01*
X338822Y871909D01*
X317622Y871909D01*
G37*
X328222Y907909D02*
G54D28*
D03*
G36*
X471600Y992400D02*
X492800Y992400D01*
X492800Y971200D01*
X471600Y971200D01*
X471600Y992400D01*
G37*
X507600Y981800D02*
G54D28*
D03*
G36*
X327300Y740600D02*
X348500Y740600D01*
X348500Y719400D01*
X327300Y719400D01*
X327300Y740600D01*
G37*
X363300Y730000D02*
G54D28*
D03*
G36*
X426400Y740600D02*
X447600Y740600D01*
X447600Y719400D01*
X426400Y719400D01*
X426400Y740600D01*
G37*
X462400Y730000D02*
G54D28*
D03*
G36*
X525300Y740600D02*
X546500Y740600D01*
X546500Y719400D01*
X525300Y719400D01*
X525300Y740600D01*
G37*
X561300Y730000D02*
G54D28*
D03*
G36*
X403200Y778500D02*
X424400Y778500D01*
X424400Y757300D01*
X403200Y757300D01*
X403200Y778500D01*
G37*
X439200Y767900D02*
G54D28*
D03*
G36*
X476700Y778800D02*
X497900Y778800D01*
X497900Y757600D01*
X476700Y757600D01*
X476700Y778800D01*
G37*
X512700Y768200D02*
G54D28*
D03*
X538100Y768200D02*
G54D28*
D03*
X563500Y768200D02*
G54D28*
D03*
X508301Y839501D02*
G54D27*
D03*
X809300Y957600D02*
G54D18*
D03*
X789300Y957600D02*
G54D18*
D03*
X769300Y957600D02*
G54D18*
D03*
X749300Y957600D02*
G54D18*
D03*
X729300Y957600D02*
G54D18*
D03*
X709300Y957600D02*
G54D18*
D03*
X689300Y957600D02*
G54D18*
D03*
X669300Y957600D02*
G54D18*
D03*
X809300Y797600D02*
G54D18*
D03*
X789300Y797600D02*
G54D18*
D03*
X769300Y797600D02*
G54D18*
D03*
X749300Y797600D02*
G54D18*
D03*
X729300Y797600D02*
G54D18*
D03*
X709300Y797600D02*
G54D18*
D03*
X689300Y797600D02*
G54D18*
D03*
X669300Y797600D02*
G54D18*
D03*
X654300Y927600D02*
G54D19*
D03*
X654300Y907600D02*
G54D19*
D03*
X654300Y887600D02*
G54D19*
D03*
X654300Y867600D02*
G54D19*
D03*
X654300Y847600D02*
G54D19*
D03*
X654300Y827600D02*
G54D19*
D03*
X630622Y947422D02*
G54D15*
D03*
X630532Y819178D02*
G54D15*
D03*
X809339Y957395D02*
G54D27*
D03*
X789339Y957395D02*
G54D27*
D03*
X769339Y957395D02*
G54D27*
D03*
X749339Y957395D02*
G54D27*
D03*
X729339Y957395D02*
G54D27*
D03*
X709339Y957395D02*
G54D27*
D03*
X689339Y957395D02*
G54D27*
D03*
X669339Y957395D02*
G54D27*
D03*
X654339Y927395D02*
G54D27*
D03*
X654339Y907395D02*
G54D27*
D03*
X654339Y887395D02*
G54D27*
D03*
X654339Y867395D02*
G54D27*
D03*
X654339Y847395D02*
G54D27*
D03*
X654339Y827395D02*
G54D27*
D03*
X669300Y797600D02*
G54D27*
D03*
X689300Y797600D02*
G54D27*
D03*
X709300Y797600D02*
G54D27*
D03*
X729300Y797600D02*
G54D27*
D03*
X749300Y797600D02*
G54D27*
D03*
X769300Y797600D02*
G54D27*
D03*
X789300Y797600D02*
G54D27*
D03*
X809300Y797600D02*
G54D27*
D03*
X639700Y797700D02*
G54D15*
D03*
X629822Y844978D02*
G54D15*
D03*
G36*
X739216Y971095D02*
X718016Y971095D01*
X718016Y992295D01*
X739216Y992295D01*
X739216Y971095D01*
G37*
G36*
X619322Y874009D02*
X619322Y895209D01*
X640522Y895209D01*
X640522Y874009D01*
X619322Y874009D01*
G37*
X629922Y910009D02*
G54D28*
D03*
G36*
X760300Y992500D02*
X781500Y992500D01*
X781500Y971300D01*
X760300Y971300D01*
X760300Y992500D01*
G37*
X796300Y981900D02*
G54D28*
D03*
G36*
X688500Y784200D02*
X709700Y784200D01*
X709700Y763000D01*
X688500Y763000D01*
X688500Y784200D01*
G37*
X724500Y773600D02*
G54D28*
D03*
X703239Y979195D02*
G54D27*
D03*
X679239Y979195D02*
G54D27*
D03*
X749400Y770100D02*
G54D27*
D03*
X769400Y770100D02*
G54D27*
D03*
G36*
X781300Y784500D02*
X802500Y784500D01*
X802500Y763300D01*
X781300Y763300D01*
X781300Y784500D01*
G37*
X817300Y773900D02*
G54D28*
D03*
X809200Y709600D02*
G54D18*
D03*
X789200Y709600D02*
G54D18*
D03*
X769200Y709600D02*
G54D18*
D03*
X749200Y709600D02*
G54D18*
D03*
X729200Y709600D02*
G54D18*
D03*
X709200Y709600D02*
G54D18*
D03*
X689200Y709600D02*
G54D18*
D03*
X669200Y709600D02*
G54D18*
D03*
X809200Y549600D02*
G54D18*
D03*
X789200Y549600D02*
G54D18*
D03*
X769200Y549600D02*
G54D18*
D03*
X749200Y549600D02*
G54D18*
D03*
X729200Y549600D02*
G54D18*
D03*
X709200Y549600D02*
G54D18*
D03*
X689200Y549600D02*
G54D18*
D03*
X669200Y549600D02*
G54D18*
D03*
X654200Y679600D02*
G54D19*
D03*
X654200Y659600D02*
G54D19*
D03*
X654200Y639600D02*
G54D19*
D03*
X654200Y619600D02*
G54D19*
D03*
X654200Y599600D02*
G54D19*
D03*
X654200Y579600D02*
G54D19*
D03*
X630522Y699422D02*
G54D15*
D03*
X630432Y571178D02*
G54D15*
D03*
X809239Y709395D02*
G54D27*
D03*
X789239Y709395D02*
G54D27*
D03*
X769239Y709395D02*
G54D27*
D03*
X749239Y709395D02*
G54D27*
D03*
X729239Y709395D02*
G54D27*
D03*
X709239Y709395D02*
G54D27*
D03*
X689239Y709395D02*
G54D27*
D03*
X669239Y709395D02*
G54D27*
D03*
X654239Y679395D02*
G54D27*
D03*
X654239Y659395D02*
G54D27*
D03*
X654239Y639395D02*
G54D27*
D03*
X654239Y619395D02*
G54D27*
D03*
X654239Y599395D02*
G54D27*
D03*
X654239Y579395D02*
G54D27*
D03*
X669200Y549600D02*
G54D27*
D03*
X689200Y549600D02*
G54D27*
D03*
X709200Y549600D02*
G54D27*
D03*
X729200Y549600D02*
G54D27*
D03*
X749200Y549600D02*
G54D27*
D03*
X769200Y549600D02*
G54D27*
D03*
X789200Y549600D02*
G54D27*
D03*
X809200Y549600D02*
G54D27*
D03*
X639600Y549700D02*
G54D15*
D03*
X629722Y596978D02*
G54D15*
D03*
G36*
X739116Y723095D02*
X717916Y723095D01*
X717916Y744295D01*
X739116Y744295D01*
X739116Y723095D01*
G37*
G36*
X619222Y626009D02*
X619222Y647209D01*
X640422Y647209D01*
X640422Y626009D01*
X619222Y626009D01*
G37*
X629822Y662009D02*
G54D28*
D03*
G36*
X760200Y744500D02*
X781400Y744500D01*
X781400Y723300D01*
X760200Y723300D01*
X760200Y744500D01*
G37*
X796200Y733900D02*
G54D28*
D03*
G36*
X688400Y536200D02*
X709600Y536200D01*
X709600Y515000D01*
X688400Y515000D01*
X688400Y536200D01*
G37*
X724400Y525600D02*
G54D28*
D03*
X703139Y731195D02*
G54D27*
D03*
X679139Y731195D02*
G54D27*
D03*
X749300Y522100D02*
G54D27*
D03*
X769300Y522100D02*
G54D27*
D03*
G36*
X781200Y536500D02*
X802400Y536500D01*
X802400Y515300D01*
X781200Y515300D01*
X781200Y536500D01*
G37*
X817200Y525900D02*
G54D28*
D03*
X392882Y50736D02*
G54D11*
D03*
X392882Y100736D02*
G54D11*
D03*
X490625Y109792D02*
G54D30*
D03*
X490625Y87592D02*
G54D30*
D03*
X490625Y65292D02*
G54D30*
D03*
X549425Y87592D02*
G54D31*
D03*
G36*
X472614Y115513D02*
X468092Y105816D01*
X451778Y113423D01*
X456300Y123120D01*
X472614Y115513D01*
G37*
G36*
X459766Y87962D02*
X455244Y78264D01*
X438930Y85870D01*
X443452Y95568D01*
X459766Y87962D01*
G37*
G36*
X646553Y52511D02*
X646553Y74511D01*
X668553Y74511D01*
X668553Y52511D01*
X646553Y52511D01*
G37*
X657553Y88911D02*
G54D22*
D03*
X657553Y114311D02*
G54D22*
D03*
X581353Y114311D02*
G54D22*
D03*
X581353Y88911D02*
G54D22*
D03*
X581353Y63511D02*
G54D22*
D03*
X549853Y39590D02*
G54D14*
D03*
X582353Y39490D02*
G54D14*
D03*
X527597Y39430D02*
G54D14*
D03*
X495097Y39530D02*
G54D14*
D03*
G36*
X455099Y80825D02*
X461438Y67230D01*
X443311Y58778D01*
X436972Y72373D01*
X455099Y80825D01*
G37*
G36*
X468743Y51328D02*
X475082Y37734D01*
X456956Y29281D01*
X450617Y42876D01*
X468743Y51328D01*
G37*
X464212Y115732D02*
G54D32*
D03*
X489389Y88480D02*
G54D15*
D03*
X488864Y115066D02*
G54D15*
D03*
X460795Y112968D02*
G54D15*
D03*
X462849Y40202D02*
G54D15*
D03*
X488864Y115166D02*
G54D24*
D03*
G54D25*
X490406Y86997D02*
X490579Y86802D01*
X490389Y59480D02*
G54D15*
D03*
X659182Y39936D02*
G54D14*
D03*
X626682Y40036D02*
G54D14*
D03*
X549853Y39590D02*
G54D15*
D03*
G54D26*
X445053Y83911D02*
X445053Y73954D01*
X449205Y69802D01*
X449205Y79263D01*
X454353Y84411D01*
X454353Y74950D01*
X449205Y69802D01*
X442960Y113014D02*
G54D15*
D03*
G36*
X690682Y99336D02*
X690682Y78136D01*
X669482Y78136D01*
X669482Y99336D01*
X690682Y99336D01*
G37*
X680082Y63336D02*
G54D28*
D03*
X369582Y38036D02*
G54D16*
D03*
X686982Y68836D02*
G54D16*
D03*
X424882Y111836D02*
G54D14*
D03*
X424482Y37636D02*
G54D14*
D03*
X363282Y111836D02*
G54D14*
D03*
X44082Y50536D02*
G54D11*
D03*
X44082Y100536D02*
G54D11*
D03*
X141825Y109592D02*
G54D30*
D03*
X141825Y87392D02*
G54D30*
D03*
X141825Y65092D02*
G54D30*
D03*
X200625Y87392D02*
G54D31*
D03*
G36*
X123814Y115312D02*
X119292Y105615D01*
X102978Y113223D01*
X107501Y122920D01*
X123814Y115312D01*
G37*
G36*
X110966Y87761D02*
X106444Y78063D01*
X90130Y85670D01*
X94652Y95368D01*
X110966Y87761D01*
G37*
G36*
X297753Y52311D02*
X297753Y74311D01*
X319753Y74311D01*
X319753Y52311D01*
X297753Y52311D01*
G37*
X308753Y88711D02*
G54D22*
D03*
X308753Y114111D02*
G54D22*
D03*
X232553Y114111D02*
G54D22*
D03*
X232553Y88711D02*
G54D22*
D03*
X232553Y63311D02*
G54D22*
D03*
X201053Y39390D02*
G54D14*
D03*
X233553Y39290D02*
G54D14*
D03*
X178797Y39230D02*
G54D14*
D03*
X146297Y39330D02*
G54D14*
D03*
G36*
X106298Y80625D02*
X112637Y67030D01*
X94511Y58578D01*
X88172Y72173D01*
X106298Y80625D01*
G37*
G36*
X119944Y51128D02*
X126282Y37533D01*
X108156Y29081D01*
X101817Y42676D01*
X119944Y51128D01*
G37*
X115412Y115532D02*
G54D32*
D03*
X140589Y88280D02*
G54D15*
D03*
X140064Y114866D02*
G54D15*
D03*
X111995Y112768D02*
G54D15*
D03*
X114049Y40002D02*
G54D15*
D03*
X140064Y114966D02*
G54D24*
D03*
G54D25*
X141606Y86797D02*
X141779Y86602D01*
X141589Y59280D02*
G54D15*
D03*
X310382Y39736D02*
G54D14*
D03*
X277882Y39836D02*
G54D14*
D03*
X201053Y39390D02*
G54D15*
D03*
G54D26*
X96253Y83711D02*
X96253Y73754D01*
X100405Y69602D01*
X100405Y79063D01*
X105553Y84211D01*
X105553Y74750D01*
X100405Y69602D01*
X94160Y112814D02*
G54D15*
D03*
G36*
X341882Y99136D02*
X341882Y77936D01*
X320682Y77936D01*
X320682Y99136D01*
X341882Y99136D01*
G37*
X331282Y63136D02*
G54D28*
D03*
X20782Y37836D02*
G54D16*
D03*
X338182Y68636D02*
G54D16*
D03*
X76082Y111636D02*
G54D14*
D03*
X75682Y37436D02*
G54D14*
D03*
X14482Y111636D02*
G54D14*
D03*
X974575Y692329D02*
G54D11*
D03*
X924575Y692329D02*
G54D11*
D03*
X915518Y790072D02*
G54D20*
D03*
X937718Y790072D02*
G54D20*
D03*
X960018Y790072D02*
G54D20*
D03*
X937718Y848872D02*
G54D21*
D03*
G36*
X909798Y772061D02*
X919495Y767539D01*
X911888Y751225D01*
X902190Y755748D01*
X909798Y772061D01*
G37*
G36*
X937349Y759213D02*
X947047Y754691D01*
X939440Y738377D01*
X929743Y742899D01*
X937349Y759213D01*
G37*
G36*
X972800Y946000D02*
X950800Y946000D01*
X950800Y968000D01*
X972800Y968000D01*
X972800Y946000D01*
G37*
X936400Y957000D02*
G54D22*
D03*
X911000Y957000D02*
G54D22*
D03*
X911000Y880800D02*
G54D22*
D03*
X936400Y880800D02*
G54D22*
D03*
X961800Y880800D02*
G54D22*
D03*
X985722Y849300D02*
G54D16*
D03*
X985821Y881800D02*
G54D16*
D03*
X985881Y827044D02*
G54D16*
D03*
X985781Y794544D02*
G54D16*
D03*
G36*
X944486Y754546D02*
X958080Y760885D01*
X966533Y742758D01*
X952938Y736419D01*
X944486Y754546D01*
G37*
G36*
X973983Y768190D02*
X987578Y774529D01*
X996030Y756403D01*
X982435Y750064D01*
X973983Y768190D01*
G37*
X909580Y763659D02*
G54D23*
D03*
X936831Y788836D02*
G54D15*
D03*
X910246Y788311D02*
G54D15*
D03*
X912343Y760242D02*
G54D15*
D03*
X985109Y762296D02*
G54D15*
D03*
X910146Y788311D02*
G54D24*
D03*
G54D25*
X938314Y789853D02*
X938509Y790026D01*
X965831Y789836D02*
G54D15*
D03*
X985375Y958629D02*
G54D16*
D03*
X985275Y926129D02*
G54D16*
D03*
X985722Y849300D02*
G54D15*
D03*
G54D26*
X941400Y744500D02*
X951357Y744500D01*
X955509Y748652D01*
X946048Y748652D01*
X940900Y753800D01*
X950361Y753800D01*
X955509Y748652D01*
X912297Y742407D02*
G54D15*
D03*
G36*
X925975Y990129D02*
X947175Y990129D01*
X947175Y968929D01*
X925975Y968929D01*
X925975Y990129D01*
G37*
X961975Y979529D02*
G54D28*
D03*
X987275Y669029D02*
G54D14*
D03*
X956475Y986429D02*
G54D14*
D03*
X913475Y724329D02*
G54D16*
D03*
X987675Y723929D02*
G54D16*
D03*
X913475Y662729D02*
G54D16*
D03*
X675575Y195329D02*
G54D11*
D03*
X625575Y195329D02*
G54D11*
D03*
X616518Y293072D02*
G54D20*
D03*
X638718Y293072D02*
G54D20*
D03*
X661018Y293072D02*
G54D20*
D03*
X638718Y351872D02*
G54D21*
D03*
G36*
X610798Y275061D02*
X620496Y270538D01*
X612887Y254225D01*
X603190Y258748D01*
X610798Y275061D01*
G37*
G36*
X638349Y262212D02*
X648047Y257691D01*
X640440Y241377D01*
X630743Y245899D01*
X638349Y262212D01*
G37*
G36*
X673800Y449000D02*
X651800Y449000D01*
X651800Y471000D01*
X673800Y471000D01*
X673800Y449000D01*
G37*
X637400Y460000D02*
G54D22*
D03*
X612000Y460000D02*
G54D22*
D03*
X612000Y383800D02*
G54D22*
D03*
X637400Y383800D02*
G54D22*
D03*
X662800Y383800D02*
G54D22*
D03*
X686722Y352300D02*
G54D16*
D03*
X686821Y384800D02*
G54D16*
D03*
X686881Y330044D02*
G54D16*
D03*
X686781Y297544D02*
G54D16*
D03*
G36*
X645486Y257545D02*
X659081Y263884D01*
X667533Y245758D01*
X653939Y239419D01*
X645486Y257545D01*
G37*
G36*
X674983Y271190D02*
X688578Y277529D01*
X697030Y259403D01*
X683435Y253064D01*
X674983Y271190D01*
G37*
X610580Y266659D02*
G54D23*
D03*
X637831Y291836D02*
G54D15*
D03*
X611246Y291311D02*
G54D15*
D03*
X613343Y263242D02*
G54D15*
D03*
X686109Y265296D02*
G54D15*
D03*
X611146Y291311D02*
G54D24*
D03*
G54D25*
X639314Y292853D02*
X639509Y293026D01*
X666831Y292836D02*
G54D15*
D03*
X686375Y461629D02*
G54D16*
D03*
X686275Y429129D02*
G54D16*
D03*
X686722Y352300D02*
G54D15*
D03*
G54D26*
X642400Y247500D02*
X652357Y247500D01*
X656509Y251652D01*
X647048Y251652D01*
X641900Y256800D01*
X651361Y256800D01*
X656509Y251652D01*
X613297Y245407D02*
G54D15*
D03*
G36*
X626975Y493129D02*
X648175Y493129D01*
X648175Y471929D01*
X626975Y471929D01*
X626975Y493129D01*
G37*
X662975Y482529D02*
G54D28*
D03*
X688275Y172029D02*
G54D14*
D03*
X657475Y489429D02*
G54D14*
D03*
X614475Y227329D02*
G54D16*
D03*
X688675Y226929D02*
G54D16*
D03*
X614475Y165729D02*
G54D16*
D03*
X25820Y260700D02*
G54D10*
D03*
X255820Y260700D02*
G54D10*
D03*
X25820Y260700D02*
G54D10*
D03*
X255820Y260700D02*
G54D10*
D03*
G36*
X31832Y369461D02*
X53832Y369461D01*
X53832Y347461D01*
X31832Y347461D01*
X31832Y369461D01*
G37*
X42832Y332961D02*
G54D13*
D03*
X119332Y358461D02*
G54D13*
D03*
X119332Y332961D02*
G54D13*
D03*
X19385Y358696D02*
G54D15*
D03*
G36*
X8385Y322296D02*
X8385Y344296D01*
X30385Y344296D01*
X30385Y322296D01*
X8385Y322296D01*
G37*
X201377Y385724D02*
G54D15*
D03*
X273880Y167700D02*
G54D11*
D03*
X223880Y167700D02*
G54D11*
D03*
X173880Y167700D02*
G54D11*
D03*
X123880Y167700D02*
G54D11*
D03*
X73900Y167700D02*
G54D11*
D03*
X23900Y167700D02*
G54D11*
D03*
X144147Y363473D02*
G54D16*
D03*
X144047Y330973D02*
G54D16*
D03*
X174501Y380403D02*
G54D12*
D03*
X174501Y355003D02*
G54D12*
D03*
X174501Y329603D02*
G54D12*
D03*
X174501Y380403D02*
G54D12*
D03*
X174501Y355003D02*
G54D12*
D03*
X174501Y329603D02*
G54D12*
D03*
X144047Y329973D02*
G54D15*
D03*
G36*
X267771Y319879D02*
X267771Y341079D01*
X288971Y341079D01*
X288971Y319879D01*
X267771Y319879D01*
G37*
X278371Y355879D02*
G54D28*
D03*
G36*
X207771Y319879D02*
X207771Y341079D01*
X228971Y341079D01*
X228971Y319879D01*
X207771Y319879D01*
G37*
X218371Y355879D02*
G54D28*
D03*
G36*
X133606Y395995D02*
X154806Y395995D01*
X154806Y374795D01*
X133606Y374795D01*
X133606Y395995D01*
G37*
X218371Y359879D02*
G54D16*
D03*
X218271Y327379D02*
G54D16*
D03*
X236100Y385550D02*
G54D33*
D03*
X248800Y372850D02*
G54D33*
D03*
X261500Y385550D02*
G54D33*
D03*
X236100Y385550D02*
G54D33*
D03*
X248800Y372850D02*
G54D33*
D03*
X261500Y385550D02*
G54D33*
D03*
X144147Y363473D02*
G54D15*
D03*
G36*
X237606Y340995D02*
X258806Y340995D01*
X258806Y319795D01*
X237606Y319795D01*
X237606Y340995D01*
G37*
G36*
X272606Y392995D02*
X293806Y392995D01*
X293806Y371795D01*
X272606Y371795D01*
X272606Y392995D01*
G37*
X321820Y260700D02*
G54D10*
D03*
X551820Y260700D02*
G54D10*
D03*
X321820Y260700D02*
G54D10*
D03*
X551820Y260700D02*
G54D10*
D03*
G36*
X327832Y369461D02*
X349832Y369461D01*
X349832Y347461D01*
X327832Y347461D01*
X327832Y369461D01*
G37*
X338832Y332961D02*
G54D13*
D03*
X415332Y358461D02*
G54D13*
D03*
X415332Y332961D02*
G54D13*
D03*
X315385Y358696D02*
G54D15*
D03*
G36*
X304385Y322296D02*
X304385Y344296D01*
X326385Y344296D01*
X326385Y322296D01*
X304385Y322296D01*
G37*
X497377Y385724D02*
G54D15*
D03*
X569880Y167700D02*
G54D11*
D03*
X519880Y167700D02*
G54D11*
D03*
X469880Y167700D02*
G54D11*
D03*
X419880Y167700D02*
G54D11*
D03*
X369900Y167700D02*
G54D11*
D03*
X319900Y167700D02*
G54D11*
D03*
X440147Y363473D02*
G54D16*
D03*
X440047Y330973D02*
G54D16*
D03*
X470501Y380403D02*
G54D12*
D03*
X470501Y355003D02*
G54D12*
D03*
X470501Y329603D02*
G54D12*
D03*
X470501Y380403D02*
G54D12*
D03*
X470501Y355003D02*
G54D12*
D03*
X470501Y329603D02*
G54D12*
D03*
X440047Y329973D02*
G54D15*
D03*
G36*
X563771Y319879D02*
X563771Y341079D01*
X584971Y341079D01*
X584971Y319879D01*
X563771Y319879D01*
G37*
X574371Y355879D02*
G54D28*
D03*
G36*
X503771Y319879D02*
X503771Y341079D01*
X524971Y341079D01*
X524971Y319879D01*
X503771Y319879D01*
G37*
X514371Y355879D02*
G54D28*
D03*
G36*
X429606Y395995D02*
X450806Y395995D01*
X450806Y374795D01*
X429606Y374795D01*
X429606Y395995D01*
G37*
X514371Y359879D02*
G54D16*
D03*
X514271Y327379D02*
G54D16*
D03*
X532100Y385550D02*
G54D33*
D03*
X544800Y372850D02*
G54D33*
D03*
X557500Y385550D02*
G54D33*
D03*
X532100Y385550D02*
G54D33*
D03*
X544800Y372850D02*
G54D33*
D03*
X557500Y385550D02*
G54D33*
D03*
X440147Y363473D02*
G54D15*
D03*
G36*
X533606Y340995D02*
X554806Y340995D01*
X554806Y319795D01*
X533606Y319795D01*
X533606Y340995D01*
G37*
G36*
X568606Y392995D02*
X589806Y392995D01*
X589806Y371795D01*
X568606Y371795D01*
X568606Y392995D01*
G37*
X774575Y195329D02*
G54D11*
D03*
X724575Y195329D02*
G54D11*
D03*
X715518Y293072D02*
G54D20*
D03*
X737718Y293072D02*
G54D20*
D03*
X760018Y293072D02*
G54D20*
D03*
X737718Y351872D02*
G54D21*
D03*
G36*
X709798Y275061D02*
X719496Y270538D01*
X711887Y254225D01*
X702190Y258748D01*
X709798Y275061D01*
G37*
G36*
X737349Y262212D02*
X747047Y257691D01*
X739440Y241377D01*
X729743Y245899D01*
X737349Y262212D01*
G37*
G36*
X772800Y449000D02*
X750800Y449000D01*
X750800Y471000D01*
X772800Y471000D01*
X772800Y449000D01*
G37*
X736400Y460000D02*
G54D22*
D03*
X711000Y460000D02*
G54D22*
D03*
X711000Y383800D02*
G54D22*
D03*
X736400Y383800D02*
G54D22*
D03*
X761800Y383800D02*
G54D22*
D03*
X785722Y352300D02*
G54D16*
D03*
X785821Y384800D02*
G54D16*
D03*
X785881Y330044D02*
G54D16*
D03*
X785781Y297544D02*
G54D16*
D03*
G36*
X744486Y257545D02*
X758081Y263884D01*
X766533Y245758D01*
X752939Y239419D01*
X744486Y257545D01*
G37*
G36*
X773983Y271190D02*
X787578Y277529D01*
X796030Y259403D01*
X782435Y253064D01*
X773983Y271190D01*
G37*
X709580Y266659D02*
G54D23*
D03*
X736831Y291836D02*
G54D15*
D03*
X710246Y291311D02*
G54D15*
D03*
X712343Y263242D02*
G54D15*
D03*
X785109Y265296D02*
G54D15*
D03*
X710146Y291311D02*
G54D24*
D03*
G54D25*
X738314Y292853D02*
X738509Y293026D01*
X765831Y292836D02*
G54D15*
D03*
X785375Y461629D02*
G54D16*
D03*
X785275Y429129D02*
G54D16*
D03*
X785722Y352300D02*
G54D15*
D03*
G54D26*
X741400Y247500D02*
X751357Y247500D01*
X755509Y251652D01*
X746048Y251652D01*
X740900Y256800D01*
X750361Y256800D01*
X755509Y251652D01*
X712297Y245407D02*
G54D15*
D03*
G36*
X725975Y493129D02*
X747175Y493129D01*
X747175Y471929D01*
X725975Y471929D01*
X725975Y493129D01*
G37*
X761975Y482529D02*
G54D28*
D03*
X787275Y172029D02*
G54D14*
D03*
X756475Y489429D02*
G54D14*
D03*
X713475Y227329D02*
G54D16*
D03*
X787675Y226929D02*
G54D16*
D03*
X713475Y165729D02*
G54D16*
D03*
X974575Y195329D02*
G54D11*
D03*
X924575Y195329D02*
G54D11*
D03*
X915518Y293072D02*
G54D20*
D03*
X937718Y293072D02*
G54D20*
D03*
X960018Y293072D02*
G54D20*
D03*
X937718Y351872D02*
G54D21*
D03*
G36*
X909798Y275061D02*
X919496Y270538D01*
X911887Y254225D01*
X902190Y258748D01*
X909798Y275061D01*
G37*
G36*
X937349Y262212D02*
X947047Y257691D01*
X939440Y241377D01*
X929743Y245899D01*
X937349Y262212D01*
G37*
G36*
X972800Y449000D02*
X950800Y449000D01*
X950800Y471000D01*
X972800Y471000D01*
X972800Y449000D01*
G37*
X936400Y460000D02*
G54D22*
D03*
X911000Y460000D02*
G54D22*
D03*
X911000Y383800D02*
G54D22*
D03*
X936400Y383800D02*
G54D22*
D03*
X961800Y383800D02*
G54D22*
D03*
X985722Y352300D02*
G54D16*
D03*
X985821Y384800D02*
G54D16*
D03*
X985881Y330044D02*
G54D16*
D03*
X985781Y297544D02*
G54D16*
D03*
G36*
X944486Y257545D02*
X958081Y263884D01*
X966533Y245758D01*
X952939Y239419D01*
X944486Y257545D01*
G37*
G36*
X973983Y271190D02*
X987578Y277529D01*
X996030Y259403D01*
X982435Y253064D01*
X973983Y271190D01*
G37*
X909580Y266659D02*
G54D23*
D03*
X936831Y291836D02*
G54D15*
D03*
X910246Y291311D02*
G54D15*
D03*
X912343Y263242D02*
G54D15*
D03*
X985109Y265296D02*
G54D15*
D03*
X910146Y291311D02*
G54D24*
D03*
G54D25*
X938314Y292853D02*
X938509Y293026D01*
X965831Y292836D02*
G54D15*
D03*
X985375Y461629D02*
G54D16*
D03*
X985275Y429129D02*
G54D16*
D03*
X985722Y352300D02*
G54D15*
D03*
G54D26*
X941400Y247500D02*
X951357Y247500D01*
X955509Y251652D01*
X946048Y251652D01*
X940900Y256800D01*
X950361Y256800D01*
X955509Y251652D01*
X912297Y245407D02*
G54D15*
D03*
G36*
X925975Y493129D02*
X947175Y493129D01*
X947175Y471929D01*
X925975Y471929D01*
X925975Y493129D01*
G37*
X961975Y482529D02*
G54D28*
D03*
X987275Y172029D02*
G54D14*
D03*
X956475Y489429D02*
G54D14*
D03*
X913475Y227329D02*
G54D16*
D03*
X987675Y226929D02*
G54D16*
D03*
X913475Y165729D02*
G54D16*
D03*
X874575Y195329D02*
G54D11*
D03*
X824575Y195329D02*
G54D11*
D03*
X815518Y293072D02*
G54D20*
D03*
X837718Y293072D02*
G54D20*
D03*
X860018Y293072D02*
G54D20*
D03*
X837718Y351872D02*
G54D21*
D03*
G36*
X809798Y275061D02*
X819496Y270538D01*
X811887Y254225D01*
X802190Y258748D01*
X809798Y275061D01*
G37*
G36*
X837349Y262212D02*
X847047Y257691D01*
X839440Y241377D01*
X829743Y245899D01*
X837349Y262212D01*
G37*
G36*
X872800Y449000D02*
X850800Y449000D01*
X850800Y471000D01*
X872800Y471000D01*
X872800Y449000D01*
G37*
X836400Y460000D02*
G54D22*
D03*
X811000Y460000D02*
G54D22*
D03*
X811000Y383800D02*
G54D22*
D03*
X836400Y383800D02*
G54D22*
D03*
X861800Y383800D02*
G54D22*
D03*
X885722Y352300D02*
G54D16*
D03*
X885821Y384800D02*
G54D16*
D03*
X885881Y330044D02*
G54D16*
D03*
X885781Y297544D02*
G54D16*
D03*
G36*
X844486Y257545D02*
X858081Y263884D01*
X866533Y245758D01*
X852939Y239419D01*
X844486Y257545D01*
G37*
G36*
X873983Y271190D02*
X887578Y277529D01*
X896030Y259403D01*
X882435Y253064D01*
X873983Y271190D01*
G37*
X809580Y266659D02*
G54D23*
D03*
X836831Y291836D02*
G54D15*
D03*
X810246Y291311D02*
G54D15*
D03*
X812343Y263242D02*
G54D15*
D03*
X885109Y265296D02*
G54D15*
D03*
X810146Y291311D02*
G54D24*
D03*
G54D25*
X838314Y292853D02*
X838509Y293026D01*
X865831Y292836D02*
G54D15*
D03*
X885375Y461629D02*
G54D16*
D03*
X885275Y429129D02*
G54D16*
D03*
X885722Y352300D02*
G54D15*
D03*
G54D26*
X841400Y247500D02*
X851357Y247500D01*
X855509Y251652D01*
X846048Y251652D01*
X840900Y256800D01*
X850361Y256800D01*
X855509Y251652D01*
X812297Y245407D02*
G54D15*
D03*
G36*
X825975Y493129D02*
X847175Y493129D01*
X847175Y471929D01*
X825975Y471929D01*
X825975Y493129D01*
G37*
X861975Y482529D02*
G54D28*
D03*
X887275Y172029D02*
G54D14*
D03*
X856475Y489429D02*
G54D14*
D03*
X813475Y227329D02*
G54D16*
D03*
X887675Y226929D02*
G54D16*
D03*
X813475Y165729D02*
G54D16*
D03*
M02*
