%FSLAX34Y34*%
%MOMM*%
%LNCOPPER_BOTTOM*%
G71*
G01*
%ADD10C, 3.500*%
%ADD11C, 3.000*%
%ADD12C, 2.300*%
%ADD13C, 1.600*%
%ADD14C, 1.600*%
%ADD15C, 1.400*%
%ADD16C, 1.600*%
%ADD17C, 1.400*%
%ADD18C, 0.600*%
%ADD19C, 0.400*%
%ADD20C, 0.800*%
%ADD21C, 1.200*%
%ADD22C, 1.520*%
%ADD23R, 1.800X1.300*%
%ADD24R, 1.300X1.800*%
%ADD25C, 0.300*%
%ADD26R, 1.600X0.870*%
%ADD27R, 1.100X1.800*%
%ADD28R, 1.800X1.100*%
%ADD29C, 1.800*%
%ADD30C, 2.800*%
%ADD31C, 1.200*%
%LPD*%
X24000Y535500D02*
G54D10*
D03*
X254000Y535500D02*
G54D10*
D03*
X70492Y907800D02*
G54D11*
D03*
X170492Y907800D02*
G54D11*
D03*
X20492Y642800D02*
G54D11*
D03*
X70492Y642800D02*
G54D11*
D03*
X24000Y535500D02*
G54D10*
D03*
X254000Y535500D02*
G54D10*
D03*
X24000Y535500D02*
G54D10*
D03*
X254000Y535500D02*
G54D10*
D03*
X229092Y912000D02*
G54D12*
D03*
X229092Y886600D02*
G54D12*
D03*
X229092Y861200D02*
G54D12*
D03*
X229092Y912000D02*
G54D12*
D03*
X229092Y886600D02*
G54D12*
D03*
X229092Y861200D02*
G54D12*
D03*
X575000Y442800D02*
G54D11*
D03*
X525000Y442800D02*
G54D11*
D03*
X241000Y442300D02*
G54D11*
D03*
X191000Y442300D02*
G54D11*
D03*
G36*
X215084Y685400D02*
X215084Y701400D01*
X231084Y701400D01*
X231084Y685400D01*
X215084Y685400D01*
G37*
X248584Y693400D02*
G54D13*
D03*
X223084Y769900D02*
G54D13*
D03*
X248584Y769900D02*
G54D13*
D03*
X234386Y668598D02*
G54D14*
D03*
G36*
X267786Y660598D02*
X251786Y660598D01*
X251786Y676598D01*
X267786Y676598D01*
X267786Y660598D01*
G37*
X475000Y442800D02*
G54D11*
D03*
X425000Y442800D02*
G54D11*
D03*
X20677Y602824D02*
G54D14*
D03*
G54D15*
X241000Y442300D02*
X240600Y488700D01*
X76200Y490200D01*
X76000Y637292D01*
X70492Y642800D01*
G54D15*
X70492Y907800D02*
X77400Y907800D01*
X118000Y908800D01*
X118400Y948800D01*
X160492Y643800D02*
G54D11*
D03*
G54D15*
X70492Y642800D02*
X159492Y642800D01*
X160492Y643800D01*
X20692Y906500D02*
G54D11*
D03*
X143800Y948800D02*
G54D12*
D03*
X118400Y948800D02*
G54D12*
D03*
X93000Y948800D02*
G54D12*
D03*
X143800Y948800D02*
G54D12*
D03*
X118400Y948800D02*
G54D12*
D03*
X93000Y948800D02*
G54D12*
D03*
G54D15*
X248584Y693400D02*
X259484Y668899D01*
X259786Y668598D01*
X259786Y643914D01*
X260700Y643000D01*
X161292Y643000D01*
X160492Y643800D01*
G36*
X371200Y699600D02*
X355200Y699600D01*
X355200Y715600D01*
X371200Y715600D01*
X371200Y699600D01*
G37*
X337800Y707600D02*
G54D16*
D03*
X312400Y707600D02*
G54D16*
D03*
X312400Y631400D02*
G54D16*
D03*
X337800Y631400D02*
G54D16*
D03*
X363200Y631400D02*
G54D16*
D03*
G36*
X370200Y700600D02*
X356200Y700600D01*
X356200Y714600D01*
X370200Y714600D01*
X370200Y700600D01*
G37*
X337800Y707600D02*
G54D17*
D03*
X312400Y707600D02*
G54D17*
D03*
X312400Y631400D02*
G54D17*
D03*
X337800Y631400D02*
G54D17*
D03*
X363200Y631400D02*
G54D17*
D03*
G54D15*
X325000Y442800D02*
X342994Y479553D01*
X338231Y539436D01*
X337214Y540453D01*
G54D18*
X386509Y512896D02*
X387121Y599900D01*
X338231Y539436D02*
G54D14*
D03*
X311646Y538911D02*
G54D14*
D03*
X313743Y510842D02*
G54D14*
D03*
X386509Y512896D02*
G54D14*
D03*
X367231Y540436D02*
G54D14*
D03*
G54D19*
X312400Y631400D02*
X312400Y595267D01*
X367231Y540436D01*
G54D19*
X386509Y512896D02*
X337622Y512896D01*
X336394Y514124D01*
X387122Y599900D02*
G54D14*
D03*
X375000Y442800D02*
G54D11*
D03*
X325000Y442800D02*
G54D11*
D03*
G36*
X470225Y699471D02*
X454225Y699471D01*
X454225Y715471D01*
X470225Y715471D01*
X470225Y699471D01*
G37*
X436825Y707471D02*
G54D16*
D03*
X411425Y707471D02*
G54D16*
D03*
X411425Y631271D02*
G54D16*
D03*
X436825Y631271D02*
G54D16*
D03*
X462225Y631271D02*
G54D16*
D03*
G36*
X469225Y700471D02*
X455225Y700471D01*
X455225Y714471D01*
X469225Y714471D01*
X469225Y700471D01*
G37*
X436825Y707471D02*
G54D17*
D03*
X411425Y707471D02*
G54D17*
D03*
X411425Y631271D02*
G54D17*
D03*
X436825Y631271D02*
G54D17*
D03*
X462225Y631271D02*
G54D17*
D03*
G54D15*
X425000Y442800D02*
X442018Y479424D01*
X437256Y539307D01*
X436239Y540324D01*
G54D18*
X485534Y512768D02*
X486146Y599771D01*
X437256Y539307D02*
G54D14*
D03*
X410671Y538783D02*
G54D14*
D03*
X412768Y510713D02*
G54D14*
D03*
X485534Y512768D02*
G54D14*
D03*
X466256Y540307D02*
G54D14*
D03*
G54D19*
X411425Y631271D02*
X411425Y595138D01*
X466256Y540307D01*
G54D19*
X485534Y512768D02*
X436647Y512768D01*
X435419Y513996D01*
X486147Y599771D02*
G54D14*
D03*
G36*
X569425Y699571D02*
X553425Y699571D01*
X553425Y715571D01*
X569425Y715571D01*
X569425Y699571D01*
G37*
X536025Y707571D02*
G54D16*
D03*
X510625Y707571D02*
G54D16*
D03*
X510625Y631371D02*
G54D16*
D03*
X536025Y631371D02*
G54D16*
D03*
X561425Y631371D02*
G54D16*
D03*
G36*
X568425Y700571D02*
X554425Y700571D01*
X554425Y714571D01*
X568425Y714571D01*
X568425Y700571D01*
G37*
X536025Y707571D02*
G54D17*
D03*
X510625Y707571D02*
G54D17*
D03*
X510625Y631371D02*
G54D17*
D03*
X536025Y631371D02*
G54D17*
D03*
X561425Y631371D02*
G54D17*
D03*
G54D15*
X525000Y442800D02*
X541218Y479524D01*
X536456Y539407D01*
X535439Y540424D01*
G54D18*
X584734Y512868D02*
X585346Y599871D01*
X536456Y539407D02*
G54D14*
D03*
X509871Y538883D02*
G54D14*
D03*
X511968Y510813D02*
G54D14*
D03*
X584734Y512868D02*
G54D14*
D03*
X565456Y540407D02*
G54D14*
D03*
G54D19*
X510625Y631371D02*
X510625Y595238D01*
X565456Y540407D01*
G54D19*
X584734Y512868D02*
X535847Y512868D01*
X534619Y514096D01*
X585347Y599871D02*
G54D14*
D03*
G54D20*
X229092Y886600D02*
X200800Y875200D01*
X201100Y875500D01*
X201000Y769900D01*
X223084Y769900D01*
G54D15*
X229092Y886600D02*
X275600Y886800D01*
X308600Y907900D01*
X328222Y907909D01*
X308600Y907900D01*
G54D15*
X229092Y861200D02*
X275600Y861400D01*
X308600Y882500D01*
X328522Y881606D01*
X328922Y945322D02*
G54D14*
D03*
X328832Y817078D02*
G54D14*
D03*
X507639Y955295D02*
G54D21*
D03*
X487639Y955295D02*
G54D21*
D03*
X467639Y955295D02*
G54D21*
D03*
X447639Y955295D02*
G54D21*
D03*
X427639Y955295D02*
G54D21*
D03*
X407639Y955295D02*
G54D21*
D03*
X387639Y955295D02*
G54D21*
D03*
X367639Y955295D02*
G54D21*
D03*
X352639Y925295D02*
G54D21*
D03*
X352639Y905295D02*
G54D21*
D03*
X352639Y885295D02*
G54D21*
D03*
X352639Y865295D02*
G54D21*
D03*
X352639Y845295D02*
G54D21*
D03*
X352639Y825295D02*
G54D21*
D03*
X367600Y795500D02*
G54D21*
D03*
X387600Y795500D02*
G54D21*
D03*
X407600Y795500D02*
G54D21*
D03*
X427600Y795500D02*
G54D21*
D03*
X447600Y795500D02*
G54D21*
D03*
X467600Y795500D02*
G54D21*
D03*
X487600Y795500D02*
G54D21*
D03*
X507600Y795500D02*
G54D21*
D03*
X338000Y795600D02*
G54D14*
D03*
G54D19*
X338000Y795600D02*
X338300Y767500D01*
X338000Y707800D01*
X337800Y707600D01*
G54D19*
X338000Y692171D02*
X536000Y692171D01*
X536000Y719375D01*
X536025Y734400D01*
G54D19*
X436825Y707471D02*
X436825Y734425D01*
X437000Y734600D01*
X328122Y842878D02*
G54D14*
D03*
X313222Y492178D02*
G54D14*
D03*
X141000Y442300D02*
G54D11*
D03*
X91000Y442300D02*
G54D11*
D03*
G54D15*
X141000Y442300D02*
X141000Y489900D01*
X140900Y490000D01*
X413522Y492878D02*
G54D14*
D03*
X512322Y493278D02*
G54D14*
D03*
G36*
X267800Y795600D02*
X267800Y810800D01*
X283000Y810800D01*
X283000Y795600D01*
X267800Y795600D01*
G37*
X275400Y828600D02*
G54D22*
D03*
G36*
X267800Y777700D02*
X283000Y777700D01*
X283000Y762500D01*
X267800Y762500D01*
X267800Y777700D01*
G37*
G36*
X268000Y853800D02*
X268000Y869000D01*
X283200Y869000D01*
X283200Y853800D01*
X268000Y853800D01*
G37*
X275600Y886800D02*
G54D22*
D03*
G54D20*
X229092Y861200D02*
X229092Y849508D01*
X275400Y803200D01*
G36*
X303400Y980800D02*
X318600Y980800D01*
X318600Y965600D01*
X303400Y965600D01*
X303400Y980800D01*
G37*
G36*
X301000Y874900D02*
X301000Y890100D01*
X316200Y890100D01*
X316200Y874900D01*
X301000Y874900D01*
G37*
X308600Y907900D02*
G54D22*
D03*
G36*
X320622Y874909D02*
X320622Y890109D01*
X335822Y890109D01*
X335822Y874909D01*
X320622Y874909D01*
G37*
X328222Y907909D02*
G54D22*
D03*
G36*
X474600Y989400D02*
X489800Y989400D01*
X489800Y974200D01*
X474600Y974200D01*
X474600Y989400D01*
G37*
X507600Y981800D02*
G54D22*
D03*
G54D19*
X337800Y707600D02*
X337800Y692371D01*
X338000Y692171D01*
G54D19*
X436825Y707471D02*
X436825Y692075D01*
X437000Y691900D01*
G36*
X330300Y737600D02*
X345500Y737600D01*
X345500Y722400D01*
X330300Y722400D01*
X330300Y737600D01*
G37*
X363300Y730000D02*
G54D22*
D03*
G36*
X429400Y737600D02*
X444600Y737600D01*
X444600Y722400D01*
X429400Y722400D01*
X429400Y737600D01*
G37*
X462400Y730000D02*
G54D22*
D03*
G36*
X528300Y737600D02*
X543500Y737600D01*
X543500Y722400D01*
X528300Y722400D01*
X528300Y737600D01*
G37*
X561300Y730000D02*
G54D22*
D03*
X508401Y902216D02*
G54D23*
D03*
X508301Y869716D02*
G54D23*
D03*
X467701Y901516D02*
G54D23*
D03*
X467601Y869016D02*
G54D23*
D03*
G36*
X444212Y936028D02*
X457212Y936028D01*
X457212Y918028D01*
X444212Y918028D01*
X444212Y936028D01*
G37*
X483212Y926928D02*
G54D24*
D03*
X406101Y856416D02*
G54D23*
D03*
X406001Y823916D02*
G54D23*
D03*
X430801Y856516D02*
G54D23*
D03*
X430701Y824016D02*
G54D23*
D03*
G36*
X353912Y778028D02*
X366912Y778028D01*
X366912Y760028D01*
X353912Y760028D01*
X353912Y778028D01*
G37*
X392912Y768928D02*
G54D24*
D03*
G54D19*
X367600Y795500D02*
X367600Y776216D01*
X360412Y769028D01*
G54D19*
X387600Y795500D02*
X387600Y774239D01*
X392912Y768928D01*
G54D19*
X407600Y795500D02*
X407600Y822317D01*
X406001Y823916D01*
G54D19*
X427600Y795500D02*
X427600Y820915D01*
X430701Y824016D01*
G36*
X406200Y775500D02*
X421400Y775500D01*
X421400Y760300D01*
X406200Y760300D01*
X406200Y775500D01*
G37*
X439200Y767900D02*
G54D22*
D03*
G54D19*
X413800Y767900D02*
X413800Y763600D01*
X404100Y753900D01*
X362500Y753900D01*
X361200Y755200D01*
X361200Y768239D01*
X360412Y769028D01*
G36*
X479700Y775800D02*
X494900Y775800D01*
X494900Y760600D01*
X479700Y760600D01*
X479700Y775800D01*
G37*
X512700Y768200D02*
G54D22*
D03*
X538100Y768200D02*
G54D22*
D03*
X563500Y768200D02*
G54D22*
D03*
G54D19*
X413800Y767900D02*
X413800Y766300D01*
X426500Y753600D01*
X472700Y753600D01*
X487300Y768200D01*
G54D19*
X487600Y795500D02*
X487700Y795500D01*
X502200Y781000D01*
X525300Y781000D01*
X538100Y768200D01*
G54D25*
X467600Y955500D02*
X467600Y901617D01*
X467701Y901516D01*
G54D25*
X507600Y955500D02*
X507600Y903017D01*
X508401Y902216D01*
G54D25*
X447600Y955500D02*
X447600Y930139D01*
X450712Y927028D01*
G54D25*
X507639Y955295D02*
X507639Y935739D01*
X498800Y926900D01*
X483239Y926900D01*
X483212Y926928D01*
G54D19*
X367639Y955295D02*
X367639Y938261D01*
X405700Y900200D01*
X405700Y856817D01*
X406101Y856416D01*
X430701Y856416D01*
X430801Y856516D01*
X430801Y865701D01*
X435500Y870400D01*
X466217Y870400D01*
X467601Y869016D01*
X507601Y869016D01*
X508301Y869716D01*
X508301Y839501D01*
X508100Y839300D01*
X508301Y839501D02*
G54D21*
D03*
G54D25*
X482200Y981800D02*
X342600Y981900D01*
X342600Y897000D01*
X340800Y895200D01*
X340800Y895088D01*
X328222Y882509D01*
X630622Y947422D02*
G54D14*
D03*
X630532Y819178D02*
G54D14*
D03*
X809339Y957395D02*
G54D21*
D03*
X789339Y957395D02*
G54D21*
D03*
X769339Y957395D02*
G54D21*
D03*
X749339Y957395D02*
G54D21*
D03*
X729339Y957395D02*
G54D21*
D03*
X709339Y957395D02*
G54D21*
D03*
X689339Y957395D02*
G54D21*
D03*
X669339Y957395D02*
G54D21*
D03*
X654339Y927395D02*
G54D21*
D03*
X654339Y907395D02*
G54D21*
D03*
X654339Y887395D02*
G54D21*
D03*
X654339Y867395D02*
G54D21*
D03*
X654339Y847395D02*
G54D21*
D03*
X654339Y827395D02*
G54D21*
D03*
X669300Y797600D02*
G54D21*
D03*
X689300Y797600D02*
G54D21*
D03*
X709300Y797600D02*
G54D21*
D03*
X729300Y797600D02*
G54D21*
D03*
X749300Y797600D02*
G54D21*
D03*
X769300Y797600D02*
G54D21*
D03*
X789300Y797600D02*
G54D21*
D03*
X809300Y797600D02*
G54D21*
D03*
X639700Y797700D02*
G54D14*
D03*
X629822Y844978D02*
G54D14*
D03*
G36*
X736216Y974095D02*
X721016Y974095D01*
X721016Y989295D01*
X736216Y989295D01*
X736216Y974095D01*
G37*
X614222Y912609D02*
G54D26*
D03*
X614222Y882209D02*
G54D26*
D03*
G36*
X622322Y877009D02*
X622322Y892209D01*
X637522Y892209D01*
X637522Y877009D01*
X622322Y877009D01*
G37*
X629922Y910009D02*
G54D22*
D03*
G36*
X763300Y989500D02*
X778500Y989500D01*
X778500Y974300D01*
X763300Y974300D01*
X763300Y989500D01*
G37*
X796300Y981900D02*
G54D22*
D03*
X810101Y904316D02*
G54D23*
D03*
X810001Y871816D02*
G54D23*
D03*
X769401Y903616D02*
G54D23*
D03*
X769301Y871116D02*
G54D23*
D03*
G36*
X745912Y938128D02*
X758912Y938128D01*
X758912Y920128D01*
X745912Y920128D01*
X745912Y938128D01*
G37*
X784912Y929028D02*
G54D24*
D03*
X707801Y858516D02*
G54D23*
D03*
X707701Y826016D02*
G54D23*
D03*
X732501Y858616D02*
G54D23*
D03*
X732401Y826116D02*
G54D23*
D03*
G36*
X636212Y779728D02*
X649212Y779728D01*
X649212Y761728D01*
X636212Y761728D01*
X636212Y779728D01*
G37*
X675212Y770628D02*
G54D24*
D03*
G54D19*
X669700Y796800D02*
X649900Y777916D01*
X642712Y770728D01*
G54D19*
X689300Y797200D02*
X675212Y770628D01*
G54D19*
X709300Y797600D02*
X709300Y824417D01*
X707701Y826016D01*
G54D19*
X729300Y797600D02*
X729300Y823015D01*
X732401Y826116D01*
G36*
X691500Y781200D02*
X706700Y781200D01*
X706700Y766000D01*
X691500Y766000D01*
X691500Y781200D01*
G37*
X724500Y773600D02*
G54D22*
D03*
G54D25*
X769300Y957600D02*
X769300Y903717D01*
X769401Y903616D01*
G54D25*
X809300Y957600D02*
X809300Y905117D01*
X810101Y904316D01*
G54D25*
X749300Y957600D02*
X749300Y932239D01*
X752412Y929128D01*
G54D25*
X809339Y957395D02*
X809339Y937839D01*
X800500Y929000D01*
X784939Y929000D01*
X784912Y929028D01*
G54D19*
X669339Y957395D02*
X669339Y940361D01*
X707400Y902300D01*
X707400Y858917D01*
X707801Y858516D01*
X732401Y858516D01*
X732501Y858616D01*
X732501Y867801D01*
X737200Y872500D01*
X767917Y872500D01*
X769301Y871116D01*
X809301Y871116D01*
X810001Y871816D01*
X703239Y979195D02*
G54D21*
D03*
X679239Y979195D02*
G54D21*
D03*
X749400Y770100D02*
G54D21*
D03*
X769400Y770100D02*
G54D21*
D03*
G54D18*
X629922Y910009D02*
X616822Y910009D01*
X614222Y912609D01*
G54D18*
X629922Y884609D02*
X616622Y884609D01*
X614222Y882209D01*
G36*
X784300Y781500D02*
X799500Y781500D01*
X799500Y766300D01*
X784300Y766300D01*
X784300Y781500D01*
G37*
X817300Y773900D02*
G54D22*
D03*
X630522Y699422D02*
G54D14*
D03*
X630432Y571178D02*
G54D14*
D03*
X809239Y709395D02*
G54D21*
D03*
X789239Y709395D02*
G54D21*
D03*
X769239Y709395D02*
G54D21*
D03*
X749239Y709395D02*
G54D21*
D03*
X729239Y709395D02*
G54D21*
D03*
X709239Y709395D02*
G54D21*
D03*
X689239Y709395D02*
G54D21*
D03*
X669239Y709395D02*
G54D21*
D03*
X654239Y679395D02*
G54D21*
D03*
X654239Y659395D02*
G54D21*
D03*
X654239Y639395D02*
G54D21*
D03*
X654239Y619395D02*
G54D21*
D03*
X654239Y599395D02*
G54D21*
D03*
X654239Y579395D02*
G54D21*
D03*
X669200Y549600D02*
G54D21*
D03*
X689200Y549600D02*
G54D21*
D03*
X709200Y549600D02*
G54D21*
D03*
X729200Y549600D02*
G54D21*
D03*
X749200Y549600D02*
G54D21*
D03*
X769200Y549600D02*
G54D21*
D03*
X789200Y549600D02*
G54D21*
D03*
X809200Y549600D02*
G54D21*
D03*
X639600Y549700D02*
G54D14*
D03*
X629722Y596978D02*
G54D14*
D03*
G36*
X736116Y726095D02*
X720916Y726095D01*
X720916Y741295D01*
X736116Y741295D01*
X736116Y726095D01*
G37*
X614122Y664609D02*
G54D26*
D03*
X614122Y634209D02*
G54D26*
D03*
G36*
X622222Y629009D02*
X622222Y644209D01*
X637422Y644209D01*
X637422Y629009D01*
X622222Y629009D01*
G37*
X629822Y662009D02*
G54D22*
D03*
G36*
X763200Y741500D02*
X778400Y741500D01*
X778400Y726300D01*
X763200Y726300D01*
X763200Y741500D01*
G37*
X796200Y733900D02*
G54D22*
D03*
X810001Y656316D02*
G54D23*
D03*
X809901Y623816D02*
G54D23*
D03*
X769301Y655616D02*
G54D23*
D03*
X769201Y623116D02*
G54D23*
D03*
G36*
X745812Y690128D02*
X758812Y690128D01*
X758812Y672128D01*
X745812Y672128D01*
X745812Y690128D01*
G37*
X784812Y681028D02*
G54D24*
D03*
X707701Y610516D02*
G54D23*
D03*
X707601Y578016D02*
G54D23*
D03*
X732401Y610616D02*
G54D23*
D03*
X732301Y578116D02*
G54D23*
D03*
G36*
X636112Y531728D02*
X649112Y531728D01*
X649112Y513728D01*
X636112Y513728D01*
X636112Y531728D01*
G37*
X675112Y522628D02*
G54D24*
D03*
G54D19*
X669600Y548800D02*
X649800Y529916D01*
X642612Y522728D01*
G54D19*
X689200Y549200D02*
X675112Y522628D01*
G54D19*
X709200Y549600D02*
X709200Y576417D01*
X707601Y578016D01*
G54D19*
X729200Y549600D02*
X729200Y575015D01*
X732301Y578116D01*
G36*
X691400Y533200D02*
X706600Y533200D01*
X706600Y518000D01*
X691400Y518000D01*
X691400Y533200D01*
G37*
X724400Y525600D02*
G54D22*
D03*
G54D25*
X769200Y709600D02*
X769200Y655717D01*
X769301Y655616D01*
G54D25*
X809200Y709600D02*
X809200Y657117D01*
X810001Y656316D01*
G54D25*
X749200Y709600D02*
X749200Y684239D01*
X752312Y681128D01*
G54D25*
X809239Y709395D02*
X809239Y689839D01*
X800400Y681000D01*
X784839Y681000D01*
X784812Y681028D01*
G54D19*
X669239Y709395D02*
X669239Y692361D01*
X707300Y654300D01*
X707300Y610917D01*
X707701Y610516D01*
X732301Y610516D01*
X732401Y610616D01*
X732401Y619801D01*
X737100Y624500D01*
X767817Y624500D01*
X769201Y623116D01*
X809201Y623116D01*
X809901Y623816D01*
X703139Y731195D02*
G54D21*
D03*
X679139Y731195D02*
G54D21*
D03*
X749300Y522100D02*
G54D21*
D03*
X769300Y522100D02*
G54D21*
D03*
G54D18*
X629822Y662009D02*
X616722Y662009D01*
X614122Y664609D01*
G54D18*
X629822Y636609D02*
X616522Y636609D01*
X614122Y634209D01*
G36*
X784200Y533500D02*
X799400Y533500D01*
X799400Y518300D01*
X784200Y518300D01*
X784200Y533500D01*
G37*
X817200Y525900D02*
G54D22*
D03*
X392882Y50736D02*
G54D11*
D03*
X392882Y100736D02*
G54D11*
D03*
G36*
X649553Y55511D02*
X649553Y71511D01*
X665553Y71511D01*
X665553Y55511D01*
X649553Y55511D01*
G37*
X657553Y88911D02*
G54D16*
D03*
X657553Y114311D02*
G54D16*
D03*
X581353Y114311D02*
G54D16*
D03*
X581353Y88911D02*
G54D16*
D03*
X581353Y63511D02*
G54D16*
D03*
G36*
X650553Y56511D02*
X650553Y70511D01*
X664553Y70511D01*
X664553Y56511D01*
X650553Y56511D01*
G37*
X657553Y88911D02*
G54D17*
D03*
X657553Y114311D02*
G54D17*
D03*
X581353Y114311D02*
G54D17*
D03*
X581353Y88911D02*
G54D17*
D03*
X581353Y63511D02*
G54D17*
D03*
G54D15*
X392882Y100736D02*
X429506Y83718D01*
X489389Y88480D01*
X490406Y89497D01*
G54D18*
X462849Y40202D02*
X549853Y39590D01*
X489389Y88480D02*
G54D14*
D03*
X488864Y115066D02*
G54D14*
D03*
X460795Y112968D02*
G54D14*
D03*
X462849Y40202D02*
G54D14*
D03*
X490389Y59480D02*
G54D14*
D03*
G54D19*
X581353Y114311D02*
X545220Y114311D01*
X490389Y59480D01*
G54D19*
X462849Y40202D02*
X462849Y89089D01*
X464077Y90317D01*
X549853Y39590D02*
G54D14*
D03*
G54D19*
X657553Y88911D02*
X684507Y88911D01*
X684682Y88736D01*
X442960Y113014D02*
G54D14*
D03*
G54D19*
X657553Y88911D02*
X642157Y88911D01*
X641982Y88736D01*
G36*
X687682Y96336D02*
X687682Y81136D01*
X672482Y81136D01*
X672482Y96336D01*
X687682Y96336D01*
G37*
X680082Y63336D02*
G54D22*
D03*
G54D19*
X642082Y89136D02*
X642082Y119636D01*
G54D19*
X642082Y88936D02*
X642082Y33536D01*
X642282Y33336D01*
X638582Y115236D02*
G54D27*
D03*
X638482Y38636D02*
G54D27*
D03*
X44082Y50536D02*
G54D11*
D03*
X44082Y100536D02*
G54D11*
D03*
G36*
X300753Y55311D02*
X300753Y71311D01*
X316753Y71311D01*
X316753Y55311D01*
X300753Y55311D01*
G37*
X308753Y88711D02*
G54D16*
D03*
X308753Y114111D02*
G54D16*
D03*
X232553Y114111D02*
G54D16*
D03*
X232553Y88711D02*
G54D16*
D03*
X232553Y63311D02*
G54D16*
D03*
G36*
X301753Y56311D02*
X301753Y70311D01*
X315753Y70311D01*
X315753Y56311D01*
X301753Y56311D01*
G37*
X308753Y88711D02*
G54D17*
D03*
X308753Y114111D02*
G54D17*
D03*
X232553Y114111D02*
G54D17*
D03*
X232553Y88711D02*
G54D17*
D03*
X232553Y63311D02*
G54D17*
D03*
G54D15*
X44082Y100536D02*
X80706Y83518D01*
X140589Y88280D01*
X141606Y89297D01*
G54D18*
X114049Y40002D02*
X201053Y39390D01*
X140589Y88280D02*
G54D14*
D03*
X140064Y114866D02*
G54D14*
D03*
X111995Y112768D02*
G54D14*
D03*
X114049Y40002D02*
G54D14*
D03*
X141589Y59280D02*
G54D14*
D03*
G54D19*
X232553Y114111D02*
X196420Y114111D01*
X141589Y59280D01*
G54D19*
X114049Y40002D02*
X114049Y88889D01*
X115277Y90117D01*
X201053Y39390D02*
G54D14*
D03*
G54D19*
X308753Y88711D02*
X335707Y88711D01*
X335882Y88536D01*
X94160Y112814D02*
G54D14*
D03*
G54D19*
X308753Y88711D02*
X293357Y88711D01*
X293182Y88536D01*
G36*
X338882Y96136D02*
X338882Y80936D01*
X323682Y80936D01*
X323682Y96136D01*
X338882Y96136D01*
G37*
X331282Y63136D02*
G54D22*
D03*
G54D19*
X293282Y88936D02*
X293282Y119436D01*
G54D19*
X293282Y88736D02*
X293282Y33336D01*
X293482Y33136D01*
X289782Y115036D02*
G54D27*
D03*
X289682Y38436D02*
G54D27*
D03*
X974575Y692329D02*
G54D11*
D03*
X924575Y692329D02*
G54D11*
D03*
G36*
X969800Y949000D02*
X953800Y949000D01*
X953800Y965000D01*
X969800Y965000D01*
X969800Y949000D01*
G37*
X936400Y957000D02*
G54D16*
D03*
X911000Y957000D02*
G54D16*
D03*
X911000Y880800D02*
G54D16*
D03*
X936400Y880800D02*
G54D16*
D03*
X961800Y880800D02*
G54D16*
D03*
G36*
X968800Y964000D02*
X954800Y964000D01*
X954800Y950000D01*
X968800Y950000D01*
X968800Y964000D01*
G37*
X936400Y957000D02*
G54D17*
D03*
X911000Y957000D02*
G54D17*
D03*
X911000Y880800D02*
G54D17*
D03*
X936400Y880800D02*
G54D17*
D03*
X961800Y880800D02*
G54D17*
D03*
G54D15*
X924575Y692329D02*
X941594Y728953D01*
X936831Y788836D01*
X935814Y789853D01*
G54D18*
X985109Y762296D02*
X985721Y849300D01*
X936831Y788836D02*
G54D14*
D03*
X910246Y788311D02*
G54D14*
D03*
X912343Y760242D02*
G54D14*
D03*
X985109Y762296D02*
G54D14*
D03*
X965831Y789836D02*
G54D14*
D03*
G54D19*
X911000Y880800D02*
X911000Y844667D01*
X965831Y789836D01*
G54D19*
X985109Y762296D02*
X936222Y762296D01*
X934994Y763524D01*
X985722Y849300D02*
G54D14*
D03*
G54D19*
X936400Y957000D02*
X936400Y983954D01*
X936575Y984129D01*
X912297Y742407D02*
G54D14*
D03*
G54D19*
X936400Y957000D02*
X936400Y941604D01*
X936575Y941429D01*
G36*
X928975Y987129D02*
X944175Y987129D01*
X944175Y971929D01*
X928975Y971929D01*
X928975Y987129D01*
G37*
X961975Y979529D02*
G54D22*
D03*
G54D19*
X936175Y941529D02*
X905675Y941529D01*
G54D19*
X936375Y941529D02*
X991775Y941529D01*
X991975Y941729D01*
X910075Y938029D02*
G54D28*
D03*
X986675Y937929D02*
G54D28*
D03*
X675575Y195329D02*
G54D11*
D03*
X625575Y195329D02*
G54D11*
D03*
G36*
X670800Y452000D02*
X654800Y452000D01*
X654800Y468000D01*
X670800Y468000D01*
X670800Y452000D01*
G37*
X637400Y460000D02*
G54D16*
D03*
X612000Y460000D02*
G54D16*
D03*
X612000Y383800D02*
G54D16*
D03*
X637400Y383800D02*
G54D16*
D03*
X662800Y383800D02*
G54D16*
D03*
G36*
X669800Y453000D02*
X655800Y453000D01*
X655800Y467000D01*
X669800Y467000D01*
X669800Y453000D01*
G37*
X637400Y460000D02*
G54D17*
D03*
X612000Y460000D02*
G54D17*
D03*
X612000Y383800D02*
G54D17*
D03*
X637400Y383800D02*
G54D17*
D03*
X662800Y383800D02*
G54D17*
D03*
G54D15*
X625575Y195329D02*
X642594Y231953D01*
X637831Y291836D01*
X636814Y292853D01*
G54D18*
X686109Y265296D02*
X686721Y352300D01*
X637831Y291836D02*
G54D14*
D03*
X611246Y291311D02*
G54D14*
D03*
X613343Y263242D02*
G54D14*
D03*
X686109Y265296D02*
G54D14*
D03*
X666831Y292836D02*
G54D14*
D03*
G54D19*
X612000Y383800D02*
X612000Y347667D01*
X666831Y292836D01*
G54D19*
X686109Y265296D02*
X637222Y265296D01*
X635994Y266524D01*
X686722Y352300D02*
G54D14*
D03*
G54D19*
X637400Y460000D02*
X637400Y486954D01*
X637575Y487129D01*
X613297Y245407D02*
G54D14*
D03*
G54D19*
X637400Y460000D02*
X637400Y444604D01*
X637575Y444429D01*
G36*
X629975Y490129D02*
X645175Y490129D01*
X645175Y474929D01*
X629975Y474929D01*
X629975Y490129D01*
G37*
X662975Y482529D02*
G54D22*
D03*
G54D19*
X637175Y444529D02*
X606675Y444529D01*
G54D19*
X637375Y444529D02*
X692775Y444529D01*
X692975Y444729D01*
X611075Y441029D02*
G54D28*
D03*
X687675Y440929D02*
G54D28*
D03*
X25820Y260700D02*
G54D10*
D03*
X255820Y260700D02*
G54D10*
D03*
X25820Y260700D02*
G54D10*
D03*
X255820Y260700D02*
G54D10*
D03*
X25820Y260700D02*
G54D10*
D03*
X255820Y260700D02*
G54D10*
D03*
G36*
X34832Y366461D02*
X50832Y366461D01*
X50832Y350461D01*
X34832Y350461D01*
X34832Y366461D01*
G37*
X42832Y332961D02*
G54D13*
D03*
X119332Y358461D02*
G54D13*
D03*
X119332Y332961D02*
G54D13*
D03*
X19385Y358696D02*
G54D14*
D03*
G36*
X11385Y325296D02*
X11385Y341296D01*
X27385Y341296D01*
X27385Y325296D01*
X11385Y325296D01*
G37*
X201377Y385724D02*
G54D14*
D03*
X273880Y167700D02*
G54D11*
D03*
X223880Y167700D02*
G54D11*
D03*
X173880Y167700D02*
G54D11*
D03*
X123880Y167700D02*
G54D11*
D03*
X73900Y167700D02*
G54D11*
D03*
X23900Y167700D02*
G54D11*
D03*
G36*
X63975Y287399D02*
X76975Y287399D01*
X76975Y269399D01*
X63975Y269399D01*
X63975Y287399D01*
G37*
X102975Y278299D02*
G54D24*
D03*
X53756Y241499D02*
G54D24*
D03*
G36*
X79756Y250399D02*
X92756Y250399D01*
X92756Y232399D01*
X79756Y232399D01*
X79756Y250399D01*
G37*
X163075Y242499D02*
G54D24*
D03*
X195575Y242399D02*
G54D24*
D03*
G36*
X101575Y251499D02*
X114575Y251499D01*
X114576Y233499D01*
X101576Y233499D01*
X101575Y251499D01*
G37*
X140575Y242399D02*
G54D24*
D03*
X180476Y279399D02*
G54D24*
D03*
X212975Y279299D02*
G54D24*
D03*
G36*
X118975Y288399D02*
X131975Y288399D01*
X131976Y270399D01*
X118976Y270399D01*
X118975Y288399D01*
G37*
X157975Y279299D02*
G54D24*
D03*
G54D29*
G75*
G01X121484Y281865D02*
G03X121484Y281865I-9000J0D01*
G01*
G54D29*
G75*
G01X177164Y282865D02*
G03X177164Y282865I-9000J0D01*
G01*
G54D29*
G75*
G01X105445Y242065D02*
G03X105445Y242065I-9000J0D01*
G01*
G54D29*
G75*
G01X159764Y242065D02*
G03X159764Y242065I-9000J0D01*
G01*
G54D30*
X220475Y285599D02*
X202223Y243703D01*
X202223Y246703D01*
G54D30*
X70475Y278399D02*
X57476Y301137D01*
X67652Y300961D01*
G54D30*
X25820Y260700D02*
X35555Y260700D01*
X53756Y241499D01*
X174501Y380403D02*
G54D12*
D03*
X174501Y355003D02*
G54D12*
D03*
X174501Y329603D02*
G54D12*
D03*
X174501Y380403D02*
G54D12*
D03*
X174501Y355003D02*
G54D12*
D03*
X174501Y329603D02*
G54D12*
D03*
X144047Y329973D02*
G54D14*
D03*
G36*
X270771Y322879D02*
X270771Y338079D01*
X285971Y338079D01*
X285971Y322879D01*
X270771Y322879D01*
G37*
X278371Y355879D02*
G54D22*
D03*
G36*
X210771Y322879D02*
X210771Y338079D01*
X225971Y338079D01*
X225971Y322879D01*
X210771Y322879D01*
G37*
X218371Y355879D02*
G54D22*
D03*
G36*
X136606Y392995D02*
X151806Y392995D01*
X151806Y377795D01*
X136606Y377795D01*
X136606Y392995D01*
G37*
X236100Y385550D02*
G54D31*
D03*
X248800Y372850D02*
G54D31*
D03*
X261500Y385550D02*
G54D31*
D03*
X236100Y385550D02*
G54D31*
D03*
X248800Y372850D02*
G54D31*
D03*
X261500Y385550D02*
G54D31*
D03*
X144147Y363473D02*
G54D14*
D03*
G54D20*
X119332Y358461D02*
X120039Y358461D01*
X131500Y347000D01*
X153500Y347000D01*
X153500Y349000D01*
X162500Y355000D01*
X174501Y355003D01*
G36*
X240606Y337995D02*
X255806Y337995D01*
X255806Y322795D01*
X240606Y322795D01*
X240606Y337995D01*
G37*
G36*
X275606Y389995D02*
X290806Y389995D01*
X290806Y374795D01*
X275606Y374795D01*
X275606Y389995D01*
G37*
G54D20*
X248206Y330395D02*
X248206Y373444D01*
X248800Y372850D01*
G54D18*
X61500Y302000D02*
X61500Y359000D01*
X42500Y359000D01*
X19500Y359000D01*
X321820Y260700D02*
G54D10*
D03*
X551820Y260700D02*
G54D10*
D03*
X321820Y260700D02*
G54D10*
D03*
X551820Y260700D02*
G54D10*
D03*
X321820Y260700D02*
G54D10*
D03*
X551820Y260700D02*
G54D10*
D03*
G36*
X330832Y366461D02*
X346832Y366461D01*
X346832Y350461D01*
X330832Y350461D01*
X330832Y366461D01*
G37*
X338832Y332961D02*
G54D13*
D03*
X415332Y358461D02*
G54D13*
D03*
X415332Y332961D02*
G54D13*
D03*
X315385Y358696D02*
G54D14*
D03*
G36*
X307385Y325296D02*
X307385Y341296D01*
X323385Y341296D01*
X323385Y325296D01*
X307385Y325296D01*
G37*
X497377Y385724D02*
G54D14*
D03*
X569880Y167700D02*
G54D11*
D03*
X519880Y167700D02*
G54D11*
D03*
X469880Y167700D02*
G54D11*
D03*
X419880Y167700D02*
G54D11*
D03*
X369900Y167700D02*
G54D11*
D03*
X319900Y167700D02*
G54D11*
D03*
G36*
X359975Y287399D02*
X372975Y287399D01*
X372976Y269399D01*
X359976Y269399D01*
X359975Y287399D01*
G37*
X398975Y278299D02*
G54D24*
D03*
X349756Y241499D02*
G54D24*
D03*
G36*
X375756Y250399D02*
X388756Y250399D01*
X388756Y232399D01*
X375756Y232399D01*
X375756Y250399D01*
G37*
X459075Y242499D02*
G54D24*
D03*
X491575Y242399D02*
G54D24*
D03*
G36*
X397575Y251499D02*
X410575Y251499D01*
X410576Y233499D01*
X397576Y233499D01*
X397575Y251499D01*
G37*
X436575Y242399D02*
G54D24*
D03*
X476476Y279399D02*
G54D24*
D03*
X508975Y279299D02*
G54D24*
D03*
G36*
X414975Y288399D02*
X427975Y288399D01*
X427976Y270399D01*
X414976Y270399D01*
X414975Y288399D01*
G37*
X453975Y279299D02*
G54D24*
D03*
G54D29*
G75*
G01X417484Y281865D02*
G03X417484Y281865I-9000J0D01*
G01*
G54D29*
G75*
G01X473164Y282865D02*
G03X473164Y282865I-9000J0D01*
G01*
G54D29*
G75*
G01X401445Y242065D02*
G03X401445Y242065I-9000J0D01*
G01*
G54D29*
G75*
G01X455764Y242065D02*
G03X455764Y242065I-9000J0D01*
G01*
G54D30*
X516475Y285599D02*
X498223Y243703D01*
X498223Y246703D01*
G54D30*
X366475Y278399D02*
X353476Y301137D01*
X363652Y300961D01*
G54D30*
X321820Y260700D02*
X331555Y260700D01*
X349756Y241499D01*
X470501Y380403D02*
G54D12*
D03*
X470501Y355003D02*
G54D12*
D03*
X470501Y329603D02*
G54D12*
D03*
X470501Y380403D02*
G54D12*
D03*
X470501Y355003D02*
G54D12*
D03*
X470501Y329603D02*
G54D12*
D03*
X440047Y329973D02*
G54D14*
D03*
G36*
X566771Y322879D02*
X566771Y338079D01*
X581971Y338079D01*
X581971Y322879D01*
X566771Y322879D01*
G37*
X574371Y355879D02*
G54D22*
D03*
G36*
X506771Y322879D02*
X506771Y338079D01*
X521971Y338079D01*
X521971Y322879D01*
X506771Y322879D01*
G37*
X514371Y355879D02*
G54D22*
D03*
G36*
X432606Y392995D02*
X447806Y392995D01*
X447806Y377795D01*
X432606Y377795D01*
X432606Y392995D01*
G37*
X532100Y385550D02*
G54D31*
D03*
X544800Y372850D02*
G54D31*
D03*
X557500Y385550D02*
G54D31*
D03*
X532100Y385550D02*
G54D31*
D03*
X544800Y372850D02*
G54D31*
D03*
X557500Y385550D02*
G54D31*
D03*
X440147Y363473D02*
G54D14*
D03*
G54D20*
X415332Y358461D02*
X416039Y358461D01*
X427500Y347000D01*
X449500Y347000D01*
X449500Y349000D01*
X458500Y355000D01*
X470501Y355003D01*
G36*
X536606Y337995D02*
X551806Y337995D01*
X551806Y322795D01*
X536606Y322795D01*
X536606Y337995D01*
G37*
G36*
X571606Y389995D02*
X586806Y389995D01*
X586806Y374795D01*
X571606Y374795D01*
X571606Y389995D01*
G37*
G54D20*
X544206Y330395D02*
X544206Y373444D01*
X544800Y372850D01*
G54D18*
X357500Y302000D02*
X357500Y359000D01*
X338500Y359000D01*
X315500Y359000D01*
X774575Y195329D02*
G54D11*
D03*
X724575Y195329D02*
G54D11*
D03*
G36*
X769800Y452000D02*
X753800Y452000D01*
X753800Y468000D01*
X769800Y468000D01*
X769800Y452000D01*
G37*
X736400Y460000D02*
G54D16*
D03*
X711000Y460000D02*
G54D16*
D03*
X711000Y383800D02*
G54D16*
D03*
X736400Y383800D02*
G54D16*
D03*
X761800Y383800D02*
G54D16*
D03*
G36*
X768800Y453000D02*
X754800Y453000D01*
X754800Y467000D01*
X768800Y467000D01*
X768800Y453000D01*
G37*
X736400Y460000D02*
G54D17*
D03*
X711000Y460000D02*
G54D17*
D03*
X711000Y383800D02*
G54D17*
D03*
X736400Y383800D02*
G54D17*
D03*
X761800Y383800D02*
G54D17*
D03*
G54D15*
X724575Y195329D02*
X741594Y231953D01*
X736831Y291836D01*
X735814Y292853D01*
G54D18*
X785109Y265296D02*
X785721Y352300D01*
X736831Y291836D02*
G54D14*
D03*
X710246Y291311D02*
G54D14*
D03*
X712343Y263242D02*
G54D14*
D03*
X785109Y265296D02*
G54D14*
D03*
X765831Y292836D02*
G54D14*
D03*
G54D19*
X711000Y383800D02*
X711000Y347667D01*
X765831Y292836D01*
G54D19*
X785109Y265296D02*
X736222Y265296D01*
X734994Y266524D01*
X785722Y352300D02*
G54D14*
D03*
G54D19*
X736400Y460000D02*
X736400Y486954D01*
X736575Y487129D01*
X712297Y245407D02*
G54D14*
D03*
G54D19*
X736400Y460000D02*
X736400Y444604D01*
X736575Y444429D01*
G36*
X728975Y490129D02*
X744175Y490129D01*
X744175Y474929D01*
X728975Y474929D01*
X728975Y490129D01*
G37*
X761975Y482529D02*
G54D22*
D03*
G54D19*
X736175Y444529D02*
X705675Y444529D01*
G54D19*
X736375Y444529D02*
X791775Y444529D01*
X791975Y444729D01*
X710075Y441029D02*
G54D28*
D03*
X786675Y440929D02*
G54D28*
D03*
X974575Y195329D02*
G54D11*
D03*
X924575Y195329D02*
G54D11*
D03*
G36*
X969800Y452000D02*
X953800Y452000D01*
X953800Y468000D01*
X969800Y468000D01*
X969800Y452000D01*
G37*
X936400Y460000D02*
G54D16*
D03*
X911000Y460000D02*
G54D16*
D03*
X911000Y383800D02*
G54D16*
D03*
X936400Y383800D02*
G54D16*
D03*
X961800Y383800D02*
G54D16*
D03*
G36*
X968800Y453000D02*
X954800Y453000D01*
X954800Y467000D01*
X968800Y467000D01*
X968800Y453000D01*
G37*
X936400Y460000D02*
G54D17*
D03*
X911000Y460000D02*
G54D17*
D03*
X911000Y383800D02*
G54D17*
D03*
X936400Y383800D02*
G54D17*
D03*
X961800Y383800D02*
G54D17*
D03*
G54D15*
X924575Y195329D02*
X941594Y231953D01*
X936831Y291836D01*
X935814Y292853D01*
G54D18*
X985109Y265296D02*
X985721Y352300D01*
X936831Y291836D02*
G54D14*
D03*
X910246Y291311D02*
G54D14*
D03*
X912343Y263242D02*
G54D14*
D03*
X985109Y265296D02*
G54D14*
D03*
X965831Y292836D02*
G54D14*
D03*
G54D19*
X911000Y383800D02*
X911000Y347667D01*
X965831Y292836D01*
G54D19*
X985109Y265296D02*
X936222Y265296D01*
X934994Y266524D01*
X985722Y352300D02*
G54D14*
D03*
G54D19*
X936400Y460000D02*
X936400Y486954D01*
X936575Y487129D01*
X912297Y245407D02*
G54D14*
D03*
G54D19*
X936400Y460000D02*
X936400Y444604D01*
X936575Y444429D01*
G36*
X928975Y490129D02*
X944175Y490129D01*
X944175Y474929D01*
X928975Y474929D01*
X928975Y490129D01*
G37*
X961975Y482529D02*
G54D22*
D03*
G54D19*
X936175Y444529D02*
X905675Y444529D01*
G54D19*
X936375Y444529D02*
X991775Y444529D01*
X991975Y444729D01*
X910075Y441029D02*
G54D28*
D03*
X986675Y440929D02*
G54D28*
D03*
X874575Y195329D02*
G54D11*
D03*
X824575Y195329D02*
G54D11*
D03*
G36*
X869800Y452000D02*
X853800Y452000D01*
X853800Y468000D01*
X869800Y468000D01*
X869800Y452000D01*
G37*
X836400Y460000D02*
G54D16*
D03*
X811000Y460000D02*
G54D16*
D03*
X811000Y383800D02*
G54D16*
D03*
X836400Y383800D02*
G54D16*
D03*
X861800Y383800D02*
G54D16*
D03*
G36*
X868800Y453000D02*
X854800Y453000D01*
X854800Y467000D01*
X868800Y467000D01*
X868800Y453000D01*
G37*
X836400Y460000D02*
G54D17*
D03*
X811000Y460000D02*
G54D17*
D03*
X811000Y383800D02*
G54D17*
D03*
X836400Y383800D02*
G54D17*
D03*
X861800Y383800D02*
G54D17*
D03*
G54D15*
X824575Y195329D02*
X841594Y231953D01*
X836831Y291836D01*
X835814Y292853D01*
G54D18*
X885109Y265296D02*
X885721Y352300D01*
X836831Y291836D02*
G54D14*
D03*
X810246Y291311D02*
G54D14*
D03*
X812343Y263242D02*
G54D14*
D03*
X885109Y265296D02*
G54D14*
D03*
X865831Y292836D02*
G54D14*
D03*
G54D19*
X811000Y383800D02*
X811000Y347667D01*
X865831Y292836D01*
G54D19*
X885109Y265296D02*
X836222Y265296D01*
X834994Y266524D01*
X885722Y352300D02*
G54D14*
D03*
G54D19*
X836400Y460000D02*
X836400Y486954D01*
X836575Y487129D01*
X812297Y245407D02*
G54D14*
D03*
G54D19*
X836400Y460000D02*
X836400Y444604D01*
X836575Y444429D01*
G36*
X828975Y490129D02*
X844175Y490129D01*
X844175Y474929D01*
X828975Y474929D01*
X828975Y490129D01*
G37*
X861975Y482529D02*
G54D22*
D03*
G54D19*
X836175Y444529D02*
X805675Y444529D01*
G54D19*
X836375Y444529D02*
X891775Y444529D01*
X891975Y444729D01*
X810075Y441029D02*
G54D28*
D03*
X886675Y440929D02*
G54D28*
D03*
M02*
