%FSLAX34Y34*%
%MOMM*%
%LNSOLDERMASK_BOTTOM*%
G71*
G01*
%ADD10C, 4.100*%
%ADD11C, 3.600*%
%ADD12C, 2.900*%
%ADD13C, 2.200*%
%ADD14C, 2.200*%
%ADD15C, 2.200*%
%ADD16C, 2.000*%
%ADD17C, 1.800*%
%ADD18C, 2.120*%
%ADD19R, 2.000X1.500*%
%ADD20R, 1.500X2.000*%
%ADD21R, 1.800X1.070*%
%ADD22R, 1.300X2.000*%
%ADD23R, 2.000X1.300*%
%ADD24C, 1.800*%
%LPD*%
X24000Y535500D02*
G54D10*
D03*
X254000Y535500D02*
G54D10*
D03*
X70492Y907800D02*
G54D11*
D03*
X170492Y907800D02*
G54D11*
D03*
X20492Y642800D02*
G54D11*
D03*
X70492Y642800D02*
G54D11*
D03*
X24000Y535500D02*
G54D10*
D03*
X254000Y535500D02*
G54D10*
D03*
X229092Y912000D02*
G54D12*
D03*
X229092Y886600D02*
G54D12*
D03*
X229092Y861200D02*
G54D12*
D03*
X229092Y912000D02*
G54D12*
D03*
X229092Y886600D02*
G54D12*
D03*
X229092Y861200D02*
G54D12*
D03*
X575000Y442800D02*
G54D11*
D03*
X525000Y442800D02*
G54D11*
D03*
X241000Y442300D02*
G54D11*
D03*
X191000Y442300D02*
G54D11*
D03*
G36*
X212084Y682400D02*
X212084Y704400D01*
X234084Y704400D01*
X234084Y682400D01*
X212084Y682400D01*
G37*
X248584Y693400D02*
G54D13*
D03*
X223084Y769900D02*
G54D13*
D03*
X248584Y769900D02*
G54D13*
D03*
X234386Y668598D02*
G54D14*
D03*
G36*
X270786Y657598D02*
X248786Y657598D01*
X248786Y679598D01*
X270786Y679598D01*
X270786Y657598D01*
G37*
X475000Y442800D02*
G54D11*
D03*
X425000Y442800D02*
G54D11*
D03*
X20677Y602824D02*
G54D14*
D03*
X160492Y643800D02*
G54D11*
D03*
X20692Y906500D02*
G54D11*
D03*
X143800Y948800D02*
G54D12*
D03*
X118400Y948800D02*
G54D12*
D03*
X93000Y948800D02*
G54D12*
D03*
X143800Y948800D02*
G54D12*
D03*
X118400Y948800D02*
G54D12*
D03*
X93000Y948800D02*
G54D12*
D03*
G36*
X374200Y696600D02*
X352200Y696600D01*
X352200Y718600D01*
X374200Y718600D01*
X374200Y696600D01*
G37*
X337800Y707600D02*
G54D15*
D03*
X312400Y707600D02*
G54D15*
D03*
X312400Y631400D02*
G54D15*
D03*
X337800Y631400D02*
G54D15*
D03*
X363200Y631400D02*
G54D15*
D03*
G36*
X373200Y697600D02*
X353200Y697600D01*
X353200Y717600D01*
X373200Y717600D01*
X373200Y697600D01*
G37*
X337800Y707600D02*
G54D16*
D03*
X312400Y707600D02*
G54D16*
D03*
X312400Y631400D02*
G54D16*
D03*
X337800Y631400D02*
G54D16*
D03*
X363200Y631400D02*
G54D16*
D03*
X338231Y539436D02*
G54D14*
D03*
X311646Y538911D02*
G54D14*
D03*
X313743Y510842D02*
G54D14*
D03*
X386509Y512896D02*
G54D14*
D03*
X367231Y540436D02*
G54D14*
D03*
X387122Y599900D02*
G54D14*
D03*
X375000Y442800D02*
G54D11*
D03*
X325000Y442800D02*
G54D11*
D03*
G36*
X473225Y696471D02*
X451225Y696471D01*
X451225Y718471D01*
X473225Y718471D01*
X473225Y696471D01*
G37*
X436825Y707471D02*
G54D15*
D03*
X411425Y707471D02*
G54D15*
D03*
X411425Y631271D02*
G54D15*
D03*
X436825Y631271D02*
G54D15*
D03*
X462225Y631271D02*
G54D15*
D03*
G36*
X472225Y697471D02*
X452225Y697471D01*
X452225Y717471D01*
X472225Y717471D01*
X472225Y697471D01*
G37*
X436825Y707471D02*
G54D16*
D03*
X411425Y707471D02*
G54D16*
D03*
X411425Y631271D02*
G54D16*
D03*
X436825Y631271D02*
G54D16*
D03*
X462225Y631271D02*
G54D16*
D03*
X437256Y539307D02*
G54D14*
D03*
X410671Y538783D02*
G54D14*
D03*
X412768Y510713D02*
G54D14*
D03*
X485534Y512768D02*
G54D14*
D03*
X466256Y540307D02*
G54D14*
D03*
X486147Y599771D02*
G54D14*
D03*
G36*
X572425Y696571D02*
X550425Y696571D01*
X550425Y718571D01*
X572425Y718571D01*
X572425Y696571D01*
G37*
X536025Y707571D02*
G54D15*
D03*
X510625Y707571D02*
G54D15*
D03*
X510625Y631371D02*
G54D15*
D03*
X536025Y631371D02*
G54D15*
D03*
X561425Y631371D02*
G54D15*
D03*
G36*
X571425Y697571D02*
X551425Y697571D01*
X551425Y717571D01*
X571425Y717571D01*
X571425Y697571D01*
G37*
X536025Y707571D02*
G54D16*
D03*
X510625Y707571D02*
G54D16*
D03*
X510625Y631371D02*
G54D16*
D03*
X536025Y631371D02*
G54D16*
D03*
X561425Y631371D02*
G54D16*
D03*
X536456Y539407D02*
G54D14*
D03*
X509871Y538883D02*
G54D14*
D03*
X511968Y510813D02*
G54D14*
D03*
X584734Y512868D02*
G54D14*
D03*
X565456Y540407D02*
G54D14*
D03*
X585347Y599871D02*
G54D14*
D03*
X328922Y945322D02*
G54D14*
D03*
X328832Y817078D02*
G54D14*
D03*
X507639Y955295D02*
G54D17*
D03*
X487639Y955295D02*
G54D17*
D03*
X467639Y955295D02*
G54D17*
D03*
X447639Y955295D02*
G54D17*
D03*
X427639Y955295D02*
G54D17*
D03*
X407639Y955295D02*
G54D17*
D03*
X387639Y955295D02*
G54D17*
D03*
X367639Y955295D02*
G54D17*
D03*
X352639Y925295D02*
G54D17*
D03*
X352639Y905295D02*
G54D17*
D03*
X352639Y885295D02*
G54D17*
D03*
X352639Y865295D02*
G54D17*
D03*
X352639Y845295D02*
G54D17*
D03*
X352639Y825295D02*
G54D17*
D03*
X367600Y795500D02*
G54D17*
D03*
X387600Y795500D02*
G54D17*
D03*
X407600Y795500D02*
G54D17*
D03*
X427600Y795500D02*
G54D17*
D03*
X447600Y795500D02*
G54D17*
D03*
X467600Y795500D02*
G54D17*
D03*
X487600Y795500D02*
G54D17*
D03*
X507600Y795500D02*
G54D17*
D03*
X338000Y795600D02*
G54D14*
D03*
X328122Y842878D02*
G54D14*
D03*
X313222Y492178D02*
G54D14*
D03*
X141000Y442300D02*
G54D11*
D03*
X91000Y442300D02*
G54D11*
D03*
X413522Y492878D02*
G54D14*
D03*
X512322Y493278D02*
G54D14*
D03*
G36*
X264800Y792600D02*
X264800Y813800D01*
X286000Y813800D01*
X286000Y792600D01*
X264800Y792600D01*
G37*
X275400Y828600D02*
G54D18*
D03*
G36*
X265000Y850800D02*
X265000Y872000D01*
X286200Y872000D01*
X286200Y850800D01*
X265000Y850800D01*
G37*
X275600Y886800D02*
G54D18*
D03*
G36*
X300400Y983800D02*
X321600Y983800D01*
X321600Y962600D01*
X300400Y962600D01*
X300400Y983800D01*
G37*
G36*
X298000Y871900D02*
X298000Y893100D01*
X319200Y893100D01*
X319200Y871900D01*
X298000Y871900D01*
G37*
X308600Y907900D02*
G54D18*
D03*
G36*
X317622Y871909D02*
X317622Y893109D01*
X338822Y893109D01*
X338822Y871909D01*
X317622Y871909D01*
G37*
X328222Y907909D02*
G54D18*
D03*
G36*
X471600Y992400D02*
X492800Y992400D01*
X492800Y971200D01*
X471600Y971200D01*
X471600Y992400D01*
G37*
X507600Y981800D02*
G54D18*
D03*
G36*
X327300Y740600D02*
X348500Y740600D01*
X348500Y719400D01*
X327300Y719400D01*
X327300Y740600D01*
G37*
X363300Y730000D02*
G54D18*
D03*
G36*
X426400Y740600D02*
X447600Y740600D01*
X447600Y719400D01*
X426400Y719400D01*
X426400Y740600D01*
G37*
X462400Y730000D02*
G54D18*
D03*
G36*
X525300Y740600D02*
X546500Y740600D01*
X546500Y719400D01*
X525300Y719400D01*
X525300Y740600D01*
G37*
X561300Y730000D02*
G54D18*
D03*
X508401Y902216D02*
G54D19*
D03*
X508301Y869716D02*
G54D19*
D03*
X467701Y901516D02*
G54D19*
D03*
X467601Y869016D02*
G54D19*
D03*
G36*
X443212Y937028D02*
X458212Y937028D01*
X458212Y917028D01*
X443212Y917028D01*
X443212Y937028D01*
G37*
X483212Y926928D02*
G54D20*
D03*
X406101Y856416D02*
G54D19*
D03*
X406001Y823916D02*
G54D19*
D03*
X430801Y856516D02*
G54D19*
D03*
X430701Y824016D02*
G54D19*
D03*
G36*
X352912Y779028D02*
X367912Y779028D01*
X367912Y759028D01*
X352912Y759028D01*
X352912Y779028D01*
G37*
X392912Y768928D02*
G54D20*
D03*
G36*
X403200Y778500D02*
X424400Y778500D01*
X424400Y757300D01*
X403200Y757300D01*
X403200Y778500D01*
G37*
X439200Y767900D02*
G54D18*
D03*
G36*
X476700Y778800D02*
X497900Y778800D01*
X497900Y757600D01*
X476700Y757600D01*
X476700Y778800D01*
G37*
X512700Y768200D02*
G54D18*
D03*
X538100Y768200D02*
G54D18*
D03*
X563500Y768200D02*
G54D18*
D03*
X508301Y839501D02*
G54D17*
D03*
X630622Y947422D02*
G54D14*
D03*
X630532Y819178D02*
G54D14*
D03*
X809339Y957395D02*
G54D17*
D03*
X789339Y957395D02*
G54D17*
D03*
X769339Y957395D02*
G54D17*
D03*
X749339Y957395D02*
G54D17*
D03*
X729339Y957395D02*
G54D17*
D03*
X709339Y957395D02*
G54D17*
D03*
X689339Y957395D02*
G54D17*
D03*
X669339Y957395D02*
G54D17*
D03*
X654339Y927395D02*
G54D17*
D03*
X654339Y907395D02*
G54D17*
D03*
X654339Y887395D02*
G54D17*
D03*
X654339Y867395D02*
G54D17*
D03*
X654339Y847395D02*
G54D17*
D03*
X654339Y827395D02*
G54D17*
D03*
X669300Y797600D02*
G54D17*
D03*
X689300Y797600D02*
G54D17*
D03*
X709300Y797600D02*
G54D17*
D03*
X729300Y797600D02*
G54D17*
D03*
X749300Y797600D02*
G54D17*
D03*
X769300Y797600D02*
G54D17*
D03*
X789300Y797600D02*
G54D17*
D03*
X809300Y797600D02*
G54D17*
D03*
X639700Y797700D02*
G54D14*
D03*
X629822Y844978D02*
G54D14*
D03*
G36*
X739216Y971095D02*
X718016Y971095D01*
X718016Y992295D01*
X739216Y992295D01*
X739216Y971095D01*
G37*
X614222Y912609D02*
G54D21*
D03*
X614222Y882209D02*
G54D21*
D03*
G36*
X619322Y874009D02*
X619322Y895209D01*
X640522Y895209D01*
X640522Y874009D01*
X619322Y874009D01*
G37*
X629922Y910009D02*
G54D18*
D03*
G36*
X760300Y992500D02*
X781500Y992500D01*
X781500Y971300D01*
X760300Y971300D01*
X760300Y992500D01*
G37*
X796300Y981900D02*
G54D18*
D03*
X810101Y904316D02*
G54D19*
D03*
X810001Y871816D02*
G54D19*
D03*
X769401Y903616D02*
G54D19*
D03*
X769301Y871116D02*
G54D19*
D03*
G36*
X744912Y939128D02*
X759912Y939128D01*
X759912Y919128D01*
X744912Y919128D01*
X744912Y939128D01*
G37*
X784912Y929028D02*
G54D20*
D03*
X707801Y858516D02*
G54D19*
D03*
X707701Y826016D02*
G54D19*
D03*
X732501Y858616D02*
G54D19*
D03*
X732401Y826116D02*
G54D19*
D03*
G36*
X635212Y780728D02*
X650212Y780728D01*
X650212Y760728D01*
X635212Y760728D01*
X635212Y780728D01*
G37*
X675212Y770628D02*
G54D20*
D03*
G36*
X688500Y784200D02*
X709700Y784200D01*
X709700Y763000D01*
X688500Y763000D01*
X688500Y784200D01*
G37*
X724500Y773600D02*
G54D18*
D03*
X703239Y979195D02*
G54D17*
D03*
X679239Y979195D02*
G54D17*
D03*
X749400Y770100D02*
G54D17*
D03*
X769400Y770100D02*
G54D17*
D03*
G36*
X781300Y784500D02*
X802500Y784500D01*
X802500Y763300D01*
X781300Y763300D01*
X781300Y784500D01*
G37*
X817300Y773900D02*
G54D18*
D03*
X630522Y699422D02*
G54D14*
D03*
X630432Y571178D02*
G54D14*
D03*
X809239Y709395D02*
G54D17*
D03*
X789239Y709395D02*
G54D17*
D03*
X769239Y709395D02*
G54D17*
D03*
X749239Y709395D02*
G54D17*
D03*
X729239Y709395D02*
G54D17*
D03*
X709239Y709395D02*
G54D17*
D03*
X689239Y709395D02*
G54D17*
D03*
X669239Y709395D02*
G54D17*
D03*
X654239Y679395D02*
G54D17*
D03*
X654239Y659395D02*
G54D17*
D03*
X654239Y639395D02*
G54D17*
D03*
X654239Y619395D02*
G54D17*
D03*
X654239Y599395D02*
G54D17*
D03*
X654239Y579395D02*
G54D17*
D03*
X669200Y549600D02*
G54D17*
D03*
X689200Y549600D02*
G54D17*
D03*
X709200Y549600D02*
G54D17*
D03*
X729200Y549600D02*
G54D17*
D03*
X749200Y549600D02*
G54D17*
D03*
X769200Y549600D02*
G54D17*
D03*
X789200Y549600D02*
G54D17*
D03*
X809200Y549600D02*
G54D17*
D03*
X639600Y549700D02*
G54D14*
D03*
X629722Y596978D02*
G54D14*
D03*
G36*
X739116Y723095D02*
X717916Y723095D01*
X717916Y744295D01*
X739116Y744295D01*
X739116Y723095D01*
G37*
X614122Y664609D02*
G54D21*
D03*
X614122Y634209D02*
G54D21*
D03*
G36*
X619222Y626009D02*
X619222Y647209D01*
X640422Y647209D01*
X640422Y626009D01*
X619222Y626009D01*
G37*
X629822Y662009D02*
G54D18*
D03*
G36*
X760200Y744500D02*
X781400Y744500D01*
X781400Y723300D01*
X760200Y723300D01*
X760200Y744500D01*
G37*
X796200Y733900D02*
G54D18*
D03*
X810001Y656316D02*
G54D19*
D03*
X809901Y623816D02*
G54D19*
D03*
X769301Y655616D02*
G54D19*
D03*
X769201Y623116D02*
G54D19*
D03*
G36*
X744812Y691128D02*
X759812Y691128D01*
X759812Y671128D01*
X744812Y671128D01*
X744812Y691128D01*
G37*
X784812Y681028D02*
G54D20*
D03*
X707701Y610516D02*
G54D19*
D03*
X707601Y578016D02*
G54D19*
D03*
X732401Y610616D02*
G54D19*
D03*
X732301Y578116D02*
G54D19*
D03*
G36*
X635112Y532728D02*
X650112Y532728D01*
X650112Y512728D01*
X635112Y512728D01*
X635112Y532728D01*
G37*
X675112Y522628D02*
G54D20*
D03*
G36*
X688400Y536200D02*
X709600Y536200D01*
X709600Y515000D01*
X688400Y515000D01*
X688400Y536200D01*
G37*
X724400Y525600D02*
G54D18*
D03*
X703139Y731195D02*
G54D17*
D03*
X679139Y731195D02*
G54D17*
D03*
X749300Y522100D02*
G54D17*
D03*
X769300Y522100D02*
G54D17*
D03*
G36*
X781200Y536500D02*
X802400Y536500D01*
X802400Y515300D01*
X781200Y515300D01*
X781200Y536500D01*
G37*
X817200Y525900D02*
G54D18*
D03*
X392882Y50736D02*
G54D11*
D03*
X392882Y100736D02*
G54D11*
D03*
G36*
X646553Y52511D02*
X646553Y74511D01*
X668553Y74511D01*
X668553Y52511D01*
X646553Y52511D01*
G37*
X657553Y88911D02*
G54D15*
D03*
X657553Y114311D02*
G54D15*
D03*
X581353Y114311D02*
G54D15*
D03*
X581353Y88911D02*
G54D15*
D03*
X581353Y63511D02*
G54D15*
D03*
G36*
X647553Y53511D02*
X647553Y73511D01*
X667553Y73511D01*
X667553Y53511D01*
X647553Y53511D01*
G37*
X657553Y88911D02*
G54D16*
D03*
X657553Y114311D02*
G54D16*
D03*
X581353Y114311D02*
G54D16*
D03*
X581353Y88911D02*
G54D16*
D03*
X581353Y63511D02*
G54D16*
D03*
X489389Y88480D02*
G54D14*
D03*
X488864Y115066D02*
G54D14*
D03*
X460795Y112968D02*
G54D14*
D03*
X462849Y40202D02*
G54D14*
D03*
X490389Y59480D02*
G54D14*
D03*
X549853Y39590D02*
G54D14*
D03*
X442960Y113014D02*
G54D14*
D03*
G36*
X690682Y99336D02*
X690682Y78136D01*
X669482Y78136D01*
X669482Y99336D01*
X690682Y99336D01*
G37*
X680082Y63336D02*
G54D18*
D03*
X638582Y115236D02*
G54D22*
D03*
X638482Y38636D02*
G54D22*
D03*
X44082Y50536D02*
G54D11*
D03*
X44082Y100536D02*
G54D11*
D03*
G36*
X297753Y52311D02*
X297753Y74311D01*
X319753Y74311D01*
X319753Y52311D01*
X297753Y52311D01*
G37*
X308753Y88711D02*
G54D15*
D03*
X308753Y114111D02*
G54D15*
D03*
X232553Y114111D02*
G54D15*
D03*
X232553Y88711D02*
G54D15*
D03*
X232553Y63311D02*
G54D15*
D03*
G36*
X298753Y53311D02*
X298753Y73311D01*
X318753Y73311D01*
X318753Y53311D01*
X298753Y53311D01*
G37*
X308753Y88711D02*
G54D16*
D03*
X308753Y114111D02*
G54D16*
D03*
X232553Y114111D02*
G54D16*
D03*
X232553Y88711D02*
G54D16*
D03*
X232553Y63311D02*
G54D16*
D03*
X140589Y88280D02*
G54D14*
D03*
X140064Y114866D02*
G54D14*
D03*
X111995Y112768D02*
G54D14*
D03*
X114049Y40002D02*
G54D14*
D03*
X141589Y59280D02*
G54D14*
D03*
X201053Y39390D02*
G54D14*
D03*
X94160Y112814D02*
G54D14*
D03*
G36*
X341882Y99136D02*
X341882Y77936D01*
X320682Y77936D01*
X320682Y99136D01*
X341882Y99136D01*
G37*
X331282Y63136D02*
G54D18*
D03*
X289782Y115036D02*
G54D22*
D03*
X289682Y38436D02*
G54D22*
D03*
X974575Y692329D02*
G54D11*
D03*
X924575Y692329D02*
G54D11*
D03*
G36*
X972800Y946000D02*
X950800Y946000D01*
X950800Y968000D01*
X972800Y968000D01*
X972800Y946000D01*
G37*
X936400Y957000D02*
G54D15*
D03*
X911000Y957000D02*
G54D15*
D03*
X911000Y880800D02*
G54D15*
D03*
X936400Y880800D02*
G54D15*
D03*
X961800Y880800D02*
G54D15*
D03*
G36*
X971800Y947000D02*
X951800Y947000D01*
X951800Y967000D01*
X971800Y967000D01*
X971800Y947000D01*
G37*
X936400Y957000D02*
G54D16*
D03*
X911000Y957000D02*
G54D16*
D03*
X911000Y880800D02*
G54D16*
D03*
X936400Y880800D02*
G54D16*
D03*
X961800Y880800D02*
G54D16*
D03*
X936831Y788836D02*
G54D14*
D03*
X910246Y788311D02*
G54D14*
D03*
X912343Y760242D02*
G54D14*
D03*
X985109Y762296D02*
G54D14*
D03*
X965831Y789836D02*
G54D14*
D03*
X985722Y849300D02*
G54D14*
D03*
X912297Y742407D02*
G54D14*
D03*
G36*
X925975Y990129D02*
X947175Y990129D01*
X947175Y968929D01*
X925975Y968929D01*
X925975Y990129D01*
G37*
X961975Y979529D02*
G54D18*
D03*
X910075Y938029D02*
G54D23*
D03*
X986675Y937929D02*
G54D23*
D03*
X675575Y195329D02*
G54D11*
D03*
X625575Y195329D02*
G54D11*
D03*
G36*
X673800Y449000D02*
X651800Y449000D01*
X651800Y471000D01*
X673800Y471000D01*
X673800Y449000D01*
G37*
X637400Y460000D02*
G54D15*
D03*
X612000Y460000D02*
G54D15*
D03*
X612000Y383800D02*
G54D15*
D03*
X637400Y383800D02*
G54D15*
D03*
X662800Y383800D02*
G54D15*
D03*
G36*
X672800Y450000D02*
X652800Y450000D01*
X652800Y470000D01*
X672800Y470000D01*
X672800Y450000D01*
G37*
X637400Y460000D02*
G54D16*
D03*
X612000Y460000D02*
G54D16*
D03*
X612000Y383800D02*
G54D16*
D03*
X637400Y383800D02*
G54D16*
D03*
X662800Y383800D02*
G54D16*
D03*
X637831Y291836D02*
G54D14*
D03*
X611246Y291311D02*
G54D14*
D03*
X613343Y263242D02*
G54D14*
D03*
X686109Y265296D02*
G54D14*
D03*
X666831Y292836D02*
G54D14*
D03*
X686722Y352300D02*
G54D14*
D03*
X613297Y245407D02*
G54D14*
D03*
G36*
X626975Y493129D02*
X648175Y493129D01*
X648175Y471929D01*
X626975Y471929D01*
X626975Y493129D01*
G37*
X662975Y482529D02*
G54D18*
D03*
X611075Y441029D02*
G54D23*
D03*
X687675Y440929D02*
G54D23*
D03*
X25820Y260700D02*
G54D10*
D03*
X255820Y260700D02*
G54D10*
D03*
X25820Y260700D02*
G54D10*
D03*
X255820Y260700D02*
G54D10*
D03*
G36*
X31832Y369461D02*
X53832Y369461D01*
X53832Y347461D01*
X31832Y347461D01*
X31832Y369461D01*
G37*
X42832Y332961D02*
G54D13*
D03*
X119332Y358461D02*
G54D13*
D03*
X119332Y332961D02*
G54D13*
D03*
X19385Y358696D02*
G54D14*
D03*
G36*
X8385Y322296D02*
X8385Y344296D01*
X30385Y344296D01*
X30385Y322296D01*
X8385Y322296D01*
G37*
X201377Y385724D02*
G54D14*
D03*
X273880Y167700D02*
G54D11*
D03*
X223880Y167700D02*
G54D11*
D03*
X173880Y167700D02*
G54D11*
D03*
X123880Y167700D02*
G54D11*
D03*
X73900Y167700D02*
G54D11*
D03*
X23900Y167700D02*
G54D11*
D03*
G36*
X62975Y288399D02*
X77975Y288399D01*
X77975Y268399D01*
X62975Y268399D01*
X62975Y288399D01*
G37*
X102975Y278299D02*
G54D20*
D03*
X53756Y241499D02*
G54D20*
D03*
G36*
X78756Y251399D02*
X93756Y251399D01*
X93756Y231399D01*
X78756Y231399D01*
X78756Y251399D01*
G37*
X163075Y242499D02*
G54D20*
D03*
X195575Y242399D02*
G54D20*
D03*
G36*
X100575Y252499D02*
X115575Y252499D01*
X115576Y232499D01*
X100576Y232499D01*
X100575Y252499D01*
G37*
X140575Y242399D02*
G54D20*
D03*
X180476Y279399D02*
G54D20*
D03*
X212975Y279299D02*
G54D20*
D03*
G36*
X117975Y289399D02*
X132975Y289399D01*
X132976Y269399D01*
X117976Y269399D01*
X117975Y289399D01*
G37*
X157975Y279299D02*
G54D20*
D03*
X174501Y380403D02*
G54D12*
D03*
X174501Y355003D02*
G54D12*
D03*
X174501Y329603D02*
G54D12*
D03*
X174501Y380403D02*
G54D12*
D03*
X174501Y355003D02*
G54D12*
D03*
X174501Y329603D02*
G54D12*
D03*
X144047Y329973D02*
G54D14*
D03*
G36*
X267771Y319879D02*
X267771Y341079D01*
X288971Y341079D01*
X288971Y319879D01*
X267771Y319879D01*
G37*
X278371Y355879D02*
G54D18*
D03*
G36*
X207771Y319879D02*
X207771Y341079D01*
X228971Y341079D01*
X228971Y319879D01*
X207771Y319879D01*
G37*
X218371Y355879D02*
G54D18*
D03*
G36*
X133606Y395995D02*
X154806Y395995D01*
X154806Y374795D01*
X133606Y374795D01*
X133606Y395995D01*
G37*
X236100Y385550D02*
G54D24*
D03*
X248800Y372850D02*
G54D24*
D03*
X261500Y385550D02*
G54D24*
D03*
X236100Y385550D02*
G54D24*
D03*
X248800Y372850D02*
G54D24*
D03*
X261500Y385550D02*
G54D24*
D03*
X144147Y363473D02*
G54D14*
D03*
G36*
X237606Y340995D02*
X258806Y340995D01*
X258806Y319795D01*
X237606Y319795D01*
X237606Y340995D01*
G37*
G36*
X272606Y392995D02*
X293806Y392995D01*
X293806Y371795D01*
X272606Y371795D01*
X272606Y392995D01*
G37*
X321820Y260700D02*
G54D10*
D03*
X551820Y260700D02*
G54D10*
D03*
X321820Y260700D02*
G54D10*
D03*
X551820Y260700D02*
G54D10*
D03*
G36*
X327832Y369461D02*
X349832Y369461D01*
X349832Y347461D01*
X327832Y347461D01*
X327832Y369461D01*
G37*
X338832Y332961D02*
G54D13*
D03*
X415332Y358461D02*
G54D13*
D03*
X415332Y332961D02*
G54D13*
D03*
X315385Y358696D02*
G54D14*
D03*
G36*
X304385Y322296D02*
X304385Y344296D01*
X326385Y344296D01*
X326385Y322296D01*
X304385Y322296D01*
G37*
X497377Y385724D02*
G54D14*
D03*
X569880Y167700D02*
G54D11*
D03*
X519880Y167700D02*
G54D11*
D03*
X469880Y167700D02*
G54D11*
D03*
X419880Y167700D02*
G54D11*
D03*
X369900Y167700D02*
G54D11*
D03*
X319900Y167700D02*
G54D11*
D03*
G36*
X358975Y288399D02*
X373975Y288399D01*
X373976Y268399D01*
X358976Y268399D01*
X358975Y288399D01*
G37*
X398975Y278299D02*
G54D20*
D03*
X349756Y241499D02*
G54D20*
D03*
G36*
X374756Y251399D02*
X389756Y251399D01*
X389756Y231399D01*
X374756Y231399D01*
X374756Y251399D01*
G37*
X459075Y242499D02*
G54D20*
D03*
X491575Y242399D02*
G54D20*
D03*
G36*
X396575Y252499D02*
X411575Y252499D01*
X411576Y232499D01*
X396576Y232499D01*
X396575Y252499D01*
G37*
X436575Y242399D02*
G54D20*
D03*
X476476Y279399D02*
G54D20*
D03*
X508975Y279299D02*
G54D20*
D03*
G36*
X413975Y289399D02*
X428975Y289399D01*
X428976Y269399D01*
X413976Y269399D01*
X413975Y289399D01*
G37*
X453975Y279299D02*
G54D20*
D03*
X470501Y380403D02*
G54D12*
D03*
X470501Y355003D02*
G54D12*
D03*
X470501Y329603D02*
G54D12*
D03*
X470501Y380403D02*
G54D12*
D03*
X470501Y355003D02*
G54D12*
D03*
X470501Y329603D02*
G54D12*
D03*
X440047Y329973D02*
G54D14*
D03*
G36*
X563771Y319879D02*
X563771Y341079D01*
X584971Y341079D01*
X584971Y319879D01*
X563771Y319879D01*
G37*
X574371Y355879D02*
G54D18*
D03*
G36*
X503771Y319879D02*
X503771Y341079D01*
X524971Y341079D01*
X524971Y319879D01*
X503771Y319879D01*
G37*
X514371Y355879D02*
G54D18*
D03*
G36*
X429606Y395995D02*
X450806Y395995D01*
X450806Y374795D01*
X429606Y374795D01*
X429606Y395995D01*
G37*
X532100Y385550D02*
G54D24*
D03*
X544800Y372850D02*
G54D24*
D03*
X557500Y385550D02*
G54D24*
D03*
X532100Y385550D02*
G54D24*
D03*
X544800Y372850D02*
G54D24*
D03*
X557500Y385550D02*
G54D24*
D03*
X440147Y363473D02*
G54D14*
D03*
G36*
X533606Y340995D02*
X554806Y340995D01*
X554806Y319795D01*
X533606Y319795D01*
X533606Y340995D01*
G37*
G36*
X568606Y392995D02*
X589806Y392995D01*
X589806Y371795D01*
X568606Y371795D01*
X568606Y392995D01*
G37*
X774575Y195329D02*
G54D11*
D03*
X724575Y195329D02*
G54D11*
D03*
G36*
X772800Y449000D02*
X750800Y449000D01*
X750800Y471000D01*
X772800Y471000D01*
X772800Y449000D01*
G37*
X736400Y460000D02*
G54D15*
D03*
X711000Y460000D02*
G54D15*
D03*
X711000Y383800D02*
G54D15*
D03*
X736400Y383800D02*
G54D15*
D03*
X761800Y383800D02*
G54D15*
D03*
G36*
X771800Y450000D02*
X751800Y450000D01*
X751800Y470000D01*
X771800Y470000D01*
X771800Y450000D01*
G37*
X736400Y460000D02*
G54D16*
D03*
X711000Y460000D02*
G54D16*
D03*
X711000Y383800D02*
G54D16*
D03*
X736400Y383800D02*
G54D16*
D03*
X761800Y383800D02*
G54D16*
D03*
X736831Y291836D02*
G54D14*
D03*
X710246Y291311D02*
G54D14*
D03*
X712343Y263242D02*
G54D14*
D03*
X785109Y265296D02*
G54D14*
D03*
X765831Y292836D02*
G54D14*
D03*
X785722Y352300D02*
G54D14*
D03*
X712297Y245407D02*
G54D14*
D03*
G36*
X725975Y493129D02*
X747175Y493129D01*
X747175Y471929D01*
X725975Y471929D01*
X725975Y493129D01*
G37*
X761975Y482529D02*
G54D18*
D03*
X710075Y441029D02*
G54D23*
D03*
X786675Y440929D02*
G54D23*
D03*
X974575Y195329D02*
G54D11*
D03*
X924575Y195329D02*
G54D11*
D03*
G36*
X972800Y449000D02*
X950800Y449000D01*
X950800Y471000D01*
X972800Y471000D01*
X972800Y449000D01*
G37*
X936400Y460000D02*
G54D15*
D03*
X911000Y460000D02*
G54D15*
D03*
X911000Y383800D02*
G54D15*
D03*
X936400Y383800D02*
G54D15*
D03*
X961800Y383800D02*
G54D15*
D03*
G36*
X971800Y450000D02*
X951800Y450000D01*
X951800Y470000D01*
X971800Y470000D01*
X971800Y450000D01*
G37*
X936400Y460000D02*
G54D16*
D03*
X911000Y460000D02*
G54D16*
D03*
X911000Y383800D02*
G54D16*
D03*
X936400Y383800D02*
G54D16*
D03*
X961800Y383800D02*
G54D16*
D03*
X936831Y291836D02*
G54D14*
D03*
X910246Y291311D02*
G54D14*
D03*
X912343Y263242D02*
G54D14*
D03*
X985109Y265296D02*
G54D14*
D03*
X965831Y292836D02*
G54D14*
D03*
X985722Y352300D02*
G54D14*
D03*
X912297Y245407D02*
G54D14*
D03*
G36*
X925975Y493129D02*
X947175Y493129D01*
X947175Y471929D01*
X925975Y471929D01*
X925975Y493129D01*
G37*
X961975Y482529D02*
G54D18*
D03*
X910075Y441029D02*
G54D23*
D03*
X986675Y440929D02*
G54D23*
D03*
X874575Y195329D02*
G54D11*
D03*
X824575Y195329D02*
G54D11*
D03*
G36*
X872800Y449000D02*
X850800Y449000D01*
X850800Y471000D01*
X872800Y471000D01*
X872800Y449000D01*
G37*
X836400Y460000D02*
G54D15*
D03*
X811000Y460000D02*
G54D15*
D03*
X811000Y383800D02*
G54D15*
D03*
X836400Y383800D02*
G54D15*
D03*
X861800Y383800D02*
G54D15*
D03*
G36*
X871800Y450000D02*
X851800Y450000D01*
X851800Y470000D01*
X871800Y470000D01*
X871800Y450000D01*
G37*
X836400Y460000D02*
G54D16*
D03*
X811000Y460000D02*
G54D16*
D03*
X811000Y383800D02*
G54D16*
D03*
X836400Y383800D02*
G54D16*
D03*
X861800Y383800D02*
G54D16*
D03*
X836831Y291836D02*
G54D14*
D03*
X810246Y291311D02*
G54D14*
D03*
X812343Y263242D02*
G54D14*
D03*
X885109Y265296D02*
G54D14*
D03*
X865831Y292836D02*
G54D14*
D03*
X885722Y352300D02*
G54D14*
D03*
X812297Y245407D02*
G54D14*
D03*
G36*
X825975Y493129D02*
X847175Y493129D01*
X847175Y471929D01*
X825975Y471929D01*
X825975Y493129D01*
G37*
X861975Y482529D02*
G54D18*
D03*
X810075Y441029D02*
G54D23*
D03*
X886675Y440929D02*
G54D23*
D03*
M02*
