; Drill file
; Format: 3.2 (000.00)
M48
METRIC
T01C0.4
T02C0.6
T03C0.7
T04C0.72
T05C0.8
T06C0.9
T07C1.0
T08C1.5
T09C2.0
T10C2.5
T11C3.0
%
G05
G90
T01
X02488Y03728
X02361Y03856
X02615Y03856
X05321Y03856
X05448Y03728
X05575Y03856
T02
X06692Y05496
X06892Y05496
X07092Y05496
X07292Y05496
X07492Y05496
X07692Y05496
X07892Y05496
X08092Y05496
X07693Y05221
X07493Y05221
X06542Y05794
X06542Y05994
X06542Y06194
X06542Y06394
X06542Y06594
X06542Y06794
X06692Y07094
X06892Y07094
X07092Y07094
X07292Y07094
X07492Y07094
X07692Y07094
X07892Y07094
X08092Y07094
X07694Y07701
X07494Y07701
X07493Y07976
X07293Y07976
X07093Y07976
X06893Y07976
X06693Y07976
X06543Y08274
X06543Y08474
X06543Y08674
X06543Y08874
X06543Y09074
X06543Y09274
X06693Y09574
X06893Y09574
X07093Y09574
X07293Y09574
X07493Y09574
X07693Y09574
X07893Y09574
X08093Y09574
X07032Y09792
X06792Y09792
X05076Y09553
X04876Y09553
X04676Y09553
X04476Y09553
X04276Y09553
X04076Y09553
X03876Y09553
X03676Y09553
X03526Y09253
X03526Y09053
X03526Y08853
X03526Y08653
X03526Y08453
X03526Y08253
X03676Y07955
X03876Y07955
X04076Y07955
X04276Y07955
X04476Y07955
X04676Y07955
X04876Y07955
X05076Y07955
X05083Y08395
X06791Y07312
X07031Y07312
X07693Y07976
X07893Y07976
X08093Y07976
T03
X00428Y03330
X00428Y03585
X01193Y03585
X01193Y03330
X03388Y03330
X03388Y03585
X04153Y03585
X04153Y03330
X02486Y06934
X02231Y06934
X02231Y07699
X02486Y07699
T04
X02326Y00633
X02326Y00887
X02326Y01141
X03088Y01141
X03088Y00887
X03313Y00885
X03313Y00631
X03088Y00633
X02784Y03305
X02784Y03559
X02832Y03824
X02482Y03304
X02184Y03305
X02184Y03559
X01442Y03854
X04402Y03854
X05144Y03559
X05144Y03305
X05442Y03304
X05744Y03305
X05744Y03559
X05792Y03824
X06120Y03838
X06374Y03838
X06628Y03838
X07110Y03838
X07364Y03838
X07618Y03838
X08110Y03838
X08364Y03838
X08618Y03838
X09110Y03838
X09364Y03838
X09618Y03838
X09618Y04600
X09620Y04825
X09366Y04825
X09364Y04600
X09110Y04600
X08618Y04600
X08620Y04825
X08366Y04825
X08364Y04600
X08110Y04600
X07618Y04600
X07620Y04825
X07366Y04825
X07364Y04600
X07110Y04600
X06628Y04600
X06630Y04825
X06376Y04825
X06374Y04600
X06120Y04600
X06990Y05256
X07244Y05256
X07918Y05259
X08172Y05259
X07962Y07339
X07708Y07339
X07285Y07337
X07245Y07736
X06991Y07736
X07919Y07739
X08173Y07739
X09110Y08808
X09364Y08808
X09618Y08808
X09618Y09570
X09620Y09795
X09366Y09795
X09364Y09570
X09110Y09570
X07963Y09819
X07709Y09819
X07286Y09817
X06299Y09100
X06299Y08846
X05635Y07682
X05381Y07682
X05127Y07682
X04873Y07682
X04624Y07300
X04622Y07075
X04368Y07075
X04370Y07300
X04114Y07075
X03632Y07076
X03633Y07300
X03379Y07300
X03378Y07076
X03124Y07076
X02754Y07701
X02754Y08032
X02754Y08286
X02756Y08614
X02756Y08868
X03086Y08825
X03282Y08825
X03282Y09079
X03086Y09079
X03110Y09732
X04822Y09818
X05076Y09818
X04392Y07679
X04138Y07679
X05106Y07076
X05360Y07076
X05359Y07300
X05613Y07300
X05614Y07076
X05614Y06314
X05360Y06314
X05106Y06314
X04622Y06313
X04368Y06313
X04114Y06313
X03632Y06314
X03378Y06314
X03124Y06314
X06298Y06366
X06298Y06620
X06576Y01143
X06576Y00889
X06801Y00887
X06801Y00633
X06576Y00635
X05814Y00635
X05814Y00889
X05814Y01143
T05
X01140Y00400
X01416Y00593
X01406Y00883
X01401Y01149
X01120Y01128
X00942Y01128
X02011Y00394
X04430Y01130
X04608Y01130
X04889Y01151
X04894Y00885
X04904Y00595
X04628Y00402
X05499Y00396
X06133Y02454
X06133Y02632
X06112Y02913
X06378Y02918
X06668Y02928
X06861Y02653
X07123Y02632
X07123Y02454
X07102Y02913
X07368Y02918
X07658Y02928
X07851Y02653
X08123Y02632
X08123Y02454
X08102Y02913
X08368Y02918
X08658Y02928
X08851Y02653
X09123Y02632
X09123Y02454
X09102Y02913
X09368Y02918
X09658Y02928
X09851Y02653
X09857Y03523
X08857Y03523
X07857Y03523
X06867Y03523
X05847Y05129
X05655Y05404
X05365Y05394
X05099Y05389
X05120Y05108
X05123Y04933
X04855Y05128
X04663Y05403
X04373Y05393
X04107Y05388
X04128Y05107
X04135Y04929
X03865Y05129
X03672Y05404
X03382Y05394
X03116Y05389
X03137Y05108
X03132Y04922
X03871Y05999
X04861Y05998
X05853Y05999
X06297Y05970
X06304Y05712
X06396Y05497
X06305Y06994
X06397Y07977
X06305Y08192
X06298Y08450
X06306Y09474
X03289Y09453
X03281Y08429
X03288Y08171
X03380Y07956
X02598Y06686
X02344Y06686
X00207Y06028
X00194Y03587
X00194Y03333
X01440Y03300
X01441Y03635
X02014Y03857
X03154Y03587
X03154Y03333
X04400Y03300
X04401Y03635
X04974Y03857
X09123Y07424
X09123Y07602
X09102Y07883
X09368Y07888
X09658Y07898
X09851Y07623
X09857Y08493
T06
X01745Y03296
X01745Y03550
X01745Y03804
X04705Y03804
X04705Y03550
X04705Y03296
X02291Y08612
X02291Y08866
X02291Y09120
X01438Y09488
X01184Y09488
X00930Y09488
T07
X00441Y00505
X00441Y01005
X00239Y01677
X00739Y01677
X01239Y01677
X01739Y01677
X02239Y01677
X02739Y01677
X03199Y01677
X03699Y01677
X04199Y01677
X04699Y01677
X05199Y01677
X05699Y01677
X06256Y01953
X06756Y01953
X07246Y01953
X07746Y01953
X08246Y01953
X08746Y01953
X09246Y01953
X09746Y01953
X05750Y04428
X05250Y04428
X04750Y04428
X04250Y04428
X03750Y04428
X03250Y04428
X02410Y04423
X01910Y04423
X01410Y04423
X00910Y04423
X00705Y06428
X00205Y06428
X01605Y06438
X01705Y09078
X00705Y09078
X00207Y09065
X03929Y01007
X03929Y00507
X09246Y06923
X09746Y06923
T08
X00258Y02607
X02558Y02607
X03218Y02607
X05518Y02607
X02540Y05355
X00240Y05355
T09
X00215Y03835
X01045Y03845
X03175Y03835
X04005Y03845
T10
X06195Y07310
X06196Y09790
X08796Y09790
X08796Y07690
X08795Y07310
X08795Y05210
T11
X00260Y04250
X00260Y09750
X02510Y09750
M30
