%FSLAX34Y34*%
%MOMM*%
%LNSILK_BOTTOM*%
G71*
G01*
%ADD10C, 0.300*%
%ADD11C, 0.476*%
%ADD12C, 0.318*%
%ADD13C, 0.150*%
%ADD14C, 0.144*%
%ADD15C, 0.286*%
%ADD16C, 0.309*%
%LPD*%
G54D10*
X198575Y649000D02*
X3575Y649000D01*
X3575Y949000D01*
X198575Y949000D01*
X198575Y649000D01*
G54D10*
X278575Y554000D02*
X3575Y554000D01*
X3575Y644000D01*
X278575Y644000D01*
X278575Y554000D01*
G54D10*
X298575Y629000D02*
X593575Y629000D01*
X593575Y554000D01*
X298575Y554000D01*
X298575Y629000D01*
G54D10*
X596000Y782000D02*
X356000Y782000D01*
X356000Y942000D01*
X596000Y942000D01*
X596000Y782000D01*
G54D10*
X213900Y937600D02*
X277400Y937600D01*
X277400Y861400D01*
X213900Y861400D01*
X213900Y937600D01*
G54D11*
X78533Y882421D02*
X61867Y882421D01*
X58533Y880421D01*
X56867Y876421D01*
X56867Y872421D01*
X58533Y868421D01*
X61867Y866421D01*
X78533Y866421D01*
X81867Y868421D01*
X83533Y872421D01*
X83533Y876421D01*
X81867Y880421D01*
X78533Y882421D01*
G54D11*
X83533Y891754D02*
X56867Y901754D01*
X83533Y911754D01*
G54D11*
X168828Y830982D02*
X168828Y846982D01*
G54D11*
X175495Y838982D02*
X162162Y838982D01*
G54D11*
X183828Y856315D02*
X157162Y866315D01*
X183828Y876315D01*
G54D11*
X171162Y895648D02*
X172162Y891648D01*
X171162Y887648D01*
X167828Y885648D01*
X161162Y885648D01*
X157828Y887648D01*
X157162Y891648D01*
X157828Y895648D01*
G54D11*
X171162Y914981D02*
X172162Y910981D01*
X171162Y906981D01*
X167828Y904981D01*
X161162Y904981D01*
X157828Y906981D01*
X157162Y910981D01*
X157828Y914981D01*
G54D12*
X310487Y894578D02*
X299820Y894578D01*
G54D12*
X305154Y899022D02*
X305154Y890133D01*
G54D12*
X293598Y901244D02*
X292265Y903467D01*
X289598Y904578D01*
X286931Y904578D01*
X284265Y903467D01*
X282931Y901244D01*
X282931Y899022D01*
X284265Y896800D01*
X286931Y895689D01*
X284265Y894578D01*
X282931Y892356D01*
X282931Y890133D01*
X284265Y887911D01*
X286931Y886800D01*
X289598Y886800D01*
X292265Y887911D01*
X293598Y890133D01*
G54D12*
X275642Y886800D02*
X276709Y886800D01*
X276709Y887689D01*
X275642Y887689D01*
X275642Y886800D01*
X276709Y886800D01*
G54D12*
X269420Y901244D02*
X268087Y903467D01*
X265420Y904578D01*
X262753Y904578D01*
X260087Y903467D01*
X258753Y901244D01*
X258753Y899022D01*
X260087Y896800D01*
X262753Y895689D01*
X260087Y894578D01*
X258753Y892356D01*
X258753Y890133D01*
X260087Y887911D01*
X262753Y886800D01*
X265420Y886800D01*
X268087Y887911D01*
X269420Y890133D01*
G54D12*
X252531Y904578D02*
X245864Y886800D01*
X239198Y904578D01*
G54D12*
X258753Y875844D02*
X258753Y864733D01*
X260087Y862511D01*
X262753Y861400D01*
X265420Y861400D01*
X268087Y862511D01*
X269420Y864733D01*
X269420Y875844D01*
X268087Y878067D01*
X265420Y879178D01*
X262753Y879178D01*
X260087Y878067D01*
X258753Y875844D01*
G54D12*
X252531Y879178D02*
X245864Y861400D01*
X239198Y879178D01*
G54D13*
X546481Y670900D02*
X546481Y721700D01*
X470281Y721700D01*
X470281Y670900D01*
X546481Y670900D01*
G54D13*
X546481Y683600D02*
X546481Y709000D01*
X533781Y709000D01*
X533781Y683600D01*
X546481Y683600D01*
G54D14*
X463031Y663660D02*
X462338Y663660D01*
X462338Y664237D01*
X463031Y664237D01*
X463031Y663660D01*
X462338Y663660D01*
G54D14*
X461645Y683160D02*
X462338Y683160D01*
X462338Y683737D01*
X461645Y683737D01*
X461645Y683160D01*
X462338Y683160D01*
G54D14*
X461644Y683160D02*
X462338Y683160D01*
X462338Y683737D01*
X461644Y683737D01*
X461644Y683160D01*
X462338Y683160D01*
G54D15*
X314612Y555852D02*
X314612Y571852D01*
X306212Y571852D01*
G54D15*
X314612Y563852D02*
X306212Y563852D01*
G54D15*
X362004Y555852D02*
X362004Y571852D01*
X352404Y555852D01*
X352404Y571852D01*
G54D15*
X492004Y555852D02*
X492004Y571852D01*
X482404Y555852D01*
X482404Y571852D01*
G54D15*
X562004Y555852D02*
X562004Y571852D01*
X552404Y555852D01*
X552404Y571852D01*
G54D15*
X431564Y570852D02*
X431564Y560852D01*
X432764Y558852D01*
X435164Y557852D01*
X437564Y557852D01*
X439964Y558852D01*
X441164Y560852D01*
X441164Y570852D01*
X439964Y572852D01*
X437564Y573852D01*
X435164Y573852D01*
X432764Y572852D01*
X431564Y570852D01*
G54D15*
X418764Y566852D02*
X418764Y557852D01*
G54D15*
X418764Y559852D02*
X419964Y558252D01*
X422364Y557852D01*
X424764Y558252D01*
X425964Y559852D01*
X425964Y566852D01*
G54D15*
X410764Y573852D02*
X410764Y558852D01*
X409564Y557852D01*
X408364Y558252D01*
G54D15*
X413164Y566852D02*
X408364Y566852D01*
G54D15*
X544004Y605852D02*
X544004Y614852D01*
G54D15*
X544004Y613252D02*
X541604Y614852D01*
X539204Y614252D01*
X538004Y612852D01*
X538004Y605852D01*
G54D15*
X538004Y613252D02*
X535604Y614852D01*
X533204Y614252D01*
X532004Y612852D01*
X532004Y605852D01*
G54D15*
X519204Y608252D02*
X519204Y612252D01*
X520404Y614252D01*
X522804Y614852D01*
X525204Y614252D01*
X526404Y612252D01*
X526404Y608252D01*
X525204Y606252D01*
X522804Y605852D01*
X520404Y606252D01*
X519204Y608252D01*
G54D15*
X507604Y614252D02*
X510004Y614852D01*
X512404Y614252D01*
X513604Y612252D01*
X513604Y608252D01*
X512404Y606252D01*
X510004Y605852D01*
X507604Y606252D01*
G54D15*
X492404Y618852D02*
X493604Y620852D01*
X496004Y621852D01*
X498404Y621852D01*
X500804Y620852D01*
X502004Y618852D01*
X502004Y613852D01*
X502004Y612852D01*
X498404Y614852D01*
X496004Y614852D01*
X493604Y613852D01*
X492404Y611852D01*
X492404Y608852D01*
X493604Y606852D01*
X496004Y605852D01*
X498404Y605852D01*
X500804Y606852D01*
X502004Y608852D01*
X502004Y613852D01*
G54D10*
X54000Y925000D02*
X30000Y925000D01*
G54D10*
X28000Y937000D02*
X28000Y911000D01*
G54D16*
X96021Y717320D02*
X99910Y719987D01*
X102133Y723987D01*
X102133Y729320D01*
X99910Y733320D01*
X96021Y736653D01*
X92133Y739320D01*
X89910Y743320D01*
X89910Y749320D01*
X92133Y752653D01*
X96021Y755320D01*
G54D16*
X76577Y764209D02*
X121021Y790876D01*
G54D16*
X101577Y799765D02*
X101577Y826432D01*
G54D16*
X90466Y799765D02*
X90466Y826432D01*
M02*
