%FSLAX34Y34*%
%MOMM*%
%LNSMDMASK_TOP*%
G71*
G01*
%ADD10R, 1.050X2.000*%
%ADD11R, 2.000X1.000*%
%ADD12R, 1.800X1.300*%
%ADD13R, 3.600X2.000*%
%ADD14R, 0.900X2.000*%
%ADD15R, 4.100X2.400*%
%ADD16R, 0.870X1.600*%
%ADD17R, 1.300X1.800*%
%ADD18R, 1.500X1.600*%
%ADD19R, 1.600X1.600*%
%ADD20R, 1.600X0.870*%
%LPD*%
X513000Y942000D02*
G54D10*
D03*
X493000Y942000D02*
G54D10*
D03*
X473000Y942000D02*
G54D10*
D03*
X453000Y942000D02*
G54D10*
D03*
X433000Y942000D02*
G54D10*
D03*
X413000Y942000D02*
G54D10*
D03*
X393000Y942000D02*
G54D10*
D03*
X373000Y942000D02*
G54D10*
D03*
X513000Y782000D02*
G54D10*
D03*
X493000Y782000D02*
G54D10*
D03*
X473000Y782000D02*
G54D10*
D03*
X453000Y782000D02*
G54D10*
D03*
X433000Y782000D02*
G54D10*
D03*
X413000Y782000D02*
G54D10*
D03*
X393000Y782000D02*
G54D10*
D03*
X373000Y782000D02*
G54D10*
D03*
X358000Y912000D02*
G54D11*
D03*
X358000Y892000D02*
G54D11*
D03*
X358000Y872000D02*
G54D11*
D03*
X358000Y852000D02*
G54D11*
D03*
X358000Y832000D02*
G54D11*
D03*
X358000Y812000D02*
G54D11*
D03*
X231204Y671853D02*
G54D12*
D03*
X231304Y704353D02*
G54D12*
D03*
X271204Y671853D02*
G54D12*
D03*
X271304Y704353D02*
G54D12*
D03*
X270204Y781853D02*
G54D12*
D03*
X270304Y814353D02*
G54D12*
D03*
X270204Y726853D02*
G54D12*
D03*
X270304Y759353D02*
G54D12*
D03*
X230204Y781853D02*
G54D12*
D03*
X230304Y814353D02*
G54D12*
D03*
X230204Y726853D02*
G54D12*
D03*
X230304Y759353D02*
G54D12*
D03*
X289818Y675182D02*
G54D13*
D03*
X289818Y665182D02*
G54D13*
D03*
X317035Y784796D02*
G54D12*
D03*
X317135Y817296D02*
G54D12*
D03*
X379000Y674472D02*
G54D14*
D03*
X401200Y674472D02*
G54D14*
D03*
X423500Y674472D02*
G54D14*
D03*
X401200Y733272D02*
G54D15*
D03*
X374634Y647484D02*
G54D16*
D03*
X405034Y647484D02*
G54D16*
D03*
G36*
X462867Y647327D02*
X475867Y647327D01*
X475868Y629327D01*
X462868Y629327D01*
X462867Y647327D01*
G37*
X501867Y638227D02*
G54D17*
D03*
X452860Y697944D02*
G54D12*
D03*
X452760Y665444D02*
G54D12*
D03*
G36*
X494453Y764851D02*
X507453Y764851D01*
X507453Y746851D01*
X494453Y746851D01*
X494453Y764851D01*
G37*
X533453Y755751D02*
G54D17*
D03*
X422303Y638456D02*
G54D17*
D03*
X454803Y638356D02*
G54D17*
D03*
X415734Y647565D02*
G54D18*
D03*
X373220Y648059D02*
G54D18*
D03*
X372827Y672711D02*
G54D19*
D03*
X342059Y795947D02*
G54D20*
D03*
X342059Y765547D02*
G54D20*
D03*
X432313Y974934D02*
G54D16*
D03*
X401913Y974934D02*
G54D16*
D03*
M02*
