; Drill file
; Format: 2.4 (00.0000)
M48
INCH
T01C0.0276
T02C0.0283
T03C0.0315
T04C0.0354
T05C0.0394
T06C0.0591
T07C0.1181
%
G05
G90
T01
X012330Y026570
X013330Y026570
X013330Y029580
X012330Y029580
T02
X019020Y025910
X020020Y025910
X021020Y025910
X021020Y028910
X020020Y028910
X019020Y028910
T03
X007980Y026330
X008840Y026330
X011320Y026340
X012360Y025590
X013360Y025590
X014690Y025510
X014680Y026480
X015860Y026510
X017830Y027480
X018190Y025130
X013620Y031180
X011650Y034390
X011650Y035390
X013150Y035160
X013150Y036160
T04
X008920Y034410
X008920Y035410
X008920Y036410
T05
X000710Y026260
X002680Y026260
X002680Y036690
X004650Y036690
X006610Y036690
X012720Y023110
X014690Y023110
X016650Y023110
X018620Y023110
X020590Y023110
X022560Y023110
T06
X000910Y023500
X009960Y023500
T07
X000980Y038430
X009840Y038430
X013780Y038390
X022680Y038430
M30
