%FSLAX34Y34*%
%MOMM*%
%LNCOPPER_BOTTOM*%
G71*
G01*
%ADD10C, 3.000*%
%ADD11C, 3.500*%
%ADD12C, 2.300*%
%ADD13C, 1.600*%
%ADD14C, 1.000*%
%ADD15C, 1.600*%
%ADD16C, 1.600*%
%ADD17C, 1.400*%
%ADD18C, 2.000*%
%ADD19C, 0.600*%
%ADD20C, 0.300*%
%ADD21C, 0.800*%
%LPD*%
X573000Y587000D02*
G54D10*
D03*
X523000Y587000D02*
G54D10*
D03*
X473000Y587000D02*
G54D10*
D03*
X423000Y587000D02*
G54D10*
D03*
X373000Y587000D02*
G54D10*
D03*
X323000Y587000D02*
G54D10*
D03*
X23000Y597000D02*
G54D11*
D03*
X253000Y597000D02*
G54D11*
D03*
X68000Y932000D02*
G54D10*
D03*
X118000Y932000D02*
G54D10*
D03*
X168000Y932000D02*
G54D10*
D03*
X18000Y667000D02*
G54D10*
D03*
X68000Y667000D02*
G54D10*
D03*
X573000Y587000D02*
G54D10*
D03*
X523000Y587000D02*
G54D10*
D03*
X473000Y587000D02*
G54D10*
D03*
X423000Y587000D02*
G54D10*
D03*
X373000Y587000D02*
G54D10*
D03*
X323000Y587000D02*
G54D10*
D03*
X23000Y597000D02*
G54D11*
D03*
X253000Y597000D02*
G54D11*
D03*
X68000Y932000D02*
G54D10*
D03*
X118000Y932000D02*
G54D10*
D03*
X168000Y932000D02*
G54D10*
D03*
X18000Y667000D02*
G54D10*
D03*
X68000Y667000D02*
G54D10*
D03*
X573000Y587000D02*
G54D10*
D03*
X523000Y587000D02*
G54D10*
D03*
X473000Y587000D02*
G54D10*
D03*
X423000Y587000D02*
G54D10*
D03*
X373000Y587000D02*
G54D10*
D03*
X323000Y587000D02*
G54D10*
D03*
X23000Y597000D02*
G54D11*
D03*
X253000Y597000D02*
G54D11*
D03*
X68000Y932000D02*
G54D10*
D03*
X118000Y932000D02*
G54D10*
D03*
X168000Y932000D02*
G54D10*
D03*
X18000Y667000D02*
G54D10*
D03*
X68000Y667000D02*
G54D10*
D03*
X226600Y924900D02*
G54D12*
D03*
X226600Y899500D02*
G54D12*
D03*
X226600Y874100D02*
G54D12*
D03*
X226600Y924900D02*
G54D12*
D03*
X226600Y899500D02*
G54D12*
D03*
X226600Y874100D02*
G54D12*
D03*
G36*
X305112Y666917D02*
X305112Y682917D01*
X321112Y682917D01*
X321112Y666917D01*
X305112Y666917D01*
G37*
X338612Y674917D02*
G54D13*
D03*
X313112Y751417D02*
G54D13*
D03*
X338612Y751417D02*
G54D13*
D03*
G54D14*
X226600Y899500D02*
X311531Y899500D01*
X313912Y897119D01*
X313912Y752218D01*
X313112Y751417D01*
X313866Y649869D02*
G54D15*
D03*
G36*
X347266Y641869D02*
X331266Y641869D01*
X331266Y657869D01*
X347266Y657869D01*
X347266Y641869D01*
G37*
G36*
X541781Y726400D02*
X525781Y726400D01*
X525781Y742400D01*
X541781Y742400D01*
X541781Y726400D01*
G37*
X508381Y734400D02*
G54D16*
D03*
X482981Y734400D02*
G54D16*
D03*
X482981Y658200D02*
G54D16*
D03*
X508381Y658200D02*
G54D16*
D03*
X533781Y658200D02*
G54D16*
D03*
X295832Y898930D02*
G54D15*
D03*
G36*
X287832Y865530D02*
X287832Y881530D01*
X303832Y881530D01*
X303832Y865530D01*
X287832Y865530D01*
G37*
G36*
X540781Y727400D02*
X526781Y727400D01*
X526781Y741400D01*
X540781Y741400D01*
X540781Y727400D01*
G37*
X508381Y734400D02*
G54D17*
D03*
X482981Y734400D02*
G54D17*
D03*
X482981Y658200D02*
G54D17*
D03*
X508381Y658200D02*
G54D17*
D03*
X533781Y658200D02*
G54D17*
D03*
G54D18*
X201984Y668776D02*
X245114Y668776D01*
X246444Y670106D01*
X294069Y622481D01*
X371062Y622481D01*
X371412Y622131D01*
G54D18*
X371062Y622481D02*
X375208Y649693D01*
X375208Y675093D01*
G54D18*
X423000Y587000D02*
X423000Y588800D01*
X407575Y613353D01*
X402812Y673236D01*
X401796Y674253D01*
X402812Y673236D02*
G54D15*
D03*
X372827Y672711D02*
G54D15*
D03*
X373220Y648059D02*
G54D15*
D03*
X224638Y668862D02*
G54D15*
D03*
X202638Y668862D02*
G54D15*
D03*
X346059Y791947D02*
G54D15*
D03*
X461947Y638356D02*
G54D15*
D03*
G54D19*
X461947Y638356D02*
X406862Y638356D01*
X411191Y637997D01*
X452860Y697944D02*
G54D15*
D03*
X333912Y892944D02*
G54D15*
D03*
G36*
X341912Y926344D02*
X341912Y910344D01*
X325912Y910344D01*
X325912Y926344D01*
X341912Y926344D01*
G37*
G54D20*
X346059Y791947D02*
X348044Y791947D01*
X380984Y759006D01*
X467106Y759006D01*
X467503Y758609D01*
X467503Y749878D01*
X482981Y734400D01*
X508381Y734400D01*
X287638Y669162D02*
G54D15*
D03*
G54D21*
X372827Y672711D02*
X372827Y695827D01*
X376000Y699000D01*
X451803Y699000D01*
X452860Y697944D01*
G36*
X380984Y759006D02*
X518000Y759000D01*
X518000Y952000D01*
X369000Y952000D01*
X349000Y932000D01*
X349000Y794888D01*
X346059Y791947D01*
X348044Y791947D01*
X380984Y759006D01*
G37*
G54D20*
X380984Y759006D02*
X518000Y759000D01*
X518000Y952000D01*
X369000Y952000D01*
X349000Y932000D01*
X349000Y794888D01*
X346059Y791947D01*
X348044Y791947D01*
X380984Y759006D01*
M02*
