%FSLAX34Y34*%
%MOMM*%
%LNSOLDERMASK_TOP*%
G71*
G01*
%ADD10R, 1.250X2.200*%
%ADD11R, 2.200X1.200*%
%ADD12C, 2.200*%
%ADD13C, 1.800*%
%ADD14C, 2.120*%
%ADD15C, 4.100*%
%ADD16C, 2.200*%
%ADD17C, 3.600*%
%ADD18R, 2.000X1.500*%
%ADD19C, 2.900*%
%ADD20C, 1.800*%
%ADD21R, 1.100X2.200*%
%ADD22R, 4.300X2.600*%
%ADD23C, 2.200*%
%ADD24R, 1.700X1.800*%
%ADD25R, 1.800X1.800*%
%ADD26C, 2.200*%
%ADD27C, 1.600*%
%LPD*%
X210700Y957600D02*
G54D10*
D03*
X190700Y957600D02*
G54D10*
D03*
X170700Y957600D02*
G54D10*
D03*
X150700Y957600D02*
G54D10*
D03*
X130700Y957600D02*
G54D10*
D03*
X110700Y957600D02*
G54D10*
D03*
X90700Y957600D02*
G54D10*
D03*
X70700Y957600D02*
G54D10*
D03*
X210700Y797600D02*
G54D10*
D03*
X190700Y797600D02*
G54D10*
D03*
X170700Y797600D02*
G54D10*
D03*
X150700Y797600D02*
G54D10*
D03*
X130700Y797600D02*
G54D10*
D03*
X110700Y797600D02*
G54D10*
D03*
X90700Y797600D02*
G54D10*
D03*
X70700Y797600D02*
G54D10*
D03*
X55700Y927600D02*
G54D11*
D03*
X55700Y907600D02*
G54D11*
D03*
X55700Y887600D02*
G54D11*
D03*
X55700Y867600D02*
G54D11*
D03*
X55700Y847600D02*
G54D11*
D03*
X55700Y827600D02*
G54D11*
D03*
X32022Y947422D02*
G54D12*
D03*
X31932Y819178D02*
G54D12*
D03*
X210739Y957395D02*
G54D13*
D03*
X190739Y957395D02*
G54D13*
D03*
X170739Y957395D02*
G54D13*
D03*
X150739Y957395D02*
G54D13*
D03*
X130739Y957395D02*
G54D13*
D03*
X110739Y957395D02*
G54D13*
D03*
X90739Y957395D02*
G54D13*
D03*
X70739Y957395D02*
G54D13*
D03*
X55739Y927395D02*
G54D13*
D03*
X55739Y907395D02*
G54D13*
D03*
X55739Y887395D02*
G54D13*
D03*
X55739Y867395D02*
G54D13*
D03*
X55739Y847395D02*
G54D13*
D03*
X55739Y827395D02*
G54D13*
D03*
X70700Y797600D02*
G54D13*
D03*
X90700Y797600D02*
G54D13*
D03*
X110700Y797600D02*
G54D13*
D03*
X130700Y797600D02*
G54D13*
D03*
X150700Y797600D02*
G54D13*
D03*
X170700Y797600D02*
G54D13*
D03*
X190700Y797600D02*
G54D13*
D03*
X210700Y797600D02*
G54D13*
D03*
X41100Y797700D02*
G54D12*
D03*
X31222Y844978D02*
G54D12*
D03*
G36*
X140616Y971095D02*
X119416Y971095D01*
X119416Y992295D01*
X140616Y992295D01*
X140616Y971095D01*
G37*
G36*
X20722Y874009D02*
X20722Y895209D01*
X41922Y895209D01*
X41922Y874009D01*
X20722Y874009D01*
G37*
X31322Y910009D02*
G54D14*
D03*
G36*
X161700Y992500D02*
X182900Y992500D01*
X182900Y971300D01*
X161700Y971300D01*
X161700Y992500D01*
G37*
X197700Y981900D02*
G54D14*
D03*
G36*
X89900Y784200D02*
X111100Y784200D01*
X111100Y763000D01*
X89900Y763000D01*
X89900Y784200D01*
G37*
X125900Y773600D02*
G54D14*
D03*
X104639Y979195D02*
G54D13*
D03*
X80639Y979195D02*
G54D13*
D03*
X150800Y770100D02*
G54D13*
D03*
X170800Y770100D02*
G54D13*
D03*
G36*
X182700Y784500D02*
X203900Y784500D01*
X203900Y763300D01*
X182700Y763300D01*
X182700Y784500D01*
G37*
X218700Y773900D02*
G54D14*
D03*
X508700Y957600D02*
G54D10*
D03*
X488700Y957600D02*
G54D10*
D03*
X468700Y957600D02*
G54D10*
D03*
X448700Y957600D02*
G54D10*
D03*
X428700Y957600D02*
G54D10*
D03*
X408700Y957600D02*
G54D10*
D03*
X388700Y957600D02*
G54D10*
D03*
X368700Y957600D02*
G54D10*
D03*
X508700Y797600D02*
G54D10*
D03*
X488700Y797600D02*
G54D10*
D03*
X468700Y797600D02*
G54D10*
D03*
X448700Y797600D02*
G54D10*
D03*
X428700Y797600D02*
G54D10*
D03*
X408700Y797600D02*
G54D10*
D03*
X388700Y797600D02*
G54D10*
D03*
X368700Y797600D02*
G54D10*
D03*
X353700Y927600D02*
G54D11*
D03*
X353700Y907600D02*
G54D11*
D03*
X353700Y887600D02*
G54D11*
D03*
X353700Y867600D02*
G54D11*
D03*
X353700Y847600D02*
G54D11*
D03*
X353700Y827600D02*
G54D11*
D03*
X330022Y947422D02*
G54D12*
D03*
X329932Y819178D02*
G54D12*
D03*
X508739Y957395D02*
G54D13*
D03*
X488739Y957395D02*
G54D13*
D03*
X468739Y957395D02*
G54D13*
D03*
X448739Y957395D02*
G54D13*
D03*
X428739Y957395D02*
G54D13*
D03*
X408739Y957395D02*
G54D13*
D03*
X388739Y957395D02*
G54D13*
D03*
X368739Y957395D02*
G54D13*
D03*
X353739Y927395D02*
G54D13*
D03*
X353739Y907395D02*
G54D13*
D03*
X353739Y887395D02*
G54D13*
D03*
X353739Y867395D02*
G54D13*
D03*
X353739Y847395D02*
G54D13*
D03*
X353739Y827395D02*
G54D13*
D03*
X368700Y797600D02*
G54D13*
D03*
X388700Y797600D02*
G54D13*
D03*
X408700Y797600D02*
G54D13*
D03*
X428700Y797600D02*
G54D13*
D03*
X448700Y797600D02*
G54D13*
D03*
X468700Y797600D02*
G54D13*
D03*
X488700Y797600D02*
G54D13*
D03*
X508700Y797600D02*
G54D13*
D03*
X339100Y797700D02*
G54D12*
D03*
X329222Y844978D02*
G54D12*
D03*
G36*
X438616Y971095D02*
X417416Y971095D01*
X417416Y992295D01*
X438616Y992295D01*
X438616Y971095D01*
G37*
G36*
X318722Y874009D02*
X318722Y895209D01*
X339922Y895209D01*
X339922Y874009D01*
X318722Y874009D01*
G37*
X329322Y910009D02*
G54D14*
D03*
G36*
X459700Y992500D02*
X480900Y992500D01*
X480900Y971300D01*
X459700Y971300D01*
X459700Y992500D01*
G37*
X495700Y981900D02*
G54D14*
D03*
G36*
X387900Y784200D02*
X409100Y784200D01*
X409100Y763000D01*
X387900Y763000D01*
X387900Y784200D01*
G37*
X423900Y773600D02*
G54D14*
D03*
X402639Y979195D02*
G54D13*
D03*
X378639Y979195D02*
G54D13*
D03*
X448800Y770100D02*
G54D13*
D03*
X468800Y770100D02*
G54D13*
D03*
G36*
X480700Y784500D02*
X501900Y784500D01*
X501900Y763300D01*
X480700Y763300D01*
X480700Y784500D01*
G37*
X516700Y773900D02*
G54D14*
D03*
X806700Y957600D02*
G54D10*
D03*
X786700Y957600D02*
G54D10*
D03*
X766700Y957600D02*
G54D10*
D03*
X746700Y957600D02*
G54D10*
D03*
X726700Y957600D02*
G54D10*
D03*
X706700Y957600D02*
G54D10*
D03*
X686700Y957600D02*
G54D10*
D03*
X666700Y957600D02*
G54D10*
D03*
X806700Y797600D02*
G54D10*
D03*
X786700Y797600D02*
G54D10*
D03*
X766700Y797600D02*
G54D10*
D03*
X746700Y797600D02*
G54D10*
D03*
X726700Y797600D02*
G54D10*
D03*
X706700Y797600D02*
G54D10*
D03*
X686700Y797600D02*
G54D10*
D03*
X666700Y797600D02*
G54D10*
D03*
X651700Y927600D02*
G54D11*
D03*
X651700Y907600D02*
G54D11*
D03*
X651700Y887600D02*
G54D11*
D03*
X651700Y867600D02*
G54D11*
D03*
X651700Y847600D02*
G54D11*
D03*
X651700Y827600D02*
G54D11*
D03*
X628022Y947422D02*
G54D12*
D03*
X627932Y819178D02*
G54D12*
D03*
X806739Y957395D02*
G54D13*
D03*
X786739Y957395D02*
G54D13*
D03*
X766739Y957395D02*
G54D13*
D03*
X746739Y957395D02*
G54D13*
D03*
X726739Y957395D02*
G54D13*
D03*
X706739Y957395D02*
G54D13*
D03*
X686739Y957395D02*
G54D13*
D03*
X666739Y957395D02*
G54D13*
D03*
X651739Y927395D02*
G54D13*
D03*
X651739Y907395D02*
G54D13*
D03*
X651739Y887395D02*
G54D13*
D03*
X651739Y867395D02*
G54D13*
D03*
X651739Y847395D02*
G54D13*
D03*
X651739Y827395D02*
G54D13*
D03*
X666700Y797600D02*
G54D13*
D03*
X686700Y797600D02*
G54D13*
D03*
X706700Y797600D02*
G54D13*
D03*
X726700Y797600D02*
G54D13*
D03*
X746700Y797600D02*
G54D13*
D03*
X766700Y797600D02*
G54D13*
D03*
X786700Y797600D02*
G54D13*
D03*
X806700Y797600D02*
G54D13*
D03*
X637100Y797700D02*
G54D12*
D03*
X627222Y844978D02*
G54D12*
D03*
G36*
X736616Y971095D02*
X715416Y971095D01*
X715416Y992295D01*
X736616Y992295D01*
X736616Y971095D01*
G37*
G36*
X616722Y874009D02*
X616722Y895209D01*
X637922Y895209D01*
X637922Y874009D01*
X616722Y874009D01*
G37*
X627322Y910009D02*
G54D14*
D03*
G36*
X757700Y992500D02*
X778900Y992500D01*
X778900Y971300D01*
X757700Y971300D01*
X757700Y992500D01*
G37*
X793700Y981900D02*
G54D14*
D03*
G36*
X685900Y784200D02*
X707100Y784200D01*
X707100Y763000D01*
X685900Y763000D01*
X685900Y784200D01*
G37*
X721900Y773600D02*
G54D14*
D03*
X700639Y979195D02*
G54D13*
D03*
X676639Y979195D02*
G54D13*
D03*
X746800Y770100D02*
G54D13*
D03*
X766800Y770100D02*
G54D13*
D03*
G36*
X778700Y784500D02*
X799900Y784500D01*
X799900Y763300D01*
X778700Y763300D01*
X778700Y784500D01*
G37*
X814700Y773900D02*
G54D14*
D03*
X27320Y610700D02*
G54D15*
D03*
X257320Y610700D02*
G54D15*
D03*
X27320Y610700D02*
G54D15*
D03*
X257320Y610700D02*
G54D15*
D03*
G36*
X33332Y719461D02*
X55332Y719461D01*
X55332Y697461D01*
X33332Y697461D01*
X33332Y719461D01*
G37*
X44332Y682961D02*
G54D16*
D03*
X120832Y708461D02*
G54D16*
D03*
X120832Y682961D02*
G54D16*
D03*
X20885Y708696D02*
G54D12*
D03*
G36*
X9885Y672296D02*
X9885Y694296D01*
X31885Y694296D01*
X31885Y672296D01*
X9885Y672296D01*
G37*
X202877Y735724D02*
G54D12*
D03*
X275380Y517700D02*
G54D17*
D03*
X225380Y517700D02*
G54D17*
D03*
X175380Y517700D02*
G54D17*
D03*
X125380Y517700D02*
G54D17*
D03*
X75400Y517700D02*
G54D17*
D03*
X25400Y517700D02*
G54D17*
D03*
X145647Y713473D02*
G54D18*
D03*
X145547Y680973D02*
G54D18*
D03*
X176001Y730403D02*
G54D19*
D03*
X176001Y705003D02*
G54D19*
D03*
X176001Y679603D02*
G54D19*
D03*
X176001Y730403D02*
G54D19*
D03*
X176001Y705003D02*
G54D19*
D03*
X176001Y679603D02*
G54D19*
D03*
X145547Y679973D02*
G54D12*
D03*
G36*
X269271Y669879D02*
X269271Y691079D01*
X290471Y691079D01*
X290471Y669879D01*
X269271Y669879D01*
G37*
X279871Y705879D02*
G54D14*
D03*
G36*
X209271Y669879D02*
X209271Y691079D01*
X230471Y691079D01*
X230471Y669879D01*
X209271Y669879D01*
G37*
X219871Y705879D02*
G54D14*
D03*
G36*
X135106Y745995D02*
X156306Y745995D01*
X156306Y724795D01*
X135106Y724795D01*
X135106Y745995D01*
G37*
X219871Y709879D02*
G54D18*
D03*
X219771Y677379D02*
G54D18*
D03*
X237600Y735550D02*
G54D20*
D03*
X250300Y722850D02*
G54D20*
D03*
X263000Y735550D02*
G54D20*
D03*
X237600Y735550D02*
G54D20*
D03*
X250300Y722850D02*
G54D20*
D03*
X263000Y735550D02*
G54D20*
D03*
X145647Y713473D02*
G54D12*
D03*
G36*
X239106Y690995D02*
X260306Y690995D01*
X260306Y669795D01*
X239106Y669795D01*
X239106Y690995D01*
G37*
G36*
X274106Y742995D02*
X295306Y742995D01*
X295306Y721795D01*
X274106Y721795D01*
X274106Y742995D01*
G37*
X325614Y610305D02*
G54D15*
D03*
X555614Y610305D02*
G54D15*
D03*
X325614Y610305D02*
G54D15*
D03*
X555614Y610305D02*
G54D15*
D03*
G36*
X331626Y719066D02*
X353626Y719066D01*
X353626Y697066D01*
X331626Y697066D01*
X331626Y719066D01*
G37*
X342626Y682566D02*
G54D16*
D03*
X419126Y708066D02*
G54D16*
D03*
X419126Y682566D02*
G54D16*
D03*
X319179Y708301D02*
G54D12*
D03*
G36*
X308179Y671901D02*
X308179Y693901D01*
X330179Y693901D01*
X330179Y671901D01*
X308179Y671901D01*
G37*
X501171Y735329D02*
G54D12*
D03*
X573674Y517304D02*
G54D17*
D03*
X523674Y517304D02*
G54D17*
D03*
X473674Y517304D02*
G54D17*
D03*
X423674Y517304D02*
G54D17*
D03*
X373694Y517305D02*
G54D17*
D03*
X323694Y517305D02*
G54D17*
D03*
X443942Y713078D02*
G54D18*
D03*
X443842Y680578D02*
G54D18*
D03*
X474295Y730007D02*
G54D19*
D03*
X474295Y704607D02*
G54D19*
D03*
X474295Y679207D02*
G54D19*
D03*
X474295Y730007D02*
G54D19*
D03*
X474295Y704607D02*
G54D19*
D03*
X474295Y679207D02*
G54D19*
D03*
X443842Y679578D02*
G54D12*
D03*
G36*
X567565Y669484D02*
X567565Y690684D01*
X588765Y690684D01*
X588765Y669484D01*
X567565Y669484D01*
G37*
X578165Y705484D02*
G54D14*
D03*
G36*
X507565Y669484D02*
X507565Y690684D01*
X528765Y690684D01*
X528765Y669484D01*
X507565Y669484D01*
G37*
X518165Y705484D02*
G54D14*
D03*
G36*
X433400Y745600D02*
X454600Y745600D01*
X454600Y724400D01*
X433400Y724400D01*
X433400Y745600D01*
G37*
X518165Y709484D02*
G54D18*
D03*
X518065Y676984D02*
G54D18*
D03*
X535894Y735155D02*
G54D20*
D03*
X548594Y722455D02*
G54D20*
D03*
X561294Y735155D02*
G54D20*
D03*
X535894Y735155D02*
G54D20*
D03*
X548594Y722455D02*
G54D20*
D03*
X561294Y735155D02*
G54D20*
D03*
X443942Y713078D02*
G54D12*
D03*
G36*
X537400Y690600D02*
X558600Y690600D01*
X558600Y669400D01*
X537400Y669400D01*
X537400Y690600D01*
G37*
G36*
X572400Y742600D02*
X593600Y742600D01*
X593600Y721400D01*
X572400Y721400D01*
X572400Y742600D01*
G37*
X622614Y610305D02*
G54D15*
D03*
X852614Y610305D02*
G54D15*
D03*
X622614Y610305D02*
G54D15*
D03*
X852614Y610305D02*
G54D15*
D03*
G36*
X628626Y719066D02*
X650626Y719066D01*
X650626Y697066D01*
X628626Y697066D01*
X628626Y719066D01*
G37*
X639626Y682566D02*
G54D16*
D03*
X716126Y708066D02*
G54D16*
D03*
X716126Y682566D02*
G54D16*
D03*
X616179Y708301D02*
G54D12*
D03*
G36*
X605179Y671901D02*
X605179Y693901D01*
X627179Y693901D01*
X627179Y671901D01*
X605179Y671901D01*
G37*
X798171Y735329D02*
G54D12*
D03*
X870674Y517304D02*
G54D17*
D03*
X820674Y517304D02*
G54D17*
D03*
X770674Y517304D02*
G54D17*
D03*
X720674Y517304D02*
G54D17*
D03*
X670694Y517305D02*
G54D17*
D03*
X620694Y517305D02*
G54D17*
D03*
X740942Y713078D02*
G54D18*
D03*
X740842Y680578D02*
G54D18*
D03*
X771295Y730007D02*
G54D19*
D03*
X771295Y704607D02*
G54D19*
D03*
X771295Y679207D02*
G54D19*
D03*
X771295Y730007D02*
G54D19*
D03*
X771295Y704607D02*
G54D19*
D03*
X771295Y679207D02*
G54D19*
D03*
X740842Y679578D02*
G54D12*
D03*
G36*
X864565Y669484D02*
X864565Y690684D01*
X885765Y690684D01*
X885765Y669484D01*
X864565Y669484D01*
G37*
X875165Y705484D02*
G54D14*
D03*
G36*
X804565Y669484D02*
X804565Y690684D01*
X825765Y690684D01*
X825765Y669484D01*
X804565Y669484D01*
G37*
X815165Y705484D02*
G54D14*
D03*
G36*
X730400Y745600D02*
X751600Y745600D01*
X751600Y724400D01*
X730400Y724400D01*
X730400Y745600D01*
G37*
X815165Y709484D02*
G54D18*
D03*
X815065Y676984D02*
G54D18*
D03*
X832894Y735155D02*
G54D20*
D03*
X845594Y722455D02*
G54D20*
D03*
X858294Y735155D02*
G54D20*
D03*
X832894Y735155D02*
G54D20*
D03*
X845594Y722455D02*
G54D20*
D03*
X858294Y735155D02*
G54D20*
D03*
X740942Y713078D02*
G54D12*
D03*
G36*
X834400Y690600D02*
X855600Y690600D01*
X855600Y669400D01*
X834400Y669400D01*
X834400Y690600D01*
G37*
G36*
X869400Y742600D02*
X890600Y742600D01*
X890600Y721400D01*
X869400Y721400D01*
X869400Y742600D01*
G37*
X278454Y170129D02*
G54D17*
D03*
X228454Y170129D02*
G54D17*
D03*
X178454Y170129D02*
G54D17*
D03*
X128454Y170129D02*
G54D17*
D03*
X20372Y268001D02*
G54D21*
D03*
X42572Y268001D02*
G54D21*
D03*
X64872Y268001D02*
G54D21*
D03*
X42572Y326800D02*
G54D22*
D03*
G36*
X14652Y249988D02*
X24349Y245465D01*
X16741Y229152D01*
X7044Y233674D01*
X14652Y249988D01*
G37*
G36*
X42203Y237140D02*
X51901Y232618D01*
X44294Y216304D01*
X34596Y220826D01*
X42203Y237140D01*
G37*
G36*
X77654Y423929D02*
X55654Y423929D01*
X55654Y445929D01*
X77654Y445929D01*
X77654Y423929D01*
G37*
X41254Y434929D02*
G54D23*
D03*
X15854Y434929D02*
G54D23*
D03*
X15854Y358729D02*
G54D23*
D03*
X41254Y358729D02*
G54D23*
D03*
X66654Y358729D02*
G54D23*
D03*
X90575Y327228D02*
G54D18*
D03*
X90675Y359729D02*
G54D18*
D03*
X90735Y304972D02*
G54D18*
D03*
X90635Y272472D02*
G54D18*
D03*
G36*
X49340Y232474D02*
X62934Y238813D01*
X71387Y220687D01*
X57792Y214348D01*
X49340Y232474D01*
G37*
G36*
X78837Y246118D02*
X92432Y252458D01*
X100884Y234331D01*
X87290Y227992D01*
X78837Y246118D01*
G37*
X14433Y241587D02*
G54D24*
D03*
X41685Y266764D02*
G54D12*
D03*
X15099Y266240D02*
G54D12*
D03*
X17196Y238170D02*
G54D12*
D03*
X89963Y240225D02*
G54D12*
D03*
X14999Y266240D02*
G54D25*
D03*
G54D26*
X43168Y267781D02*
X43362Y267955D01*
X70685Y267764D02*
G54D12*
D03*
X90229Y436557D02*
G54D18*
D03*
X90129Y404057D02*
G54D18*
D03*
X90575Y327228D02*
G54D12*
D03*
X78454Y170129D02*
G54D17*
D03*
X28454Y170129D02*
G54D17*
D03*
G54D27*
X46254Y222429D02*
X56211Y222429D01*
X60363Y226580D01*
X50902Y226580D01*
X45754Y231729D01*
X55215Y231729D01*
X60363Y226580D01*
X119397Y267872D02*
G54D21*
D03*
X141597Y267872D02*
G54D21*
D03*
X163897Y267872D02*
G54D21*
D03*
X141597Y326672D02*
G54D22*
D03*
G36*
X113677Y249861D02*
X123374Y245339D01*
X115766Y229025D01*
X106069Y233548D01*
X113677Y249861D01*
G37*
G36*
X141228Y237013D02*
X150926Y232491D01*
X143319Y216177D01*
X133621Y220699D01*
X141228Y237013D01*
G37*
G36*
X176679Y423800D02*
X154679Y423800D01*
X154679Y445800D01*
X176679Y445800D01*
X176679Y423800D01*
G37*
X140279Y434800D02*
G54D23*
D03*
X114879Y434800D02*
G54D23*
D03*
X114879Y358600D02*
G54D23*
D03*
X140279Y358600D02*
G54D23*
D03*
X165679Y358600D02*
G54D23*
D03*
X189600Y327100D02*
G54D18*
D03*
X189700Y359600D02*
G54D18*
D03*
X189760Y304844D02*
G54D18*
D03*
X189660Y272344D02*
G54D18*
D03*
G36*
X148364Y232345D02*
X161959Y238685D01*
X170411Y220558D01*
X156817Y214219D01*
X148364Y232345D01*
G37*
G36*
X177862Y245990D02*
X191456Y252329D01*
X199909Y234203D01*
X186314Y227863D01*
X177862Y245990D01*
G37*
X113458Y241459D02*
G54D24*
D03*
X140710Y266636D02*
G54D12*
D03*
X114124Y266111D02*
G54D12*
D03*
X116222Y238042D02*
G54D12*
D03*
X188988Y240096D02*
G54D12*
D03*
X114024Y266111D02*
G54D25*
D03*
G54D26*
X142193Y267653D02*
X142387Y267826D01*
X169710Y267636D02*
G54D12*
D03*
X189254Y436429D02*
G54D18*
D03*
X189154Y403929D02*
G54D18*
D03*
X189600Y327100D02*
G54D12*
D03*
G54D27*
X145279Y222300D02*
X155236Y222300D01*
X159388Y226452D01*
X149927Y226452D01*
X144779Y231600D01*
X154240Y231600D01*
X159388Y226452D01*
X218597Y267972D02*
G54D21*
D03*
X240797Y267972D02*
G54D21*
D03*
X263097Y267972D02*
G54D21*
D03*
X240797Y326772D02*
G54D22*
D03*
G36*
X212876Y249959D02*
X222574Y245437D01*
X214966Y229124D01*
X205269Y233646D01*
X212876Y249959D01*
G37*
G36*
X240428Y237112D02*
X250126Y232590D01*
X242519Y216276D01*
X232821Y220798D01*
X240428Y237112D01*
G37*
G36*
X275879Y423900D02*
X253879Y423900D01*
X253879Y445900D01*
X275879Y445900D01*
X275879Y423900D01*
G37*
X239479Y434900D02*
G54D23*
D03*
X214079Y434900D02*
G54D23*
D03*
X214079Y358700D02*
G54D23*
D03*
X239479Y358700D02*
G54D23*
D03*
X264879Y358700D02*
G54D23*
D03*
X288800Y327200D02*
G54D18*
D03*
X288900Y359700D02*
G54D18*
D03*
X288960Y304944D02*
G54D18*
D03*
X288860Y272444D02*
G54D18*
D03*
G36*
X247564Y232445D02*
X261159Y238784D01*
X269611Y220658D01*
X256017Y214319D01*
X247564Y232445D01*
G37*
G36*
X277062Y246090D02*
X290656Y252429D01*
X299108Y234303D01*
X285514Y227963D01*
X277062Y246090D01*
G37*
X212658Y241559D02*
G54D24*
D03*
X239910Y266736D02*
G54D12*
D03*
X213324Y266211D02*
G54D12*
D03*
X215422Y238142D02*
G54D12*
D03*
X288188Y240196D02*
G54D12*
D03*
X213224Y266211D02*
G54D25*
D03*
G54D26*
X241393Y267753D02*
X241587Y267926D01*
X268910Y267736D02*
G54D12*
D03*
X288454Y436529D02*
G54D18*
D03*
X288354Y404029D02*
G54D18*
D03*
X288800Y327200D02*
G54D12*
D03*
G54D27*
X244479Y222400D02*
X254436Y222400D01*
X258588Y226552D01*
X249127Y226552D01*
X243979Y231700D01*
X253440Y231700D01*
X258588Y226552D01*
X16675Y219507D02*
G54D12*
D03*
X116975Y220207D02*
G54D12*
D03*
X215775Y220607D02*
G54D12*
D03*
G36*
X30754Y467929D02*
X51954Y467929D01*
X51954Y446729D01*
X30754Y446729D01*
X30754Y467929D01*
G37*
X66754Y457329D02*
G54D14*
D03*
G36*
X129854Y467929D02*
X151054Y467929D01*
X151054Y446729D01*
X129854Y446729D01*
X129854Y467929D01*
G37*
X165854Y457329D02*
G54D14*
D03*
G36*
X228754Y467929D02*
X249954Y467929D01*
X249954Y446729D01*
X228754Y446729D01*
X228754Y467929D01*
G37*
X264754Y457329D02*
G54D14*
D03*
X575954Y169629D02*
G54D17*
D03*
X525954Y169629D02*
G54D17*
D03*
X475954Y169629D02*
G54D17*
D03*
X425954Y169629D02*
G54D17*
D03*
X317872Y267501D02*
G54D21*
D03*
X340072Y267501D02*
G54D21*
D03*
X362372Y267501D02*
G54D21*
D03*
X340072Y326300D02*
G54D22*
D03*
G36*
X312152Y249488D02*
X321849Y244965D01*
X314241Y228652D01*
X304544Y233174D01*
X312152Y249488D01*
G37*
G36*
X339703Y236640D02*
X349401Y232118D01*
X341794Y215804D01*
X332096Y220326D01*
X339703Y236640D01*
G37*
G36*
X375154Y423429D02*
X353154Y423429D01*
X353154Y445429D01*
X375154Y445429D01*
X375154Y423429D01*
G37*
X338754Y434429D02*
G54D23*
D03*
X313354Y434429D02*
G54D23*
D03*
X313354Y358229D02*
G54D23*
D03*
X338754Y358229D02*
G54D23*
D03*
X364154Y358229D02*
G54D23*
D03*
X388075Y326728D02*
G54D18*
D03*
X388175Y359229D02*
G54D18*
D03*
X388235Y304472D02*
G54D18*
D03*
X388135Y271972D02*
G54D18*
D03*
G36*
X346840Y231974D02*
X360434Y238313D01*
X368887Y220187D01*
X355292Y213848D01*
X346840Y231974D01*
G37*
G36*
X376337Y245618D02*
X389932Y251958D01*
X398384Y233831D01*
X384790Y227492D01*
X376337Y245618D01*
G37*
X311933Y241087D02*
G54D24*
D03*
X339185Y266264D02*
G54D12*
D03*
X312599Y265740D02*
G54D12*
D03*
X314696Y237670D02*
G54D12*
D03*
X387463Y239725D02*
G54D12*
D03*
X312499Y265740D02*
G54D25*
D03*
G54D26*
X340668Y267281D02*
X340862Y267455D01*
X368185Y267264D02*
G54D12*
D03*
X387729Y436057D02*
G54D18*
D03*
X387629Y403557D02*
G54D18*
D03*
X388075Y326728D02*
G54D12*
D03*
X375954Y169629D02*
G54D17*
D03*
X325954Y169629D02*
G54D17*
D03*
G54D27*
X343754Y221929D02*
X353711Y221929D01*
X357863Y226080D01*
X348402Y226080D01*
X343254Y231229D01*
X352715Y231229D01*
X357863Y226080D01*
X416897Y267372D02*
G54D21*
D03*
X439097Y267372D02*
G54D21*
D03*
X461397Y267372D02*
G54D21*
D03*
X439097Y326172D02*
G54D22*
D03*
G36*
X411177Y249361D02*
X420874Y244839D01*
X413266Y228525D01*
X403569Y233048D01*
X411177Y249361D01*
G37*
G36*
X438728Y236513D02*
X448426Y231991D01*
X440819Y215677D01*
X431121Y220199D01*
X438728Y236513D01*
G37*
G36*
X474179Y423300D02*
X452179Y423300D01*
X452179Y445300D01*
X474179Y445300D01*
X474179Y423300D01*
G37*
X437779Y434300D02*
G54D23*
D03*
X412379Y434300D02*
G54D23*
D03*
X412379Y358100D02*
G54D23*
D03*
X437779Y358100D02*
G54D23*
D03*
X463179Y358100D02*
G54D23*
D03*
X487100Y326600D02*
G54D18*
D03*
X487200Y359100D02*
G54D18*
D03*
X487260Y304344D02*
G54D18*
D03*
X487160Y271844D02*
G54D18*
D03*
G36*
X445864Y231845D02*
X459459Y238185D01*
X467911Y220058D01*
X454317Y213719D01*
X445864Y231845D01*
G37*
G36*
X475362Y245490D02*
X488956Y251829D01*
X497409Y233703D01*
X483814Y227363D01*
X475362Y245490D01*
G37*
X410958Y240959D02*
G54D24*
D03*
X438210Y266136D02*
G54D12*
D03*
X411624Y265611D02*
G54D12*
D03*
X413722Y237542D02*
G54D12*
D03*
X486488Y239596D02*
G54D12*
D03*
X411524Y265611D02*
G54D25*
D03*
G54D26*
X439693Y267153D02*
X439887Y267326D01*
X467210Y267136D02*
G54D12*
D03*
X486754Y435929D02*
G54D18*
D03*
X486654Y403429D02*
G54D18*
D03*
X487100Y326600D02*
G54D12*
D03*
G54D27*
X442779Y221800D02*
X452736Y221800D01*
X456888Y225952D01*
X447427Y225952D01*
X442279Y231100D01*
X451740Y231100D01*
X456888Y225952D01*
X516097Y267472D02*
G54D21*
D03*
X538297Y267472D02*
G54D21*
D03*
X560597Y267472D02*
G54D21*
D03*
X538297Y326272D02*
G54D22*
D03*
G36*
X510376Y249459D02*
X520074Y244937D01*
X512466Y228624D01*
X502769Y233146D01*
X510376Y249459D01*
G37*
G36*
X537928Y236612D02*
X547626Y232090D01*
X540019Y215776D01*
X530321Y220298D01*
X537928Y236612D01*
G37*
G36*
X573379Y423400D02*
X551379Y423400D01*
X551379Y445400D01*
X573379Y445400D01*
X573379Y423400D01*
G37*
X536979Y434400D02*
G54D23*
D03*
X511579Y434400D02*
G54D23*
D03*
X511579Y358200D02*
G54D23*
D03*
X536979Y358200D02*
G54D23*
D03*
X562379Y358200D02*
G54D23*
D03*
X586300Y326700D02*
G54D18*
D03*
X586400Y359200D02*
G54D18*
D03*
X586460Y304444D02*
G54D18*
D03*
X586360Y271944D02*
G54D18*
D03*
G36*
X545064Y231945D02*
X558659Y238284D01*
X567111Y220158D01*
X553517Y213819D01*
X545064Y231945D01*
G37*
G36*
X574562Y245590D02*
X588156Y251929D01*
X596608Y233803D01*
X583014Y227463D01*
X574562Y245590D01*
G37*
X510158Y241059D02*
G54D24*
D03*
X537410Y266236D02*
G54D12*
D03*
X510824Y265711D02*
G54D12*
D03*
X512922Y237642D02*
G54D12*
D03*
X585688Y239696D02*
G54D12*
D03*
X510724Y265711D02*
G54D25*
D03*
G54D26*
X538893Y267253D02*
X539087Y267426D01*
X566410Y267236D02*
G54D12*
D03*
X585954Y436029D02*
G54D18*
D03*
X585854Y403529D02*
G54D18*
D03*
X586300Y326700D02*
G54D12*
D03*
G54D27*
X541979Y221900D02*
X551936Y221900D01*
X556088Y226052D01*
X546627Y226052D01*
X541479Y231200D01*
X550940Y231200D01*
X556088Y226052D01*
X314175Y219007D02*
G54D12*
D03*
X414475Y219707D02*
G54D12*
D03*
X513275Y220107D02*
G54D12*
D03*
G36*
X328254Y467429D02*
X349454Y467429D01*
X349454Y446229D01*
X328254Y446229D01*
X328254Y467429D01*
G37*
X364254Y456829D02*
G54D14*
D03*
G36*
X427354Y467429D02*
X448554Y467429D01*
X448554Y446229D01*
X427354Y446229D01*
X427354Y467429D01*
G37*
X463354Y456829D02*
G54D14*
D03*
G36*
X526254Y467429D02*
X547454Y467429D01*
X547454Y446229D01*
X526254Y446229D01*
X526254Y467429D01*
G37*
X562254Y456829D02*
G54D14*
D03*
X874754Y168529D02*
G54D17*
D03*
X824754Y168529D02*
G54D17*
D03*
X774754Y168529D02*
G54D17*
D03*
X724754Y168529D02*
G54D17*
D03*
X616672Y266401D02*
G54D21*
D03*
X638872Y266401D02*
G54D21*
D03*
X661172Y266401D02*
G54D21*
D03*
X638872Y325200D02*
G54D22*
D03*
G36*
X610952Y248388D02*
X620649Y243865D01*
X613041Y227552D01*
X603344Y232074D01*
X610952Y248388D01*
G37*
G36*
X638503Y235540D02*
X648201Y231018D01*
X640594Y214704D01*
X630896Y219226D01*
X638503Y235540D01*
G37*
G36*
X673954Y422329D02*
X651954Y422329D01*
X651954Y444329D01*
X673954Y444329D01*
X673954Y422329D01*
G37*
X637554Y433329D02*
G54D23*
D03*
X612154Y433329D02*
G54D23*
D03*
X612154Y357129D02*
G54D23*
D03*
X637554Y357129D02*
G54D23*
D03*
X662954Y357129D02*
G54D23*
D03*
X686875Y325628D02*
G54D18*
D03*
X686975Y358129D02*
G54D18*
D03*
X687035Y303372D02*
G54D18*
D03*
X686935Y270872D02*
G54D18*
D03*
G36*
X645640Y230874D02*
X659234Y237213D01*
X667687Y219087D01*
X654092Y212748D01*
X645640Y230874D01*
G37*
G36*
X675137Y244518D02*
X688732Y250858D01*
X697184Y232731D01*
X683590Y226392D01*
X675137Y244518D01*
G37*
X610733Y239987D02*
G54D24*
D03*
X637985Y265164D02*
G54D12*
D03*
X611399Y264640D02*
G54D12*
D03*
X613496Y236570D02*
G54D12*
D03*
X686263Y238625D02*
G54D12*
D03*
X611299Y264640D02*
G54D25*
D03*
G54D26*
X639468Y266181D02*
X639662Y266355D01*
X666985Y266164D02*
G54D12*
D03*
X686529Y434957D02*
G54D18*
D03*
X686429Y402457D02*
G54D18*
D03*
X686875Y325628D02*
G54D12*
D03*
X674754Y168529D02*
G54D17*
D03*
X624754Y168529D02*
G54D17*
D03*
G54D27*
X642554Y220829D02*
X652511Y220829D01*
X656663Y224980D01*
X647202Y224980D01*
X642054Y230129D01*
X651515Y230129D01*
X656663Y224980D01*
X715697Y266272D02*
G54D21*
D03*
X737897Y266272D02*
G54D21*
D03*
X760197Y266272D02*
G54D21*
D03*
X737897Y325072D02*
G54D22*
D03*
G36*
X709977Y248261D02*
X719674Y243739D01*
X712066Y227425D01*
X702369Y231948D01*
X709977Y248261D01*
G37*
G36*
X737528Y235413D02*
X747226Y230891D01*
X739619Y214577D01*
X729921Y219099D01*
X737528Y235413D01*
G37*
G36*
X772979Y422200D02*
X750979Y422200D01*
X750979Y444200D01*
X772979Y444200D01*
X772979Y422200D01*
G37*
X736579Y433200D02*
G54D23*
D03*
X711179Y433200D02*
G54D23*
D03*
X711179Y357000D02*
G54D23*
D03*
X736579Y357000D02*
G54D23*
D03*
X761979Y357000D02*
G54D23*
D03*
X785900Y325500D02*
G54D18*
D03*
X786000Y358000D02*
G54D18*
D03*
X786060Y303244D02*
G54D18*
D03*
X785960Y270744D02*
G54D18*
D03*
G36*
X744664Y230745D02*
X758259Y237085D01*
X766711Y218958D01*
X753117Y212619D01*
X744664Y230745D01*
G37*
G36*
X774162Y244390D02*
X787756Y250729D01*
X796208Y232603D01*
X782614Y226263D01*
X774162Y244390D01*
G37*
X709758Y239859D02*
G54D24*
D03*
X737010Y265036D02*
G54D12*
D03*
X710424Y264511D02*
G54D12*
D03*
X712522Y236442D02*
G54D12*
D03*
X785288Y238496D02*
G54D12*
D03*
X710324Y264511D02*
G54D25*
D03*
G54D26*
X738493Y266053D02*
X738687Y266226D01*
X766010Y266036D02*
G54D12*
D03*
X785554Y434829D02*
G54D18*
D03*
X785454Y402329D02*
G54D18*
D03*
X785900Y325500D02*
G54D12*
D03*
G54D27*
X741579Y220700D02*
X751536Y220700D01*
X755688Y224852D01*
X746227Y224852D01*
X741079Y230000D01*
X750540Y230000D01*
X755688Y224852D01*
X814897Y266372D02*
G54D21*
D03*
X837097Y266372D02*
G54D21*
D03*
X859397Y266372D02*
G54D21*
D03*
X837097Y325172D02*
G54D22*
D03*
G36*
X809176Y248359D02*
X818874Y243837D01*
X811266Y227524D01*
X801569Y232046D01*
X809176Y248359D01*
G37*
G36*
X836728Y235512D02*
X846426Y230990D01*
X838819Y214676D01*
X829121Y219198D01*
X836728Y235512D01*
G37*
G36*
X872179Y422300D02*
X850179Y422300D01*
X850179Y444300D01*
X872179Y444300D01*
X872179Y422300D01*
G37*
X835779Y433300D02*
G54D23*
D03*
X810379Y433300D02*
G54D23*
D03*
X810379Y357100D02*
G54D23*
D03*
X835779Y357100D02*
G54D23*
D03*
X861179Y357100D02*
G54D23*
D03*
X885100Y325600D02*
G54D18*
D03*
X885200Y358100D02*
G54D18*
D03*
X885260Y303344D02*
G54D18*
D03*
X885160Y270844D02*
G54D18*
D03*
G36*
X843864Y230845D02*
X857459Y237184D01*
X865911Y219058D01*
X852317Y212719D01*
X843864Y230845D01*
G37*
G36*
X873362Y244490D02*
X886956Y250829D01*
X895408Y232703D01*
X881814Y226363D01*
X873362Y244490D01*
G37*
X808958Y239959D02*
G54D24*
D03*
X836210Y265136D02*
G54D12*
D03*
X809624Y264611D02*
G54D12*
D03*
X811722Y236542D02*
G54D12*
D03*
X884488Y238596D02*
G54D12*
D03*
X809524Y264611D02*
G54D25*
D03*
G54D26*
X837693Y266153D02*
X837887Y266326D01*
X865210Y266136D02*
G54D12*
D03*
X884754Y434929D02*
G54D18*
D03*
X884654Y402429D02*
G54D18*
D03*
X885100Y325600D02*
G54D12*
D03*
G54D27*
X840779Y220800D02*
X850736Y220800D01*
X854888Y224952D01*
X845427Y224952D01*
X840279Y230100D01*
X849740Y230100D01*
X854888Y224952D01*
X612975Y217907D02*
G54D12*
D03*
X713275Y218607D02*
G54D12*
D03*
X812075Y219007D02*
G54D12*
D03*
G36*
X627054Y466329D02*
X648254Y466329D01*
X648254Y445129D01*
X627054Y445129D01*
X627054Y466329D01*
G37*
X663054Y455729D02*
G54D14*
D03*
G36*
X726154Y466329D02*
X747354Y466329D01*
X747354Y445129D01*
X726154Y445129D01*
X726154Y466329D01*
G37*
X762154Y455729D02*
G54D14*
D03*
G36*
X825054Y466329D02*
X846254Y466329D01*
X846254Y445129D01*
X825054Y445129D01*
X825054Y466329D01*
G37*
X861054Y455729D02*
G54D14*
D03*
M02*
