%FSLAX34Y34*%
%MOMM*%
%LNSILK_TOP*%
G71*
G01*
%ADD10C, 0.300*%
%ADD11C, 0.144*%
%ADD12C, 0.286*%
%ADD13C, 0.150*%
%ADD14C, 0.238*%
%ADD15C, 0.318*%
%ADD16C, 0.159*%
%ADD17C, 0.000*%
%ADD18C, 0.040*%
%ADD19C, 0.020*%
%ADD20C, 0.030*%
%ADD21C, 0.191*%
%ADD22C, 0.167*%
%ADD23C, 0.100*%
%ADD24C, 0.090*%
%LPD*%
G54D10*
X295700Y797600D02*
X55700Y797600D01*
X55700Y957600D01*
X295700Y957600D01*
X295700Y797600D01*
G54D11*
X-465207Y1055300D02*
X-465900Y1055300D01*
X-465900Y1055878D01*
X-465207Y1055878D01*
X-465207Y1055300D01*
X-465900Y1055300D01*
G54D12*
X220104Y938452D02*
X226104Y944452D01*
X226104Y928452D01*
G54D12*
X232704Y810452D02*
X223104Y810452D01*
X223104Y811452D01*
X224304Y813452D01*
X231504Y819452D01*
X232704Y821452D01*
X232704Y823452D01*
X231504Y825452D01*
X229104Y826452D01*
X226704Y826452D01*
X224304Y825452D01*
X223104Y823452D01*
G54D12*
X247904Y810452D02*
X238304Y810452D01*
X238304Y811452D01*
X239504Y813452D01*
X246704Y819452D01*
X247904Y821452D01*
X247904Y823452D01*
X246704Y825452D01*
X244304Y826452D01*
X241904Y826452D01*
X239504Y825452D01*
X238304Y823452D01*
G54D12*
X221104Y974452D02*
X227104Y980452D01*
X227104Y964452D01*
G54D11*
X-465207Y1035800D02*
X-465900Y1035800D01*
X-465900Y1036378D01*
X-465207Y1036378D01*
X-465207Y1035800D01*
X-465900Y1035800D01*
G54D13*
X142716Y994395D02*
X142716Y968995D01*
X117316Y968995D01*
X117316Y994395D01*
X142716Y994395D01*
G54D11*
X143467Y941667D02*
X142774Y941667D01*
X142774Y942244D01*
X143467Y942244D01*
X143467Y941667D01*
X142774Y941667D01*
G54D11*
X143467Y961167D02*
X142774Y961167D01*
X142774Y961744D01*
X143467Y961744D01*
X143467Y961167D01*
X142774Y961167D01*
G54D13*
X44022Y871909D02*
X18622Y871909D01*
X18622Y922709D01*
X44022Y922709D01*
X44022Y871909D01*
G54D14*
X18057Y871855D02*
X18057Y863522D01*
X17057Y861855D01*
X15057Y861022D01*
X13057Y861022D01*
X11057Y861855D01*
X10057Y863522D01*
X10057Y871855D01*
X11057Y873522D01*
X13057Y874355D01*
X15057Y874355D01*
X17057Y873522D01*
X18057Y871855D01*
G54D14*
X22724Y874355D02*
X27724Y861022D01*
X32724Y874355D01*
G54D15*
X5620Y926056D02*
X16287Y926056D01*
G54D15*
X10954Y930501D02*
X10954Y921612D01*
G54D16*
X139523Y976370D02*
X139523Y985259D01*
X142857Y979704D01*
X146190Y985259D01*
X146190Y976370D01*
G54D13*
X159600Y969200D02*
X159600Y994600D01*
X210400Y994600D01*
X210400Y969200D01*
X159600Y969200D01*
G54D13*
X87800Y760900D02*
X87800Y786300D01*
X138600Y786300D01*
X138600Y760900D01*
X87800Y760900D01*
G54D16*
X104224Y755444D02*
X104224Y764333D01*
X107557Y764333D01*
X108890Y763778D01*
X109557Y762667D01*
X109557Y761556D01*
X108890Y760444D01*
X107557Y759889D01*
X108890Y759333D01*
X109557Y758222D01*
X109557Y757111D01*
X108890Y756000D01*
X107557Y755444D01*
X104224Y755444D01*
G54D16*
X104224Y759889D02*
X107557Y759889D01*
G54D16*
X112668Y764333D02*
X112668Y757111D01*
X113334Y756000D01*
X114668Y755444D01*
X116001Y755444D01*
X117334Y756000D01*
X118001Y757111D01*
X118001Y764333D01*
G54D16*
X123778Y759889D02*
X125778Y758778D01*
X126445Y757667D01*
X126445Y755444D01*
G54D16*
X121112Y755444D02*
X121112Y764333D01*
X124445Y764333D01*
X125778Y763778D01*
X126445Y762667D01*
X126445Y761556D01*
X125778Y760444D01*
X124445Y759889D01*
X121112Y759889D01*
G54D16*
X129556Y755444D02*
X129556Y764333D01*
X134889Y755444D01*
X134889Y764333D01*
G54D16*
X212490Y755044D02*
X212490Y763934D01*
G54D16*
X209824Y763934D02*
X215157Y763934D01*
G54D16*
X218268Y760044D02*
X223601Y755044D01*
G54D16*
X218268Y755044D02*
X223601Y760044D01*
G54D16*
X189990Y759389D02*
X191990Y758278D01*
X192657Y757167D01*
X192657Y754944D01*
G54D16*
X187324Y754944D02*
X187324Y763834D01*
X190657Y763834D01*
X191990Y763278D01*
X192657Y762167D01*
X192657Y761056D01*
X191990Y759944D01*
X190657Y759389D01*
X187324Y759389D01*
G54D16*
X195768Y759944D02*
X201101Y754944D01*
G54D16*
X195768Y754944D02*
X201101Y759944D01*
G54D16*
X16924Y770700D02*
X20257Y774033D01*
X20257Y765144D01*
G54D16*
X28701Y772367D02*
X28701Y766811D01*
X28034Y765700D01*
X26701Y765144D01*
X25368Y765144D01*
X24034Y765700D01*
X23368Y766811D01*
X23368Y772367D01*
X24034Y773478D01*
X25368Y774033D01*
X26701Y774033D01*
X28034Y773478D01*
X28701Y772367D01*
G54D16*
X31812Y765144D02*
X31812Y774033D01*
G54D16*
X33812Y768478D02*
X35812Y765144D01*
G54D16*
X31812Y767367D02*
X35812Y770144D01*
G54D16*
X150224Y843200D02*
X153557Y846533D01*
X153557Y837645D01*
G54D16*
X162001Y844867D02*
X162001Y839311D01*
X161334Y838200D01*
X160001Y837645D01*
X158668Y837645D01*
X157334Y838200D01*
X156668Y839311D01*
X156668Y844867D01*
X157334Y845978D01*
X158668Y846533D01*
X160001Y846533D01*
X161334Y845978D01*
X162001Y844867D01*
G54D16*
X165112Y837645D02*
X165112Y846533D01*
G54D16*
X167112Y840978D02*
X169112Y837645D01*
G54D16*
X165112Y839867D02*
X169112Y842645D01*
G54D16*
X80124Y844100D02*
X83457Y847433D01*
X83457Y838545D01*
G54D16*
X91901Y845767D02*
X91901Y840211D01*
X91234Y839100D01*
X89901Y838545D01*
X88568Y838545D01*
X87234Y839100D01*
X86568Y840211D01*
X86568Y845767D01*
X87234Y846878D01*
X88568Y847433D01*
X89901Y847433D01*
X91234Y846878D01*
X91901Y845767D01*
G54D16*
X95012Y838545D02*
X95012Y847433D01*
G54D16*
X97012Y841878D02*
X99012Y838545D01*
G54D16*
X95012Y840767D02*
X99012Y843545D01*
G54D16*
X226624Y884700D02*
X229957Y888033D01*
X229957Y879145D01*
G54D16*
X238401Y886367D02*
X238401Y880811D01*
X237734Y879700D01*
X236401Y879145D01*
X235068Y879145D01*
X233734Y879700D01*
X233068Y880811D01*
X233068Y886367D01*
X233734Y887478D01*
X235068Y888033D01*
X236401Y888033D01*
X237734Y887478D01*
X238401Y886367D01*
G54D16*
X241512Y879145D02*
X241512Y888033D01*
G54D16*
X243512Y882478D02*
X245512Y879145D01*
G54D16*
X241512Y881367D02*
X245512Y884145D01*
G54D16*
X141324Y889000D02*
X144657Y892333D01*
X144657Y883445D01*
G54D16*
X153101Y890667D02*
X153101Y885111D01*
X152434Y884000D01*
X151101Y883445D01*
X149768Y883445D01*
X148434Y884000D01*
X147768Y885111D01*
X147768Y890667D01*
X148434Y891778D01*
X149768Y892333D01*
X151101Y892333D01*
X152434Y891778D01*
X153101Y890667D01*
G54D16*
X156212Y883445D02*
X156212Y892333D01*
G54D16*
X158212Y886778D02*
X160212Y883445D01*
G54D16*
X156212Y885667D02*
X160212Y888445D01*
G54D16*
X205924Y916445D02*
X205924Y925333D01*
X201924Y919778D01*
X201924Y918667D01*
X207257Y918667D01*
G54D16*
X210368Y925333D02*
X215701Y925333D01*
X215034Y924222D01*
X213701Y922556D01*
X212368Y920333D01*
X211701Y918667D01*
X211701Y916445D01*
G54D16*
X224145Y923667D02*
X224145Y918111D01*
X223478Y917000D01*
X222145Y916445D01*
X220812Y916445D01*
X219478Y917000D01*
X218812Y918111D01*
X218812Y923667D01*
X219478Y924778D01*
X220812Y925333D01*
X222145Y925333D01*
X223478Y924778D01*
X224145Y923667D01*
G54D16*
X220090Y985389D02*
X222090Y984278D01*
X222757Y983167D01*
X222757Y980945D01*
G54D16*
X217424Y980945D02*
X217424Y989833D01*
X220757Y989833D01*
X222090Y989278D01*
X222757Y988167D01*
X222757Y987056D01*
X222090Y985945D01*
X220757Y985389D01*
X217424Y985389D01*
G54D16*
X225868Y981500D02*
X227201Y980945D01*
X228534Y980945D01*
X229868Y981500D01*
X229868Y982611D01*
X229201Y983167D01*
X226534Y983722D01*
X225868Y984278D01*
X225868Y985389D01*
X227201Y985945D01*
X228534Y985945D01*
X229868Y985389D01*
G54D16*
X234312Y989833D02*
X234312Y981500D01*
X234979Y980945D01*
X235646Y981167D01*
G54D16*
X232979Y985945D02*
X235646Y985945D01*
G54D16*
X65857Y982592D02*
X65857Y977037D01*
X65190Y975926D01*
X63857Y975370D01*
X62523Y975370D01*
X61190Y975926D01*
X60523Y977037D01*
X60523Y982592D01*
X61190Y983704D01*
X62523Y984259D01*
X63857Y984259D01*
X65190Y983704D01*
X65857Y982592D01*
G54D16*
X72967Y975370D02*
X72967Y984259D01*
X68967Y978704D01*
X68967Y977592D01*
X74301Y977592D01*
G54D16*
X104857Y992592D02*
X104857Y987037D01*
X104190Y985926D01*
X102857Y985370D01*
X101523Y985370D01*
X100190Y985926D01*
X99523Y987037D01*
X99523Y992592D01*
X100190Y993704D01*
X101523Y994259D01*
X102857Y994259D01*
X104190Y993704D01*
X104857Y992592D01*
G54D16*
X107967Y992592D02*
X108634Y993704D01*
X109967Y994259D01*
X111301Y994259D01*
X112634Y993704D01*
X113301Y992592D01*
X113301Y991481D01*
X112634Y990370D01*
X111301Y989815D01*
X112634Y989259D01*
X113301Y988148D01*
X113301Y987037D01*
X112634Y985926D01*
X111301Y985370D01*
X109967Y985370D01*
X108634Y985926D01*
X107967Y987037D01*
G54D16*
X148857Y761592D02*
X148857Y756037D01*
X148190Y754926D01*
X146857Y754370D01*
X145523Y754370D01*
X144190Y754926D01*
X143523Y756037D01*
X143523Y761592D01*
X144190Y762704D01*
X145523Y763259D01*
X146857Y763259D01*
X148190Y762704D01*
X148857Y761592D01*
G54D16*
X151967Y759926D02*
X155301Y763259D01*
X155301Y754370D01*
G54D16*
X170857Y761592D02*
X170857Y756037D01*
X170190Y754926D01*
X168857Y754370D01*
X167523Y754370D01*
X166190Y754926D01*
X165523Y756037D01*
X165523Y761592D01*
X166190Y762704D01*
X167523Y763259D01*
X168857Y763259D01*
X170190Y762704D01*
X170857Y761592D01*
G54D16*
X179301Y754370D02*
X173967Y754370D01*
X173967Y754926D01*
X174634Y756037D01*
X178634Y759370D01*
X179301Y760481D01*
X179301Y761592D01*
X178634Y762704D01*
X177301Y763259D01*
X175967Y763259D01*
X174634Y762704D01*
X173967Y761592D01*
G54D13*
X180600Y761200D02*
X180600Y786600D01*
X231400Y786600D01*
X231400Y761200D01*
X180600Y761200D01*
G54D10*
X593700Y797600D02*
X353700Y797600D01*
X353700Y957600D01*
X593700Y957600D01*
X593700Y797600D01*
G54D11*
X-167207Y1055300D02*
X-167900Y1055300D01*
X-167900Y1055878D01*
X-167207Y1055878D01*
X-167207Y1055300D01*
X-167900Y1055300D01*
G54D12*
X518104Y938452D02*
X524104Y944452D01*
X524104Y928452D01*
G54D12*
X530704Y810452D02*
X521104Y810452D01*
X521104Y811452D01*
X522304Y813452D01*
X529504Y819452D01*
X530704Y821452D01*
X530704Y823452D01*
X529504Y825452D01*
X527104Y826452D01*
X524704Y826452D01*
X522304Y825452D01*
X521104Y823452D01*
G54D12*
X545904Y810452D02*
X536304Y810452D01*
X536304Y811452D01*
X537504Y813452D01*
X544704Y819452D01*
X545904Y821452D01*
X545904Y823452D01*
X544704Y825452D01*
X542304Y826452D01*
X539904Y826452D01*
X537504Y825452D01*
X536304Y823452D01*
G54D12*
X519104Y974452D02*
X525104Y980452D01*
X525104Y964452D01*
G54D11*
X-167207Y1035800D02*
X-167900Y1035800D01*
X-167900Y1036378D01*
X-167207Y1036378D01*
X-167207Y1035800D01*
X-167900Y1035800D01*
G54D13*
X440716Y994395D02*
X440716Y968995D01*
X415316Y968995D01*
X415316Y994395D01*
X440716Y994395D01*
G54D11*
X441467Y941667D02*
X440774Y941667D01*
X440774Y942244D01*
X441467Y942244D01*
X441467Y941667D01*
X440774Y941667D01*
G54D11*
X441467Y961167D02*
X440774Y961167D01*
X440774Y961744D01*
X441467Y961744D01*
X441467Y961167D01*
X440774Y961167D01*
G54D13*
X342022Y871909D02*
X316622Y871909D01*
X316622Y922709D01*
X342022Y922709D01*
X342022Y871909D01*
G54D14*
X316057Y871855D02*
X316057Y863522D01*
X315057Y861855D01*
X313057Y861022D01*
X311057Y861022D01*
X309057Y861855D01*
X308057Y863522D01*
X308057Y871855D01*
X309057Y873522D01*
X311057Y874355D01*
X313057Y874355D01*
X315057Y873522D01*
X316057Y871855D01*
G54D14*
X320724Y874355D02*
X325724Y861022D01*
X330724Y874355D01*
G54D15*
X303620Y926056D02*
X314287Y926056D01*
G54D15*
X308954Y930501D02*
X308954Y921612D01*
G54D16*
X437523Y976370D02*
X437523Y985259D01*
X440857Y979704D01*
X444190Y985259D01*
X444190Y976370D01*
G54D13*
X457600Y969200D02*
X457600Y994600D01*
X508400Y994600D01*
X508400Y969200D01*
X457600Y969200D01*
G54D13*
X385800Y760900D02*
X385800Y786300D01*
X436600Y786300D01*
X436600Y760900D01*
X385800Y760900D01*
G54D16*
X402224Y755444D02*
X402224Y764333D01*
X405557Y764333D01*
X406890Y763778D01*
X407557Y762667D01*
X407557Y761556D01*
X406890Y760444D01*
X405557Y759889D01*
X406890Y759333D01*
X407557Y758222D01*
X407557Y757111D01*
X406890Y756000D01*
X405557Y755444D01*
X402224Y755444D01*
G54D16*
X402224Y759889D02*
X405557Y759889D01*
G54D16*
X410668Y764333D02*
X410668Y757111D01*
X411334Y756000D01*
X412668Y755444D01*
X414001Y755444D01*
X415334Y756000D01*
X416001Y757111D01*
X416001Y764333D01*
G54D16*
X421778Y759889D02*
X423778Y758778D01*
X424445Y757667D01*
X424445Y755444D01*
G54D16*
X419112Y755444D02*
X419112Y764333D01*
X422445Y764333D01*
X423778Y763778D01*
X424445Y762667D01*
X424445Y761556D01*
X423778Y760444D01*
X422445Y759889D01*
X419112Y759889D01*
G54D16*
X427556Y755444D02*
X427556Y764333D01*
X432889Y755444D01*
X432889Y764333D01*
G54D16*
X510490Y755044D02*
X510490Y763934D01*
G54D16*
X507824Y763934D02*
X513157Y763934D01*
G54D16*
X516268Y760044D02*
X521601Y755044D01*
G54D16*
X516268Y755044D02*
X521601Y760044D01*
G54D16*
X487990Y759389D02*
X489990Y758278D01*
X490657Y757167D01*
X490657Y754944D01*
G54D16*
X485324Y754944D02*
X485324Y763834D01*
X488657Y763834D01*
X489990Y763278D01*
X490657Y762167D01*
X490657Y761056D01*
X489990Y759944D01*
X488657Y759389D01*
X485324Y759389D01*
G54D16*
X493768Y759944D02*
X499101Y754944D01*
G54D16*
X493768Y754944D02*
X499101Y759944D01*
G54D16*
X314924Y770700D02*
X318257Y774033D01*
X318257Y765144D01*
G54D16*
X326701Y772367D02*
X326701Y766811D01*
X326034Y765700D01*
X324701Y765144D01*
X323368Y765144D01*
X322034Y765700D01*
X321368Y766811D01*
X321368Y772367D01*
X322034Y773478D01*
X323368Y774033D01*
X324701Y774033D01*
X326034Y773478D01*
X326701Y772367D01*
G54D16*
X329812Y765144D02*
X329812Y774033D01*
G54D16*
X331812Y768478D02*
X333812Y765144D01*
G54D16*
X329812Y767367D02*
X333812Y770144D01*
G54D16*
X448224Y843200D02*
X451557Y846533D01*
X451557Y837645D01*
G54D16*
X460001Y844867D02*
X460001Y839311D01*
X459334Y838200D01*
X458001Y837645D01*
X456668Y837645D01*
X455334Y838200D01*
X454668Y839311D01*
X454668Y844867D01*
X455334Y845978D01*
X456668Y846533D01*
X458001Y846533D01*
X459334Y845978D01*
X460001Y844867D01*
G54D16*
X463112Y837645D02*
X463112Y846533D01*
G54D16*
X465112Y840978D02*
X467112Y837645D01*
G54D16*
X463112Y839867D02*
X467112Y842645D01*
G54D16*
X378124Y844100D02*
X381457Y847433D01*
X381457Y838545D01*
G54D16*
X389901Y845767D02*
X389901Y840211D01*
X389234Y839100D01*
X387901Y838545D01*
X386568Y838545D01*
X385234Y839100D01*
X384568Y840211D01*
X384568Y845767D01*
X385234Y846878D01*
X386568Y847433D01*
X387901Y847433D01*
X389234Y846878D01*
X389901Y845767D01*
G54D16*
X393012Y838545D02*
X393012Y847433D01*
G54D16*
X395012Y841878D02*
X397012Y838545D01*
G54D16*
X393012Y840767D02*
X397012Y843545D01*
G54D16*
X524624Y884700D02*
X527957Y888033D01*
X527957Y879145D01*
G54D16*
X536401Y886367D02*
X536401Y880811D01*
X535734Y879700D01*
X534401Y879145D01*
X533068Y879145D01*
X531734Y879700D01*
X531068Y880811D01*
X531068Y886367D01*
X531734Y887478D01*
X533068Y888033D01*
X534401Y888033D01*
X535734Y887478D01*
X536401Y886367D01*
G54D16*
X539512Y879145D02*
X539512Y888033D01*
G54D16*
X541512Y882478D02*
X543512Y879145D01*
G54D16*
X539512Y881367D02*
X543512Y884145D01*
G54D16*
X439324Y889000D02*
X442657Y892333D01*
X442657Y883445D01*
G54D16*
X451101Y890667D02*
X451101Y885111D01*
X450434Y884000D01*
X449101Y883445D01*
X447768Y883445D01*
X446434Y884000D01*
X445768Y885111D01*
X445768Y890667D01*
X446434Y891778D01*
X447768Y892333D01*
X449101Y892333D01*
X450434Y891778D01*
X451101Y890667D01*
G54D16*
X454212Y883445D02*
X454212Y892333D01*
G54D16*
X456212Y886778D02*
X458212Y883445D01*
G54D16*
X454212Y885667D02*
X458212Y888445D01*
G54D16*
X503924Y916445D02*
X503924Y925333D01*
X499924Y919778D01*
X499924Y918667D01*
X505257Y918667D01*
G54D16*
X508368Y925333D02*
X513701Y925333D01*
X513034Y924222D01*
X511701Y922556D01*
X510368Y920333D01*
X509701Y918667D01*
X509701Y916445D01*
G54D16*
X522145Y923667D02*
X522145Y918111D01*
X521478Y917000D01*
X520145Y916445D01*
X518812Y916445D01*
X517478Y917000D01*
X516812Y918111D01*
X516812Y923667D01*
X517478Y924778D01*
X518812Y925333D01*
X520145Y925333D01*
X521478Y924778D01*
X522145Y923667D01*
G54D16*
X518090Y985389D02*
X520090Y984278D01*
X520757Y983167D01*
X520757Y980945D01*
G54D16*
X515424Y980945D02*
X515424Y989833D01*
X518757Y989833D01*
X520090Y989278D01*
X520757Y988167D01*
X520757Y987056D01*
X520090Y985945D01*
X518757Y985389D01*
X515424Y985389D01*
G54D16*
X523868Y981500D02*
X525201Y980945D01*
X526534Y980945D01*
X527868Y981500D01*
X527868Y982611D01*
X527201Y983167D01*
X524534Y983722D01*
X523868Y984278D01*
X523868Y985389D01*
X525201Y985945D01*
X526534Y985945D01*
X527868Y985389D01*
G54D16*
X532312Y989833D02*
X532312Y981500D01*
X532979Y980945D01*
X533646Y981167D01*
G54D16*
X530979Y985945D02*
X533646Y985945D01*
G54D16*
X363857Y982592D02*
X363857Y977037D01*
X363190Y975926D01*
X361857Y975370D01*
X360523Y975370D01*
X359190Y975926D01*
X358523Y977037D01*
X358523Y982592D01*
X359190Y983704D01*
X360523Y984259D01*
X361857Y984259D01*
X363190Y983704D01*
X363857Y982592D01*
G54D16*
X370967Y975370D02*
X370967Y984259D01*
X366967Y978704D01*
X366967Y977592D01*
X372301Y977592D01*
G54D16*
X402857Y992592D02*
X402857Y987037D01*
X402190Y985926D01*
X400857Y985370D01*
X399523Y985370D01*
X398190Y985926D01*
X397523Y987037D01*
X397523Y992592D01*
X398190Y993704D01*
X399523Y994259D01*
X400857Y994259D01*
X402190Y993704D01*
X402857Y992592D01*
G54D16*
X405967Y992592D02*
X406634Y993704D01*
X407967Y994259D01*
X409301Y994259D01*
X410634Y993704D01*
X411301Y992592D01*
X411301Y991481D01*
X410634Y990370D01*
X409301Y989815D01*
X410634Y989259D01*
X411301Y988148D01*
X411301Y987037D01*
X410634Y985926D01*
X409301Y985370D01*
X407967Y985370D01*
X406634Y985926D01*
X405967Y987037D01*
G54D16*
X446857Y761592D02*
X446857Y756037D01*
X446190Y754926D01*
X444857Y754370D01*
X443523Y754370D01*
X442190Y754926D01*
X441523Y756037D01*
X441523Y761592D01*
X442190Y762704D01*
X443523Y763259D01*
X444857Y763259D01*
X446190Y762704D01*
X446857Y761592D01*
G54D16*
X449967Y759926D02*
X453301Y763259D01*
X453301Y754370D01*
G54D16*
X468857Y761592D02*
X468857Y756037D01*
X468190Y754926D01*
X466857Y754370D01*
X465523Y754370D01*
X464190Y754926D01*
X463523Y756037D01*
X463523Y761592D01*
X464190Y762704D01*
X465523Y763259D01*
X466857Y763259D01*
X468190Y762704D01*
X468857Y761592D01*
G54D16*
X477301Y754370D02*
X471967Y754370D01*
X471967Y754926D01*
X472634Y756037D01*
X476634Y759370D01*
X477301Y760481D01*
X477301Y761592D01*
X476634Y762704D01*
X475301Y763259D01*
X473967Y763259D01*
X472634Y762704D01*
X471967Y761592D01*
G54D13*
X478600Y761200D02*
X478600Y786600D01*
X529400Y786600D01*
X529400Y761200D01*
X478600Y761200D01*
G54D10*
X891700Y797600D02*
X651700Y797600D01*
X651700Y957600D01*
X891700Y957600D01*
X891700Y797600D01*
G54D11*
X130793Y1055300D02*
X130100Y1055300D01*
X130100Y1055878D01*
X130793Y1055878D01*
X130793Y1055300D01*
X130100Y1055300D01*
G54D12*
X816104Y938452D02*
X822104Y944452D01*
X822104Y928452D01*
G54D12*
X828704Y810452D02*
X819104Y810452D01*
X819104Y811452D01*
X820304Y813452D01*
X827504Y819452D01*
X828704Y821452D01*
X828704Y823452D01*
X827504Y825452D01*
X825104Y826452D01*
X822704Y826452D01*
X820304Y825452D01*
X819104Y823452D01*
G54D12*
X843904Y810452D02*
X834304Y810452D01*
X834304Y811452D01*
X835504Y813452D01*
X842704Y819452D01*
X843904Y821452D01*
X843904Y823452D01*
X842704Y825452D01*
X840304Y826452D01*
X837904Y826452D01*
X835504Y825452D01*
X834304Y823452D01*
G54D12*
X817104Y974452D02*
X823104Y980452D01*
X823104Y964452D01*
G54D11*
X130793Y1035800D02*
X130100Y1035800D01*
X130100Y1036378D01*
X130793Y1036378D01*
X130793Y1035800D01*
X130100Y1035800D01*
G54D13*
X738716Y994395D02*
X738716Y968995D01*
X713316Y968995D01*
X713316Y994395D01*
X738716Y994395D01*
G54D11*
X739467Y941667D02*
X738774Y941667D01*
X738774Y942244D01*
X739467Y942244D01*
X739467Y941667D01*
X738774Y941667D01*
G54D11*
X739467Y961167D02*
X738774Y961167D01*
X738774Y961744D01*
X739467Y961744D01*
X739467Y961167D01*
X738774Y961167D01*
G54D13*
X640022Y871909D02*
X614622Y871909D01*
X614622Y922709D01*
X640022Y922709D01*
X640022Y871909D01*
G54D14*
X614057Y871855D02*
X614057Y863522D01*
X613057Y861855D01*
X611057Y861022D01*
X609057Y861022D01*
X607057Y861855D01*
X606057Y863522D01*
X606057Y871855D01*
X607057Y873522D01*
X609057Y874355D01*
X611057Y874355D01*
X613057Y873522D01*
X614057Y871855D01*
G54D14*
X618724Y874355D02*
X623724Y861022D01*
X628724Y874355D01*
G54D15*
X601620Y926056D02*
X612287Y926056D01*
G54D15*
X606954Y930501D02*
X606954Y921612D01*
G54D16*
X735523Y976370D02*
X735523Y985259D01*
X738857Y979704D01*
X742190Y985259D01*
X742190Y976370D01*
G54D13*
X755600Y969200D02*
X755600Y994600D01*
X806400Y994600D01*
X806400Y969200D01*
X755600Y969200D01*
G54D13*
X683800Y760900D02*
X683800Y786300D01*
X734600Y786300D01*
X734600Y760900D01*
X683800Y760900D01*
G54D16*
X700224Y755444D02*
X700224Y764333D01*
X703557Y764333D01*
X704890Y763778D01*
X705557Y762667D01*
X705557Y761556D01*
X704890Y760444D01*
X703557Y759889D01*
X704890Y759333D01*
X705557Y758222D01*
X705557Y757111D01*
X704890Y756000D01*
X703557Y755444D01*
X700224Y755444D01*
G54D16*
X700224Y759889D02*
X703557Y759889D01*
G54D16*
X708668Y764333D02*
X708668Y757111D01*
X709334Y756000D01*
X710668Y755444D01*
X712001Y755444D01*
X713334Y756000D01*
X714001Y757111D01*
X714001Y764333D01*
G54D16*
X719778Y759889D02*
X721778Y758778D01*
X722445Y757667D01*
X722445Y755444D01*
G54D16*
X717112Y755444D02*
X717112Y764333D01*
X720445Y764333D01*
X721778Y763778D01*
X722445Y762667D01*
X722445Y761556D01*
X721778Y760444D01*
X720445Y759889D01*
X717112Y759889D01*
G54D16*
X725556Y755444D02*
X725556Y764333D01*
X730889Y755444D01*
X730889Y764333D01*
G54D16*
X808490Y755044D02*
X808490Y763934D01*
G54D16*
X805824Y763934D02*
X811157Y763934D01*
G54D16*
X814268Y760044D02*
X819601Y755044D01*
G54D16*
X814268Y755044D02*
X819601Y760044D01*
G54D16*
X785990Y759389D02*
X787990Y758278D01*
X788657Y757167D01*
X788657Y754944D01*
G54D16*
X783324Y754944D02*
X783324Y763834D01*
X786657Y763834D01*
X787990Y763278D01*
X788657Y762167D01*
X788657Y761056D01*
X787990Y759944D01*
X786657Y759389D01*
X783324Y759389D01*
G54D16*
X791768Y759944D02*
X797101Y754944D01*
G54D16*
X791768Y754944D02*
X797101Y759944D01*
G54D16*
X612924Y770700D02*
X616257Y774033D01*
X616257Y765144D01*
G54D16*
X624701Y772367D02*
X624701Y766811D01*
X624034Y765700D01*
X622701Y765144D01*
X621368Y765144D01*
X620034Y765700D01*
X619368Y766811D01*
X619368Y772367D01*
X620034Y773478D01*
X621368Y774033D01*
X622701Y774033D01*
X624034Y773478D01*
X624701Y772367D01*
G54D16*
X627812Y765144D02*
X627812Y774033D01*
G54D16*
X629812Y768478D02*
X631812Y765144D01*
G54D16*
X627812Y767367D02*
X631812Y770144D01*
G54D16*
X746224Y843200D02*
X749557Y846533D01*
X749557Y837645D01*
G54D16*
X758001Y844867D02*
X758001Y839311D01*
X757334Y838200D01*
X756001Y837645D01*
X754668Y837645D01*
X753334Y838200D01*
X752668Y839311D01*
X752668Y844867D01*
X753334Y845978D01*
X754668Y846533D01*
X756001Y846533D01*
X757334Y845978D01*
X758001Y844867D01*
G54D16*
X761112Y837645D02*
X761112Y846533D01*
G54D16*
X763112Y840978D02*
X765112Y837645D01*
G54D16*
X761112Y839867D02*
X765112Y842645D01*
G54D16*
X676124Y844100D02*
X679457Y847433D01*
X679457Y838545D01*
G54D16*
X687901Y845767D02*
X687901Y840211D01*
X687234Y839100D01*
X685901Y838545D01*
X684568Y838545D01*
X683234Y839100D01*
X682568Y840211D01*
X682568Y845767D01*
X683234Y846878D01*
X684568Y847433D01*
X685901Y847433D01*
X687234Y846878D01*
X687901Y845767D01*
G54D16*
X691012Y838545D02*
X691012Y847433D01*
G54D16*
X693012Y841878D02*
X695012Y838545D01*
G54D16*
X691012Y840767D02*
X695012Y843545D01*
G54D16*
X822624Y884700D02*
X825957Y888033D01*
X825957Y879145D01*
G54D16*
X834401Y886367D02*
X834401Y880811D01*
X833734Y879700D01*
X832401Y879145D01*
X831068Y879145D01*
X829734Y879700D01*
X829068Y880811D01*
X829068Y886367D01*
X829734Y887478D01*
X831068Y888033D01*
X832401Y888033D01*
X833734Y887478D01*
X834401Y886367D01*
G54D16*
X837512Y879145D02*
X837512Y888033D01*
G54D16*
X839512Y882478D02*
X841512Y879145D01*
G54D16*
X837512Y881367D02*
X841512Y884145D01*
G54D16*
X737324Y889000D02*
X740657Y892333D01*
X740657Y883445D01*
G54D16*
X749101Y890667D02*
X749101Y885111D01*
X748434Y884000D01*
X747101Y883445D01*
X745768Y883445D01*
X744434Y884000D01*
X743768Y885111D01*
X743768Y890667D01*
X744434Y891778D01*
X745768Y892333D01*
X747101Y892333D01*
X748434Y891778D01*
X749101Y890667D01*
G54D16*
X752212Y883445D02*
X752212Y892333D01*
G54D16*
X754212Y886778D02*
X756212Y883445D01*
G54D16*
X752212Y885667D02*
X756212Y888445D01*
G54D16*
X801924Y916445D02*
X801924Y925333D01*
X797924Y919778D01*
X797924Y918667D01*
X803257Y918667D01*
G54D16*
X806368Y925333D02*
X811701Y925333D01*
X811034Y924222D01*
X809701Y922556D01*
X808368Y920333D01*
X807701Y918667D01*
X807701Y916445D01*
G54D16*
X820145Y923667D02*
X820145Y918111D01*
X819478Y917000D01*
X818145Y916445D01*
X816812Y916445D01*
X815478Y917000D01*
X814812Y918111D01*
X814812Y923667D01*
X815478Y924778D01*
X816812Y925333D01*
X818145Y925333D01*
X819478Y924778D01*
X820145Y923667D01*
G54D16*
X816090Y985389D02*
X818090Y984278D01*
X818757Y983167D01*
X818757Y980945D01*
G54D16*
X813424Y980945D02*
X813424Y989833D01*
X816757Y989833D01*
X818090Y989278D01*
X818757Y988167D01*
X818757Y987056D01*
X818090Y985945D01*
X816757Y985389D01*
X813424Y985389D01*
G54D16*
X821868Y981500D02*
X823201Y980945D01*
X824534Y980945D01*
X825868Y981500D01*
X825868Y982611D01*
X825201Y983167D01*
X822534Y983722D01*
X821868Y984278D01*
X821868Y985389D01*
X823201Y985945D01*
X824534Y985945D01*
X825868Y985389D01*
G54D16*
X830312Y989833D02*
X830312Y981500D01*
X830979Y980945D01*
X831646Y981167D01*
G54D16*
X828979Y985945D02*
X831646Y985945D01*
G54D16*
X661857Y982592D02*
X661857Y977037D01*
X661190Y975926D01*
X659857Y975370D01*
X658523Y975370D01*
X657190Y975926D01*
X656523Y977037D01*
X656523Y982592D01*
X657190Y983704D01*
X658523Y984259D01*
X659857Y984259D01*
X661190Y983704D01*
X661857Y982592D01*
G54D16*
X668967Y975370D02*
X668967Y984259D01*
X664967Y978704D01*
X664967Y977592D01*
X670301Y977592D01*
G54D16*
X700857Y992592D02*
X700857Y987037D01*
X700190Y985926D01*
X698857Y985370D01*
X697523Y985370D01*
X696190Y985926D01*
X695523Y987037D01*
X695523Y992592D01*
X696190Y993704D01*
X697523Y994259D01*
X698857Y994259D01*
X700190Y993704D01*
X700857Y992592D01*
G54D16*
X703967Y992592D02*
X704634Y993704D01*
X705967Y994259D01*
X707301Y994259D01*
X708634Y993704D01*
X709301Y992592D01*
X709301Y991481D01*
X708634Y990370D01*
X707301Y989815D01*
X708634Y989259D01*
X709301Y988148D01*
X709301Y987037D01*
X708634Y985926D01*
X707301Y985370D01*
X705967Y985370D01*
X704634Y985926D01*
X703967Y987037D01*
G54D16*
X744857Y761592D02*
X744857Y756037D01*
X744190Y754926D01*
X742857Y754370D01*
X741523Y754370D01*
X740190Y754926D01*
X739523Y756037D01*
X739523Y761592D01*
X740190Y762704D01*
X741523Y763259D01*
X742857Y763259D01*
X744190Y762704D01*
X744857Y761592D01*
G54D16*
X747967Y759926D02*
X751301Y763259D01*
X751301Y754370D01*
G54D16*
X766857Y761592D02*
X766857Y756037D01*
X766190Y754926D01*
X764857Y754370D01*
X763523Y754370D01*
X762190Y754926D01*
X761523Y756037D01*
X761523Y761592D01*
X762190Y762704D01*
X763523Y763259D01*
X764857Y763259D01*
X766190Y762704D01*
X766857Y761592D01*
G54D16*
X775301Y754370D02*
X769967Y754370D01*
X769967Y754926D01*
X770634Y756037D01*
X774634Y759370D01*
X775301Y760481D01*
X775301Y761592D01*
X774634Y762704D01*
X773301Y763259D01*
X771967Y763259D01*
X770634Y762704D01*
X769967Y761592D01*
G54D13*
X776600Y761200D02*
X776600Y786600D01*
X827400Y786600D01*
X827400Y761200D01*
X776600Y761200D01*
G54D10*
X283320Y567700D02*
X8320Y567700D01*
X8320Y657700D01*
X283320Y657700D01*
X283320Y567700D01*
G54D17*
X114832Y718461D02*
X114832Y672461D01*
X50832Y672461D01*
X50832Y718461D01*
X114832Y718461D01*
G54D18*
X91898Y680461D02*
X91898Y684017D01*
G54D18*
X90832Y684017D02*
X92965Y684017D01*
G54D18*
X93932Y684017D02*
X93932Y680461D01*
X95798Y680461D01*
G54D18*
X96832Y680461D02*
X96832Y684017D01*
X98165Y684017D01*
X98698Y683794D01*
X98965Y683350D01*
X98965Y682906D01*
X98698Y682461D01*
X98165Y682239D01*
X96832Y682239D01*
G54D18*
X102065Y684017D02*
X99932Y684017D01*
X99932Y682461D01*
X100198Y682461D01*
X100732Y682683D01*
X101265Y682683D01*
X101798Y682461D01*
X102065Y682017D01*
X102065Y681128D01*
X101798Y680683D01*
X101265Y680461D01*
X100732Y680461D01*
X100198Y680683D01*
X99932Y681128D01*
G54D18*
X105165Y680461D02*
X103032Y680461D01*
X103032Y680683D01*
X103298Y681128D01*
X104898Y682461D01*
X105165Y682906D01*
X105165Y683350D01*
X104898Y683794D01*
X104365Y684017D01*
X103832Y684017D01*
X103298Y683794D01*
X103032Y683350D01*
G54D18*
X106132Y682683D02*
X107465Y684017D01*
X107465Y680461D01*
G54D18*
X109498Y682239D02*
X110565Y682239D01*
X110565Y681128D01*
X110298Y680683D01*
X109765Y680461D01*
X109232Y680461D01*
X108698Y680683D01*
X108432Y681128D01*
X108432Y683350D01*
X108698Y683794D01*
X109232Y684017D01*
X109765Y684017D01*
X110298Y683794D01*
X110565Y683350D01*
G54D18*
X111532Y680461D02*
X111532Y684017D01*
X112865Y684017D01*
X113398Y683794D01*
X113665Y683350D01*
X113665Y682906D01*
X113398Y682461D01*
X112865Y682239D01*
X113398Y682017D01*
X113665Y681572D01*
X113665Y681128D01*
X113398Y680683D01*
X112865Y680461D01*
X111532Y680461D01*
G54D18*
X111532Y682239D02*
X112865Y682239D01*
G54D18*
X98032Y675661D02*
X98032Y679217D01*
X99365Y679217D01*
X99898Y678994D01*
X100165Y678550D01*
X100165Y676328D01*
X99898Y675883D01*
X99365Y675661D01*
X98032Y675661D01*
G54D18*
X101132Y675661D02*
X101132Y679217D01*
G54D18*
X102132Y679217D02*
X102132Y675661D01*
X103998Y675661D01*
G54D18*
X106632Y675661D02*
X106632Y679217D01*
X105032Y676994D01*
X105032Y676550D01*
X107165Y676550D01*
G54D17*
X55832Y718461D02*
X55832Y672461D01*
G54D18*
X52832Y708683D02*
X54165Y710017D01*
X54165Y706461D01*
G54D18*
X54965Y680461D02*
X52832Y680461D01*
X52832Y680683D01*
X53098Y681128D01*
X54698Y682461D01*
X54965Y682906D01*
X54965Y683350D01*
X54698Y683794D01*
X54165Y684017D01*
X53632Y684017D01*
X53098Y683794D01*
X52832Y683350D01*
G54D18*
X110832Y686350D02*
X111098Y686794D01*
X111632Y687017D01*
X112165Y687017D01*
X112698Y686794D01*
X112965Y686350D01*
X112965Y685906D01*
X112698Y685461D01*
X112165Y685239D01*
X112698Y685017D01*
X112965Y684572D01*
X112965Y684128D01*
X112698Y683683D01*
X112165Y683461D01*
X111632Y683461D01*
X111098Y683683D01*
X110832Y684128D01*
G54D18*
X112432Y707461D02*
X112432Y711017D01*
X110832Y708794D01*
X110832Y708350D01*
X112965Y708350D01*
G54D17*
X50832Y708461D02*
X64832Y708461D01*
X64832Y683461D01*
X51832Y683461D01*
G54D17*
X60832Y699461D02*
X67832Y699461D01*
X68832Y699461D01*
X64832Y693461D01*
X64832Y693461D01*
X60832Y699461D01*
G54D17*
X60832Y693461D02*
X68832Y693461D01*
G54D17*
G75*
G01X64832Y713461D02*
G03X64832Y713461I-3000J0D01*
G01*
G54D17*
X74832Y699461D02*
X90832Y699461D01*
G54D17*
X74832Y693461D02*
X90832Y693461D01*
G36*
X84863Y701417D02*
X90863Y699417D01*
X84863Y697417D01*
X85863Y699417D01*
X84863Y701417D01*
G37*
G54D17*
X84863Y701417D02*
X90863Y699417D01*
X84863Y697417D01*
X85863Y699417D01*
X84863Y701417D01*
G36*
X84863Y695417D02*
X90863Y693417D01*
X84863Y691417D01*
X85863Y693417D01*
X84863Y695417D01*
G37*
G54D17*
X84863Y695417D02*
X90863Y693417D01*
X84863Y691417D01*
X85863Y693417D01*
X84863Y695417D01*
G54D17*
X117832Y708461D02*
X108832Y708461D01*
X99832Y699461D01*
G54D17*
X117832Y682461D02*
X109832Y682461D01*
X108832Y683461D01*
X99832Y692461D01*
G54D17*
X99832Y703461D02*
X99832Y688461D01*
G54D17*
X107832Y686461D02*
X109832Y682461D01*
X105832Y684461D01*
G54D17*
X99832Y695461D02*
X96832Y695461D01*
G54D17*
X114832Y714461D02*
X122832Y714461D01*
X122832Y702461D01*
X114832Y702461D01*
G54D17*
X114832Y688961D02*
X122832Y688961D01*
X122832Y676961D01*
X114832Y676961D01*
G54D17*
X50832Y702461D02*
X42832Y702461D01*
X42832Y714461D01*
X50832Y714461D01*
G54D17*
X50832Y676961D02*
X42832Y676961D01*
X42832Y688961D01*
X50832Y688961D01*
G54D17*
X45832Y714461D02*
X45832Y702461D01*
G54D17*
X45832Y688961D02*
X45832Y676961D01*
G54D17*
X119832Y688961D02*
X119832Y676961D01*
G54D17*
X119832Y714461D02*
X119832Y702461D01*
G54D17*
X119832Y710961D02*
X122832Y710961D01*
G54D17*
X119832Y705961D02*
X122832Y705961D01*
G54D17*
X119832Y685461D02*
X122832Y685461D01*
G54D17*
X119832Y680461D02*
X122832Y680461D01*
G54D17*
X42832Y685461D02*
X45832Y685461D01*
G54D17*
X42832Y680461D02*
X45832Y680461D01*
G54D17*
X42832Y710961D02*
X45832Y710961D01*
G54D17*
X42832Y705961D02*
X45832Y705961D01*
G54D11*
X37025Y744511D02*
X36332Y744511D01*
X36332Y745089D01*
X37025Y745089D01*
X37025Y744511D01*
X36332Y744511D01*
G54D11*
X37025Y725011D02*
X36332Y725011D01*
X36332Y725589D01*
X37025Y725589D01*
X37025Y725011D01*
X36332Y725011D01*
G54D18*
X20885Y697584D02*
X20885Y693615D01*
G54D18*
X22472Y696790D02*
X19297Y696790D01*
G54D18*
X20885Y696790D02*
X19297Y694409D01*
X22472Y694409D01*
X22472Y694409D01*
X20885Y696790D01*
G54D19*
X18503Y694409D02*
X16916Y695996D01*
G54D19*
X18503Y695996D02*
X16916Y697584D01*
G54D19*
X16916Y695203D02*
X16916Y695996D01*
X17710Y695996D01*
G54D19*
X16916Y696790D02*
X16916Y697584D01*
X17710Y697584D01*
G54D17*
X18503Y680915D02*
X18503Y685678D01*
X23266Y685678D01*
X23266Y680915D01*
X18503Y680915D01*
G54D17*
X18503Y706315D02*
X18503Y711078D01*
X23266Y711078D01*
X23266Y706315D01*
X18503Y706315D01*
G54D19*
X29882Y693465D02*
X31660Y693465D01*
X31660Y694398D01*
G54D19*
X30882Y694865D02*
X30882Y695932D01*
G54D19*
X31326Y696465D02*
X31548Y696598D01*
X31660Y696865D01*
X31660Y697132D01*
X31548Y697398D01*
X31326Y697532D01*
X30771Y697532D01*
X30660Y697532D01*
X30882Y697132D01*
X30882Y696865D01*
X30771Y696598D01*
X30548Y696465D01*
X30215Y696465D01*
X29993Y696598D01*
X29882Y696865D01*
X29882Y697132D01*
X29993Y697398D01*
X30215Y697532D01*
X30771Y697532D01*
G54D19*
X30215Y698065D02*
X29993Y698198D01*
X29882Y698465D01*
X29882Y698732D01*
X29993Y698998D01*
X30215Y699132D01*
X30437Y699132D01*
X30660Y698998D01*
X30771Y698732D01*
X30882Y698998D01*
X31104Y699132D01*
X31326Y699132D01*
X31548Y698998D01*
X31660Y698732D01*
X31660Y698465D01*
X31548Y698198D01*
X31326Y698065D01*
G54D19*
X31660Y700465D02*
X29882Y700465D01*
X30993Y699665D01*
X31215Y699665D01*
X31215Y700732D01*
G54D19*
X31326Y702332D02*
X31548Y702198D01*
X31660Y701932D01*
X31660Y701665D01*
X31548Y701398D01*
X31326Y701265D01*
X30215Y701265D01*
X29993Y701398D01*
X29882Y701665D01*
X29882Y701932D01*
X29993Y702198D01*
X30215Y702332D01*
G54D19*
X31660Y702865D02*
X29882Y702865D01*
X29882Y703532D01*
X29993Y703798D01*
X30215Y703932D01*
X30437Y703932D01*
X30660Y703798D01*
X30771Y703532D01*
X30882Y703798D01*
X31104Y703932D01*
X31326Y703932D01*
X31548Y703798D01*
X31660Y703532D01*
X31660Y702865D01*
G54D19*
X30771Y702865D02*
X30771Y703532D01*
G54D19*
X31660Y704465D02*
X29882Y705532D01*
G54D19*
X31326Y706065D02*
X31548Y706198D01*
X31660Y706465D01*
X31660Y706732D01*
X31548Y706998D01*
X31326Y707132D01*
X31104Y707132D01*
X30882Y706998D01*
X30771Y706732D01*
X30771Y706465D01*
X30660Y706198D01*
X30437Y706065D01*
X30215Y706065D01*
X29993Y706198D01*
X29882Y706465D01*
X29882Y706732D01*
X29993Y706998D01*
X30215Y707132D01*
G54D19*
X30771Y708198D02*
X30993Y708598D01*
X31215Y708732D01*
X31660Y708732D01*
G54D19*
X31660Y707665D02*
X29882Y707665D01*
X29882Y708332D01*
X29993Y708598D01*
X30215Y708732D01*
X30437Y708732D01*
X30660Y708598D01*
X30771Y708332D01*
X30771Y707665D01*
G54D19*
X31660Y709265D02*
X29882Y709265D01*
X29882Y709932D01*
X29993Y710198D01*
X30215Y710332D01*
X31326Y710332D01*
X31548Y710198D01*
X31660Y709932D01*
X31660Y709265D01*
G54D18*
X20019Y688290D02*
X18685Y689623D01*
X22241Y689623D01*
G54D18*
X22241Y703917D02*
X22241Y701784D01*
X22019Y701784D01*
X21574Y702051D01*
X20241Y703651D01*
X19796Y703917D01*
X19352Y703917D01*
X18908Y703651D01*
X18685Y703117D01*
X18685Y702584D01*
X18908Y702051D01*
X19352Y701784D01*
G54D20*
X27197Y681046D02*
X24530Y681046D01*
G54D20*
X26797Y682946D02*
X26130Y682946D01*
X25797Y682746D01*
X25697Y682346D01*
X25797Y681946D01*
X26130Y681746D01*
X26797Y681746D01*
X27130Y681946D01*
X27197Y682346D01*
X27130Y682746D01*
X26797Y682946D01*
G54D20*
X27197Y683646D02*
X25697Y683646D01*
G54D20*
X26030Y683646D02*
X25797Y683846D01*
X25697Y684246D01*
X25797Y684646D01*
X26030Y684846D01*
X27197Y684846D01*
G54D20*
X27697Y685546D02*
X27864Y685946D01*
X27864Y686226D01*
X27697Y686626D01*
X27364Y686746D01*
X25697Y686746D01*
G54D20*
X26130Y686746D02*
X25797Y686546D01*
X25697Y686146D01*
X25797Y685746D01*
X26130Y685546D01*
X26797Y685546D01*
X27130Y685746D01*
X27197Y686146D01*
X27130Y686546D01*
X26797Y686746D01*
G54D17*
G75*
G01X35185Y695996D02*
G03X35185Y695996I-14300J0D01*
G01*
G54D17*
G75*
G01X36785Y695996D02*
G03X36785Y695996I-15900J0D01*
G01*
G54D11*
X-20989Y680590D02*
X-20989Y679896D01*
X-21567Y679896D01*
X-21567Y680590D01*
X-20989Y680590D01*
X-20989Y679896D01*
G54D11*
X-1489Y675989D02*
X-1489Y675296D01*
X-2067Y675296D01*
X-2067Y675989D01*
X-1489Y675989D01*
X-1489Y675296D01*
G54D12*
X236284Y487352D02*
X236284Y503352D01*
X244684Y503352D01*
G54D12*
X236284Y495352D02*
X244684Y495352D01*
G54D12*
X283784Y487552D02*
X283784Y503552D01*
X293385Y487552D01*
X293385Y503552D01*
G54D21*
X200180Y552166D02*
X204180Y541500D01*
X208180Y552166D01*
G54D21*
X211913Y547500D02*
X215113Y541500D01*
X218313Y547500D01*
G54D21*
X226846Y543100D02*
X226846Y545766D01*
X226046Y547100D01*
X224446Y547500D01*
X222846Y547100D01*
X222046Y545766D01*
X222046Y543100D01*
X222846Y541766D01*
X224446Y541500D01*
X226046Y541766D01*
X226846Y543100D01*
G54D21*
X235379Y541500D02*
X235379Y552166D01*
G54D21*
X235379Y545766D02*
X234579Y547100D01*
X232979Y547500D01*
X231379Y547100D01*
X230579Y545766D01*
X230579Y543100D01*
X231379Y541766D01*
X232979Y541500D01*
X234579Y541766D01*
X235379Y543100D01*
G54D21*
X243005Y546166D02*
X243645Y547100D01*
X244605Y547633D01*
X245885Y547633D01*
X246845Y547100D01*
X247645Y546166D01*
X248285Y545233D01*
X249245Y544700D01*
X250685Y544700D01*
X251485Y545233D01*
X252125Y546166D01*
G54D21*
X262258Y541500D02*
X255858Y541500D01*
X255858Y542166D01*
X256658Y543500D01*
X261458Y547500D01*
X262258Y548833D01*
X262258Y550166D01*
X261458Y551500D01*
X259858Y552166D01*
X258258Y552166D01*
X256658Y551500D01*
X255858Y550166D01*
G54D21*
X272391Y541500D02*
X265991Y541500D01*
X265991Y542166D01*
X266791Y543500D01*
X271591Y547500D01*
X272391Y548833D01*
X272391Y550166D01*
X271591Y551500D01*
X269991Y552166D01*
X268391Y552166D01*
X266791Y551500D01*
X265991Y550166D01*
G54D21*
X282524Y550166D02*
X282524Y543500D01*
X281724Y542166D01*
X280124Y541500D01*
X278524Y541500D01*
X276924Y542166D01*
X276124Y543500D01*
X276124Y550166D01*
X276924Y551500D01*
X278524Y552166D01*
X280124Y552166D01*
X281724Y551500D01*
X282524Y550166D01*
G54D21*
X286257Y552166D02*
X290257Y541500D01*
X294257Y552166D01*
G54D10*
X103847Y559627D02*
X196647Y559627D01*
X196680Y519100D01*
X196647Y484527D01*
X103847Y484627D01*
X103847Y559627D01*
G54D14*
X156184Y487885D02*
X156184Y501218D01*
X164184Y487885D01*
X164184Y501218D01*
G54D22*
X117876Y487122D02*
X117876Y500455D01*
G54D22*
X113876Y500455D02*
X121876Y500455D01*
G54D22*
X133543Y497955D02*
X133543Y489622D01*
X132543Y487955D01*
X130543Y487122D01*
X128543Y487122D01*
X126543Y487955D01*
X125543Y489622D01*
X125543Y497955D01*
X126543Y499622D01*
X128543Y500455D01*
X130543Y500455D01*
X132543Y499622D01*
X133543Y497955D01*
G54D10*
X200147Y559727D02*
X292947Y559727D01*
X292980Y519200D01*
X292947Y484627D01*
X200147Y484727D01*
X200147Y559727D01*
G54D10*
X7867Y559627D02*
X100667Y559627D01*
X100700Y519100D01*
X100667Y484527D01*
X7867Y484627D01*
X7867Y559627D01*
G54D14*
X56204Y487885D02*
X56204Y501218D01*
X64204Y487885D01*
X64204Y501218D01*
G54D22*
X17896Y487122D02*
X17896Y500455D01*
G54D22*
X13896Y500455D02*
X21896Y500455D01*
G54D22*
X33564Y497955D02*
X33564Y489622D01*
X32564Y487955D01*
X30564Y487122D01*
X28564Y487122D01*
X26564Y487955D01*
X25564Y489622D01*
X25564Y497955D01*
X26564Y499622D01*
X28564Y500455D01*
X30564Y500455D01*
X32564Y499622D01*
X33564Y497955D01*
G54D23*
X137847Y712673D02*
X137847Y681473D01*
X153447Y681473D01*
X153447Y712673D01*
X137847Y712673D01*
G54D11*
X109968Y719974D02*
X109968Y719281D01*
X110545Y719281D01*
X110545Y719974D01*
X109968Y719974D01*
X109968Y719281D01*
G54D11*
X129471Y719973D02*
X129471Y719279D01*
X130048Y719279D01*
X130048Y719973D01*
X129471Y719973D01*
X129471Y719279D01*
G54D10*
X163301Y743103D02*
X226801Y743103D01*
X226801Y666903D01*
X163301Y666903D01*
X163301Y743103D01*
G54D16*
X195564Y681569D02*
X195564Y676013D01*
X194898Y674902D01*
X193564Y674347D01*
X192231Y674347D01*
X190898Y674902D01*
X190231Y676013D01*
X190231Y681569D01*
X190898Y682680D01*
X192231Y683236D01*
X193564Y683236D01*
X194898Y682680D01*
X195564Y681569D01*
G54D16*
X198675Y683236D02*
X202008Y674347D01*
X205342Y683236D01*
G54D13*
X292571Y667779D02*
X267171Y667779D01*
X267171Y718579D01*
X292571Y718579D01*
X292571Y667779D01*
G54D13*
X232571Y667779D02*
X207171Y667779D01*
X207171Y718579D01*
X232571Y718579D01*
X232571Y667779D01*
G54D13*
X133006Y722695D02*
X133006Y748095D01*
X158406Y748095D01*
X158406Y722695D01*
X133006Y722695D01*
G54D11*
X248344Y741973D02*
X247651Y741973D01*
X247651Y741395D01*
X248344Y741395D01*
X248344Y741973D01*
X247651Y741973D01*
G54D11*
X132949Y755345D02*
X132256Y755345D01*
X132256Y755923D01*
X132949Y755923D01*
X132949Y755345D01*
X132256Y755345D01*
G54D16*
X129424Y729174D02*
X129424Y738063D01*
X132757Y732508D01*
X136091Y738063D01*
X136091Y729174D01*
G54D23*
X212071Y709079D02*
X212071Y677879D01*
X227671Y677879D01*
X227671Y709079D01*
X212071Y709079D01*
G54D11*
X184190Y716381D02*
X184190Y715688D01*
X184768Y715688D01*
X184768Y716381D01*
X184190Y716381D01*
X184190Y715688D01*
G54D11*
X203695Y716380D02*
X203695Y715686D01*
X204273Y715686D01*
X204273Y716380D01*
X203695Y716380D01*
X203695Y715686D01*
G54D15*
X282874Y697839D02*
X293541Y697839D01*
G54D15*
X288208Y702283D02*
X288208Y693395D01*
G54D16*
X284564Y667569D02*
X284564Y662013D01*
X283898Y660902D01*
X282564Y660347D01*
X281231Y660347D01*
X279898Y660902D01*
X279231Y662013D01*
X279231Y667569D01*
X279898Y668680D01*
X281231Y669236D01*
X282564Y669236D01*
X283898Y668680D01*
X284564Y667569D01*
G54D16*
X287675Y669236D02*
X291008Y660347D01*
X294342Y669236D01*
G54D23*
X270900Y736250D02*
X270900Y744250D01*
X229700Y744250D01*
X229700Y736250D01*
G54D23*
G75*
G01X229600Y736350D02*
G03X271000Y736350I20700J0D01*
G01*
G54D24*
X263940Y722050D02*
X263940Y729150D01*
G54D24*
X265940Y722050D02*
X265940Y729150D01*
X270240Y722050D01*
X270240Y729150D01*
G54D13*
X237006Y667695D02*
X237006Y693095D01*
X262406Y693095D01*
X262406Y667695D01*
X237006Y667695D01*
G54D11*
X358949Y686845D02*
X358256Y686845D01*
X358256Y687423D01*
X358949Y687423D01*
X358949Y686845D01*
X358256Y686845D01*
G54D11*
X236949Y700345D02*
X236256Y700345D01*
X236256Y700923D01*
X236949Y700923D01*
X236949Y700345D01*
X236256Y700345D01*
G54D13*
X272006Y719695D02*
X272006Y745095D01*
X297406Y745095D01*
X297406Y719695D01*
X272006Y719695D01*
G54D11*
X393949Y738845D02*
X393256Y738845D01*
X393256Y739423D01*
X393949Y739423D01*
X393949Y738845D01*
X393256Y738845D01*
G54D11*
X271949Y752345D02*
X271256Y752345D01*
X271256Y752923D01*
X271949Y752923D01*
X271949Y752345D01*
X271256Y752345D01*
G54D15*
X186874Y722839D02*
X197541Y722839D01*
G54D15*
X192208Y727283D02*
X192208Y718395D01*
G54D24*
X288940Y740050D02*
X288940Y747150D01*
G54D24*
X290940Y740050D02*
X290940Y747150D01*
X295240Y740050D01*
X295240Y747150D01*
G54D24*
X267460Y695850D02*
X267460Y691350D01*
X266860Y690450D01*
X265860Y690050D01*
X264760Y690050D01*
X263660Y690450D01*
X263160Y691350D01*
X263160Y695850D01*
X263660Y696750D01*
X264760Y697150D01*
X265860Y697150D01*
X266860Y696750D01*
X267460Y695850D01*
G54D24*
X269460Y697150D02*
X269460Y691350D01*
X269960Y690450D01*
X271060Y690050D01*
X272160Y690050D01*
X273160Y690450D01*
X273760Y691350D01*
X273760Y697150D01*
G54D24*
X277860Y690050D02*
X277860Y697150D01*
G54D24*
X275760Y697150D02*
X280060Y697150D01*
G54D16*
X276945Y742564D02*
X282278Y742564D01*
G54D16*
X279612Y744787D02*
X279612Y740342D01*
G54D10*
X581614Y567305D02*
X306614Y567305D01*
X306614Y657305D01*
X581614Y657305D01*
X581614Y567305D01*
G54D17*
X413126Y718066D02*
X413126Y672066D01*
X349126Y672066D01*
X349126Y718066D01*
X413126Y718066D01*
G54D18*
X390193Y680066D02*
X390193Y683621D01*
G54D18*
X389126Y683621D02*
X391260Y683621D01*
G54D18*
X392226Y683621D02*
X392226Y680066D01*
X394093Y680066D01*
G54D18*
X395126Y680066D02*
X395126Y683621D01*
X396460Y683621D01*
X396993Y683399D01*
X397260Y682955D01*
X397260Y682510D01*
X396993Y682066D01*
X396460Y681844D01*
X395126Y681844D01*
G54D18*
X400360Y683621D02*
X398226Y683621D01*
X398226Y682066D01*
X398493Y682066D01*
X399026Y682288D01*
X399560Y682288D01*
X400093Y682066D01*
X400360Y681621D01*
X400360Y680732D01*
X400093Y680288D01*
X399560Y680066D01*
X399026Y680066D01*
X398493Y680288D01*
X398226Y680732D01*
G54D18*
X403460Y680066D02*
X401326Y680066D01*
X401326Y680288D01*
X401593Y680732D01*
X403193Y682066D01*
X403460Y682510D01*
X403460Y682955D01*
X403193Y683399D01*
X402660Y683621D01*
X402126Y683621D01*
X401593Y683399D01*
X401326Y682955D01*
G54D18*
X404426Y682288D02*
X405760Y683621D01*
X405760Y680066D01*
G54D18*
X407793Y681844D02*
X408860Y681844D01*
X408860Y680732D01*
X408593Y680288D01*
X408060Y680066D01*
X407526Y680066D01*
X406993Y680288D01*
X406726Y680732D01*
X406726Y682955D01*
X406993Y683399D01*
X407526Y683621D01*
X408060Y683621D01*
X408593Y683399D01*
X408860Y682955D01*
G54D18*
X409826Y680066D02*
X409826Y683621D01*
X411160Y683621D01*
X411693Y683399D01*
X411960Y682955D01*
X411960Y682510D01*
X411693Y682066D01*
X411160Y681844D01*
X411693Y681621D01*
X411960Y681177D01*
X411960Y680732D01*
X411693Y680288D01*
X411160Y680066D01*
X409826Y680066D01*
G54D18*
X409826Y681844D02*
X411160Y681844D01*
G54D18*
X396326Y675266D02*
X396326Y678821D01*
X397660Y678821D01*
X398193Y678599D01*
X398460Y678155D01*
X398460Y675932D01*
X398193Y675488D01*
X397660Y675266D01*
X396326Y675266D01*
G54D18*
X399426Y675266D02*
X399426Y678821D01*
G54D18*
X400426Y678821D02*
X400426Y675266D01*
X402293Y675266D01*
G54D18*
X404926Y675266D02*
X404926Y678821D01*
X403326Y676599D01*
X403326Y676155D01*
X405460Y676155D01*
G54D17*
X354126Y718066D02*
X354126Y672066D01*
G54D18*
X351126Y708288D02*
X352460Y709621D01*
X352460Y706066D01*
G54D18*
X353260Y680066D02*
X351126Y680066D01*
X351126Y680288D01*
X351393Y680732D01*
X352993Y682066D01*
X353260Y682510D01*
X353260Y682955D01*
X352993Y683399D01*
X352460Y683621D01*
X351926Y683621D01*
X351393Y683399D01*
X351126Y682955D01*
G54D18*
X409126Y685955D02*
X409393Y686399D01*
X409926Y686621D01*
X410460Y686621D01*
X410993Y686399D01*
X411260Y685955D01*
X411260Y685510D01*
X410993Y685066D01*
X410460Y684844D01*
X410993Y684621D01*
X411260Y684177D01*
X411260Y683732D01*
X410993Y683288D01*
X410460Y683066D01*
X409926Y683066D01*
X409393Y683288D01*
X409126Y683732D01*
G54D18*
X410726Y707066D02*
X410726Y710621D01*
X409126Y708399D01*
X409126Y707955D01*
X411260Y707955D01*
G54D17*
X349126Y708066D02*
X363126Y708066D01*
X363126Y683066D01*
X350126Y683066D01*
G54D17*
X359126Y699066D02*
X366126Y699066D01*
X367126Y699066D01*
X363126Y693066D01*
X363126Y693066D01*
X359126Y699066D01*
G54D17*
X359126Y693066D02*
X367126Y693066D01*
G54D17*
G75*
G01X363126Y713066D02*
G03X363126Y713066I-3000J0D01*
G01*
G54D17*
X373126Y699066D02*
X389126Y699066D01*
G54D17*
X373126Y693066D02*
X389126Y693066D01*
G36*
X383157Y701022D02*
X389158Y699022D01*
X383158Y697022D01*
X384158Y699022D01*
X383157Y701022D01*
G37*
G54D17*
X383157Y701022D02*
X389158Y699022D01*
X383158Y697022D01*
X384158Y699022D01*
X383157Y701022D01*
G36*
X383158Y695022D02*
X389157Y693022D01*
X383157Y691022D01*
X384157Y693022D01*
X383158Y695022D01*
G37*
G54D17*
X383158Y695022D02*
X389157Y693022D01*
X383157Y691022D01*
X384157Y693022D01*
X383158Y695022D01*
G54D17*
X416126Y708066D02*
X407126Y708066D01*
X398126Y699066D01*
G54D17*
X416126Y682066D02*
X408126Y682066D01*
X407126Y683066D01*
X398126Y692066D01*
G54D17*
X398126Y703066D02*
X398126Y688066D01*
G54D17*
X406126Y686066D02*
X408126Y682066D01*
X404126Y684066D01*
G54D17*
X398126Y695066D02*
X395126Y695066D01*
G54D17*
X413126Y714066D02*
X421126Y714066D01*
X421126Y702066D01*
X413126Y702066D01*
G54D17*
X413126Y688566D02*
X421126Y688566D01*
X421126Y676566D01*
X413126Y676566D01*
G54D17*
X349126Y702066D02*
X341126Y702066D01*
X341126Y714066D01*
X349126Y714066D01*
G54D17*
X349126Y676566D02*
X341126Y676566D01*
X341126Y688566D01*
X349126Y688566D01*
G54D17*
X344126Y714066D02*
X344126Y702066D01*
G54D17*
X344126Y688566D02*
X344126Y676566D01*
G54D17*
X418126Y688566D02*
X418126Y676566D01*
G54D17*
X418126Y714066D02*
X418126Y702066D01*
G54D17*
X418126Y710566D02*
X421126Y710566D01*
G54D17*
X418126Y705566D02*
X421126Y705566D01*
G54D17*
X418126Y685066D02*
X421126Y685066D01*
G54D17*
X418126Y680066D02*
X421126Y680066D01*
G54D17*
X341126Y685066D02*
X344126Y685066D01*
G54D17*
X341126Y680066D02*
X344126Y680066D01*
G54D17*
X341126Y710566D02*
X344126Y710566D01*
G54D17*
X341126Y705566D02*
X344126Y705566D01*
G54D11*
X335320Y744116D02*
X334626Y744116D01*
X334626Y744693D01*
X335320Y744693D01*
X335320Y744116D01*
X334626Y744116D01*
G54D11*
X335320Y724616D02*
X334626Y724616D01*
X334626Y725193D01*
X335320Y725193D01*
X335320Y724616D01*
X334626Y724616D01*
G54D18*
X319179Y697189D02*
X319179Y693220D01*
G54D18*
X320767Y696395D02*
X317592Y696395D01*
G54D18*
X319179Y696395D02*
X317592Y694014D01*
X320767Y694014D01*
X320767Y694014D01*
X319179Y696395D01*
G54D19*
X316798Y694014D02*
X315210Y695601D01*
G54D19*
X316798Y695601D02*
X315210Y697189D01*
G54D19*
X315210Y694807D02*
X315210Y695601D01*
X316004Y695601D01*
G54D19*
X315210Y696395D02*
X315210Y697189D01*
X316004Y697189D01*
G54D17*
X316798Y680520D02*
X316798Y685282D01*
X321560Y685282D01*
X321560Y680520D01*
X316798Y680520D01*
G54D17*
X316798Y705920D02*
X316798Y710682D01*
X321560Y710682D01*
X321560Y705920D01*
X316798Y705920D01*
G54D19*
X328176Y693070D02*
X329954Y693070D01*
X329954Y694003D01*
G54D19*
X329176Y694470D02*
X329176Y695536D01*
G54D19*
X329621Y696070D02*
X329843Y696203D01*
X329954Y696470D01*
X329954Y696736D01*
X329843Y697003D01*
X329621Y697136D01*
X329065Y697136D01*
X328954Y697136D01*
X329176Y696736D01*
X329176Y696470D01*
X329065Y696203D01*
X328843Y696070D01*
X328510Y696070D01*
X328287Y696203D01*
X328176Y696470D01*
X328176Y696736D01*
X328287Y697003D01*
X328510Y697136D01*
X329065Y697136D01*
G54D19*
X328510Y697670D02*
X328287Y697803D01*
X328176Y698070D01*
X328176Y698336D01*
X328287Y698603D01*
X328510Y698736D01*
X328732Y698736D01*
X328954Y698603D01*
X329065Y698336D01*
X329176Y698603D01*
X329398Y698736D01*
X329621Y698736D01*
X329843Y698603D01*
X329954Y698336D01*
X329954Y698070D01*
X329843Y697803D01*
X329621Y697670D01*
G54D19*
X329954Y700070D02*
X328176Y700070D01*
X329287Y699270D01*
X329510Y699270D01*
X329510Y700336D01*
G54D19*
X329621Y701936D02*
X329843Y701803D01*
X329954Y701536D01*
X329954Y701270D01*
X329843Y701003D01*
X329621Y700870D01*
X328510Y700870D01*
X328287Y701003D01*
X328176Y701270D01*
X328176Y701536D01*
X328287Y701803D01*
X328510Y701936D01*
G54D19*
X329954Y702470D02*
X328176Y702470D01*
X328176Y703136D01*
X328287Y703403D01*
X328510Y703536D01*
X328732Y703536D01*
X328954Y703403D01*
X329065Y703136D01*
X329176Y703403D01*
X329398Y703536D01*
X329621Y703536D01*
X329843Y703403D01*
X329954Y703136D01*
X329954Y702470D01*
G54D19*
X329065Y702470D02*
X329065Y703136D01*
G54D19*
X329954Y704070D02*
X328176Y705136D01*
G54D19*
X329621Y705670D02*
X329843Y705803D01*
X329954Y706070D01*
X329954Y706336D01*
X329843Y706603D01*
X329621Y706736D01*
X329399Y706736D01*
X329176Y706603D01*
X329065Y706336D01*
X329065Y706070D01*
X328954Y705803D01*
X328732Y705670D01*
X328510Y705670D01*
X328287Y705803D01*
X328176Y706070D01*
X328176Y706336D01*
X328287Y706603D01*
X328510Y706736D01*
G54D19*
X329065Y707803D02*
X329287Y708203D01*
X329510Y708336D01*
X329954Y708336D01*
G54D19*
X329954Y707270D02*
X328176Y707270D01*
X328176Y707936D01*
X328287Y708203D01*
X328510Y708336D01*
X328732Y708336D01*
X328954Y708203D01*
X329065Y707936D01*
X329065Y707270D01*
G54D19*
X329954Y708870D02*
X328176Y708870D01*
X328176Y709536D01*
X328287Y709803D01*
X328510Y709936D01*
X329621Y709936D01*
X329843Y709803D01*
X329954Y709536D01*
X329954Y708870D01*
G54D18*
X318313Y687895D02*
X316980Y689228D01*
X320535Y689228D01*
G54D18*
X320535Y703522D02*
X320535Y701389D01*
X320313Y701389D01*
X319869Y701655D01*
X318535Y703255D01*
X318091Y703522D01*
X317646Y703522D01*
X317202Y703255D01*
X316980Y702722D01*
X316980Y702189D01*
X317202Y701655D01*
X317646Y701389D01*
G54D20*
X325492Y680651D02*
X322825Y680651D01*
G54D20*
X325092Y682551D02*
X324425Y682551D01*
X324092Y682351D01*
X323992Y681951D01*
X324092Y681551D01*
X324425Y681351D01*
X325092Y681351D01*
X325425Y681551D01*
X325492Y681951D01*
X325425Y682351D01*
X325092Y682551D01*
G54D20*
X325492Y683251D02*
X323992Y683251D01*
G54D20*
X324325Y683251D02*
X324092Y683451D01*
X323992Y683851D01*
X324092Y684251D01*
X324325Y684451D01*
X325492Y684451D01*
G54D20*
X325992Y685151D02*
X326158Y685551D01*
X326158Y685831D01*
X325992Y686231D01*
X325658Y686351D01*
X323992Y686351D01*
G54D20*
X324425Y686351D02*
X324092Y686151D01*
X323992Y685751D01*
X324092Y685351D01*
X324425Y685151D01*
X325092Y685151D01*
X325425Y685351D01*
X325492Y685751D01*
X325425Y686151D01*
X325092Y686351D01*
G54D17*
G75*
G01X333479Y695601D02*
G03X333479Y695601I-14300J0D01*
G01*
G54D17*
G75*
G01X335079Y695601D02*
G03X335079Y695601I-15900J0D01*
G01*
G54D11*
X277306Y680194D02*
X277306Y679501D01*
X276728Y679501D01*
X276728Y680194D01*
X277306Y680194D01*
X277306Y679501D01*
G54D11*
X296806Y675594D02*
X296806Y674901D01*
X296228Y674901D01*
X296228Y675594D01*
X296806Y675594D01*
X296806Y674901D01*
G54D12*
X534579Y486956D02*
X534579Y502956D01*
X542979Y502956D01*
G54D12*
X534579Y494956D02*
X542979Y494956D01*
G54D12*
X582079Y487156D02*
X582079Y503156D01*
X591679Y487156D01*
X591679Y503156D01*
G54D21*
X498474Y551771D02*
X502474Y541104D01*
X506474Y551771D01*
G54D21*
X510208Y547104D02*
X513408Y541104D01*
X516608Y547104D01*
G54D21*
X525140Y542704D02*
X525140Y545371D01*
X524340Y546704D01*
X522740Y547104D01*
X521140Y546704D01*
X520340Y545371D01*
X520340Y542704D01*
X521140Y541371D01*
X522740Y541104D01*
X524340Y541371D01*
X525140Y542704D01*
G54D21*
X533674Y541104D02*
X533674Y551771D01*
G54D21*
X533674Y545371D02*
X532874Y546704D01*
X531274Y547104D01*
X529674Y546704D01*
X528874Y545371D01*
X528874Y542704D01*
X529674Y541371D01*
X531274Y541104D01*
X532874Y541371D01*
X533674Y542704D01*
G54D21*
X541300Y545771D02*
X541940Y546704D01*
X542900Y547238D01*
X544180Y547238D01*
X545140Y546704D01*
X545940Y545771D01*
X546580Y544838D01*
X547540Y544304D01*
X548980Y544304D01*
X549780Y544838D01*
X550420Y545771D01*
G54D21*
X560552Y541104D02*
X554152Y541104D01*
X554152Y541771D01*
X554952Y543104D01*
X559752Y547104D01*
X560552Y548438D01*
X560552Y549771D01*
X559752Y551104D01*
X558152Y551771D01*
X556552Y551771D01*
X554952Y551104D01*
X554152Y549771D01*
G54D21*
X570686Y541104D02*
X564286Y541104D01*
X564286Y541771D01*
X565086Y543104D01*
X569886Y547104D01*
X570686Y548438D01*
X570686Y549771D01*
X569886Y551104D01*
X568286Y551771D01*
X566686Y551771D01*
X565086Y551104D01*
X564286Y549771D01*
G54D21*
X580818Y549771D02*
X580818Y543104D01*
X580018Y541771D01*
X578418Y541104D01*
X576818Y541104D01*
X575218Y541771D01*
X574418Y543104D01*
X574418Y549771D01*
X575218Y551104D01*
X576818Y551771D01*
X578418Y551771D01*
X580018Y551104D01*
X580818Y549771D01*
G54D21*
X584551Y551771D02*
X588551Y541104D01*
X592551Y551771D01*
G54D10*
X402142Y559231D02*
X494942Y559231D01*
X494974Y518704D01*
X494942Y484131D01*
X402142Y484231D01*
X402142Y559231D01*
G54D14*
X454479Y487489D02*
X454479Y500823D01*
X462479Y487489D01*
X462479Y500823D01*
G54D22*
X416171Y486726D02*
X416171Y500060D01*
G54D22*
X412171Y500060D02*
X420171Y500060D01*
G54D22*
X431838Y497560D02*
X431838Y489226D01*
X430838Y487560D01*
X428838Y486726D01*
X426838Y486726D01*
X424838Y487560D01*
X423838Y489226D01*
X423838Y497560D01*
X424838Y499226D01*
X426838Y500060D01*
X428838Y500060D01*
X430838Y499226D01*
X431838Y497560D01*
G54D10*
X498442Y559331D02*
X591242Y559331D01*
X591274Y518804D01*
X591242Y484231D01*
X498442Y484331D01*
X498442Y559331D01*
G54D10*
X306162Y559232D02*
X398962Y559232D01*
X398994Y518705D01*
X398962Y484132D01*
X306162Y484232D01*
X306162Y559232D01*
G54D14*
X354499Y487490D02*
X354499Y500823D01*
X362499Y487490D01*
X362499Y500823D01*
G54D22*
X316191Y486727D02*
X316191Y500060D01*
G54D22*
X312191Y500060D02*
X320191Y500060D01*
G54D22*
X331858Y497560D02*
X331858Y489227D01*
X330858Y487560D01*
X328858Y486727D01*
X326858Y486727D01*
X324858Y487560D01*
X323858Y489227D01*
X323858Y497560D01*
X324858Y499227D01*
X326858Y500060D01*
X328858Y500060D01*
X330858Y499227D01*
X331858Y497560D01*
G54D23*
X436142Y712278D02*
X436142Y681078D01*
X451742Y681078D01*
X451742Y712278D01*
X436142Y712278D01*
G54D11*
X408262Y719579D02*
X408262Y718885D01*
X408840Y718885D01*
X408840Y719579D01*
X408262Y719579D01*
X408262Y718885D01*
G54D11*
X427765Y719577D02*
X427765Y718884D01*
X428343Y718884D01*
X428343Y719577D01*
X427765Y719577D01*
X427765Y718884D01*
G54D10*
X461595Y742707D02*
X525095Y742707D01*
X525095Y666507D01*
X461595Y666507D01*
X461595Y742707D01*
G54D16*
X493859Y681174D02*
X493859Y675618D01*
X493192Y674507D01*
X491859Y673951D01*
X490526Y673951D01*
X489192Y674507D01*
X488526Y675618D01*
X488526Y681174D01*
X489192Y682285D01*
X490526Y682840D01*
X491859Y682840D01*
X493192Y682285D01*
X493859Y681174D01*
G54D16*
X496970Y682840D02*
X500303Y673951D01*
X503636Y682840D01*
G54D13*
X590865Y667384D02*
X565465Y667384D01*
X565465Y718184D01*
X590865Y718184D01*
X590865Y667384D01*
G54D13*
X530865Y667384D02*
X505465Y667384D01*
X505465Y718184D01*
X530865Y718184D01*
X530865Y667384D01*
G54D13*
X431300Y722300D02*
X431300Y747700D01*
X456700Y747700D01*
X456700Y722300D01*
X431300Y722300D01*
G54D11*
X546639Y741578D02*
X545946Y741578D01*
X545946Y741000D01*
X546639Y741000D01*
X546639Y741578D01*
X545946Y741578D01*
G54D11*
X431243Y754950D02*
X430550Y754950D01*
X430550Y755528D01*
X431243Y755528D01*
X431243Y754950D01*
X430550Y754950D01*
G54D16*
X427718Y728779D02*
X427718Y737668D01*
X431052Y732112D01*
X434385Y737668D01*
X434385Y728779D01*
G54D23*
X510365Y708684D02*
X510365Y677484D01*
X525965Y677484D01*
X525965Y708684D01*
X510365Y708684D01*
G54D11*
X482485Y715986D02*
X482485Y715293D01*
X483063Y715293D01*
X483063Y715986D01*
X482485Y715986D01*
X482485Y715293D01*
G54D11*
X501990Y715984D02*
X501990Y715291D01*
X502568Y715291D01*
X502568Y715984D01*
X501990Y715984D01*
X501990Y715291D01*
G54D15*
X581169Y697444D02*
X591836Y697444D01*
G54D15*
X586502Y701888D02*
X586502Y692999D01*
G54D16*
X582859Y667174D02*
X582859Y661618D01*
X582192Y660507D01*
X580859Y659951D01*
X579526Y659951D01*
X578192Y660507D01*
X577526Y661618D01*
X577526Y667174D01*
X578192Y668285D01*
X579526Y668840D01*
X580859Y668840D01*
X582192Y668285D01*
X582859Y667174D01*
G54D16*
X585970Y668840D02*
X589303Y659951D01*
X592636Y668840D01*
G54D23*
X569195Y735855D02*
X569195Y743855D01*
X527994Y743855D01*
X527995Y735855D01*
G54D23*
G75*
G01X527895Y735955D02*
G03X569295Y735955I20700J0D01*
G01*
G54D24*
X562234Y721655D02*
X562234Y728755D01*
G54D24*
X564234Y721655D02*
X564234Y728755D01*
X568534Y721655D01*
X568534Y728755D01*
G54D13*
X535300Y667300D02*
X535300Y692700D01*
X560700Y692700D01*
X560700Y667300D01*
X535300Y667300D01*
G54D11*
X657243Y686450D02*
X656550Y686450D01*
X656550Y687028D01*
X657243Y687028D01*
X657243Y686450D01*
X656550Y686450D01*
G54D11*
X535243Y699950D02*
X534550Y699950D01*
X534550Y700528D01*
X535243Y700528D01*
X535243Y699950D01*
X534550Y699950D01*
G54D13*
X570300Y719300D02*
X570300Y744700D01*
X595700Y744700D01*
X595700Y719300D01*
X570300Y719300D01*
G54D11*
X692243Y738450D02*
X691550Y738450D01*
X691550Y739028D01*
X692243Y739028D01*
X692243Y738450D01*
X691550Y738450D01*
G54D11*
X570243Y751950D02*
X569550Y751950D01*
X569550Y752528D01*
X570243Y752528D01*
X570243Y751950D01*
X569550Y751950D01*
G54D15*
X485169Y722444D02*
X495836Y722444D01*
G54D15*
X490502Y726888D02*
X490502Y717999D01*
G54D24*
X587234Y739655D02*
X587234Y746755D01*
G54D24*
X589234Y739655D02*
X589234Y746755D01*
X593534Y739655D01*
X593534Y746755D01*
G54D24*
X565754Y695455D02*
X565754Y690955D01*
X565154Y690055D01*
X564154Y689655D01*
X563054Y689655D01*
X561954Y690055D01*
X561454Y690955D01*
X561454Y695455D01*
X561954Y696355D01*
X563054Y696755D01*
X564154Y696755D01*
X565154Y696355D01*
X565754Y695455D01*
G54D24*
X567754Y696755D02*
X567754Y690955D01*
X568254Y690055D01*
X569354Y689655D01*
X570454Y689655D01*
X571454Y690055D01*
X572054Y690955D01*
X572054Y696755D01*
G54D24*
X576154Y689655D02*
X576154Y696755D01*
G54D24*
X574054Y696755D02*
X578354Y696755D01*
G54D16*
X575240Y742169D02*
X580573Y742169D01*
G54D16*
X577906Y744391D02*
X577906Y739947D01*
G54D10*
X878614Y567305D02*
X603614Y567305D01*
X603614Y657305D01*
X878614Y657305D01*
X878614Y567305D01*
G54D17*
X710126Y718066D02*
X710126Y672066D01*
X646126Y672066D01*
X646126Y718066D01*
X710126Y718066D01*
G54D18*
X687193Y680066D02*
X687193Y683621D01*
G54D18*
X686126Y683621D02*
X688260Y683621D01*
G54D18*
X689226Y683621D02*
X689226Y680066D01*
X691093Y680066D01*
G54D18*
X692126Y680066D02*
X692126Y683621D01*
X693460Y683621D01*
X693993Y683399D01*
X694260Y682955D01*
X694260Y682510D01*
X693993Y682066D01*
X693460Y681844D01*
X692126Y681844D01*
G54D18*
X697360Y683621D02*
X695226Y683621D01*
X695226Y682066D01*
X695493Y682066D01*
X696026Y682288D01*
X696560Y682288D01*
X697093Y682066D01*
X697360Y681621D01*
X697360Y680732D01*
X697093Y680288D01*
X696560Y680066D01*
X696026Y680066D01*
X695493Y680288D01*
X695226Y680732D01*
G54D18*
X700460Y680066D02*
X698326Y680066D01*
X698326Y680288D01*
X698593Y680732D01*
X700193Y682066D01*
X700460Y682510D01*
X700460Y682955D01*
X700193Y683399D01*
X699660Y683621D01*
X699126Y683621D01*
X698593Y683399D01*
X698326Y682955D01*
G54D18*
X701426Y682288D02*
X702760Y683621D01*
X702760Y680066D01*
G54D18*
X704793Y681844D02*
X705860Y681844D01*
X705860Y680732D01*
X705593Y680288D01*
X705060Y680066D01*
X704526Y680066D01*
X703993Y680288D01*
X703726Y680732D01*
X703726Y682955D01*
X703993Y683399D01*
X704526Y683621D01*
X705060Y683621D01*
X705593Y683399D01*
X705860Y682955D01*
G54D18*
X706826Y680066D02*
X706826Y683621D01*
X708160Y683621D01*
X708693Y683399D01*
X708960Y682955D01*
X708960Y682510D01*
X708693Y682066D01*
X708160Y681844D01*
X708693Y681621D01*
X708960Y681177D01*
X708960Y680732D01*
X708693Y680288D01*
X708160Y680066D01*
X706826Y680066D01*
G54D18*
X706826Y681844D02*
X708160Y681844D01*
G54D18*
X693326Y675266D02*
X693326Y678821D01*
X694660Y678821D01*
X695193Y678599D01*
X695460Y678155D01*
X695460Y675932D01*
X695193Y675488D01*
X694660Y675266D01*
X693326Y675266D01*
G54D18*
X696426Y675266D02*
X696426Y678821D01*
G54D18*
X697426Y678821D02*
X697426Y675266D01*
X699293Y675266D01*
G54D18*
X701926Y675266D02*
X701926Y678821D01*
X700326Y676599D01*
X700326Y676155D01*
X702460Y676155D01*
G54D17*
X651126Y718066D02*
X651126Y672066D01*
G54D18*
X648126Y708288D02*
X649460Y709621D01*
X649460Y706066D01*
G54D18*
X650260Y680066D02*
X648126Y680066D01*
X648126Y680288D01*
X648393Y680732D01*
X649993Y682066D01*
X650260Y682510D01*
X650260Y682955D01*
X649993Y683399D01*
X649460Y683621D01*
X648926Y683621D01*
X648393Y683399D01*
X648126Y682955D01*
G54D18*
X706126Y685955D02*
X706393Y686399D01*
X706926Y686621D01*
X707460Y686621D01*
X707993Y686399D01*
X708260Y685955D01*
X708260Y685510D01*
X707993Y685066D01*
X707460Y684844D01*
X707993Y684621D01*
X708260Y684177D01*
X708260Y683732D01*
X707993Y683288D01*
X707460Y683066D01*
X706926Y683066D01*
X706393Y683288D01*
X706126Y683732D01*
G54D18*
X707726Y707066D02*
X707726Y710621D01*
X706126Y708399D01*
X706126Y707955D01*
X708260Y707955D01*
G54D17*
X646126Y708066D02*
X660126Y708066D01*
X660126Y683066D01*
X647126Y683066D01*
G54D17*
X656126Y699066D02*
X663126Y699066D01*
X664126Y699066D01*
X660126Y693066D01*
X660126Y693066D01*
X656126Y699066D01*
G54D17*
X656126Y693066D02*
X664126Y693066D01*
G54D17*
G75*
G01X660126Y713066D02*
G03X660126Y713066I-3000J0D01*
G01*
G54D17*
X670126Y699066D02*
X686126Y699066D01*
G54D17*
X670126Y693066D02*
X686126Y693066D01*
G36*
X680157Y701022D02*
X686158Y699022D01*
X680158Y697022D01*
X681158Y699022D01*
X680157Y701022D01*
G37*
G54D17*
X680157Y701022D02*
X686158Y699022D01*
X680158Y697022D01*
X681158Y699022D01*
X680157Y701022D01*
G36*
X680158Y695022D02*
X686157Y693022D01*
X680157Y691022D01*
X681157Y693022D01*
X680158Y695022D01*
G37*
G54D17*
X680158Y695022D02*
X686157Y693022D01*
X680157Y691022D01*
X681157Y693022D01*
X680158Y695022D01*
G54D17*
X713126Y708066D02*
X704126Y708066D01*
X695126Y699066D01*
G54D17*
X713126Y682066D02*
X705126Y682066D01*
X704126Y683066D01*
X695126Y692066D01*
G54D17*
X695126Y703066D02*
X695126Y688066D01*
G54D17*
X703126Y686066D02*
X705126Y682066D01*
X701126Y684066D01*
G54D17*
X695126Y695066D02*
X692126Y695066D01*
G54D17*
X710126Y714066D02*
X718126Y714066D01*
X718126Y702066D01*
X710126Y702066D01*
G54D17*
X710126Y688566D02*
X718126Y688566D01*
X718126Y676566D01*
X710126Y676566D01*
G54D17*
X646126Y702066D02*
X638126Y702066D01*
X638126Y714066D01*
X646126Y714066D01*
G54D17*
X646126Y676566D02*
X638126Y676566D01*
X638126Y688566D01*
X646126Y688566D01*
G54D17*
X641126Y714066D02*
X641126Y702066D01*
G54D17*
X641126Y688566D02*
X641126Y676566D01*
G54D17*
X715126Y688566D02*
X715126Y676566D01*
G54D17*
X715126Y714066D02*
X715126Y702066D01*
G54D17*
X715126Y710566D02*
X718126Y710566D01*
G54D17*
X715126Y705566D02*
X718126Y705566D01*
G54D17*
X715126Y685066D02*
X718126Y685066D01*
G54D17*
X715126Y680066D02*
X718126Y680066D01*
G54D17*
X638126Y685066D02*
X641126Y685066D01*
G54D17*
X638126Y680066D02*
X641126Y680066D01*
G54D17*
X638126Y710566D02*
X641126Y710566D01*
G54D17*
X638126Y705566D02*
X641126Y705566D01*
G54D11*
X632320Y744116D02*
X631626Y744116D01*
X631626Y744693D01*
X632320Y744693D01*
X632320Y744116D01*
X631626Y744116D01*
G54D11*
X632320Y724616D02*
X631626Y724616D01*
X631626Y725193D01*
X632320Y725193D01*
X632320Y724616D01*
X631626Y724616D01*
G54D18*
X616179Y697189D02*
X616179Y693220D01*
G54D18*
X617767Y696395D02*
X614592Y696395D01*
G54D18*
X616179Y696395D02*
X614592Y694014D01*
X617767Y694014D01*
X617767Y694014D01*
X616179Y696395D01*
G54D19*
X613798Y694014D02*
X612210Y695601D01*
G54D19*
X613798Y695601D02*
X612210Y697189D01*
G54D19*
X612210Y694807D02*
X612210Y695601D01*
X613004Y695601D01*
G54D19*
X612210Y696395D02*
X612210Y697189D01*
X613004Y697189D01*
G54D17*
X613798Y680520D02*
X613798Y685282D01*
X618560Y685282D01*
X618560Y680520D01*
X613798Y680520D01*
G54D17*
X613798Y705920D02*
X613798Y710682D01*
X618560Y710682D01*
X618560Y705920D01*
X613798Y705920D01*
G54D19*
X625176Y693070D02*
X626954Y693070D01*
X626954Y694003D01*
G54D19*
X626176Y694470D02*
X626176Y695536D01*
G54D19*
X626621Y696070D02*
X626843Y696203D01*
X626954Y696470D01*
X626954Y696736D01*
X626843Y697003D01*
X626621Y697136D01*
X626065Y697136D01*
X625954Y697136D01*
X626176Y696736D01*
X626176Y696470D01*
X626065Y696203D01*
X625843Y696070D01*
X625510Y696070D01*
X625287Y696203D01*
X625176Y696470D01*
X625176Y696736D01*
X625287Y697003D01*
X625510Y697136D01*
X626065Y697136D01*
G54D19*
X625510Y697670D02*
X625287Y697803D01*
X625176Y698070D01*
X625176Y698336D01*
X625287Y698603D01*
X625510Y698736D01*
X625732Y698736D01*
X625954Y698603D01*
X626065Y698336D01*
X626176Y698603D01*
X626398Y698736D01*
X626621Y698736D01*
X626843Y698603D01*
X626954Y698336D01*
X626954Y698070D01*
X626843Y697803D01*
X626621Y697670D01*
G54D19*
X626954Y700070D02*
X625176Y700070D01*
X626287Y699270D01*
X626510Y699270D01*
X626510Y700336D01*
G54D19*
X626621Y701936D02*
X626843Y701803D01*
X626954Y701536D01*
X626954Y701270D01*
X626843Y701003D01*
X626621Y700870D01*
X625510Y700870D01*
X625287Y701003D01*
X625176Y701270D01*
X625176Y701536D01*
X625287Y701803D01*
X625510Y701936D01*
G54D19*
X626954Y702470D02*
X625176Y702470D01*
X625176Y703136D01*
X625287Y703403D01*
X625510Y703536D01*
X625732Y703536D01*
X625954Y703403D01*
X626065Y703136D01*
X626176Y703403D01*
X626398Y703536D01*
X626621Y703536D01*
X626843Y703403D01*
X626954Y703136D01*
X626954Y702470D01*
G54D19*
X626065Y702470D02*
X626065Y703136D01*
G54D19*
X626954Y704070D02*
X625176Y705136D01*
G54D19*
X626621Y705670D02*
X626843Y705803D01*
X626954Y706070D01*
X626954Y706336D01*
X626843Y706603D01*
X626621Y706736D01*
X626399Y706736D01*
X626176Y706603D01*
X626065Y706336D01*
X626065Y706070D01*
X625954Y705803D01*
X625732Y705670D01*
X625510Y705670D01*
X625287Y705803D01*
X625176Y706070D01*
X625176Y706336D01*
X625287Y706603D01*
X625510Y706736D01*
G54D19*
X626065Y707803D02*
X626287Y708203D01*
X626510Y708336D01*
X626954Y708336D01*
G54D19*
X626954Y707270D02*
X625176Y707270D01*
X625176Y707936D01*
X625287Y708203D01*
X625510Y708336D01*
X625732Y708336D01*
X625954Y708203D01*
X626065Y707936D01*
X626065Y707270D01*
G54D19*
X626954Y708870D02*
X625176Y708870D01*
X625176Y709536D01*
X625287Y709803D01*
X625510Y709936D01*
X626621Y709936D01*
X626843Y709803D01*
X626954Y709536D01*
X626954Y708870D01*
G54D18*
X615313Y687895D02*
X613980Y689228D01*
X617535Y689228D01*
G54D18*
X617535Y703522D02*
X617535Y701389D01*
X617313Y701389D01*
X616869Y701655D01*
X615535Y703255D01*
X615091Y703522D01*
X614646Y703522D01*
X614202Y703255D01*
X613980Y702722D01*
X613980Y702189D01*
X614202Y701655D01*
X614646Y701389D01*
G54D20*
X622492Y680651D02*
X619825Y680651D01*
G54D20*
X622092Y682551D02*
X621425Y682551D01*
X621092Y682351D01*
X620992Y681951D01*
X621092Y681551D01*
X621425Y681351D01*
X622092Y681351D01*
X622425Y681551D01*
X622492Y681951D01*
X622425Y682351D01*
X622092Y682551D01*
G54D20*
X622492Y683251D02*
X620992Y683251D01*
G54D20*
X621325Y683251D02*
X621092Y683451D01*
X620992Y683851D01*
X621092Y684251D01*
X621325Y684451D01*
X622492Y684451D01*
G54D20*
X622992Y685151D02*
X623158Y685551D01*
X623158Y685831D01*
X622992Y686231D01*
X622658Y686351D01*
X620992Y686351D01*
G54D20*
X621425Y686351D02*
X621092Y686151D01*
X620992Y685751D01*
X621092Y685351D01*
X621425Y685151D01*
X622092Y685151D01*
X622425Y685351D01*
X622492Y685751D01*
X622425Y686151D01*
X622092Y686351D01*
G54D17*
G75*
G01X630479Y695601D02*
G03X630479Y695601I-14300J0D01*
G01*
G54D17*
G75*
G01X632079Y695601D02*
G03X632079Y695601I-15900J0D01*
G01*
G54D11*
X574306Y680194D02*
X574306Y679501D01*
X573728Y679501D01*
X573728Y680194D01*
X574306Y680194D01*
X574306Y679501D01*
G54D11*
X593806Y675594D02*
X593806Y674901D01*
X593228Y674901D01*
X593228Y675594D01*
X593806Y675594D01*
X593806Y674901D01*
G54D12*
X831579Y486956D02*
X831579Y502956D01*
X839979Y502956D01*
G54D12*
X831579Y494956D02*
X839979Y494956D01*
G54D12*
X879079Y487156D02*
X879079Y503156D01*
X888679Y487156D01*
X888679Y503156D01*
G54D21*
X795474Y551771D02*
X799474Y541104D01*
X803474Y551771D01*
G54D21*
X807208Y547104D02*
X810408Y541104D01*
X813608Y547104D01*
G54D21*
X822140Y542704D02*
X822140Y545371D01*
X821340Y546704D01*
X819740Y547104D01*
X818140Y546704D01*
X817340Y545371D01*
X817340Y542704D01*
X818140Y541371D01*
X819740Y541104D01*
X821340Y541371D01*
X822140Y542704D01*
G54D21*
X830674Y541104D02*
X830674Y551771D01*
G54D21*
X830674Y545371D02*
X829874Y546704D01*
X828274Y547104D01*
X826674Y546704D01*
X825874Y545371D01*
X825874Y542704D01*
X826674Y541371D01*
X828274Y541104D01*
X829874Y541371D01*
X830674Y542704D01*
G54D21*
X838300Y545771D02*
X838940Y546704D01*
X839900Y547238D01*
X841180Y547238D01*
X842140Y546704D01*
X842940Y545771D01*
X843580Y544838D01*
X844540Y544304D01*
X845980Y544304D01*
X846780Y544838D01*
X847420Y545771D01*
G54D21*
X857552Y541104D02*
X851152Y541104D01*
X851152Y541771D01*
X851952Y543104D01*
X856752Y547104D01*
X857552Y548438D01*
X857552Y549771D01*
X856752Y551104D01*
X855152Y551771D01*
X853552Y551771D01*
X851952Y551104D01*
X851152Y549771D01*
G54D21*
X867686Y541104D02*
X861286Y541104D01*
X861286Y541771D01*
X862086Y543104D01*
X866886Y547104D01*
X867686Y548438D01*
X867686Y549771D01*
X866886Y551104D01*
X865286Y551771D01*
X863686Y551771D01*
X862086Y551104D01*
X861286Y549771D01*
G54D21*
X877818Y549771D02*
X877818Y543104D01*
X877018Y541771D01*
X875418Y541104D01*
X873818Y541104D01*
X872218Y541771D01*
X871418Y543104D01*
X871418Y549771D01*
X872218Y551104D01*
X873818Y551771D01*
X875418Y551771D01*
X877018Y551104D01*
X877818Y549771D01*
G54D21*
X881551Y551771D02*
X885551Y541104D01*
X889551Y551771D01*
G54D10*
X699142Y559231D02*
X791942Y559231D01*
X791974Y518704D01*
X791942Y484131D01*
X699142Y484231D01*
X699142Y559231D01*
G54D14*
X751479Y487489D02*
X751479Y500823D01*
X759479Y487489D01*
X759479Y500823D01*
G54D22*
X713171Y486726D02*
X713171Y500060D01*
G54D22*
X709171Y500060D02*
X717171Y500060D01*
G54D22*
X728838Y497560D02*
X728838Y489226D01*
X727838Y487560D01*
X725838Y486726D01*
X723838Y486726D01*
X721838Y487560D01*
X720838Y489226D01*
X720838Y497560D01*
X721838Y499226D01*
X723838Y500060D01*
X725838Y500060D01*
X727838Y499226D01*
X728838Y497560D01*
G54D10*
X795442Y559331D02*
X888242Y559331D01*
X888274Y518804D01*
X888242Y484231D01*
X795442Y484331D01*
X795442Y559331D01*
G54D10*
X603162Y559232D02*
X695962Y559232D01*
X695994Y518705D01*
X695962Y484132D01*
X603162Y484232D01*
X603162Y559232D01*
G54D14*
X651499Y487490D02*
X651499Y500823D01*
X659499Y487490D01*
X659499Y500823D01*
G54D22*
X613191Y486727D02*
X613191Y500060D01*
G54D22*
X609191Y500060D02*
X617191Y500060D01*
G54D22*
X628858Y497560D02*
X628858Y489227D01*
X627858Y487560D01*
X625858Y486727D01*
X623858Y486727D01*
X621858Y487560D01*
X620858Y489227D01*
X620858Y497560D01*
X621858Y499227D01*
X623858Y500060D01*
X625858Y500060D01*
X627858Y499227D01*
X628858Y497560D01*
G54D23*
X733142Y712278D02*
X733142Y681078D01*
X748742Y681078D01*
X748742Y712278D01*
X733142Y712278D01*
G54D11*
X705262Y719579D02*
X705262Y718885D01*
X705840Y718885D01*
X705840Y719579D01*
X705262Y719579D01*
X705262Y718885D01*
G54D11*
X724765Y719577D02*
X724765Y718884D01*
X725343Y718884D01*
X725343Y719577D01*
X724765Y719577D01*
X724765Y718884D01*
G54D10*
X758595Y742707D02*
X822095Y742707D01*
X822095Y666507D01*
X758595Y666507D01*
X758595Y742707D01*
G54D16*
X790859Y681174D02*
X790859Y675618D01*
X790192Y674507D01*
X788859Y673951D01*
X787526Y673951D01*
X786192Y674507D01*
X785526Y675618D01*
X785526Y681174D01*
X786192Y682285D01*
X787526Y682840D01*
X788859Y682840D01*
X790192Y682285D01*
X790859Y681174D01*
G54D16*
X793970Y682840D02*
X797303Y673951D01*
X800636Y682840D01*
G54D13*
X887865Y667384D02*
X862465Y667384D01*
X862465Y718184D01*
X887865Y718184D01*
X887865Y667384D01*
G54D13*
X827865Y667384D02*
X802465Y667384D01*
X802465Y718184D01*
X827865Y718184D01*
X827865Y667384D01*
G54D13*
X728300Y722300D02*
X728300Y747700D01*
X753700Y747700D01*
X753700Y722300D01*
X728300Y722300D01*
G54D11*
X843639Y741578D02*
X842946Y741578D01*
X842946Y741000D01*
X843639Y741000D01*
X843639Y741578D01*
X842946Y741578D01*
G54D11*
X728243Y754950D02*
X727550Y754950D01*
X727550Y755528D01*
X728243Y755528D01*
X728243Y754950D01*
X727550Y754950D01*
G54D16*
X724718Y728779D02*
X724718Y737668D01*
X728052Y732112D01*
X731385Y737668D01*
X731385Y728779D01*
G54D23*
X807365Y708684D02*
X807365Y677484D01*
X822965Y677484D01*
X822965Y708684D01*
X807365Y708684D01*
G54D11*
X779485Y715986D02*
X779485Y715293D01*
X780063Y715293D01*
X780063Y715986D01*
X779485Y715986D01*
X779485Y715293D01*
G54D11*
X798990Y715984D02*
X798990Y715291D01*
X799568Y715291D01*
X799568Y715984D01*
X798990Y715984D01*
X798990Y715291D01*
G54D15*
X878169Y697444D02*
X888836Y697444D01*
G54D15*
X883502Y701888D02*
X883502Y692999D01*
G54D16*
X879859Y667174D02*
X879859Y661618D01*
X879192Y660507D01*
X877859Y659951D01*
X876526Y659951D01*
X875192Y660507D01*
X874526Y661618D01*
X874526Y667174D01*
X875192Y668285D01*
X876526Y668840D01*
X877859Y668840D01*
X879192Y668285D01*
X879859Y667174D01*
G54D16*
X882970Y668840D02*
X886303Y659951D01*
X889636Y668840D01*
G54D23*
X866195Y735855D02*
X866195Y743855D01*
X824994Y743855D01*
X824995Y735855D01*
G54D23*
G75*
G01X824895Y735955D02*
G03X866295Y735955I20700J0D01*
G01*
G54D24*
X859234Y721655D02*
X859234Y728755D01*
G54D24*
X861234Y721655D02*
X861234Y728755D01*
X865534Y721655D01*
X865534Y728755D01*
G54D13*
X832300Y667300D02*
X832300Y692700D01*
X857700Y692700D01*
X857700Y667300D01*
X832300Y667300D01*
G54D11*
X954243Y686450D02*
X953550Y686450D01*
X953550Y687028D01*
X954243Y687028D01*
X954243Y686450D01*
X953550Y686450D01*
G54D11*
X832243Y699950D02*
X831550Y699950D01*
X831550Y700528D01*
X832243Y700528D01*
X832243Y699950D01*
X831550Y699950D01*
G54D13*
X867300Y719300D02*
X867300Y744700D01*
X892700Y744700D01*
X892700Y719300D01*
X867300Y719300D01*
G54D11*
X989243Y738450D02*
X988550Y738450D01*
X988550Y739028D01*
X989243Y739028D01*
X989243Y738450D01*
X988550Y738450D01*
G54D11*
X867243Y751950D02*
X866550Y751950D01*
X866550Y752528D01*
X867243Y752528D01*
X867243Y751950D01*
X866550Y751950D01*
G54D15*
X782169Y722444D02*
X792836Y722444D01*
G54D15*
X787502Y726888D02*
X787502Y717999D01*
G54D24*
X884234Y739655D02*
X884234Y746755D01*
G54D24*
X886234Y739655D02*
X886234Y746755D01*
X890534Y739655D01*
X890534Y746755D01*
G54D24*
X862754Y695455D02*
X862754Y690955D01*
X862154Y690055D01*
X861154Y689655D01*
X860054Y689655D01*
X858954Y690055D01*
X858454Y690955D01*
X858454Y695455D01*
X858954Y696355D01*
X860054Y696755D01*
X861154Y696755D01*
X862154Y696355D01*
X862754Y695455D01*
G54D24*
X864754Y696755D02*
X864754Y690955D01*
X865254Y690055D01*
X866354Y689655D01*
X867454Y689655D01*
X868454Y690055D01*
X869054Y690955D01*
X869054Y696755D01*
G54D24*
X873154Y689655D02*
X873154Y696755D01*
G54D24*
X871054Y696755D02*
X875354Y696755D01*
G54D16*
X872240Y742169D02*
X877573Y742169D01*
G54D16*
X874906Y744391D02*
X874906Y739947D01*
G54D10*
X204321Y212056D02*
X297321Y211056D01*
X297354Y171329D01*
X297321Y136956D01*
X204321Y137056D01*
X204321Y212056D01*
G54D12*
X211858Y138981D02*
X211858Y154981D01*
X220258Y154981D01*
G54D12*
X211858Y146981D02*
X220258Y146981D01*
G54D12*
X225858Y151981D02*
X227058Y153981D01*
X229458Y154981D01*
X231858Y154981D01*
X234258Y153981D01*
X235458Y151981D01*
X235458Y149981D01*
X234258Y147981D01*
X231858Y146981D01*
X234258Y145981D01*
X235458Y143981D01*
X235458Y141981D01*
X234258Y139981D01*
X231858Y138981D01*
X229458Y138981D01*
X227058Y139981D01*
X225858Y141981D01*
G54D12*
X254858Y138981D02*
X254858Y154981D01*
X264458Y138981D01*
X264458Y154981D01*
G54D10*
X106921Y212056D02*
X199921Y211056D01*
X199954Y171329D01*
X199921Y136956D01*
X106921Y137056D01*
X106921Y212056D01*
G54D12*
X111858Y138981D02*
X111858Y154981D01*
X120258Y154981D01*
G54D12*
X111858Y146981D02*
X120258Y146981D01*
G54D12*
X135458Y138981D02*
X125858Y138981D01*
X125858Y139981D01*
X127058Y141981D01*
X134258Y147981D01*
X135458Y149981D01*
X135458Y151981D01*
X134258Y153981D01*
X131858Y154981D01*
X129458Y154981D01*
X127058Y153981D01*
X125858Y151981D01*
G54D12*
X154858Y138981D02*
X154858Y154981D01*
X164458Y138981D01*
X164458Y154981D01*
G54D23*
X8472Y317400D02*
X75172Y317400D01*
X75172Y279201D01*
X8472Y279201D01*
X8472Y317400D01*
G54D11*
X82866Y325801D02*
X82172Y325801D01*
X82172Y326378D01*
X82866Y326378D01*
X82866Y325801D01*
X82172Y325801D01*
G54D11*
X82866Y306301D02*
X82172Y306301D01*
X82172Y306878D01*
X82866Y306878D01*
X82866Y306301D01*
X82172Y306301D01*
G54D17*
X18757Y247080D02*
X47216Y233810D01*
X40454Y219309D01*
X11995Y232579D01*
X18757Y247080D01*
G54D17*
X21358Y237041D02*
X28608Y233660D01*
X30722Y238191D01*
X26496Y229128D01*
G54D17*
X32534Y237346D02*
X28308Y228283D01*
G54D17*
X30421Y232814D02*
X37672Y229433D01*
G54D11*
X26815Y272065D02*
X26187Y272358D01*
X26431Y272882D01*
X27059Y272589D01*
X26815Y272065D01*
X26187Y272358D01*
G54D11*
X18574Y254392D02*
X17946Y254685D01*
X18190Y255209D01*
X18818Y254916D01*
X18574Y254392D01*
X17946Y254685D01*
G54D23*
X98375Y328029D02*
X98375Y359229D01*
X82775Y359229D01*
X82775Y328029D01*
X98375Y328029D01*
G54D11*
X126254Y320727D02*
X126254Y321421D01*
X125677Y321421D01*
X125677Y320727D01*
X126254Y320727D01*
X126254Y321421D01*
G54D11*
X106752Y320728D02*
X106752Y321421D01*
X106175Y321421D01*
X106175Y320728D01*
X106752Y320728D01*
X106752Y321421D01*
G54D23*
X82935Y304172D02*
X82935Y272972D01*
X98535Y272972D01*
X98535Y304172D01*
X82935Y304172D01*
G54D11*
X55055Y311474D02*
X55055Y310781D01*
X55633Y310781D01*
X55633Y311474D01*
X55055Y311474D01*
X55055Y310781D01*
G54D11*
X74560Y311473D02*
X74560Y310779D01*
X75138Y310779D01*
X75138Y311473D01*
X74560Y311473D01*
X74560Y310779D01*
G54D23*
X64384Y219849D02*
X92661Y233035D01*
X86068Y247173D01*
X57792Y233988D01*
X64384Y219849D01*
G54D11*
X69551Y191496D02*
X70179Y191789D01*
X69935Y192312D01*
X69307Y192019D01*
X69551Y191496D01*
X70179Y191789D01*
G54D11*
X61309Y209173D02*
X61937Y209466D01*
X61693Y209990D01*
X61064Y209697D01*
X61309Y209173D01*
X61937Y209466D01*
G54D13*
X79354Y371429D02*
X79354Y422229D01*
X3154Y422229D01*
X3154Y371429D01*
X79354Y371429D01*
G54D13*
X79354Y384129D02*
X79354Y409529D01*
X66654Y409529D01*
X66654Y384129D01*
X79354Y384129D01*
G54D11*
X-4096Y364188D02*
X-4790Y364188D01*
X-4790Y364766D01*
X-4096Y364766D01*
X-4096Y364188D01*
X-4790Y364188D01*
G54D23*
X82429Y435757D02*
X82429Y404557D01*
X98029Y404557D01*
X98029Y435757D01*
X82429Y435757D01*
G54D11*
X50528Y442884D02*
X50528Y442191D01*
X51106Y442191D01*
X51106Y442884D01*
X50528Y442884D01*
X50528Y442191D01*
G54D11*
X74052Y443058D02*
X74052Y442364D01*
X74630Y442364D01*
X74630Y443058D01*
X74052Y443058D01*
X74052Y442364D01*
G54D10*
X7821Y212056D02*
X100821Y211056D01*
X100854Y171329D01*
X100821Y136956D01*
X7821Y137056D01*
X7821Y212056D01*
G54D12*
X11858Y138981D02*
X11858Y154981D01*
X20258Y154981D01*
G54D12*
X11858Y146981D02*
X20258Y146981D01*
G54D12*
X25858Y148981D02*
X31858Y154981D01*
X31858Y138981D01*
G54D12*
X54858Y138981D02*
X54858Y154981D01*
X64458Y138981D01*
X64458Y154981D01*
G54D23*
X107497Y317272D02*
X174197Y317272D01*
X174197Y279072D01*
X107497Y279072D01*
X107497Y317272D01*
G54D11*
X181891Y325672D02*
X181197Y325672D01*
X181197Y326250D01*
X181891Y326250D01*
X181891Y325672D01*
X181197Y325672D01*
G54D11*
X181891Y306172D02*
X181197Y306172D01*
X181197Y306750D01*
X181891Y306750D01*
X181891Y306172D01*
X181197Y306172D01*
G54D17*
X117782Y246952D02*
X146240Y233681D01*
X139478Y219180D01*
X111020Y232451D01*
X117782Y246952D01*
G54D17*
X120383Y236912D02*
X127634Y233531D01*
X129746Y238062D01*
X125520Y228999D01*
G54D17*
X131559Y237217D02*
X127333Y228154D01*
G54D17*
X129446Y232686D02*
X136696Y229305D01*
G54D11*
X125840Y271937D02*
X125212Y272230D01*
X125456Y272753D01*
X126084Y272460D01*
X125840Y271937D01*
X125212Y272230D01*
G54D11*
X117599Y254264D02*
X116970Y254557D01*
X117215Y255080D01*
X117843Y254787D01*
X117599Y254264D01*
X116970Y254557D01*
G54D23*
X197400Y327900D02*
X197400Y359100D01*
X181800Y359100D01*
X181800Y327900D01*
X197400Y327900D01*
G54D11*
X225280Y320598D02*
X225280Y321292D01*
X224702Y321292D01*
X224702Y320598D01*
X225280Y320598D01*
X225280Y321292D01*
G54D11*
X205777Y320599D02*
X205777Y321292D01*
X205200Y321292D01*
X205200Y320599D01*
X205777Y320599D01*
X205777Y321292D01*
G54D23*
X181960Y304044D02*
X181960Y272844D01*
X197560Y272844D01*
X197560Y304044D01*
X181960Y304044D01*
G54D11*
X154080Y311346D02*
X154080Y310652D01*
X154658Y310652D01*
X154658Y311346D01*
X154080Y311346D01*
X154080Y310652D01*
G54D11*
X173585Y311344D02*
X173585Y310651D01*
X174162Y310651D01*
X174162Y311344D01*
X173585Y311344D01*
X173585Y310651D01*
G54D23*
X163409Y219721D02*
X191686Y232906D01*
X185093Y247045D01*
X156816Y233859D01*
X163409Y219721D01*
G54D11*
X168576Y191367D02*
X169204Y191660D01*
X168960Y192184D01*
X168332Y191890D01*
X168576Y191367D01*
X169204Y191660D01*
G54D11*
X160334Y209044D02*
X160962Y209337D01*
X160718Y209861D01*
X160089Y209568D01*
X160334Y209044D01*
X160962Y209337D01*
G54D13*
X178378Y371300D02*
X178379Y422100D01*
X102178Y422100D01*
X102179Y371300D01*
X178378Y371300D01*
G54D13*
X178378Y384000D02*
X178379Y409400D01*
X165679Y409400D01*
X165679Y384000D01*
X178378Y384000D01*
G54D11*
X94928Y364059D02*
X94235Y364059D01*
X94235Y364637D01*
X94928Y364637D01*
X94928Y364059D01*
X94235Y364059D01*
G54D23*
X181454Y435629D02*
X181454Y404429D01*
X197054Y404429D01*
X197054Y435629D01*
X181454Y435629D01*
G54D11*
X149553Y442756D02*
X149553Y442062D01*
X150131Y442062D01*
X150131Y442756D01*
X149553Y442756D01*
X149553Y442062D01*
G54D11*
X173077Y442929D02*
X173077Y442236D01*
X173655Y442236D01*
X173655Y442929D01*
X173077Y442929D01*
X173077Y442236D01*
G54D23*
X206697Y317372D02*
X273397Y317372D01*
X273397Y279172D01*
X206697Y279172D01*
X206697Y317372D01*
G54D11*
X281091Y325772D02*
X280397Y325772D01*
X280397Y326350D01*
X281091Y326350D01*
X281091Y325772D01*
X280397Y325772D01*
G54D11*
X281091Y306272D02*
X280397Y306272D01*
X280397Y306850D01*
X281091Y306850D01*
X281091Y306272D01*
X280397Y306272D01*
G54D17*
X216982Y247052D02*
X245440Y233781D01*
X238678Y219280D01*
X210220Y232551D01*
X216982Y247052D01*
G54D17*
X219583Y237012D02*
X226834Y233631D01*
X228946Y238162D01*
X224720Y229099D01*
G54D17*
X230759Y237317D02*
X226533Y228254D01*
G54D17*
X228646Y232786D02*
X235896Y229405D01*
G54D11*
X225040Y272037D02*
X224412Y272330D01*
X224656Y272853D01*
X225284Y272560D01*
X225040Y272037D01*
X224412Y272330D01*
G54D11*
X216799Y254364D02*
X216170Y254657D01*
X216415Y255180D01*
X217043Y254887D01*
X216799Y254364D01*
X216170Y254657D01*
G54D23*
X296600Y328000D02*
X296600Y359200D01*
X281000Y359200D01*
X281000Y328000D01*
X296600Y328000D01*
G54D11*
X324480Y320698D02*
X324480Y321392D01*
X323902Y321392D01*
X323902Y320698D01*
X324480Y320698D01*
X324480Y321392D01*
G54D11*
X304977Y320699D02*
X304977Y321392D01*
X304400Y321392D01*
X304400Y320699D01*
X304977Y320699D01*
X304977Y321392D01*
G54D23*
X281160Y304144D02*
X281160Y272944D01*
X296760Y272944D01*
X296760Y304144D01*
X281160Y304144D01*
G54D11*
X253280Y311446D02*
X253280Y310752D01*
X253858Y310752D01*
X253858Y311446D01*
X253280Y311446D01*
X253280Y310752D01*
G54D11*
X272785Y311444D02*
X272785Y310751D01*
X273362Y310751D01*
X273362Y311444D01*
X272785Y311444D01*
X272785Y310751D01*
G54D23*
X262609Y219821D02*
X290886Y233006D01*
X284293Y247145D01*
X256016Y233959D01*
X262609Y219821D01*
G54D11*
X267776Y191467D02*
X268404Y191760D01*
X268160Y192284D01*
X267532Y191990D01*
X267776Y191467D01*
X268404Y191760D01*
G54D11*
X259534Y209144D02*
X260162Y209437D01*
X259918Y209961D01*
X259289Y209668D01*
X259534Y209144D01*
X260162Y209437D01*
G54D13*
X277578Y371400D02*
X277579Y422200D01*
X201378Y422200D01*
X201379Y371400D01*
X277578Y371400D01*
G54D13*
X277578Y384100D02*
X277579Y409500D01*
X264879Y409500D01*
X264879Y384100D01*
X277578Y384100D01*
G54D11*
X194128Y364159D02*
X193435Y364159D01*
X193435Y364737D01*
X194128Y364737D01*
X194128Y364159D01*
X193435Y364159D01*
G54D23*
X280654Y435729D02*
X280654Y404529D01*
X296254Y404529D01*
X296254Y435729D01*
X280654Y435729D01*
G54D11*
X248753Y442856D02*
X248753Y442162D01*
X249331Y442162D01*
X249331Y442856D01*
X248753Y442856D01*
X248753Y442162D01*
G54D11*
X272277Y443029D02*
X272277Y442336D01*
X272855Y442336D01*
X272855Y443029D01*
X272277Y443029D01*
X272277Y442336D01*
G54D11*
X18097Y341171D02*
X18097Y340477D01*
X18674Y340477D01*
X18674Y341171D01*
X18097Y341171D01*
X18097Y340477D01*
G54D13*
X28654Y444629D02*
X28654Y470029D01*
X79454Y470029D01*
X79454Y444629D01*
X28654Y444629D01*
G54D13*
X127754Y444629D02*
X127754Y470029D01*
X178554Y470029D01*
X178554Y444629D01*
X127754Y444629D01*
G54D13*
X226654Y444629D02*
X226654Y470029D01*
X277454Y470029D01*
X277454Y444629D01*
X226654Y444629D01*
G54D23*
X102454Y474429D02*
X202454Y474429D01*
X202454Y131329D01*
X102454Y131329D01*
X102454Y474429D01*
G54D10*
X501821Y211556D02*
X594821Y210556D01*
X594854Y170829D01*
X594821Y136456D01*
X501821Y136556D01*
X501821Y211556D01*
G54D12*
X509358Y138481D02*
X509358Y154481D01*
X517758Y154481D01*
G54D12*
X509358Y146481D02*
X517758Y146481D01*
G54D12*
X523358Y151481D02*
X524558Y153481D01*
X526958Y154481D01*
X529358Y154481D01*
X531758Y153481D01*
X532958Y151481D01*
X532958Y149481D01*
X531758Y147481D01*
X529358Y146481D01*
X531758Y145481D01*
X532958Y143481D01*
X532958Y141481D01*
X531758Y139481D01*
X529358Y138481D01*
X526958Y138481D01*
X524558Y139481D01*
X523358Y141481D01*
G54D12*
X552358Y138481D02*
X552358Y154481D01*
X561958Y138481D01*
X561958Y154481D01*
G54D10*
X404421Y211556D02*
X497421Y210556D01*
X497454Y170829D01*
X497421Y136456D01*
X404421Y136556D01*
X404421Y211556D01*
G54D12*
X409358Y138481D02*
X409358Y154481D01*
X417758Y154481D01*
G54D12*
X409358Y146481D02*
X417758Y146481D01*
G54D12*
X432958Y138481D02*
X423358Y138481D01*
X423358Y139481D01*
X424558Y141481D01*
X431758Y147481D01*
X432958Y149481D01*
X432958Y151481D01*
X431758Y153481D01*
X429358Y154481D01*
X426958Y154481D01*
X424558Y153481D01*
X423358Y151481D01*
G54D12*
X452358Y138481D02*
X452358Y154481D01*
X461958Y138481D01*
X461958Y154481D01*
G54D23*
X305972Y316900D02*
X372672Y316900D01*
X372672Y278701D01*
X305972Y278701D01*
X305972Y316900D01*
G54D11*
X380366Y325301D02*
X379672Y325301D01*
X379672Y325878D01*
X380366Y325878D01*
X380366Y325301D01*
X379672Y325301D01*
G54D11*
X380366Y305801D02*
X379672Y305801D01*
X379672Y306378D01*
X380366Y306378D01*
X380366Y305801D01*
X379672Y305801D01*
G54D17*
X316257Y246580D02*
X344716Y233310D01*
X337954Y218809D01*
X309495Y232079D01*
X316257Y246580D01*
G54D17*
X318858Y236541D02*
X326108Y233160D01*
X328222Y237691D01*
X323996Y228628D01*
G54D17*
X330034Y236846D02*
X325808Y227783D01*
G54D17*
X327921Y232314D02*
X335172Y228933D01*
G54D11*
X324315Y271565D02*
X323687Y271858D01*
X323931Y272382D01*
X324559Y272089D01*
X324315Y271565D01*
X323687Y271858D01*
G54D11*
X316074Y253892D02*
X315446Y254185D01*
X315690Y254709D01*
X316318Y254416D01*
X316074Y253892D01*
X315446Y254185D01*
G54D23*
X395875Y327529D02*
X395875Y358729D01*
X380275Y358729D01*
X380275Y327529D01*
X395875Y327529D01*
G54D11*
X423754Y320227D02*
X423754Y320921D01*
X423177Y320921D01*
X423177Y320227D01*
X423754Y320227D01*
X423754Y320921D01*
G54D11*
X404252Y320228D02*
X404252Y320921D01*
X403675Y320921D01*
X403675Y320228D01*
X404252Y320228D01*
X404252Y320921D01*
G54D23*
X380435Y303672D02*
X380435Y272472D01*
X396035Y272472D01*
X396035Y303672D01*
X380435Y303672D01*
G54D11*
X352555Y310974D02*
X352555Y310281D01*
X353133Y310281D01*
X353133Y310974D01*
X352555Y310974D01*
X352555Y310281D01*
G54D11*
X372060Y310973D02*
X372060Y310279D01*
X372638Y310279D01*
X372638Y310973D01*
X372060Y310973D01*
X372060Y310279D01*
G54D23*
X361884Y219349D02*
X390161Y232535D01*
X383568Y246673D01*
X355292Y233488D01*
X361884Y219349D01*
G54D11*
X367051Y190996D02*
X367679Y191289D01*
X367435Y191812D01*
X366807Y191519D01*
X367051Y190996D01*
X367679Y191289D01*
G54D11*
X358809Y208673D02*
X359437Y208966D01*
X359193Y209490D01*
X358564Y209197D01*
X358809Y208673D01*
X359437Y208966D01*
G54D13*
X376854Y370929D02*
X376854Y421729D01*
X300654Y421729D01*
X300654Y370929D01*
X376854Y370929D01*
G54D13*
X376854Y383629D02*
X376854Y409029D01*
X364154Y409029D01*
X364154Y383629D01*
X376854Y383629D01*
G54D11*
X293404Y363688D02*
X292710Y363688D01*
X292710Y364266D01*
X293404Y364266D01*
X293404Y363688D01*
X292710Y363688D01*
G54D23*
X379929Y435257D02*
X379929Y404057D01*
X395529Y404057D01*
X395529Y435257D01*
X379929Y435257D01*
G54D11*
X348028Y442384D02*
X348028Y441691D01*
X348606Y441691D01*
X348606Y442384D01*
X348028Y442384D01*
X348028Y441691D01*
G54D11*
X371552Y442558D02*
X371552Y441864D01*
X372130Y441864D01*
X372130Y442558D01*
X371552Y442558D01*
X371552Y441864D01*
G54D10*
X305321Y211556D02*
X398321Y210556D01*
X398354Y170829D01*
X398321Y136456D01*
X305321Y136556D01*
X305321Y211556D01*
G54D12*
X309358Y138481D02*
X309358Y154481D01*
X317758Y154481D01*
G54D12*
X309358Y146481D02*
X317758Y146481D01*
G54D12*
X323358Y148481D02*
X329358Y154481D01*
X329358Y138481D01*
G54D12*
X352358Y138481D02*
X352358Y154481D01*
X361958Y138481D01*
X361958Y154481D01*
G54D23*
X404997Y316772D02*
X471697Y316772D01*
X471697Y278572D01*
X404997Y278572D01*
X404997Y316772D01*
G54D11*
X479391Y325172D02*
X478697Y325172D01*
X478697Y325750D01*
X479391Y325750D01*
X479391Y325172D01*
X478697Y325172D01*
G54D11*
X479391Y305672D02*
X478697Y305672D01*
X478697Y306250D01*
X479391Y306250D01*
X479391Y305672D01*
X478697Y305672D01*
G54D17*
X415282Y246452D02*
X443740Y233181D01*
X436978Y218680D01*
X408520Y231951D01*
X415282Y246452D01*
G54D17*
X417883Y236412D02*
X425134Y233031D01*
X427246Y237562D01*
X423020Y228499D01*
G54D17*
X429059Y236717D02*
X424833Y227654D01*
G54D17*
X426946Y232186D02*
X434196Y228805D01*
G54D11*
X423340Y271437D02*
X422712Y271730D01*
X422956Y272253D01*
X423584Y271960D01*
X423340Y271437D01*
X422712Y271730D01*
G54D11*
X415099Y253764D02*
X414470Y254057D01*
X414715Y254580D01*
X415343Y254287D01*
X415099Y253764D01*
X414470Y254057D01*
G54D23*
X494900Y327400D02*
X494900Y358600D01*
X479300Y358600D01*
X479300Y327400D01*
X494900Y327400D01*
G54D11*
X522780Y320098D02*
X522780Y320792D01*
X522202Y320792D01*
X522202Y320098D01*
X522780Y320098D01*
X522780Y320792D01*
G54D11*
X503277Y320099D02*
X503277Y320792D01*
X502700Y320792D01*
X502700Y320099D01*
X503277Y320099D01*
X503277Y320792D01*
G54D23*
X479460Y303544D02*
X479460Y272344D01*
X495060Y272344D01*
X495060Y303544D01*
X479460Y303544D01*
G54D11*
X451580Y310846D02*
X451580Y310152D01*
X452158Y310152D01*
X452158Y310846D01*
X451580Y310846D01*
X451580Y310152D01*
G54D11*
X471085Y310844D02*
X471085Y310151D01*
X471662Y310151D01*
X471662Y310844D01*
X471085Y310844D01*
X471085Y310151D01*
G54D23*
X460909Y219221D02*
X489186Y232406D01*
X482593Y246545D01*
X454316Y233359D01*
X460909Y219221D01*
G54D11*
X466076Y190867D02*
X466704Y191160D01*
X466460Y191684D01*
X465832Y191390D01*
X466076Y190867D01*
X466704Y191160D01*
G54D11*
X457834Y208544D02*
X458462Y208837D01*
X458218Y209361D01*
X457589Y209068D01*
X457834Y208544D01*
X458462Y208837D01*
G54D13*
X475878Y370800D02*
X475879Y421600D01*
X399678Y421600D01*
X399679Y370800D01*
X475878Y370800D01*
G54D13*
X475878Y383500D02*
X475879Y408900D01*
X463179Y408900D01*
X463179Y383500D01*
X475878Y383500D01*
G54D11*
X392428Y363559D02*
X391735Y363559D01*
X391735Y364137D01*
X392428Y364137D01*
X392428Y363559D01*
X391735Y363559D01*
G54D23*
X478954Y435129D02*
X478954Y403929D01*
X494554Y403929D01*
X494554Y435129D01*
X478954Y435129D01*
G54D11*
X447053Y442256D02*
X447053Y441562D01*
X447631Y441562D01*
X447631Y442256D01*
X447053Y442256D01*
X447053Y441562D01*
G54D11*
X470577Y442429D02*
X470577Y441736D01*
X471155Y441736D01*
X471155Y442429D01*
X470577Y442429D01*
X470577Y441736D01*
G54D23*
X504197Y316872D02*
X570897Y316872D01*
X570897Y278672D01*
X504197Y278672D01*
X504197Y316872D01*
G54D11*
X578591Y325272D02*
X577897Y325272D01*
X577897Y325850D01*
X578591Y325850D01*
X578591Y325272D01*
X577897Y325272D01*
G54D11*
X578591Y305772D02*
X577897Y305772D01*
X577897Y306350D01*
X578591Y306350D01*
X578591Y305772D01*
X577897Y305772D01*
G54D17*
X514482Y246552D02*
X542940Y233281D01*
X536178Y218780D01*
X507720Y232051D01*
X514482Y246552D01*
G54D17*
X517083Y236512D02*
X524334Y233131D01*
X526446Y237662D01*
X522220Y228599D01*
G54D17*
X528259Y236817D02*
X524033Y227754D01*
G54D17*
X526146Y232286D02*
X533396Y228905D01*
G54D11*
X522540Y271537D02*
X521912Y271830D01*
X522156Y272353D01*
X522784Y272060D01*
X522540Y271537D01*
X521912Y271830D01*
G54D11*
X514299Y253864D02*
X513670Y254157D01*
X513915Y254680D01*
X514543Y254387D01*
X514299Y253864D01*
X513670Y254157D01*
G54D23*
X594100Y327500D02*
X594100Y358700D01*
X578500Y358700D01*
X578500Y327500D01*
X594100Y327500D01*
G54D11*
X621980Y320198D02*
X621980Y320892D01*
X621402Y320892D01*
X621402Y320198D01*
X621980Y320198D01*
X621980Y320892D01*
G54D11*
X602477Y320199D02*
X602477Y320892D01*
X601900Y320892D01*
X601900Y320199D01*
X602477Y320199D01*
X602477Y320892D01*
G54D23*
X578660Y303644D02*
X578660Y272444D01*
X594260Y272444D01*
X594260Y303644D01*
X578660Y303644D01*
G54D11*
X550780Y310946D02*
X550780Y310252D01*
X551358Y310252D01*
X551358Y310946D01*
X550780Y310946D01*
X550780Y310252D01*
G54D11*
X570285Y310944D02*
X570285Y310251D01*
X570862Y310251D01*
X570862Y310944D01*
X570285Y310944D01*
X570285Y310251D01*
G54D23*
X560109Y219321D02*
X588386Y232506D01*
X581793Y246645D01*
X553516Y233459D01*
X560109Y219321D01*
G54D11*
X565276Y190967D02*
X565904Y191260D01*
X565660Y191784D01*
X565032Y191490D01*
X565276Y190967D01*
X565904Y191260D01*
G54D11*
X557034Y208644D02*
X557662Y208937D01*
X557418Y209461D01*
X556789Y209168D01*
X557034Y208644D01*
X557662Y208937D01*
G54D13*
X575078Y370900D02*
X575079Y421700D01*
X498878Y421700D01*
X498879Y370900D01*
X575078Y370900D01*
G54D13*
X575078Y383600D02*
X575079Y409000D01*
X562379Y409000D01*
X562379Y383600D01*
X575078Y383600D01*
G54D11*
X491628Y363659D02*
X490935Y363659D01*
X490935Y364237D01*
X491628Y364237D01*
X491628Y363659D01*
X490935Y363659D01*
G54D23*
X578154Y435229D02*
X578154Y404029D01*
X593754Y404029D01*
X593754Y435229D01*
X578154Y435229D01*
G54D11*
X546253Y442356D02*
X546253Y441662D01*
X546831Y441662D01*
X546831Y442356D01*
X546253Y442356D01*
X546253Y441662D01*
G54D11*
X569777Y442529D02*
X569777Y441836D01*
X570355Y441836D01*
X570355Y442529D01*
X569777Y442529D01*
X569777Y441836D01*
G54D11*
X315597Y340671D02*
X315597Y339977D01*
X316174Y339977D01*
X316174Y340671D01*
X315597Y340671D01*
X315597Y339977D01*
G54D13*
X326154Y444129D02*
X326154Y469529D01*
X376954Y469529D01*
X376954Y444129D01*
X326154Y444129D01*
G54D13*
X425254Y444129D02*
X425254Y469529D01*
X476054Y469529D01*
X476054Y444129D01*
X425254Y444129D01*
G54D13*
X524154Y444129D02*
X524154Y469529D01*
X574954Y469529D01*
X574954Y444129D01*
X524154Y444129D01*
G54D23*
X399954Y473929D02*
X499954Y473929D01*
X499954Y130829D01*
X399954Y130829D01*
X399954Y473929D01*
G54D10*
X800621Y210456D02*
X893621Y209456D01*
X893654Y169729D01*
X893621Y135356D01*
X800621Y135456D01*
X800621Y210456D01*
G54D12*
X808158Y137381D02*
X808158Y153381D01*
X816558Y153381D01*
G54D12*
X808158Y145381D02*
X816558Y145381D01*
G54D12*
X822158Y150381D02*
X823358Y152381D01*
X825758Y153381D01*
X828158Y153381D01*
X830558Y152381D01*
X831758Y150381D01*
X831758Y148381D01*
X830558Y146381D01*
X828158Y145381D01*
X830558Y144381D01*
X831758Y142381D01*
X831758Y140381D01*
X830558Y138381D01*
X828158Y137381D01*
X825758Y137381D01*
X823358Y138381D01*
X822158Y140381D01*
G54D12*
X851158Y137381D02*
X851158Y153381D01*
X860758Y137381D01*
X860758Y153381D01*
G54D10*
X703221Y210456D02*
X796221Y209456D01*
X796254Y169729D01*
X796221Y135356D01*
X703221Y135456D01*
X703221Y210456D01*
G54D12*
X708158Y137381D02*
X708158Y153381D01*
X716558Y153381D01*
G54D12*
X708158Y145381D02*
X716558Y145381D01*
G54D12*
X731758Y137381D02*
X722158Y137381D01*
X722158Y138381D01*
X723358Y140381D01*
X730558Y146381D01*
X731758Y148381D01*
X731758Y150381D01*
X730558Y152381D01*
X728158Y153381D01*
X725758Y153381D01*
X723358Y152381D01*
X722158Y150381D01*
G54D12*
X751158Y137381D02*
X751158Y153381D01*
X760758Y137381D01*
X760758Y153381D01*
G54D23*
X604772Y315800D02*
X671472Y315800D01*
X671472Y277601D01*
X604772Y277601D01*
X604772Y315800D01*
G54D11*
X679166Y324201D02*
X678472Y324201D01*
X678472Y324778D01*
X679166Y324778D01*
X679166Y324201D01*
X678472Y324201D01*
G54D11*
X679166Y304701D02*
X678472Y304701D01*
X678472Y305278D01*
X679166Y305278D01*
X679166Y304701D01*
X678472Y304701D01*
G54D17*
X615057Y245480D02*
X643516Y232210D01*
X636754Y217709D01*
X608295Y230979D01*
X615057Y245480D01*
G54D17*
X617658Y235441D02*
X624908Y232060D01*
X627022Y236591D01*
X622796Y227528D01*
G54D17*
X628834Y235746D02*
X624608Y226683D01*
G54D17*
X626721Y231214D02*
X633972Y227833D01*
G54D11*
X623115Y270465D02*
X622487Y270758D01*
X622731Y271282D01*
X623359Y270989D01*
X623115Y270465D01*
X622487Y270758D01*
G54D11*
X614874Y252792D02*
X614246Y253085D01*
X614490Y253609D01*
X615118Y253316D01*
X614874Y252792D01*
X614246Y253085D01*
G54D23*
X694675Y326429D02*
X694675Y357629D01*
X679075Y357629D01*
X679075Y326429D01*
X694675Y326429D01*
G54D11*
X722554Y319127D02*
X722554Y319821D01*
X721977Y319821D01*
X721977Y319127D01*
X722554Y319127D01*
X722554Y319821D01*
G54D11*
X703052Y319128D02*
X703052Y319821D01*
X702475Y319821D01*
X702475Y319128D01*
X703052Y319128D01*
X703052Y319821D01*
G54D23*
X679235Y302572D02*
X679235Y271372D01*
X694835Y271372D01*
X694835Y302572D01*
X679235Y302572D01*
G54D11*
X651355Y309874D02*
X651355Y309181D01*
X651933Y309181D01*
X651933Y309874D01*
X651355Y309874D01*
X651355Y309181D01*
G54D11*
X670860Y309873D02*
X670860Y309179D01*
X671438Y309179D01*
X671438Y309873D01*
X670860Y309873D01*
X670860Y309179D01*
G54D23*
X660684Y218249D02*
X688961Y231435D01*
X682368Y245573D01*
X654092Y232388D01*
X660684Y218249D01*
G54D11*
X665851Y189896D02*
X666479Y190189D01*
X666235Y190712D01*
X665607Y190419D01*
X665851Y189896D01*
X666479Y190189D01*
G54D11*
X657609Y207573D02*
X658237Y207866D01*
X657993Y208390D01*
X657364Y208097D01*
X657609Y207573D01*
X658237Y207866D01*
G54D13*
X675654Y369829D02*
X675654Y420629D01*
X599454Y420629D01*
X599454Y369829D01*
X675654Y369829D01*
G54D13*
X675654Y382529D02*
X675654Y407929D01*
X662954Y407929D01*
X662954Y382529D01*
X675654Y382529D01*
G54D11*
X592204Y362588D02*
X591510Y362588D01*
X591510Y363166D01*
X592204Y363166D01*
X592204Y362588D01*
X591510Y362588D01*
G54D23*
X678729Y434157D02*
X678729Y402957D01*
X694329Y402957D01*
X694329Y434157D01*
X678729Y434157D01*
G54D11*
X646828Y441284D02*
X646828Y440591D01*
X647406Y440591D01*
X647406Y441284D01*
X646828Y441284D01*
X646828Y440591D01*
G54D11*
X670352Y441458D02*
X670352Y440764D01*
X670930Y440764D01*
X670930Y441458D01*
X670352Y441458D01*
X670352Y440764D01*
G54D10*
X604121Y210456D02*
X697121Y209456D01*
X697154Y169729D01*
X697121Y135356D01*
X604121Y135456D01*
X604121Y210456D01*
G54D12*
X608158Y137381D02*
X608158Y153381D01*
X616558Y153381D01*
G54D12*
X608158Y145381D02*
X616558Y145381D01*
G54D12*
X622158Y147381D02*
X628158Y153381D01*
X628158Y137381D01*
G54D12*
X651158Y137381D02*
X651158Y153381D01*
X660758Y137381D01*
X660758Y153381D01*
G54D23*
X703797Y315672D02*
X770497Y315672D01*
X770497Y277472D01*
X703797Y277472D01*
X703797Y315672D01*
G54D11*
X778191Y324072D02*
X777497Y324072D01*
X777497Y324650D01*
X778191Y324650D01*
X778191Y324072D01*
X777497Y324072D01*
G54D11*
X778191Y304572D02*
X777497Y304572D01*
X777497Y305150D01*
X778191Y305150D01*
X778191Y304572D01*
X777497Y304572D01*
G54D17*
X714082Y245352D02*
X742540Y232081D01*
X735778Y217580D01*
X707320Y230851D01*
X714082Y245352D01*
G54D17*
X716683Y235312D02*
X723934Y231931D01*
X726046Y236462D01*
X721820Y227399D01*
G54D17*
X727859Y235617D02*
X723633Y226554D01*
G54D17*
X725746Y231086D02*
X732996Y227705D01*
G54D11*
X722140Y270337D02*
X721512Y270630D01*
X721756Y271153D01*
X722384Y270860D01*
X722140Y270337D01*
X721512Y270630D01*
G54D11*
X713899Y252664D02*
X713270Y252957D01*
X713515Y253480D01*
X714143Y253187D01*
X713899Y252664D01*
X713270Y252957D01*
G54D23*
X793700Y326300D02*
X793700Y357500D01*
X778100Y357500D01*
X778100Y326300D01*
X793700Y326300D01*
G54D11*
X821580Y318998D02*
X821580Y319692D01*
X821002Y319692D01*
X821002Y318998D01*
X821580Y318998D01*
X821580Y319692D01*
G54D11*
X802077Y318999D02*
X802077Y319692D01*
X801500Y319692D01*
X801500Y318999D01*
X802077Y318999D01*
X802077Y319692D01*
G54D23*
X778260Y302444D02*
X778260Y271244D01*
X793860Y271244D01*
X793860Y302444D01*
X778260Y302444D01*
G54D11*
X750380Y309746D02*
X750380Y309052D01*
X750958Y309052D01*
X750958Y309746D01*
X750380Y309746D01*
X750380Y309052D01*
G54D11*
X769885Y309744D02*
X769885Y309051D01*
X770462Y309051D01*
X770462Y309744D01*
X769885Y309744D01*
X769885Y309051D01*
G54D23*
X759709Y218121D02*
X787986Y231306D01*
X781393Y245445D01*
X753116Y232259D01*
X759709Y218121D01*
G54D11*
X764876Y189767D02*
X765504Y190060D01*
X765260Y190584D01*
X764632Y190290D01*
X764876Y189767D01*
X765504Y190060D01*
G54D11*
X756634Y207444D02*
X757262Y207737D01*
X757018Y208261D01*
X756389Y207968D01*
X756634Y207444D01*
X757262Y207737D01*
G54D13*
X774678Y369700D02*
X774679Y420500D01*
X698478Y420500D01*
X698479Y369700D01*
X774678Y369700D01*
G54D13*
X774678Y382400D02*
X774679Y407800D01*
X761979Y407800D01*
X761979Y382400D01*
X774678Y382400D01*
G54D11*
X691228Y362459D02*
X690535Y362459D01*
X690535Y363037D01*
X691228Y363037D01*
X691228Y362459D01*
X690535Y362459D01*
G54D23*
X777754Y434029D02*
X777754Y402829D01*
X793354Y402829D01*
X793354Y434029D01*
X777754Y434029D01*
G54D11*
X745853Y441156D02*
X745853Y440462D01*
X746431Y440462D01*
X746431Y441156D01*
X745853Y441156D01*
X745853Y440462D01*
G54D11*
X769377Y441329D02*
X769377Y440636D01*
X769955Y440636D01*
X769955Y441329D01*
X769377Y441329D01*
X769377Y440636D01*
G54D23*
X802997Y315772D02*
X869697Y315772D01*
X869697Y277572D01*
X802997Y277572D01*
X802997Y315772D01*
G54D11*
X877391Y324172D02*
X876697Y324172D01*
X876697Y324750D01*
X877391Y324750D01*
X877391Y324172D01*
X876697Y324172D01*
G54D11*
X877391Y304672D02*
X876697Y304672D01*
X876697Y305250D01*
X877391Y305250D01*
X877391Y304672D01*
X876697Y304672D01*
G54D17*
X813282Y245452D02*
X841740Y232181D01*
X834978Y217680D01*
X806520Y230951D01*
X813282Y245452D01*
G54D17*
X815883Y235412D02*
X823134Y232031D01*
X825246Y236562D01*
X821020Y227499D01*
G54D17*
X827059Y235717D02*
X822833Y226654D01*
G54D17*
X824946Y231186D02*
X832196Y227805D01*
G54D11*
X821340Y270437D02*
X820712Y270730D01*
X820956Y271253D01*
X821584Y270960D01*
X821340Y270437D01*
X820712Y270730D01*
G54D11*
X813099Y252764D02*
X812470Y253057D01*
X812715Y253580D01*
X813343Y253287D01*
X813099Y252764D01*
X812470Y253057D01*
G54D23*
X892900Y326400D02*
X892900Y357600D01*
X877300Y357600D01*
X877300Y326400D01*
X892900Y326400D01*
G54D11*
X920780Y319098D02*
X920780Y319792D01*
X920202Y319792D01*
X920202Y319098D01*
X920780Y319098D01*
X920780Y319792D01*
G54D11*
X901277Y319099D02*
X901277Y319792D01*
X900700Y319792D01*
X900700Y319099D01*
X901277Y319099D01*
X901277Y319792D01*
G54D23*
X877460Y302544D02*
X877460Y271344D01*
X893060Y271344D01*
X893060Y302544D01*
X877460Y302544D01*
G54D11*
X849580Y309846D02*
X849580Y309152D01*
X850158Y309152D01*
X850158Y309846D01*
X849580Y309846D01*
X849580Y309152D01*
G54D11*
X869085Y309844D02*
X869085Y309151D01*
X869662Y309151D01*
X869662Y309844D01*
X869085Y309844D01*
X869085Y309151D01*
G54D23*
X858909Y218221D02*
X887186Y231406D01*
X880593Y245545D01*
X852316Y232359D01*
X858909Y218221D01*
G54D11*
X864076Y189867D02*
X864704Y190160D01*
X864460Y190684D01*
X863832Y190390D01*
X864076Y189867D01*
X864704Y190160D01*
G54D11*
X855834Y207544D02*
X856462Y207837D01*
X856218Y208361D01*
X855589Y208068D01*
X855834Y207544D01*
X856462Y207837D01*
G54D13*
X873878Y369800D02*
X873879Y420600D01*
X797678Y420600D01*
X797679Y369800D01*
X873878Y369800D01*
G54D13*
X873878Y382500D02*
X873879Y407900D01*
X861179Y407900D01*
X861179Y382500D01*
X873878Y382500D01*
G54D11*
X790428Y362559D02*
X789735Y362559D01*
X789735Y363137D01*
X790428Y363137D01*
X790428Y362559D01*
X789735Y362559D01*
G54D23*
X876954Y434129D02*
X876954Y402929D01*
X892554Y402929D01*
X892554Y434129D01*
X876954Y434129D01*
G54D11*
X845053Y441256D02*
X845053Y440562D01*
X845631Y440562D01*
X845631Y441256D01*
X845053Y441256D01*
X845053Y440562D01*
G54D11*
X868577Y441429D02*
X868577Y440736D01*
X869155Y440736D01*
X869155Y441429D01*
X868577Y441429D01*
X868577Y440736D01*
G54D11*
X614397Y339571D02*
X614397Y338877D01*
X614974Y338877D01*
X614974Y339571D01*
X614397Y339571D01*
X614397Y338877D01*
G54D13*
X624954Y443029D02*
X624954Y468429D01*
X675754Y468429D01*
X675754Y443029D01*
X624954Y443029D01*
G54D13*
X724054Y443029D02*
X724054Y468429D01*
X774854Y468429D01*
X774854Y443029D01*
X724054Y443029D01*
G54D13*
X822954Y443029D02*
X822954Y468429D01*
X873754Y468429D01*
X873754Y443029D01*
X822954Y443029D01*
G54D23*
X698754Y472829D02*
X798754Y472829D01*
X798754Y129729D01*
X698754Y129729D01*
X698754Y472829D01*
M02*
