%FSLAX34Y34*%
%MOMM*%
%LNCOPPER_TOP*%
G71*
G01*
%ADD10R, 1.050X2.000*%
%ADD11R, 2.000X1.000*%
%ADD12C, 1.400*%
%ADD13C, 1.600*%
%ADD14C, 1.200*%
%ADD15C, 1.520*%
%ADD16C, 0.400*%
%ADD17C, 0.600*%
%ADD18C, 0.300*%
%ADD19C, 3.500*%
%ADD20C, 1.600*%
%ADD21C, 3.000*%
%ADD22R, 1.800X1.300*%
%ADD23C, 2.300*%
%ADD24C, 0.800*%
%ADD25C, 1.200*%
%ADD26R, 0.900X2.000*%
%ADD27R, 4.100X2.400*%
%ADD28C, 1.600*%
%ADD29R, 1.500X1.600*%
%ADD30R, 1.600X1.600*%
%ADD31C, 2.000*%
%LPD*%
X210700Y957600D02*
G54D10*
D03*
X190700Y957600D02*
G54D10*
D03*
X170700Y957600D02*
G54D10*
D03*
X150700Y957600D02*
G54D10*
D03*
X130700Y957600D02*
G54D10*
D03*
X110700Y957600D02*
G54D10*
D03*
X90700Y957600D02*
G54D10*
D03*
X70700Y957600D02*
G54D10*
D03*
X210700Y797600D02*
G54D10*
D03*
X190700Y797600D02*
G54D10*
D03*
X170700Y797600D02*
G54D10*
D03*
X150700Y797600D02*
G54D10*
D03*
X130700Y797600D02*
G54D10*
D03*
X110700Y797600D02*
G54D10*
D03*
X90700Y797600D02*
G54D10*
D03*
X70700Y797600D02*
G54D10*
D03*
X55700Y927600D02*
G54D11*
D03*
X55700Y907600D02*
G54D11*
D03*
X55700Y887600D02*
G54D11*
D03*
X55700Y867600D02*
G54D11*
D03*
X55700Y847600D02*
G54D11*
D03*
X55700Y827600D02*
G54D11*
D03*
G54D12*
X31322Y884609D02*
X31932Y819178D01*
X33810Y817300D01*
X33810Y816300D01*
X41100Y797700D01*
X70700Y797600D01*
X32022Y947422D02*
G54D13*
D03*
X31932Y819178D02*
G54D13*
D03*
X210739Y957395D02*
G54D14*
D03*
X190739Y957395D02*
G54D14*
D03*
X170739Y957395D02*
G54D14*
D03*
X150739Y957395D02*
G54D14*
D03*
X130739Y957395D02*
G54D14*
D03*
X110739Y957395D02*
G54D14*
D03*
X90739Y957395D02*
G54D14*
D03*
X70739Y957395D02*
G54D14*
D03*
X55739Y927395D02*
G54D14*
D03*
X55739Y907395D02*
G54D14*
D03*
X55739Y887395D02*
G54D14*
D03*
X55739Y867395D02*
G54D14*
D03*
X55739Y847395D02*
G54D14*
D03*
X55739Y827395D02*
G54D14*
D03*
X70700Y797600D02*
G54D14*
D03*
X90700Y797600D02*
G54D14*
D03*
X110700Y797600D02*
G54D14*
D03*
X130700Y797600D02*
G54D14*
D03*
X150700Y797600D02*
G54D14*
D03*
X170700Y797600D02*
G54D14*
D03*
X190700Y797600D02*
G54D14*
D03*
X210700Y797600D02*
G54D14*
D03*
X41100Y797700D02*
G54D13*
D03*
G54D12*
X31322Y910009D02*
X32022Y947422D01*
X41922Y957743D01*
X41900Y957300D01*
X70400Y957300D01*
X70700Y957600D01*
X31222Y844978D02*
G54D13*
D03*
G36*
X137616Y974095D02*
X122416Y974095D01*
X122416Y989295D01*
X137616Y989295D01*
X137616Y974095D01*
G37*
G36*
X23722Y877009D02*
X23722Y892209D01*
X38922Y892209D01*
X38922Y877009D01*
X23722Y877009D01*
G37*
X31322Y910009D02*
G54D15*
D03*
G36*
X164700Y989500D02*
X179900Y989500D01*
X179900Y974300D01*
X164700Y974300D01*
X164700Y989500D01*
G37*
X197700Y981900D02*
G54D15*
D03*
G36*
X92900Y781200D02*
X108100Y781200D01*
X108100Y766000D01*
X92900Y766000D01*
X92900Y781200D01*
G37*
X125900Y773600D02*
G54D15*
D03*
G54D16*
X130700Y797200D02*
X130700Y781200D01*
X125900Y773600D01*
G54D16*
X210700Y957600D02*
X197700Y981900D01*
X104639Y979195D02*
G54D14*
D03*
X80639Y979195D02*
G54D14*
D03*
G54D16*
X90700Y957600D02*
X80700Y979134D01*
X80639Y979195D01*
X150800Y770100D02*
G54D14*
D03*
X170800Y770100D02*
G54D14*
D03*
G54D16*
X150700Y797600D02*
X150700Y770200D01*
X150800Y770100D01*
G54D16*
X170700Y797600D02*
X170700Y770200D01*
X170800Y770100D01*
G54D16*
X110700Y957600D02*
X104700Y979134D01*
X104639Y979195D01*
G54D17*
X130016Y981695D02*
X130016Y958283D01*
X130700Y957600D01*
G36*
X185700Y781500D02*
X200900Y781500D01*
X200900Y766300D01*
X185700Y766300D01*
X185700Y781500D01*
G37*
X218700Y773900D02*
G54D15*
D03*
G54D17*
X190700Y797600D02*
X190700Y776500D01*
X193300Y773900D01*
G54D17*
X210700Y797600D02*
X210700Y781900D01*
X218700Y773900D01*
G54D16*
X70700Y797600D02*
X70700Y776539D01*
X76612Y770628D01*
X97528Y770628D01*
X100500Y773600D01*
G54D18*
X70700Y797600D02*
X70700Y816700D01*
X86000Y832000D01*
X86000Y868000D01*
X94000Y876000D01*
X95000Y876000D01*
X161000Y942000D01*
X161000Y982000D01*
X172200Y982000D01*
X172300Y981900D01*
X508700Y957600D02*
G54D10*
D03*
X488700Y957600D02*
G54D10*
D03*
X468700Y957600D02*
G54D10*
D03*
X448700Y957600D02*
G54D10*
D03*
X428700Y957600D02*
G54D10*
D03*
X408700Y957600D02*
G54D10*
D03*
X388700Y957600D02*
G54D10*
D03*
X368700Y957600D02*
G54D10*
D03*
X508700Y797600D02*
G54D10*
D03*
X488700Y797600D02*
G54D10*
D03*
X468700Y797600D02*
G54D10*
D03*
X448700Y797600D02*
G54D10*
D03*
X428700Y797600D02*
G54D10*
D03*
X408700Y797600D02*
G54D10*
D03*
X388700Y797600D02*
G54D10*
D03*
X368700Y797600D02*
G54D10*
D03*
X353700Y927600D02*
G54D11*
D03*
X353700Y907600D02*
G54D11*
D03*
X353700Y887600D02*
G54D11*
D03*
X353700Y867600D02*
G54D11*
D03*
X353700Y847600D02*
G54D11*
D03*
X353700Y827600D02*
G54D11*
D03*
G54D12*
X329322Y884609D02*
X329932Y819178D01*
X331810Y817300D01*
X331810Y816300D01*
X339100Y797700D01*
X368700Y797600D01*
X330022Y947422D02*
G54D13*
D03*
X329932Y819178D02*
G54D13*
D03*
X508739Y957395D02*
G54D14*
D03*
X488739Y957395D02*
G54D14*
D03*
X468739Y957395D02*
G54D14*
D03*
X448739Y957395D02*
G54D14*
D03*
X428739Y957395D02*
G54D14*
D03*
X408739Y957395D02*
G54D14*
D03*
X388739Y957395D02*
G54D14*
D03*
X368739Y957395D02*
G54D14*
D03*
X353739Y927395D02*
G54D14*
D03*
X353739Y907395D02*
G54D14*
D03*
X353739Y887395D02*
G54D14*
D03*
X353739Y867395D02*
G54D14*
D03*
X353739Y847395D02*
G54D14*
D03*
X353739Y827395D02*
G54D14*
D03*
X368700Y797600D02*
G54D14*
D03*
X388700Y797600D02*
G54D14*
D03*
X408700Y797600D02*
G54D14*
D03*
X428700Y797600D02*
G54D14*
D03*
X448700Y797600D02*
G54D14*
D03*
X468700Y797600D02*
G54D14*
D03*
X488700Y797600D02*
G54D14*
D03*
X508700Y797600D02*
G54D14*
D03*
X339100Y797700D02*
G54D13*
D03*
G54D12*
X329322Y910009D02*
X330022Y947422D01*
X339922Y957743D01*
X339900Y957300D01*
X368400Y957300D01*
X368700Y957600D01*
X329222Y844978D02*
G54D13*
D03*
G36*
X435616Y974095D02*
X420416Y974095D01*
X420416Y989295D01*
X435616Y989295D01*
X435616Y974095D01*
G37*
G36*
X321722Y877009D02*
X321722Y892209D01*
X336922Y892209D01*
X336922Y877009D01*
X321722Y877009D01*
G37*
X329322Y910009D02*
G54D15*
D03*
G36*
X462700Y989500D02*
X477900Y989500D01*
X477900Y974300D01*
X462700Y974300D01*
X462700Y989500D01*
G37*
X495700Y981900D02*
G54D15*
D03*
G36*
X390900Y781200D02*
X406100Y781200D01*
X406100Y766000D01*
X390900Y766000D01*
X390900Y781200D01*
G37*
X423900Y773600D02*
G54D15*
D03*
G54D16*
X428700Y797200D02*
X428700Y781200D01*
X423900Y773600D01*
G54D16*
X508700Y957600D02*
X495700Y981900D01*
X402639Y979195D02*
G54D14*
D03*
X378639Y979195D02*
G54D14*
D03*
G54D16*
X388700Y957600D02*
X378700Y979134D01*
X378639Y979195D01*
X448800Y770100D02*
G54D14*
D03*
X468800Y770100D02*
G54D14*
D03*
G54D16*
X448700Y797600D02*
X448700Y770200D01*
X448800Y770100D01*
G54D16*
X468700Y797600D02*
X468700Y770200D01*
X468800Y770100D01*
G54D16*
X408700Y957600D02*
X402700Y979134D01*
X402639Y979195D01*
G54D17*
X428016Y981695D02*
X428016Y958283D01*
X428700Y957600D01*
G36*
X483700Y781500D02*
X498900Y781500D01*
X498900Y766300D01*
X483700Y766300D01*
X483700Y781500D01*
G37*
X516700Y773900D02*
G54D15*
D03*
G54D17*
X488700Y797600D02*
X488700Y776500D01*
X491300Y773900D01*
G54D17*
X508700Y797600D02*
X508700Y781900D01*
X516700Y773900D01*
G54D16*
X368700Y797600D02*
X368700Y776539D01*
X374612Y770628D01*
X395528Y770628D01*
X398500Y773600D01*
G54D18*
X368700Y797600D02*
X368700Y816700D01*
X384000Y832000D01*
X384000Y868000D01*
X392000Y876000D01*
X393000Y876000D01*
X459000Y942000D01*
X459000Y982000D01*
X470200Y982000D01*
X470300Y981900D01*
X806700Y957600D02*
G54D10*
D03*
X786700Y957600D02*
G54D10*
D03*
X766700Y957600D02*
G54D10*
D03*
X746700Y957600D02*
G54D10*
D03*
X726700Y957600D02*
G54D10*
D03*
X706700Y957600D02*
G54D10*
D03*
X686700Y957600D02*
G54D10*
D03*
X666700Y957600D02*
G54D10*
D03*
X806700Y797600D02*
G54D10*
D03*
X786700Y797600D02*
G54D10*
D03*
X766700Y797600D02*
G54D10*
D03*
X746700Y797600D02*
G54D10*
D03*
X726700Y797600D02*
G54D10*
D03*
X706700Y797600D02*
G54D10*
D03*
X686700Y797600D02*
G54D10*
D03*
X666700Y797600D02*
G54D10*
D03*
X651700Y927600D02*
G54D11*
D03*
X651700Y907600D02*
G54D11*
D03*
X651700Y887600D02*
G54D11*
D03*
X651700Y867600D02*
G54D11*
D03*
X651700Y847600D02*
G54D11*
D03*
X651700Y827600D02*
G54D11*
D03*
G54D12*
X627322Y884609D02*
X627932Y819178D01*
X629810Y817300D01*
X629810Y816300D01*
X637100Y797700D01*
X666700Y797600D01*
X628022Y947422D02*
G54D13*
D03*
X627932Y819178D02*
G54D13*
D03*
X806739Y957395D02*
G54D14*
D03*
X786739Y957395D02*
G54D14*
D03*
X766739Y957395D02*
G54D14*
D03*
X746739Y957395D02*
G54D14*
D03*
X726739Y957395D02*
G54D14*
D03*
X706739Y957395D02*
G54D14*
D03*
X686739Y957395D02*
G54D14*
D03*
X666739Y957395D02*
G54D14*
D03*
X651739Y927395D02*
G54D14*
D03*
X651739Y907395D02*
G54D14*
D03*
X651739Y887395D02*
G54D14*
D03*
X651739Y867395D02*
G54D14*
D03*
X651739Y847395D02*
G54D14*
D03*
X651739Y827395D02*
G54D14*
D03*
X666700Y797600D02*
G54D14*
D03*
X686700Y797600D02*
G54D14*
D03*
X706700Y797600D02*
G54D14*
D03*
X726700Y797600D02*
G54D14*
D03*
X746700Y797600D02*
G54D14*
D03*
X766700Y797600D02*
G54D14*
D03*
X786700Y797600D02*
G54D14*
D03*
X806700Y797600D02*
G54D14*
D03*
X637100Y797700D02*
G54D13*
D03*
G54D12*
X627322Y910009D02*
X628022Y947422D01*
X637922Y957743D01*
X637900Y957300D01*
X666400Y957300D01*
X666700Y957600D01*
X627222Y844978D02*
G54D13*
D03*
G36*
X733616Y974095D02*
X718416Y974095D01*
X718416Y989295D01*
X733616Y989295D01*
X733616Y974095D01*
G37*
G36*
X619722Y877009D02*
X619722Y892209D01*
X634922Y892209D01*
X634922Y877009D01*
X619722Y877009D01*
G37*
X627322Y910009D02*
G54D15*
D03*
G36*
X760700Y989500D02*
X775900Y989500D01*
X775900Y974300D01*
X760700Y974300D01*
X760700Y989500D01*
G37*
X793700Y981900D02*
G54D15*
D03*
G36*
X688900Y781200D02*
X704100Y781200D01*
X704100Y766000D01*
X688900Y766000D01*
X688900Y781200D01*
G37*
X721900Y773600D02*
G54D15*
D03*
G54D16*
X726700Y797200D02*
X726700Y781200D01*
X721900Y773600D01*
G54D16*
X806700Y957600D02*
X793700Y981900D01*
X700639Y979195D02*
G54D14*
D03*
X676639Y979195D02*
G54D14*
D03*
G54D16*
X686700Y957600D02*
X676700Y979134D01*
X676639Y979195D01*
X746800Y770100D02*
G54D14*
D03*
X766800Y770100D02*
G54D14*
D03*
G54D16*
X746700Y797600D02*
X746700Y770200D01*
X746800Y770100D01*
G54D16*
X766700Y797600D02*
X766700Y770200D01*
X766800Y770100D01*
G54D16*
X706700Y957600D02*
X700700Y979134D01*
X700639Y979195D01*
G54D17*
X726016Y981695D02*
X726016Y958283D01*
X726700Y957600D01*
G36*
X781700Y781500D02*
X796900Y781500D01*
X796900Y766300D01*
X781700Y766300D01*
X781700Y781500D01*
G37*
X814700Y773900D02*
G54D15*
D03*
G54D17*
X786700Y797600D02*
X786700Y776500D01*
X789300Y773900D01*
G54D17*
X806700Y797600D02*
X806700Y781900D01*
X814700Y773900D01*
G54D16*
X666700Y797600D02*
X666700Y776539D01*
X672612Y770628D01*
X693528Y770628D01*
X696500Y773600D01*
G54D18*
X666700Y797600D02*
X666700Y816700D01*
X682000Y832000D01*
X682000Y868000D01*
X690000Y876000D01*
X691000Y876000D01*
X757000Y942000D01*
X757000Y982000D01*
X768200Y982000D01*
X768300Y981900D01*
X27320Y610700D02*
G54D19*
D03*
X257320Y610700D02*
G54D19*
D03*
X27320Y610700D02*
G54D19*
D03*
X257320Y610700D02*
G54D19*
D03*
X27320Y610700D02*
G54D19*
D03*
X257320Y610700D02*
G54D19*
D03*
G36*
X36332Y716461D02*
X52332Y716461D01*
X52332Y700461D01*
X36332Y700461D01*
X36332Y716461D01*
G37*
X44332Y682961D02*
G54D20*
D03*
X120832Y708461D02*
G54D20*
D03*
X120832Y682961D02*
G54D20*
D03*
X20885Y708696D02*
G54D13*
D03*
G36*
X12885Y675296D02*
X12885Y691296D01*
X28885Y691296D01*
X28885Y675296D01*
X12885Y675296D01*
G37*
X202877Y735724D02*
G54D13*
D03*
X275380Y517700D02*
G54D21*
D03*
X225380Y517700D02*
G54D21*
D03*
X175380Y517700D02*
G54D21*
D03*
X125380Y517700D02*
G54D21*
D03*
X75400Y517700D02*
G54D21*
D03*
X25400Y517700D02*
G54D21*
D03*
G54D12*
X275380Y517700D02*
X275380Y508080D01*
X254500Y487200D01*
X176900Y487200D01*
X175600Y485900D01*
X175600Y517480D01*
X175380Y517700D01*
X175380Y488720D01*
X176900Y487200D01*
X75600Y487200D01*
X75600Y517500D01*
X75400Y517700D01*
G54D12*
X225380Y517700D02*
X225380Y526880D01*
X255400Y552900D01*
X256720Y610100D01*
X257320Y610700D01*
G54D12*
X27320Y610700D02*
X21000Y522100D01*
X25400Y517700D01*
G54D12*
X25400Y517700D02*
X25400Y519400D01*
X59900Y553900D01*
X123300Y553900D01*
X125300Y551900D01*
X125300Y517780D01*
X125380Y517700D01*
X145647Y713473D02*
G54D22*
D03*
X145547Y680973D02*
G54D22*
D03*
X176001Y730403D02*
G54D23*
D03*
X176001Y705003D02*
G54D23*
D03*
X176001Y679603D02*
G54D23*
D03*
X176001Y730403D02*
G54D23*
D03*
X176001Y705003D02*
G54D23*
D03*
X176001Y679603D02*
G54D23*
D03*
X145547Y679973D02*
G54D13*
D03*
G36*
X272271Y672879D02*
X272271Y688079D01*
X287471Y688079D01*
X287471Y672879D01*
X272271Y672879D01*
G37*
X279871Y705879D02*
G54D15*
D03*
G54D24*
X176001Y679603D02*
X278994Y679603D01*
X279871Y680479D01*
G54D24*
X176001Y705003D02*
X278994Y705003D01*
X279871Y705879D01*
G54D24*
X120832Y682961D02*
X124558Y682961D01*
X139000Y697403D01*
X139000Y706826D01*
X145647Y713473D01*
X145628Y735473D01*
X145706Y735395D01*
G36*
X212271Y672879D02*
X212271Y688079D01*
X227471Y688079D01*
X227471Y672879D01*
X212271Y672879D01*
G37*
X219871Y705879D02*
G54D15*
D03*
G36*
X138106Y742995D02*
X153306Y742995D01*
X153306Y727795D01*
X138106Y727795D01*
X138106Y742995D01*
G37*
X219871Y709879D02*
G54D22*
D03*
X219771Y677379D02*
G54D22*
D03*
X237600Y735550D02*
G54D25*
D03*
X250300Y722850D02*
G54D25*
D03*
X263000Y735550D02*
G54D25*
D03*
X237600Y735550D02*
G54D25*
D03*
X250300Y722850D02*
G54D25*
D03*
X263000Y735550D02*
G54D25*
D03*
X145647Y713473D02*
G54D13*
D03*
G54D24*
X145547Y679973D02*
X173371Y676973D01*
X176001Y679603D01*
G36*
X242106Y687995D02*
X257306Y687995D01*
X257306Y672795D01*
X242106Y672795D01*
X242106Y687995D01*
G37*
G36*
X277106Y739995D02*
X292306Y739995D01*
X292306Y724795D01*
X277106Y724795D01*
X277106Y739995D01*
G37*
G54D24*
X237600Y735550D02*
X181148Y735550D01*
X176001Y730403D01*
G54D24*
X284706Y732395D02*
X266155Y732395D01*
X263000Y735550D01*
G54D17*
X175000Y517000D02*
X175000Y552000D01*
X44000Y683000D01*
X20000Y683000D01*
X325614Y610305D02*
G54D19*
D03*
X555614Y610305D02*
G54D19*
D03*
X325614Y610305D02*
G54D19*
D03*
X555614Y610305D02*
G54D19*
D03*
X325614Y610305D02*
G54D19*
D03*
X555614Y610305D02*
G54D19*
D03*
G36*
X334626Y716066D02*
X350626Y716066D01*
X350626Y700066D01*
X334626Y700066D01*
X334626Y716066D01*
G37*
X342626Y682566D02*
G54D20*
D03*
X419126Y708066D02*
G54D20*
D03*
X419126Y682566D02*
G54D20*
D03*
X319179Y708301D02*
G54D13*
D03*
G36*
X311179Y674901D02*
X311179Y690901D01*
X327179Y690901D01*
X327179Y674901D01*
X311179Y674901D01*
G37*
X501171Y735329D02*
G54D13*
D03*
X573674Y517304D02*
G54D21*
D03*
X523674Y517304D02*
G54D21*
D03*
X473674Y517304D02*
G54D21*
D03*
X423674Y517304D02*
G54D21*
D03*
X373694Y517305D02*
G54D21*
D03*
X323694Y517305D02*
G54D21*
D03*
G54D12*
X573674Y517304D02*
X573674Y507685D01*
X552794Y486805D01*
X475194Y486805D01*
X473894Y485505D01*
X473894Y517084D01*
X473674Y517304D01*
X473674Y488325D01*
X475194Y486805D01*
X373894Y486805D01*
X373894Y517105D01*
X373694Y517305D01*
G54D12*
X523674Y517304D02*
X523674Y526485D01*
X553694Y552505D01*
X555014Y609705D01*
X555614Y610305D01*
G54D12*
X325614Y610305D02*
X319294Y521705D01*
X323694Y517305D01*
G54D12*
X323694Y517305D02*
X323694Y519005D01*
X358194Y553505D01*
X421594Y553505D01*
X423594Y551505D01*
X423594Y517384D01*
X423674Y517304D01*
X443942Y713078D02*
G54D22*
D03*
X443842Y680578D02*
G54D22*
D03*
X474295Y730007D02*
G54D23*
D03*
X474295Y704607D02*
G54D23*
D03*
X474295Y679207D02*
G54D23*
D03*
X474295Y730007D02*
G54D23*
D03*
X474295Y704607D02*
G54D23*
D03*
X474295Y679207D02*
G54D23*
D03*
X443842Y679578D02*
G54D13*
D03*
G36*
X570565Y672484D02*
X570565Y687684D01*
X585765Y687684D01*
X585765Y672484D01*
X570565Y672484D01*
G37*
X578165Y705484D02*
G54D15*
D03*
G54D24*
X474295Y679207D02*
X577289Y679207D01*
X578165Y680084D01*
G54D24*
X474295Y704607D02*
X577289Y704607D01*
X578165Y705484D01*
G54D24*
X419126Y682566D02*
X422852Y682566D01*
X437295Y697008D01*
X437295Y706430D01*
X443942Y713078D01*
X443922Y735078D01*
X444000Y735000D01*
G36*
X510565Y672484D02*
X510565Y687684D01*
X525765Y687684D01*
X525765Y672484D01*
X510565Y672484D01*
G37*
X518165Y705484D02*
G54D15*
D03*
G36*
X436400Y742600D02*
X451600Y742600D01*
X451600Y727400D01*
X436400Y727400D01*
X436400Y742600D01*
G37*
X518165Y709484D02*
G54D22*
D03*
X518065Y676984D02*
G54D22*
D03*
X535894Y735155D02*
G54D25*
D03*
X548594Y722455D02*
G54D25*
D03*
X561294Y735155D02*
G54D25*
D03*
X535894Y735155D02*
G54D25*
D03*
X548594Y722455D02*
G54D25*
D03*
X561294Y735155D02*
G54D25*
D03*
X443942Y713078D02*
G54D13*
D03*
G54D24*
X443842Y679578D02*
X471665Y676578D01*
X474295Y679207D01*
G36*
X540400Y672400D02*
X555600Y672400D01*
X555600Y687600D01*
X540400Y687600D01*
X540400Y672400D01*
G37*
G36*
X575400Y739600D02*
X590600Y739600D01*
X590600Y724400D01*
X575400Y724400D01*
X575400Y739600D01*
G37*
G54D24*
X535894Y735155D02*
X479442Y735155D01*
X474295Y730007D01*
G54D24*
X583000Y732000D02*
X564449Y732000D01*
X561294Y735155D01*
G54D17*
X473294Y516605D02*
X473294Y551605D01*
X342294Y682605D01*
X318294Y682605D01*
X622614Y610305D02*
G54D19*
D03*
X852614Y610305D02*
G54D19*
D03*
X622614Y610305D02*
G54D19*
D03*
X852614Y610305D02*
G54D19*
D03*
X622614Y610305D02*
G54D19*
D03*
X852614Y610305D02*
G54D19*
D03*
G36*
X631626Y700066D02*
X647626Y700066D01*
X647626Y716066D01*
X631626Y716066D01*
X631626Y700066D01*
G37*
X639626Y682566D02*
G54D20*
D03*
X716126Y708066D02*
G54D20*
D03*
X716126Y682566D02*
G54D20*
D03*
X616179Y708301D02*
G54D13*
D03*
G36*
X624179Y674901D02*
X624179Y690901D01*
X608179Y690901D01*
X608179Y674901D01*
X624179Y674901D01*
G37*
X798171Y735329D02*
G54D13*
D03*
X870674Y517304D02*
G54D21*
D03*
X820674Y517304D02*
G54D21*
D03*
X770674Y517304D02*
G54D21*
D03*
X720674Y517304D02*
G54D21*
D03*
X670694Y517305D02*
G54D21*
D03*
X620694Y517305D02*
G54D21*
D03*
G54D12*
X870674Y517304D02*
X870674Y507685D01*
X849794Y486805D01*
X772194Y486805D01*
X770894Y485505D01*
X770894Y517084D01*
X770674Y517304D01*
X770674Y488325D01*
X772194Y486805D01*
X670894Y486805D01*
X670894Y517105D01*
X670694Y517305D01*
G54D12*
X820674Y517304D02*
X820674Y526485D01*
X850694Y552505D01*
X852014Y609705D01*
X852614Y610305D01*
G54D12*
X622614Y610305D02*
X616294Y521705D01*
X620694Y517305D01*
G54D12*
X620694Y517305D02*
X620694Y519005D01*
X655194Y553505D01*
X718594Y553505D01*
X720594Y551505D01*
X720594Y517384D01*
X720674Y517304D01*
X740942Y713078D02*
G54D22*
D03*
X740842Y680578D02*
G54D22*
D03*
X771295Y730007D02*
G54D23*
D03*
X771295Y704607D02*
G54D23*
D03*
X771295Y679207D02*
G54D23*
D03*
X771295Y730007D02*
G54D23*
D03*
X771295Y704607D02*
G54D23*
D03*
X771295Y679207D02*
G54D23*
D03*
X740842Y679578D02*
G54D13*
D03*
G36*
X867565Y672484D02*
X867565Y687684D01*
X882765Y687684D01*
X882765Y672484D01*
X867565Y672484D01*
G37*
X875165Y705484D02*
G54D15*
D03*
G54D24*
X771295Y679207D02*
X874289Y679207D01*
X875165Y680084D01*
G54D24*
X771295Y704607D02*
X874289Y704607D01*
X875165Y705484D01*
G54D24*
X716126Y682566D02*
X719852Y682566D01*
X734295Y697008D01*
X734295Y706430D01*
X740942Y713078D01*
X740922Y735078D01*
X741000Y735000D01*
G36*
X807565Y672484D02*
X807565Y687684D01*
X822765Y687684D01*
X822765Y672484D01*
X807565Y672484D01*
G37*
X815165Y705484D02*
G54D15*
D03*
G36*
X733400Y742600D02*
X748600Y742600D01*
X748600Y727400D01*
X733400Y727400D01*
X733400Y742600D01*
G37*
X815165Y709484D02*
G54D22*
D03*
X815065Y676984D02*
G54D22*
D03*
X832894Y735155D02*
G54D25*
D03*
X845594Y722455D02*
G54D25*
D03*
X858294Y735155D02*
G54D25*
D03*
X832894Y735155D02*
G54D25*
D03*
X845594Y722455D02*
G54D25*
D03*
X858294Y735155D02*
G54D25*
D03*
X740942Y713078D02*
G54D13*
D03*
G54D24*
X740842Y679578D02*
X768665Y676578D01*
X771295Y679207D01*
G36*
X837400Y687600D02*
X852600Y687600D01*
X852600Y672400D01*
X837400Y672400D01*
X837400Y687600D01*
G37*
G36*
X872400Y739600D02*
X887600Y739600D01*
X887600Y724400D01*
X872400Y724400D01*
X872400Y739600D01*
G37*
G54D24*
X832894Y735155D02*
X776442Y735155D01*
X771295Y730007D01*
G54D24*
X880000Y732000D02*
X861449Y732000D01*
X858294Y735155D01*
G54D17*
X770294Y516605D02*
X770294Y551605D01*
X639294Y682605D01*
X615294Y682605D01*
X278454Y170129D02*
G54D21*
D03*
X228454Y170129D02*
G54D21*
D03*
G54D12*
X177454Y170129D02*
X177454Y146529D01*
X228154Y142529D01*
X278954Y146529D01*
X278454Y170129D01*
X178454Y170129D02*
G54D21*
D03*
X128454Y170129D02*
G54D21*
D03*
X20372Y268001D02*
G54D26*
D03*
X42572Y268001D02*
G54D26*
D03*
X64872Y268001D02*
G54D26*
D03*
X42572Y326800D02*
G54D27*
D03*
G36*
X15135Y248659D02*
X23020Y244982D01*
X16258Y230481D01*
X8373Y234158D01*
X15135Y248659D01*
G37*
G36*
X42687Y235811D02*
X50572Y232134D01*
X43810Y217633D01*
X35925Y221310D01*
X42687Y235811D01*
G37*
G36*
X74654Y426929D02*
X58654Y426929D01*
X58654Y442929D01*
X74654Y442929D01*
X74654Y426929D01*
G37*
X41254Y434929D02*
G54D28*
D03*
X15854Y434929D02*
G54D28*
D03*
X15854Y358729D02*
G54D28*
D03*
X41254Y358729D02*
G54D28*
D03*
X66654Y358729D02*
G54D28*
D03*
X90575Y327228D02*
G54D22*
D03*
X90675Y359729D02*
G54D22*
D03*
X90735Y304972D02*
G54D22*
D03*
X90635Y272472D02*
G54D22*
D03*
G36*
X50669Y231990D02*
X62450Y237484D01*
X70058Y221171D01*
X58276Y215677D01*
X50669Y231990D01*
G37*
G36*
X80166Y245635D02*
X91948Y251129D01*
X99555Y234815D01*
X87773Y229321D01*
X80166Y245635D01*
G37*
X14433Y241587D02*
G54D29*
D03*
X41685Y266764D02*
G54D13*
D03*
X15099Y266240D02*
G54D13*
D03*
X17196Y238170D02*
G54D13*
D03*
X89963Y240225D02*
G54D13*
D03*
X14999Y266240D02*
G54D30*
D03*
G54D31*
X43168Y267781D02*
X43362Y267955D01*
X70685Y267764D02*
G54D13*
D03*
G54D16*
X64072Y274501D02*
X88607Y274501D01*
X90635Y272472D01*
G54D16*
X90735Y304972D02*
X14919Y304872D01*
X14775Y304829D01*
X14999Y266240D01*
X15099Y266240D01*
G54D16*
X90675Y359729D02*
X67057Y358729D01*
X90229Y436557D02*
G54D22*
D03*
X90129Y404057D02*
G54D22*
D03*
X90575Y327228D02*
G54D13*
D03*
G54D16*
X90129Y404057D02*
X90129Y406257D01*
X67057Y434929D01*
X78454Y170129D02*
G54D21*
D03*
X28454Y170129D02*
G54D21*
D03*
G54D12*
X46254Y222429D02*
X56211Y222429D01*
X60363Y226580D01*
X50902Y226580D01*
X45754Y231729D01*
X55215Y231729D01*
X60363Y226580D01*
X119397Y267872D02*
G54D26*
D03*
X141597Y267872D02*
G54D26*
D03*
X163897Y267872D02*
G54D26*
D03*
X141597Y326672D02*
G54D27*
D03*
G36*
X114160Y248532D02*
X122045Y244855D01*
X115283Y230354D01*
X107398Y234031D01*
X114160Y248532D01*
G37*
G36*
X141712Y235684D02*
X149597Y232007D01*
X142835Y217506D01*
X134950Y221183D01*
X141712Y235684D01*
G37*
G36*
X173679Y426800D02*
X157679Y426800D01*
X157679Y442800D01*
X173679Y442800D01*
X173679Y426800D01*
G37*
X140279Y434800D02*
G54D28*
D03*
X114879Y434800D02*
G54D28*
D03*
X114879Y358600D02*
G54D28*
D03*
X140279Y358600D02*
G54D28*
D03*
X165679Y358600D02*
G54D28*
D03*
X189600Y327100D02*
G54D22*
D03*
X189700Y359600D02*
G54D22*
D03*
X189760Y304844D02*
G54D22*
D03*
X189660Y272344D02*
G54D22*
D03*
G36*
X149693Y231862D02*
X161475Y237356D01*
X169082Y221042D01*
X157300Y215548D01*
X149693Y231862D01*
G37*
G36*
X179191Y245506D02*
X190973Y251000D01*
X198580Y234686D01*
X186798Y229192D01*
X179191Y245506D01*
G37*
X113458Y241459D02*
G54D29*
D03*
X140710Y266636D02*
G54D13*
D03*
X114124Y266111D02*
G54D13*
D03*
X116222Y238042D02*
G54D13*
D03*
X188988Y240096D02*
G54D13*
D03*
X114024Y266111D02*
G54D30*
D03*
G54D31*
X142193Y267653D02*
X142387Y267826D01*
X169710Y267636D02*
G54D13*
D03*
G54D16*
X163097Y274372D02*
X187632Y274372D01*
X189660Y272344D01*
G54D16*
X189760Y304844D02*
X113944Y304744D01*
X113800Y304700D01*
X114024Y266111D01*
X114124Y266111D01*
G54D16*
X189700Y359600D02*
X166082Y358600D01*
X189254Y436429D02*
G54D22*
D03*
X189154Y403929D02*
G54D22*
D03*
X189600Y327100D02*
G54D13*
D03*
G54D16*
X189154Y403929D02*
X189154Y406128D01*
X166082Y434800D01*
G54D12*
X145279Y222300D02*
X155236Y222300D01*
X159388Y226452D01*
X149927Y226452D01*
X144779Y231600D01*
X154240Y231600D01*
X159388Y226452D01*
X218597Y267972D02*
G54D26*
D03*
X240797Y267972D02*
G54D26*
D03*
X263097Y267972D02*
G54D26*
D03*
X240797Y326772D02*
G54D27*
D03*
G36*
X213360Y248630D02*
X221245Y244953D01*
X214483Y230453D01*
X206598Y234130D01*
X213360Y248630D01*
G37*
G36*
X240912Y235783D02*
X248797Y232106D01*
X242035Y217605D01*
X234150Y221282D01*
X240912Y235783D01*
G37*
G36*
X272879Y442900D02*
X256879Y442900D01*
X256879Y426900D01*
X272879Y426900D01*
X272879Y442900D01*
G37*
X239479Y434900D02*
G54D28*
D03*
X214079Y434900D02*
G54D28*
D03*
X214079Y358700D02*
G54D28*
D03*
X239479Y358700D02*
G54D28*
D03*
X264879Y358700D02*
G54D28*
D03*
X288800Y327200D02*
G54D22*
D03*
X288900Y359700D02*
G54D22*
D03*
X288960Y304944D02*
G54D22*
D03*
X288860Y272444D02*
G54D22*
D03*
G36*
X248893Y231961D02*
X260675Y237455D01*
X268282Y221142D01*
X256501Y215648D01*
X248893Y231961D01*
G37*
G36*
X278390Y245606D02*
X290173Y251100D01*
X297780Y234786D01*
X285997Y229292D01*
X278390Y245606D01*
G37*
X212658Y241559D02*
G54D29*
D03*
X239910Y266736D02*
G54D13*
D03*
X213324Y266211D02*
G54D13*
D03*
X215422Y238142D02*
G54D13*
D03*
X288188Y240196D02*
G54D13*
D03*
X213224Y266211D02*
G54D30*
D03*
G54D31*
X241393Y267753D02*
X241587Y267926D01*
X268910Y267736D02*
G54D13*
D03*
G54D16*
X262297Y274472D02*
X286832Y274472D01*
X288860Y272444D01*
G54D16*
X288960Y304944D02*
X213144Y304844D01*
X213000Y304800D01*
X213224Y266211D01*
X213324Y266211D01*
G54D16*
X288900Y359700D02*
X265282Y358700D01*
X288454Y436529D02*
G54D22*
D03*
X288354Y404029D02*
G54D22*
D03*
X288800Y327200D02*
G54D13*
D03*
G54D16*
X288354Y404029D02*
X288354Y406228D01*
X265282Y434900D01*
G54D12*
X244479Y222400D02*
X254436Y222400D01*
X258588Y226552D01*
X249127Y226552D01*
X243979Y231700D01*
X253440Y231700D01*
X258588Y226552D01*
G54D12*
X15254Y298029D02*
X15254Y273119D01*
X20372Y268001D01*
G54D12*
X14999Y266240D02*
X14999Y240368D01*
X17196Y238170D01*
G54D12*
X114024Y266111D02*
X114024Y240239D01*
X116222Y238042D01*
G54D12*
X213324Y266211D02*
X213324Y240339D01*
X215522Y238142D01*
G54D12*
X78754Y170529D02*
X78754Y146929D01*
X79154Y146529D01*
X127954Y142129D01*
X177454Y146529D01*
X178454Y170129D01*
G54D12*
X17196Y238170D02*
X17196Y208386D01*
X19454Y206129D01*
X55454Y199129D01*
X97454Y203129D01*
X98454Y203129D01*
X115454Y213274D01*
X116222Y238042D01*
G54D12*
X116222Y238042D02*
X116222Y208257D01*
X118479Y206000D01*
X154479Y199000D01*
X196479Y203000D01*
X197479Y203000D01*
X214479Y213145D01*
X215246Y237913D01*
X16675Y219507D02*
G54D13*
D03*
X116975Y220207D02*
G54D13*
D03*
X215775Y220607D02*
G54D13*
D03*
G36*
X33754Y464929D02*
X48954Y464929D01*
X48954Y449729D01*
X33754Y449729D01*
X33754Y464929D01*
G37*
X66754Y457329D02*
G54D15*
D03*
G36*
X132854Y464929D02*
X148054Y464929D01*
X148054Y449729D01*
X132854Y449729D01*
X132854Y464929D01*
G37*
X165854Y457329D02*
G54D15*
D03*
G36*
X231754Y449729D02*
X246954Y449729D01*
X246954Y464929D01*
X231754Y464929D01*
X231754Y449729D01*
G37*
X264754Y457329D02*
G54D15*
D03*
G54D18*
X66754Y457329D02*
X69458Y457329D01*
X90229Y436557D01*
G54D18*
X165854Y457329D02*
X168354Y457329D01*
X189254Y436429D01*
G54D18*
X264754Y457329D02*
X267654Y457329D01*
X288454Y436529D01*
X575954Y169629D02*
G54D21*
D03*
X525954Y169629D02*
G54D21*
D03*
G54D12*
X474954Y169629D02*
X474954Y146029D01*
X525654Y142029D01*
X576454Y146029D01*
X575954Y169629D01*
X475954Y169629D02*
G54D21*
D03*
X425954Y169629D02*
G54D21*
D03*
X317872Y267501D02*
G54D26*
D03*
X340072Y267501D02*
G54D26*
D03*
X362372Y267501D02*
G54D26*
D03*
X340072Y326300D02*
G54D27*
D03*
G36*
X312635Y248159D02*
X320520Y244482D01*
X313758Y229981D01*
X305873Y233658D01*
X312635Y248159D01*
G37*
G36*
X340187Y235311D02*
X348072Y231634D01*
X341310Y217133D01*
X333425Y220810D01*
X340187Y235311D01*
G37*
G36*
X372154Y426429D02*
X356154Y426429D01*
X356154Y442429D01*
X372154Y442429D01*
X372154Y426429D01*
G37*
X338754Y434429D02*
G54D28*
D03*
X313354Y434429D02*
G54D28*
D03*
X313354Y358229D02*
G54D28*
D03*
X338754Y358229D02*
G54D28*
D03*
X364154Y358229D02*
G54D28*
D03*
X388075Y326728D02*
G54D22*
D03*
X388175Y359229D02*
G54D22*
D03*
X388235Y304472D02*
G54D22*
D03*
X388135Y271972D02*
G54D22*
D03*
G36*
X348169Y231490D02*
X359950Y236984D01*
X367558Y220671D01*
X355776Y215177D01*
X348169Y231490D01*
G37*
G36*
X377666Y245135D02*
X389448Y250629D01*
X397055Y234315D01*
X385273Y228821D01*
X377666Y245135D01*
G37*
X311933Y241087D02*
G54D29*
D03*
X339185Y266264D02*
G54D13*
D03*
X312599Y265740D02*
G54D13*
D03*
X314696Y237670D02*
G54D13*
D03*
X387463Y239725D02*
G54D13*
D03*
X312499Y265740D02*
G54D30*
D03*
G54D31*
X340668Y267281D02*
X340862Y267455D01*
X368185Y267264D02*
G54D13*
D03*
G54D16*
X361572Y274001D02*
X386107Y274001D01*
X388135Y271972D01*
G54D16*
X388235Y304472D02*
X312419Y304372D01*
X312275Y304329D01*
X312499Y265740D01*
X312599Y265740D01*
G54D16*
X388175Y359229D02*
X364557Y358229D01*
X387729Y436057D02*
G54D22*
D03*
X387629Y403557D02*
G54D22*
D03*
X388075Y326728D02*
G54D13*
D03*
G54D16*
X387629Y403557D02*
X387629Y405757D01*
X364557Y434429D01*
X375954Y169629D02*
G54D21*
D03*
X325954Y169629D02*
G54D21*
D03*
G54D12*
X343754Y221929D02*
X353711Y221929D01*
X357863Y226080D01*
X348402Y226080D01*
X343254Y231229D01*
X352715Y231229D01*
X357863Y226080D01*
X416897Y267372D02*
G54D26*
D03*
X439097Y267372D02*
G54D26*
D03*
X461397Y267372D02*
G54D26*
D03*
X439097Y326172D02*
G54D27*
D03*
G36*
X411660Y248032D02*
X419545Y244355D01*
X412783Y229854D01*
X404898Y233531D01*
X411660Y248032D01*
G37*
G36*
X439212Y235184D02*
X447097Y231507D01*
X440335Y217006D01*
X432450Y220683D01*
X439212Y235184D01*
G37*
G36*
X471179Y426300D02*
X455179Y426300D01*
X455179Y442300D01*
X471179Y442300D01*
X471179Y426300D01*
G37*
X437779Y434300D02*
G54D28*
D03*
X412379Y434300D02*
G54D28*
D03*
X412379Y358100D02*
G54D28*
D03*
X437779Y358100D02*
G54D28*
D03*
X463179Y358100D02*
G54D28*
D03*
X487100Y326600D02*
G54D22*
D03*
X487200Y359100D02*
G54D22*
D03*
X487260Y304344D02*
G54D22*
D03*
X487160Y271844D02*
G54D22*
D03*
G36*
X447193Y231362D02*
X458975Y236856D01*
X466582Y220542D01*
X454800Y215048D01*
X447193Y231362D01*
G37*
G36*
X476691Y245006D02*
X488473Y250500D01*
X496080Y234186D01*
X484298Y228692D01*
X476691Y245006D01*
G37*
X410958Y240959D02*
G54D29*
D03*
X438210Y266136D02*
G54D13*
D03*
X411624Y265611D02*
G54D13*
D03*
X413722Y237542D02*
G54D13*
D03*
X486488Y239596D02*
G54D13*
D03*
X411524Y265611D02*
G54D30*
D03*
G54D31*
X439693Y267153D02*
X439887Y267326D01*
X467210Y267136D02*
G54D13*
D03*
G54D16*
X460597Y273872D02*
X485132Y273872D01*
X487160Y271844D01*
G54D16*
X487260Y304344D02*
X411444Y304244D01*
X411300Y304200D01*
X411524Y265611D01*
X411624Y265611D01*
G54D16*
X487200Y359100D02*
X463582Y358100D01*
X486754Y435929D02*
G54D22*
D03*
X486654Y403429D02*
G54D22*
D03*
X487100Y326600D02*
G54D13*
D03*
G54D16*
X486654Y403429D02*
X486654Y405628D01*
X463582Y434300D01*
G54D12*
X442779Y221800D02*
X452736Y221800D01*
X456888Y225952D01*
X447427Y225952D01*
X442279Y231100D01*
X451740Y231100D01*
X456888Y225952D01*
X516097Y267472D02*
G54D26*
D03*
X538297Y267472D02*
G54D26*
D03*
X560597Y267472D02*
G54D26*
D03*
X538297Y326272D02*
G54D27*
D03*
G36*
X510860Y248130D02*
X518745Y244453D01*
X511983Y229953D01*
X504098Y233630D01*
X510860Y248130D01*
G37*
G36*
X538412Y235283D02*
X546297Y231606D01*
X539535Y217105D01*
X531650Y220782D01*
X538412Y235283D01*
G37*
G36*
X570379Y426400D02*
X554379Y426400D01*
X554379Y442400D01*
X570379Y442400D01*
X570379Y426400D01*
G37*
X536979Y434400D02*
G54D28*
D03*
X511579Y434400D02*
G54D28*
D03*
X511579Y358200D02*
G54D28*
D03*
X536979Y358200D02*
G54D28*
D03*
X562379Y358200D02*
G54D28*
D03*
X586300Y326700D02*
G54D22*
D03*
X586400Y359200D02*
G54D22*
D03*
X586460Y304444D02*
G54D22*
D03*
X586360Y271944D02*
G54D22*
D03*
G36*
X546393Y231461D02*
X558175Y236955D01*
X565782Y220642D01*
X554000Y215148D01*
X546393Y231461D01*
G37*
G36*
X575890Y245106D02*
X587672Y250600D01*
X595280Y234286D01*
X583498Y228792D01*
X575890Y245106D01*
G37*
X510158Y241059D02*
G54D29*
D03*
X537410Y266236D02*
G54D13*
D03*
X510824Y265711D02*
G54D13*
D03*
X512922Y237642D02*
G54D13*
D03*
X585688Y239696D02*
G54D13*
D03*
X510724Y265711D02*
G54D30*
D03*
G54D31*
X538893Y267253D02*
X539087Y267426D01*
X566410Y267236D02*
G54D13*
D03*
G54D16*
X559797Y273972D02*
X584332Y273972D01*
X586360Y271944D01*
G54D16*
X586460Y304444D02*
X510644Y304344D01*
X510500Y304300D01*
X510724Y265711D01*
X510824Y265711D01*
G54D16*
X586400Y359200D02*
X562782Y358200D01*
X585954Y436029D02*
G54D22*
D03*
X585854Y403529D02*
G54D22*
D03*
X586300Y326700D02*
G54D13*
D03*
G54D16*
X585854Y403529D02*
X585854Y405728D01*
X562782Y434400D01*
G54D12*
X541979Y221900D02*
X551936Y221900D01*
X556088Y226052D01*
X546627Y226052D01*
X541479Y231200D01*
X550940Y231200D01*
X556088Y226052D01*
G54D12*
X312754Y297529D02*
X312754Y272619D01*
X317872Y267501D01*
G54D12*
X312499Y265740D02*
X312499Y239868D01*
X314696Y237670D01*
G54D12*
X411524Y265611D02*
X411524Y239739D01*
X413722Y237542D01*
G54D12*
X510824Y265711D02*
X510824Y239839D01*
X513022Y237642D01*
G54D12*
X376254Y170029D02*
X376254Y146429D01*
X376654Y146029D01*
X425454Y141629D01*
X474954Y146029D01*
X475954Y169629D01*
G54D12*
X314696Y237670D02*
X314696Y207886D01*
X316954Y205629D01*
X352954Y198629D01*
X394954Y202629D01*
X395954Y202629D01*
X412954Y212774D01*
X413722Y237542D01*
G54D12*
X413722Y237542D02*
X413722Y207757D01*
X415979Y205500D01*
X451979Y198500D01*
X493979Y202500D01*
X494979Y202500D01*
X511979Y212645D01*
X512746Y237413D01*
X314175Y219007D02*
G54D13*
D03*
X414475Y219707D02*
G54D13*
D03*
X513275Y220107D02*
G54D13*
D03*
G36*
X331254Y464429D02*
X346454Y464429D01*
X346454Y449229D01*
X331254Y449229D01*
X331254Y464429D01*
G37*
X364254Y456829D02*
G54D15*
D03*
G36*
X430354Y464429D02*
X445554Y464429D01*
X445554Y449229D01*
X430354Y449229D01*
X430354Y464429D01*
G37*
X463354Y456829D02*
G54D15*
D03*
G36*
X529254Y449229D02*
X544454Y449229D01*
X544454Y464429D01*
X529254Y464429D01*
X529254Y449229D01*
G37*
X562254Y456829D02*
G54D15*
D03*
G54D18*
X364254Y456829D02*
X366958Y456829D01*
X387729Y436057D01*
G54D18*
X463354Y456829D02*
X465854Y456829D01*
X486754Y435929D01*
G54D18*
X562254Y456829D02*
X565154Y456829D01*
X585954Y436029D01*
X874754Y168529D02*
G54D21*
D03*
X824754Y168529D02*
G54D21*
D03*
G54D12*
X773754Y168529D02*
X773754Y144929D01*
X824454Y140929D01*
X875254Y144929D01*
X874754Y168529D01*
X774754Y168529D02*
G54D21*
D03*
X724754Y168529D02*
G54D21*
D03*
X616672Y266401D02*
G54D26*
D03*
X638872Y266401D02*
G54D26*
D03*
X661172Y266401D02*
G54D26*
D03*
X638872Y325200D02*
G54D27*
D03*
G36*
X611436Y247059D02*
X619320Y243382D01*
X612558Y228881D01*
X604673Y232558D01*
X611436Y247059D01*
G37*
G36*
X638987Y234211D02*
X646872Y230534D01*
X640110Y216033D01*
X632225Y219710D01*
X638987Y234211D01*
G37*
G36*
X670954Y425329D02*
X654954Y425329D01*
X654954Y441329D01*
X670954Y441329D01*
X670954Y425329D01*
G37*
X637554Y433329D02*
G54D28*
D03*
X612154Y433329D02*
G54D28*
D03*
X612154Y357129D02*
G54D28*
D03*
X637554Y357129D02*
G54D28*
D03*
X662954Y357129D02*
G54D28*
D03*
X686875Y325628D02*
G54D22*
D03*
X686975Y358129D02*
G54D22*
D03*
X687035Y303372D02*
G54D22*
D03*
X686935Y270872D02*
G54D22*
D03*
G36*
X646969Y230390D02*
X658750Y235884D01*
X666358Y219571D01*
X654576Y214077D01*
X646969Y230390D01*
G37*
G36*
X676466Y244035D02*
X688248Y249529D01*
X695855Y233215D01*
X684073Y227721D01*
X676466Y244035D01*
G37*
X610733Y239987D02*
G54D29*
D03*
X637985Y265164D02*
G54D13*
D03*
X611399Y264640D02*
G54D13*
D03*
X613496Y236570D02*
G54D13*
D03*
X686263Y238625D02*
G54D13*
D03*
X611299Y264640D02*
G54D30*
D03*
G54D31*
X639468Y266181D02*
X639662Y266355D01*
X666985Y266164D02*
G54D13*
D03*
G54D16*
X660372Y272901D02*
X684907Y272901D01*
X686935Y270872D01*
G54D16*
X687035Y303372D02*
X611219Y303272D01*
X611075Y303229D01*
X611299Y264640D01*
X611399Y264640D01*
G54D16*
X686975Y358129D02*
X663357Y357129D01*
X686529Y434957D02*
G54D22*
D03*
X686429Y402457D02*
G54D22*
D03*
X686875Y325628D02*
G54D13*
D03*
G54D16*
X686429Y402457D02*
X686429Y404657D01*
X663357Y433329D01*
X674754Y168529D02*
G54D21*
D03*
X624754Y168529D02*
G54D21*
D03*
G54D12*
X642554Y220829D02*
X652511Y220829D01*
X656663Y224980D01*
X647202Y224980D01*
X642054Y230129D01*
X651515Y230129D01*
X656663Y224980D01*
X715697Y266272D02*
G54D26*
D03*
X737897Y266272D02*
G54D26*
D03*
X760197Y266272D02*
G54D26*
D03*
X737897Y325072D02*
G54D27*
D03*
G36*
X710460Y246932D02*
X718345Y243255D01*
X711582Y228754D01*
X703698Y232431D01*
X710460Y246932D01*
G37*
G36*
X738012Y234084D02*
X745897Y230407D01*
X739135Y215906D01*
X731250Y219583D01*
X738012Y234084D01*
G37*
G36*
X769979Y425200D02*
X753979Y425200D01*
X753979Y441200D01*
X769979Y441200D01*
X769979Y425200D01*
G37*
X736579Y433200D02*
G54D28*
D03*
X711179Y433200D02*
G54D28*
D03*
X711179Y357000D02*
G54D28*
D03*
X736579Y357000D02*
G54D28*
D03*
X761979Y357000D02*
G54D28*
D03*
X785900Y325500D02*
G54D22*
D03*
X786000Y358000D02*
G54D22*
D03*
X786060Y303244D02*
G54D22*
D03*
X785960Y270744D02*
G54D22*
D03*
G36*
X745993Y230262D02*
X757775Y235756D01*
X765382Y219442D01*
X753600Y213948D01*
X745993Y230262D01*
G37*
G36*
X775491Y243906D02*
X787273Y249400D01*
X794880Y233086D01*
X783098Y227592D01*
X775491Y243906D01*
G37*
X709758Y239859D02*
G54D29*
D03*
X737010Y265036D02*
G54D13*
D03*
X710424Y264511D02*
G54D13*
D03*
X712522Y236442D02*
G54D13*
D03*
X785288Y238496D02*
G54D13*
D03*
X710324Y264511D02*
G54D30*
D03*
G54D31*
X738493Y266053D02*
X738687Y266226D01*
X766010Y266036D02*
G54D13*
D03*
G54D16*
X759397Y272772D02*
X783932Y272772D01*
X785960Y270744D01*
G54D16*
X786060Y303244D02*
X710244Y303144D01*
X710100Y303100D01*
X710324Y264511D01*
X710424Y264511D01*
G54D16*
X786000Y358000D02*
X762382Y357000D01*
X785554Y434829D02*
G54D22*
D03*
X785454Y402329D02*
G54D22*
D03*
X785900Y325500D02*
G54D13*
D03*
G54D16*
X785454Y402329D02*
X785454Y404528D01*
X762382Y433200D01*
G54D12*
X741579Y220700D02*
X751536Y220700D01*
X755688Y224852D01*
X746227Y224852D01*
X741079Y230000D01*
X750540Y230000D01*
X755688Y224852D01*
X814897Y266372D02*
G54D26*
D03*
X837097Y266372D02*
G54D26*
D03*
X859397Y266372D02*
G54D26*
D03*
X837097Y325172D02*
G54D27*
D03*
G36*
X809660Y247030D02*
X817545Y243353D01*
X810783Y228853D01*
X802898Y232530D01*
X809660Y247030D01*
G37*
G36*
X837212Y234183D02*
X845097Y230506D01*
X838335Y216005D01*
X830450Y219682D01*
X837212Y234183D01*
G37*
G36*
X869179Y441300D02*
X853179Y441300D01*
X853179Y425300D01*
X869179Y425300D01*
X869179Y441300D01*
G37*
X835779Y433300D02*
G54D28*
D03*
X810379Y433300D02*
G54D28*
D03*
X810379Y357100D02*
G54D28*
D03*
X835779Y357100D02*
G54D28*
D03*
X861179Y357100D02*
G54D28*
D03*
X885100Y325600D02*
G54D22*
D03*
X885200Y358100D02*
G54D22*
D03*
X885260Y303344D02*
G54D22*
D03*
X885160Y270844D02*
G54D22*
D03*
G36*
X845193Y230361D02*
X856975Y235855D01*
X864582Y219542D01*
X852800Y214048D01*
X845193Y230361D01*
G37*
G36*
X874690Y244006D02*
X886472Y249500D01*
X894080Y233186D01*
X882298Y227692D01*
X874690Y244006D01*
G37*
X808958Y239959D02*
G54D29*
D03*
X836210Y265136D02*
G54D13*
D03*
X809624Y264611D02*
G54D13*
D03*
X811722Y236542D02*
G54D13*
D03*
X884488Y238596D02*
G54D13*
D03*
X809524Y264611D02*
G54D30*
D03*
G54D31*
X837693Y266153D02*
X837887Y266326D01*
X865210Y266136D02*
G54D13*
D03*
G54D16*
X858597Y272872D02*
X883132Y272872D01*
X885160Y270844D01*
G54D16*
X885260Y303344D02*
X809444Y303244D01*
X809300Y303200D01*
X809524Y264611D01*
X809624Y264611D01*
G54D16*
X885200Y358100D02*
X861582Y357100D01*
X884754Y434929D02*
G54D22*
D03*
X884654Y402429D02*
G54D22*
D03*
X885100Y325600D02*
G54D13*
D03*
G54D16*
X884654Y402429D02*
X884654Y404628D01*
X861582Y433300D01*
G54D12*
X840779Y220800D02*
X850736Y220800D01*
X854888Y224952D01*
X845427Y224952D01*
X840279Y230100D01*
X849740Y230100D01*
X854888Y224952D01*
G54D12*
X611554Y296429D02*
X611554Y271519D01*
X616672Y266401D01*
G54D12*
X611299Y264640D02*
X611299Y238768D01*
X613496Y236570D01*
G54D12*
X710324Y264511D02*
X710324Y238639D01*
X712522Y236442D01*
G54D12*
X809624Y264611D02*
X809624Y238739D01*
X811822Y236542D01*
G54D12*
X675054Y168929D02*
X675054Y145329D01*
X675454Y144929D01*
X724254Y140529D01*
X773754Y144929D01*
X774754Y168529D01*
G54D12*
X613496Y236570D02*
X613496Y206786D01*
X615754Y204529D01*
X651754Y197529D01*
X693754Y201529D01*
X694754Y201529D01*
X711754Y211674D01*
X712522Y236442D01*
G54D12*
X712522Y236442D02*
X712522Y206657D01*
X714779Y204400D01*
X750779Y197400D01*
X792779Y201400D01*
X793779Y201400D01*
X810779Y211545D01*
X811546Y236313D01*
X612975Y217907D02*
G54D13*
D03*
X713275Y218607D02*
G54D13*
D03*
X812075Y219007D02*
G54D13*
D03*
G36*
X630054Y463329D02*
X645254Y463329D01*
X645254Y448129D01*
X630054Y448129D01*
X630054Y463329D01*
G37*
X663054Y455729D02*
G54D15*
D03*
G36*
X729154Y463329D02*
X744354Y463329D01*
X744354Y448129D01*
X729154Y448129D01*
X729154Y463329D01*
G37*
X762154Y455729D02*
G54D15*
D03*
G36*
X828054Y448129D02*
X843254Y448129D01*
X843254Y463329D01*
X828054Y463329D01*
X828054Y448129D01*
G37*
X861054Y455729D02*
G54D15*
D03*
G54D18*
X663054Y455729D02*
X665758Y455729D01*
X686529Y434957D01*
G54D18*
X762154Y455729D02*
X764654Y455729D01*
X785554Y434829D01*
G54D18*
X861054Y455729D02*
X863954Y455729D01*
X884754Y434929D01*
M02*
