; Drill file
; Format: 3.2 (000.00)
M48
METRIC
T01C0.4
T02C0.6
T03C0.7
T04C0.72
T05C0.8
T06C0.9
T07C1.0
T08C1.5
T09C2.0
T10C2.5
%
G05
G90
T01
X02503Y07228
X02376Y07356
X02630Y07356
X05359Y07352
X05486Y07225
X05613Y07352
X08329Y07352
X08456Y07225
X08583Y07352
T02
X01508Y07701
X01708Y07701
X01707Y07976
X01507Y07976
X01307Y07976
X01107Y07976
X00907Y07976
X00707Y07976
X00557Y08274
X00557Y08474
X00557Y08674
X00557Y08874
X00557Y09074
X00557Y09274
X00707Y09574
X00907Y09574
X01107Y09574
X01307Y09574
X01507Y09574
X01707Y09574
X01907Y09574
X02107Y09574
X01046Y09792
X00806Y09792
X01907Y07976
X02107Y07976
X03537Y08274
X03537Y08474
X03537Y08674
X03537Y08874
X03537Y09074
X03537Y09274
X03687Y09574
X03887Y09574
X04087Y09574
X04287Y09574
X04487Y09574
X04687Y09574
X04887Y09574
X05087Y09574
X04026Y09792
X03786Y09792
X03687Y07976
X03887Y07976
X04087Y07976
X04287Y07976
X04487Y07976
X04687Y07976
X04887Y07976
X05087Y07976
X04688Y07701
X04488Y07701
X06517Y08274
X06517Y08474
X06517Y08674
X06517Y08874
X06517Y09074
X06517Y09274
X06667Y09574
X06867Y09574
X07067Y09574
X07267Y09574
X07467Y09574
X07667Y09574
X07867Y09574
X08067Y09574
X07006Y09792
X06766Y09792
X06667Y07976
X06867Y07976
X07067Y07976
X07267Y07976
X07467Y07976
X07667Y07976
X07867Y07976
X08067Y07976
X07668Y07701
X07468Y07701
T03
X00443Y06830
X00443Y07085
X01208Y07085
X01208Y06830
X03426Y06826
X03426Y07081
X04191Y07081
X04191Y06826
X06396Y06826
X06396Y07081
X07161Y07081
X07161Y06826
T04
X00159Y03587
X00413Y03587
X00667Y03587
X01149Y03586
X01403Y03586
X01657Y03586
X02141Y03587
X02395Y03587
X02649Y03587
X03134Y03582
X03388Y03582
X03642Y03582
X04124Y03581
X04378Y03581
X04632Y03581
X05116Y03582
X05370Y03582
X05624Y03582
X06122Y03571
X06376Y03571
X06630Y03571
X07112Y03570
X07366Y03570
X07620Y03570
X08104Y03571
X08358Y03571
X08612Y03571
X08612Y04333
X08611Y04557
X08357Y04557
X08358Y04333
X08104Y04333
X07620Y04332
X07622Y04557
X07368Y04557
X07366Y04332
X07112Y04332
X06630Y04333
X06631Y04557
X06377Y04557
X06376Y04333
X06122Y04333
X05624Y04344
X05623Y04568
X05369Y04568
X05370Y04344
X05116Y04344
X04632Y04343
X04634Y04568
X04380Y04568
X04378Y04343
X04124Y04343
X03642Y04344
X03643Y04568
X03389Y04568
X03388Y04344
X03134Y04344
X02649Y04349
X02648Y04573
X02394Y04573
X02395Y04349
X02141Y04349
X01657Y04348
X01659Y04573
X01405Y04573
X01403Y04348
X01149Y04348
X00667Y04349
X00668Y04573
X00414Y04573
X00413Y04349
X00159Y04349
X02199Y06805
X02199Y07059
X02497Y06804
X02799Y06805
X02799Y07059
X02847Y07324
X02187Y07739
X01933Y07739
X01457Y07354
X01259Y07736
X01005Y07736
X00313Y08846
X00313Y09100
X01300Y09817
X01723Y09819
X01977Y09819
X03293Y09100
X03293Y08846
X03985Y07736
X04239Y07736
X04440Y07350
X04913Y07739
X05167Y07739
X05182Y07055
X05182Y06801
X05480Y06800
X05782Y06801
X05782Y07055
X05830Y07320
X06965Y07736
X07219Y07736
X07410Y07350
X07893Y07739
X08147Y07739
X08152Y07055
X08152Y06801
X08450Y06800
X08752Y06801
X08752Y07055
X08800Y07320
X07937Y09819
X07683Y09819
X07260Y09817
X06273Y09100
X06273Y08846
X04957Y09819
X04703Y09819
X04280Y09817
T05
X00167Y02195
X00172Y02382
X00151Y02662
X00417Y02668
X00707Y02678
X00900Y02402
X01162Y02380
X01170Y02202
X01141Y02661
X01407Y02666
X01697Y02676
X01890Y02401
X02154Y02381
X02158Y02206
X02133Y02662
X02399Y02667
X02689Y02677
X02882Y02402
X03147Y02377
X03142Y02190
X03126Y02657
X03392Y02663
X03682Y02673
X03875Y02397
X04137Y02375
X04145Y02197
X04116Y02656
X04382Y02661
X04672Y02671
X04865Y02396
X05129Y02376
X05133Y02201
X05108Y02657
X05374Y02662
X05664Y02672
X05857Y02397
X06135Y02366
X06130Y02179
X06114Y02646
X06380Y02652
X06670Y02662
X06863Y02386
X07125Y02364
X07133Y02186
X07104Y02645
X07370Y02650
X07660Y02660
X07853Y02385
X08117Y02365
X08121Y02190
X08096Y02646
X08362Y02651
X08652Y02661
X08845Y02386
X08851Y03256
X07859Y03255
X06869Y03256
X05863Y03267
X04871Y03266
X03881Y03267
X02888Y03272
X01896Y03271
X00906Y03272
X01455Y06800
X01456Y07135
X02029Y07357
X03192Y07083
X03192Y06829
X03391Y07977
X03299Y08192
X03292Y08450
X03300Y09474
X04439Y07131
X04438Y06796
X05012Y07353
X06162Y07083
X06162Y06829
X06371Y07977
X06279Y08192
X06272Y08450
X06280Y09474
X07409Y07131
X07408Y06796
X07982Y07353
X00411Y07977
X00319Y08192
X00312Y08450
X00320Y09474
X00209Y07087
X00209Y06833
T06
X01760Y06796
X01760Y07050
X01760Y07304
X04743Y07300
X04743Y07046
X04743Y06792
X07713Y06792
X07713Y07046
X07713Y07300
T07
X00285Y01701
X00785Y01701
X01285Y01701
X01785Y01701
X02285Y01701
X02785Y01701
X03260Y01696
X03760Y01696
X04260Y01696
X04760Y01696
X05260Y01696
X05760Y01696
X06248Y01685
X06748Y01685
X07248Y01685
X07748Y01685
X08248Y01685
X08748Y01685
X08707Y05173
X08207Y05173
X07707Y05173
X07207Y05173
X06707Y05173
X06207Y05173
X05737Y05173
X05237Y05173
X04737Y05173
X04237Y05173
X03737Y05173
X03237Y05173
X02754Y05177
X02254Y05177
X01754Y05177
X01254Y05177
X00754Y05177
X00254Y05177
T08
X00273Y06107
X02573Y06107
X03256Y06103
X05556Y06103
X06226Y06103
X08526Y06103
T09
X00230Y07335
X01060Y07345
X03213Y07331
X04043Y07341
X06183Y07331
X07013Y07341
T10
X02810Y07690
X02810Y09790
X03190Y09790
X05790Y09790
X06170Y09790
X05790Y07690
X08770Y07690
X08770Y09790
X00210Y09790
M30
