%FSLAX34Y34*%
%MOMM*%
%LNSILK_BOTTOM*%
G71*
G01*
%ADD10C, 0.300*%
%ADD11C, 0.000*%
%ADD12C, 0.144*%
%ADD13C, 0.238*%
%ADD14C, 0.318*%
%ADD15C, 0.159*%
%ADD16C, 0.100*%
%ADD17C, 0.286*%
%ADD18C, 0.167*%
%ADD19C, 0.191*%
%ADD20C, 0.090*%
%ADD21C, 0.150*%
%LPD*%
G54D10*
X295700Y797600D02*
X55700Y797600D01*
X55700Y957600D01*
X295700Y957600D01*
X295700Y797600D01*
G54D11*
X23722Y913010D02*
X23722Y881609D01*
X7722Y881609D01*
X7722Y913010D01*
X23722Y913010D01*
G54D11*
X15722Y906410D02*
X15722Y898409D01*
X20722Y898409D01*
X10722Y898409D01*
G54D11*
X20722Y896409D02*
X10722Y896409D01*
G54D11*
X15722Y896409D02*
X15722Y888409D01*
G54D12*
X50350Y916959D02*
X50350Y916266D01*
X49772Y916266D01*
X49772Y916959D01*
X50350Y916959D01*
X50350Y916266D01*
G54D12*
X40850Y916959D02*
X40850Y916266D01*
X40272Y916266D01*
X40272Y916959D01*
X40850Y916959D01*
X40850Y916266D01*
G54D13*
X24647Y871855D02*
X24647Y863522D01*
X25647Y861855D01*
X27647Y861022D01*
X29647Y861022D01*
X31647Y861855D01*
X32647Y863522D01*
X32647Y871855D01*
X31647Y873522D01*
X29647Y874355D01*
X27647Y874355D01*
X25647Y873522D01*
X24647Y871855D01*
G54D13*
X19980Y874355D02*
X14980Y861022D01*
X9980Y874355D01*
G54D14*
X20277Y925956D02*
X9610Y925956D01*
G54D14*
X14944Y930401D02*
X14944Y921512D01*
G54D15*
X148880Y976370D02*
X148880Y985259D01*
X145546Y979704D01*
X142213Y985259D01*
X142213Y976370D01*
G54D16*
X203701Y903516D02*
X203701Y872316D01*
X219301Y872316D01*
X219301Y903516D01*
X203701Y903516D01*
G54D12*
X175822Y910817D02*
X175822Y910124D01*
X176399Y910124D01*
X176399Y910817D01*
X175822Y910817D01*
X175822Y910124D01*
G54D12*
X195324Y910816D02*
X195324Y910122D01*
X195902Y910122D01*
X195902Y910816D01*
X195324Y910816D01*
X195324Y910122D01*
G54D16*
X163001Y902816D02*
X163001Y871616D01*
X178601Y871616D01*
X178601Y902816D01*
X163001Y902816D01*
G54D12*
X135122Y910117D02*
X135122Y909424D01*
X135699Y909424D01*
X135699Y910117D01*
X135122Y910117D01*
X135122Y909424D01*
G54D12*
X154624Y910116D02*
X154624Y909422D01*
X155202Y909422D01*
X155202Y910116D01*
X154624Y910116D01*
X154624Y909422D01*
G54D16*
X154612Y921328D02*
X185812Y921328D01*
X185812Y936928D01*
X154612Y936928D01*
X154612Y921328D01*
G54D12*
X147311Y893448D02*
X148004Y893448D01*
X148004Y894026D01*
X147311Y894026D01*
X147311Y893448D01*
X148004Y893448D01*
G54D12*
X147312Y912951D02*
X148005Y912951D01*
X148005Y913529D01*
X147312Y913529D01*
X147312Y912951D01*
X148005Y912951D01*
G54D16*
X101401Y857716D02*
X101401Y826516D01*
X117001Y826516D01*
X117001Y857716D01*
X101401Y857716D01*
G54D12*
X73522Y865017D02*
X73522Y864324D01*
X74099Y864324D01*
X74099Y865017D01*
X73522Y865017D01*
X73522Y864324D01*
G54D12*
X93024Y865016D02*
X93024Y864322D01*
X93602Y864322D01*
X93602Y865016D01*
X93024Y865016D01*
X93024Y864322D01*
G54D16*
X126101Y857816D02*
X126101Y826616D01*
X141701Y826616D01*
X141701Y857816D01*
X126101Y857816D01*
G54D12*
X98222Y865117D02*
X98222Y864424D01*
X98799Y864424D01*
X98799Y865117D01*
X98222Y865117D01*
X98222Y864424D01*
G54D12*
X117724Y865116D02*
X117724Y864422D01*
X118302Y864422D01*
X118302Y865116D01*
X117724Y865116D01*
X117724Y864422D01*
G54D16*
X44912Y762928D02*
X76112Y762928D01*
X76112Y778528D01*
X44912Y778528D01*
X44912Y762928D01*
G54D12*
X37611Y735048D02*
X38304Y735048D01*
X38304Y735626D01*
X37611Y735626D01*
X37611Y735048D01*
X38304Y735048D01*
G54D12*
X37612Y754551D02*
X38305Y754551D01*
X38305Y755129D01*
X37612Y755129D01*
X37612Y754551D01*
X38305Y754551D01*
G54D15*
X119280Y755444D02*
X119280Y764333D01*
X115947Y764333D01*
X114614Y763778D01*
X113947Y762667D01*
X113947Y761556D01*
X114614Y760444D01*
X115947Y759889D01*
X114614Y759333D01*
X113947Y758222D01*
X113947Y757111D01*
X114614Y756000D01*
X115947Y755444D01*
X119280Y755444D01*
G54D15*
X119280Y759889D02*
X115947Y759889D01*
G54D15*
X110836Y764333D02*
X110836Y757111D01*
X110170Y756000D01*
X108836Y755444D01*
X107503Y755444D01*
X106170Y756000D01*
X105503Y757111D01*
X105503Y764333D01*
G54D15*
X99726Y759889D02*
X97726Y758778D01*
X97059Y757667D01*
X97059Y755444D01*
G54D15*
X102392Y755444D02*
X102392Y764333D01*
X99059Y764333D01*
X97726Y763778D01*
X97059Y762667D01*
X97059Y761556D01*
X97726Y760444D01*
X99059Y759889D01*
X102392Y759889D01*
G54D15*
X93948Y755444D02*
X93948Y764333D01*
X88615Y755444D01*
X88615Y764333D01*
G54D15*
X222214Y755044D02*
X222214Y763934D01*
G54D15*
X224880Y763934D02*
X219547Y763934D01*
G54D15*
X216436Y760044D02*
X211103Y755044D01*
G54D15*
X216436Y755044D02*
X211103Y760044D01*
G54D15*
X199714Y759389D02*
X197714Y758278D01*
X197047Y757167D01*
X197047Y754944D01*
G54D15*
X202380Y754944D02*
X202380Y763834D01*
X199047Y763834D01*
X197714Y763278D01*
X197047Y762167D01*
X197047Y761056D01*
X197714Y759944D01*
X199047Y759389D01*
X202380Y759389D01*
G54D15*
X193936Y759944D02*
X188603Y754944D01*
G54D15*
X193936Y754944D02*
X188603Y759944D01*
G54D15*
X31980Y770700D02*
X28647Y774033D01*
X28647Y765144D01*
G54D15*
X20203Y772367D02*
X20203Y766811D01*
X20870Y765700D01*
X22203Y765144D01*
X23536Y765144D01*
X24870Y765700D01*
X25536Y766811D01*
X25536Y772367D01*
X24870Y773478D01*
X23536Y774033D01*
X22203Y774033D01*
X20870Y773478D01*
X20203Y772367D01*
G54D15*
X17092Y765144D02*
X17092Y774033D01*
G54D15*
X15092Y768478D02*
X13092Y765144D01*
G54D15*
X17092Y767367D02*
X13092Y770144D01*
G54D15*
X165280Y843200D02*
X161947Y846533D01*
X161947Y837645D01*
G54D15*
X153503Y844867D02*
X153503Y839311D01*
X154170Y838200D01*
X155503Y837645D01*
X156836Y837645D01*
X158170Y838200D01*
X158836Y839311D01*
X158836Y844867D01*
X158170Y845978D01*
X156836Y846533D01*
X155503Y846533D01*
X154170Y845978D01*
X153503Y844867D01*
G54D15*
X150392Y837645D02*
X150392Y846533D01*
G54D15*
X148392Y840978D02*
X146392Y837645D01*
G54D15*
X150392Y839867D02*
X146392Y842645D01*
G54D15*
X95180Y844100D02*
X91847Y847433D01*
X91847Y838545D01*
G54D15*
X83403Y845767D02*
X83403Y840211D01*
X84070Y839100D01*
X85403Y838545D01*
X86736Y838545D01*
X88070Y839100D01*
X88736Y840211D01*
X88736Y845767D01*
X88070Y846878D01*
X86736Y847433D01*
X85403Y847433D01*
X84070Y846878D01*
X83403Y845767D01*
G54D15*
X80292Y838545D02*
X80292Y847433D01*
G54D15*
X78292Y841878D02*
X76292Y838545D01*
G54D15*
X80292Y840767D02*
X76292Y843545D01*
G54D15*
X241680Y884700D02*
X238347Y888033D01*
X238347Y879145D01*
G54D15*
X229903Y886367D02*
X229903Y880811D01*
X230570Y879700D01*
X231903Y879145D01*
X233236Y879145D01*
X234570Y879700D01*
X235236Y880811D01*
X235236Y886367D01*
X234570Y887478D01*
X233236Y888033D01*
X231903Y888033D01*
X230570Y887478D01*
X229903Y886367D01*
G54D15*
X226792Y879145D02*
X226792Y888033D01*
G54D15*
X224792Y882478D02*
X222792Y879145D01*
G54D15*
X226792Y881367D02*
X222792Y884145D01*
G54D15*
X156380Y889000D02*
X153047Y892333D01*
X153047Y883445D01*
G54D15*
X144603Y890667D02*
X144603Y885111D01*
X145270Y884000D01*
X146603Y883445D01*
X147936Y883445D01*
X149270Y884000D01*
X149936Y885111D01*
X149936Y890667D01*
X149270Y891778D01*
X147936Y892333D01*
X146603Y892333D01*
X145270Y891778D01*
X144603Y890667D01*
G54D15*
X141492Y883445D02*
X141492Y892333D01*
G54D15*
X139492Y886778D02*
X137492Y883445D01*
G54D15*
X141492Y885667D02*
X137492Y888445D01*
G54D15*
X212980Y916445D02*
X212980Y925333D01*
X216980Y919778D01*
X216980Y918667D01*
X211647Y918667D01*
G54D15*
X208536Y925333D02*
X203203Y925333D01*
X203870Y924222D01*
X205203Y922556D01*
X206536Y920333D01*
X207203Y918667D01*
X207203Y916445D01*
G54D15*
X194759Y923667D02*
X194759Y918111D01*
X195426Y917000D01*
X196759Y916445D01*
X198092Y916445D01*
X199426Y917000D01*
X200092Y918111D01*
X200092Y923667D01*
X199426Y924778D01*
X198092Y925333D01*
X196759Y925333D01*
X195426Y924778D01*
X194759Y923667D01*
G54D15*
X229814Y985389D02*
X227814Y984278D01*
X227147Y983167D01*
X227147Y980945D01*
G54D15*
X232480Y980945D02*
X232480Y989833D01*
X229147Y989833D01*
X227814Y989278D01*
X227147Y988167D01*
X227147Y987056D01*
X227814Y985945D01*
X229147Y985389D01*
X232480Y985389D01*
G54D15*
X224036Y981500D02*
X222703Y980945D01*
X221370Y980945D01*
X220036Y981500D01*
X220036Y982611D01*
X220703Y983167D01*
X223370Y983722D01*
X224036Y984278D01*
X224036Y985389D01*
X222703Y985945D01*
X221370Y985945D01*
X220036Y985389D01*
G54D15*
X215592Y989833D02*
X215592Y981500D01*
X214925Y980945D01*
X214259Y981167D01*
G54D15*
X216925Y985945D02*
X214259Y985945D01*
G54D15*
X64546Y982592D02*
X64546Y977037D01*
X65213Y975926D01*
X66546Y975370D01*
X67880Y975370D01*
X69213Y975926D01*
X69880Y977037D01*
X69880Y982592D01*
X69213Y983704D01*
X67880Y984259D01*
X66546Y984259D01*
X65213Y983704D01*
X64546Y982592D01*
G54D15*
X57436Y975370D02*
X57436Y984259D01*
X61436Y978704D01*
X61436Y977592D01*
X56102Y977592D01*
G54D15*
X103546Y992592D02*
X103546Y987037D01*
X104213Y985926D01*
X105546Y985370D01*
X106880Y985370D01*
X108213Y985926D01*
X108880Y987037D01*
X108880Y992592D01*
X108213Y993704D01*
X106880Y994259D01*
X105546Y994259D01*
X104213Y993704D01*
X103546Y992592D01*
G54D15*
X100436Y992592D02*
X99769Y993704D01*
X98436Y994259D01*
X97102Y994259D01*
X95769Y993704D01*
X95102Y992592D01*
X95102Y991481D01*
X95769Y990370D01*
X97102Y989815D01*
X95769Y989259D01*
X95102Y988148D01*
X95102Y987037D01*
X95769Y985926D01*
X97102Y985370D01*
X98436Y985370D01*
X99769Y985926D01*
X100436Y987037D01*
G54D15*
X147546Y761592D02*
X147546Y756037D01*
X148213Y754926D01*
X149546Y754370D01*
X150880Y754370D01*
X152213Y754926D01*
X152880Y756037D01*
X152880Y761592D01*
X152213Y762704D01*
X150880Y763259D01*
X149546Y763259D01*
X148213Y762704D01*
X147546Y761592D01*
G54D15*
X144436Y759926D02*
X141102Y763259D01*
X141102Y754370D01*
G54D15*
X169546Y761592D02*
X169546Y756037D01*
X170213Y754926D01*
X171546Y754370D01*
X172880Y754370D01*
X174213Y754926D01*
X174880Y756037D01*
X174880Y761592D01*
X174213Y762704D01*
X172880Y763259D01*
X171546Y763259D01*
X170213Y762704D01*
X169546Y761592D01*
G54D15*
X161102Y754370D02*
X166436Y754370D01*
X166436Y754926D01*
X165769Y756037D01*
X161769Y759370D01*
X161102Y760481D01*
X161102Y761592D01*
X161769Y762704D01*
X163102Y763259D01*
X164436Y763259D01*
X165769Y762704D01*
X166436Y761592D01*
G54D10*
X593700Y797600D02*
X353700Y797600D01*
X353700Y957600D01*
X593700Y957600D01*
X593700Y797600D01*
G54D11*
X321722Y913010D02*
X321722Y881609D01*
X305722Y881609D01*
X305722Y913010D01*
X321722Y913010D01*
G54D11*
X313722Y906410D02*
X313722Y898409D01*
X318722Y898409D01*
X308722Y898409D01*
G54D11*
X318722Y896409D02*
X308722Y896409D01*
G54D11*
X313722Y896409D02*
X313722Y888409D01*
G54D12*
X348350Y916959D02*
X348350Y916266D01*
X347772Y916266D01*
X347772Y916959D01*
X348350Y916959D01*
X348350Y916266D01*
G54D12*
X338850Y916959D02*
X338850Y916266D01*
X338272Y916266D01*
X338272Y916959D01*
X338850Y916959D01*
X338850Y916266D01*
G54D13*
X322647Y871855D02*
X322647Y863522D01*
X323647Y861855D01*
X325647Y861022D01*
X327647Y861022D01*
X329647Y861855D01*
X330647Y863522D01*
X330647Y871855D01*
X329647Y873522D01*
X327647Y874355D01*
X325647Y874355D01*
X323647Y873522D01*
X322647Y871855D01*
G54D13*
X317980Y874355D02*
X312980Y861022D01*
X307980Y874355D01*
G54D14*
X318277Y925956D02*
X307610Y925956D01*
G54D14*
X312944Y930401D02*
X312944Y921512D01*
G54D15*
X446880Y976370D02*
X446880Y985259D01*
X443546Y979704D01*
X440213Y985259D01*
X440213Y976370D01*
G54D16*
X501701Y903516D02*
X501701Y872316D01*
X517301Y872316D01*
X517301Y903516D01*
X501701Y903516D01*
G54D12*
X473822Y910817D02*
X473822Y910124D01*
X474399Y910124D01*
X474399Y910817D01*
X473822Y910817D01*
X473822Y910124D01*
G54D12*
X493324Y910816D02*
X493324Y910122D01*
X493902Y910122D01*
X493902Y910816D01*
X493324Y910816D01*
X493324Y910122D01*
G54D16*
X461001Y902816D02*
X461001Y871616D01*
X476601Y871616D01*
X476601Y902816D01*
X461001Y902816D01*
G54D12*
X433122Y910117D02*
X433122Y909424D01*
X433699Y909424D01*
X433699Y910117D01*
X433122Y910117D01*
X433122Y909424D01*
G54D12*
X452624Y910116D02*
X452624Y909422D01*
X453202Y909422D01*
X453202Y910116D01*
X452624Y910116D01*
X452624Y909422D01*
G54D16*
X452612Y921328D02*
X483812Y921328D01*
X483812Y936928D01*
X452612Y936928D01*
X452612Y921328D01*
G54D12*
X445311Y893448D02*
X446004Y893448D01*
X446004Y894026D01*
X445311Y894026D01*
X445311Y893448D01*
X446004Y893448D01*
G54D12*
X445312Y912951D02*
X446005Y912951D01*
X446005Y913529D01*
X445312Y913529D01*
X445312Y912951D01*
X446005Y912951D01*
G54D16*
X399401Y857716D02*
X399401Y826516D01*
X415001Y826516D01*
X415001Y857716D01*
X399401Y857716D01*
G54D12*
X371522Y865017D02*
X371522Y864324D01*
X372099Y864324D01*
X372099Y865017D01*
X371522Y865017D01*
X371522Y864324D01*
G54D12*
X391024Y865016D02*
X391024Y864322D01*
X391602Y864322D01*
X391602Y865016D01*
X391024Y865016D01*
X391024Y864322D01*
G54D16*
X424101Y857816D02*
X424101Y826616D01*
X439701Y826616D01*
X439701Y857816D01*
X424101Y857816D01*
G54D12*
X396222Y865117D02*
X396222Y864424D01*
X396799Y864424D01*
X396799Y865117D01*
X396222Y865117D01*
X396222Y864424D01*
G54D12*
X415724Y865116D02*
X415724Y864422D01*
X416302Y864422D01*
X416302Y865116D01*
X415724Y865116D01*
X415724Y864422D01*
G54D16*
X342912Y762928D02*
X374112Y762928D01*
X374112Y778528D01*
X342912Y778528D01*
X342912Y762928D01*
G54D12*
X335611Y735048D02*
X336304Y735048D01*
X336304Y735626D01*
X335611Y735626D01*
X335611Y735048D01*
X336304Y735048D01*
G54D12*
X335612Y754551D02*
X336305Y754551D01*
X336305Y755129D01*
X335612Y755129D01*
X335612Y754551D01*
X336305Y754551D01*
G54D15*
X417280Y755444D02*
X417280Y764333D01*
X413947Y764333D01*
X412614Y763778D01*
X411947Y762667D01*
X411947Y761556D01*
X412614Y760444D01*
X413947Y759889D01*
X412614Y759333D01*
X411947Y758222D01*
X411947Y757111D01*
X412614Y756000D01*
X413947Y755444D01*
X417280Y755444D01*
G54D15*
X417280Y759889D02*
X413947Y759889D01*
G54D15*
X408836Y764333D02*
X408836Y757111D01*
X408170Y756000D01*
X406836Y755444D01*
X405503Y755444D01*
X404170Y756000D01*
X403503Y757111D01*
X403503Y764333D01*
G54D15*
X397726Y759889D02*
X395726Y758778D01*
X395059Y757667D01*
X395059Y755444D01*
G54D15*
X400392Y755444D02*
X400392Y764333D01*
X397059Y764333D01*
X395726Y763778D01*
X395059Y762667D01*
X395059Y761556D01*
X395726Y760444D01*
X397059Y759889D01*
X400392Y759889D01*
G54D15*
X391948Y755444D02*
X391948Y764333D01*
X386615Y755444D01*
X386615Y764333D01*
G54D15*
X520214Y755044D02*
X520214Y763934D01*
G54D15*
X522880Y763934D02*
X517547Y763934D01*
G54D15*
X514436Y760044D02*
X509103Y755044D01*
G54D15*
X514436Y755044D02*
X509103Y760044D01*
G54D15*
X497714Y759389D02*
X495714Y758278D01*
X495047Y757167D01*
X495047Y754944D01*
G54D15*
X500380Y754944D02*
X500380Y763834D01*
X497047Y763834D01*
X495714Y763278D01*
X495047Y762167D01*
X495047Y761056D01*
X495714Y759944D01*
X497047Y759389D01*
X500380Y759389D01*
G54D15*
X491936Y759944D02*
X486603Y754944D01*
G54D15*
X491936Y754944D02*
X486603Y759944D01*
G54D15*
X329980Y770700D02*
X326647Y774033D01*
X326647Y765144D01*
G54D15*
X318203Y772367D02*
X318203Y766811D01*
X318870Y765700D01*
X320203Y765144D01*
X321536Y765144D01*
X322870Y765700D01*
X323536Y766811D01*
X323536Y772367D01*
X322870Y773478D01*
X321536Y774033D01*
X320203Y774033D01*
X318870Y773478D01*
X318203Y772367D01*
G54D15*
X315092Y765144D02*
X315092Y774033D01*
G54D15*
X313092Y768478D02*
X311092Y765144D01*
G54D15*
X315092Y767367D02*
X311092Y770144D01*
G54D15*
X463280Y843200D02*
X459947Y846533D01*
X459947Y837645D01*
G54D15*
X451503Y844867D02*
X451503Y839311D01*
X452170Y838200D01*
X453503Y837645D01*
X454836Y837645D01*
X456170Y838200D01*
X456836Y839311D01*
X456836Y844867D01*
X456170Y845978D01*
X454836Y846533D01*
X453503Y846533D01*
X452170Y845978D01*
X451503Y844867D01*
G54D15*
X448392Y837645D02*
X448392Y846533D01*
G54D15*
X446392Y840978D02*
X444392Y837645D01*
G54D15*
X448392Y839867D02*
X444392Y842645D01*
G54D15*
X393180Y844100D02*
X389847Y847433D01*
X389847Y838545D01*
G54D15*
X381403Y845767D02*
X381403Y840211D01*
X382070Y839100D01*
X383403Y838545D01*
X384736Y838545D01*
X386070Y839100D01*
X386736Y840211D01*
X386736Y845767D01*
X386070Y846878D01*
X384736Y847433D01*
X383403Y847433D01*
X382070Y846878D01*
X381403Y845767D01*
G54D15*
X378292Y838545D02*
X378292Y847433D01*
G54D15*
X376292Y841878D02*
X374292Y838545D01*
G54D15*
X378292Y840767D02*
X374292Y843545D01*
G54D15*
X539680Y884700D02*
X536347Y888033D01*
X536347Y879145D01*
G54D15*
X527903Y886367D02*
X527903Y880811D01*
X528570Y879700D01*
X529903Y879145D01*
X531236Y879145D01*
X532570Y879700D01*
X533236Y880811D01*
X533236Y886367D01*
X532570Y887478D01*
X531236Y888033D01*
X529903Y888033D01*
X528570Y887478D01*
X527903Y886367D01*
G54D15*
X524792Y879145D02*
X524792Y888033D01*
G54D15*
X522792Y882478D02*
X520792Y879145D01*
G54D15*
X524792Y881367D02*
X520792Y884145D01*
G54D15*
X454380Y889000D02*
X451047Y892333D01*
X451047Y883445D01*
G54D15*
X442603Y890667D02*
X442603Y885111D01*
X443270Y884000D01*
X444603Y883445D01*
X445936Y883445D01*
X447270Y884000D01*
X447936Y885111D01*
X447936Y890667D01*
X447270Y891778D01*
X445936Y892333D01*
X444603Y892333D01*
X443270Y891778D01*
X442603Y890667D01*
G54D15*
X439492Y883445D02*
X439492Y892333D01*
G54D15*
X437492Y886778D02*
X435492Y883445D01*
G54D15*
X439492Y885667D02*
X435492Y888445D01*
G54D15*
X510980Y916445D02*
X510980Y925333D01*
X514980Y919778D01*
X514980Y918667D01*
X509647Y918667D01*
G54D15*
X506536Y925333D02*
X501203Y925333D01*
X501870Y924222D01*
X503203Y922556D01*
X504536Y920333D01*
X505203Y918667D01*
X505203Y916445D01*
G54D15*
X492759Y923667D02*
X492759Y918111D01*
X493426Y917000D01*
X494759Y916445D01*
X496092Y916445D01*
X497426Y917000D01*
X498092Y918111D01*
X498092Y923667D01*
X497426Y924778D01*
X496092Y925333D01*
X494759Y925333D01*
X493426Y924778D01*
X492759Y923667D01*
G54D15*
X527814Y985389D02*
X525814Y984278D01*
X525147Y983167D01*
X525147Y980945D01*
G54D15*
X530480Y980945D02*
X530480Y989833D01*
X527147Y989833D01*
X525814Y989278D01*
X525147Y988167D01*
X525147Y987056D01*
X525814Y985945D01*
X527147Y985389D01*
X530480Y985389D01*
G54D15*
X522036Y981500D02*
X520703Y980945D01*
X519370Y980945D01*
X518036Y981500D01*
X518036Y982611D01*
X518703Y983167D01*
X521370Y983722D01*
X522036Y984278D01*
X522036Y985389D01*
X520703Y985945D01*
X519370Y985945D01*
X518036Y985389D01*
G54D15*
X513592Y989833D02*
X513592Y981500D01*
X512925Y980945D01*
X512259Y981167D01*
G54D15*
X514925Y985945D02*
X512259Y985945D01*
G54D15*
X362546Y982592D02*
X362546Y977037D01*
X363213Y975926D01*
X364546Y975370D01*
X365880Y975370D01*
X367213Y975926D01*
X367880Y977037D01*
X367880Y982592D01*
X367213Y983704D01*
X365880Y984259D01*
X364546Y984259D01*
X363213Y983704D01*
X362546Y982592D01*
G54D15*
X355436Y975370D02*
X355436Y984259D01*
X359436Y978704D01*
X359436Y977592D01*
X354102Y977592D01*
G54D15*
X401546Y992592D02*
X401546Y987037D01*
X402213Y985926D01*
X403546Y985370D01*
X404880Y985370D01*
X406213Y985926D01*
X406880Y987037D01*
X406880Y992592D01*
X406213Y993704D01*
X404880Y994259D01*
X403546Y994259D01*
X402213Y993704D01*
X401546Y992592D01*
G54D15*
X398436Y992592D02*
X397769Y993704D01*
X396436Y994259D01*
X395102Y994259D01*
X393769Y993704D01*
X393102Y992592D01*
X393102Y991481D01*
X393769Y990370D01*
X395102Y989815D01*
X393769Y989259D01*
X393102Y988148D01*
X393102Y987037D01*
X393769Y985926D01*
X395102Y985370D01*
X396436Y985370D01*
X397769Y985926D01*
X398436Y987037D01*
G54D15*
X445546Y761592D02*
X445546Y756037D01*
X446213Y754926D01*
X447546Y754370D01*
X448880Y754370D01*
X450213Y754926D01*
X450880Y756037D01*
X450880Y761592D01*
X450213Y762704D01*
X448880Y763259D01*
X447546Y763259D01*
X446213Y762704D01*
X445546Y761592D01*
G54D15*
X442436Y759926D02*
X439102Y763259D01*
X439102Y754370D01*
G54D15*
X467546Y761592D02*
X467546Y756037D01*
X468213Y754926D01*
X469546Y754370D01*
X470880Y754370D01*
X472213Y754926D01*
X472880Y756037D01*
X472880Y761592D01*
X472213Y762704D01*
X470880Y763259D01*
X469546Y763259D01*
X468213Y762704D01*
X467546Y761592D01*
G54D15*
X459102Y754370D02*
X464436Y754370D01*
X464436Y754926D01*
X463769Y756037D01*
X459769Y759370D01*
X459102Y760481D01*
X459102Y761592D01*
X459769Y762704D01*
X461102Y763259D01*
X462436Y763259D01*
X463769Y762704D01*
X464436Y761592D01*
G54D10*
X891700Y797600D02*
X651700Y797600D01*
X651700Y957600D01*
X891700Y957600D01*
X891700Y797600D01*
G54D11*
X619722Y913010D02*
X619722Y881609D01*
X603722Y881609D01*
X603722Y913010D01*
X619722Y913010D01*
G54D11*
X611722Y906410D02*
X611722Y898409D01*
X616722Y898409D01*
X606722Y898409D01*
G54D11*
X616722Y896409D02*
X606722Y896409D01*
G54D11*
X611722Y896409D02*
X611722Y888409D01*
G54D12*
X646350Y916959D02*
X646350Y916266D01*
X645772Y916266D01*
X645772Y916959D01*
X646350Y916959D01*
X646350Y916266D01*
G54D12*
X636850Y916959D02*
X636850Y916266D01*
X636272Y916266D01*
X636272Y916959D01*
X636850Y916959D01*
X636850Y916266D01*
G54D13*
X620647Y871855D02*
X620647Y863522D01*
X621647Y861855D01*
X623647Y861022D01*
X625647Y861022D01*
X627647Y861855D01*
X628647Y863522D01*
X628647Y871855D01*
X627647Y873522D01*
X625647Y874355D01*
X623647Y874355D01*
X621647Y873522D01*
X620647Y871855D01*
G54D13*
X615980Y874355D02*
X610980Y861022D01*
X605980Y874355D01*
G54D14*
X616277Y925956D02*
X605610Y925956D01*
G54D14*
X610944Y930401D02*
X610944Y921512D01*
G54D15*
X744880Y976370D02*
X744880Y985259D01*
X741546Y979704D01*
X738213Y985259D01*
X738213Y976370D01*
G54D16*
X799701Y903516D02*
X799701Y872316D01*
X815301Y872316D01*
X815301Y903516D01*
X799701Y903516D01*
G54D12*
X771822Y910817D02*
X771822Y910124D01*
X772399Y910124D01*
X772399Y910817D01*
X771822Y910817D01*
X771822Y910124D01*
G54D12*
X791324Y910816D02*
X791324Y910122D01*
X791902Y910122D01*
X791902Y910816D01*
X791324Y910816D01*
X791324Y910122D01*
G54D16*
X759001Y902816D02*
X759001Y871616D01*
X774601Y871616D01*
X774601Y902816D01*
X759001Y902816D01*
G54D12*
X731122Y910117D02*
X731122Y909424D01*
X731699Y909424D01*
X731699Y910117D01*
X731122Y910117D01*
X731122Y909424D01*
G54D12*
X750624Y910116D02*
X750624Y909422D01*
X751202Y909422D01*
X751202Y910116D01*
X750624Y910116D01*
X750624Y909422D01*
G54D16*
X750612Y921328D02*
X781812Y921328D01*
X781812Y936928D01*
X750612Y936928D01*
X750612Y921328D01*
G54D12*
X743311Y893448D02*
X744004Y893448D01*
X744004Y894026D01*
X743311Y894026D01*
X743311Y893448D01*
X744004Y893448D01*
G54D12*
X743312Y912951D02*
X744005Y912951D01*
X744005Y913529D01*
X743312Y913529D01*
X743312Y912951D01*
X744005Y912951D01*
G54D16*
X697401Y857716D02*
X697401Y826516D01*
X713001Y826516D01*
X713001Y857716D01*
X697401Y857716D01*
G54D12*
X669522Y865017D02*
X669522Y864324D01*
X670099Y864324D01*
X670099Y865017D01*
X669522Y865017D01*
X669522Y864324D01*
G54D12*
X689024Y865016D02*
X689024Y864322D01*
X689602Y864322D01*
X689602Y865016D01*
X689024Y865016D01*
X689024Y864322D01*
G54D16*
X722101Y857816D02*
X722101Y826616D01*
X737701Y826616D01*
X737701Y857816D01*
X722101Y857816D01*
G54D12*
X694222Y865117D02*
X694222Y864424D01*
X694799Y864424D01*
X694799Y865117D01*
X694222Y865117D01*
X694222Y864424D01*
G54D12*
X713724Y865116D02*
X713724Y864422D01*
X714302Y864422D01*
X714302Y865116D01*
X713724Y865116D01*
X713724Y864422D01*
G54D16*
X640912Y762928D02*
X672112Y762928D01*
X672112Y778528D01*
X640912Y778528D01*
X640912Y762928D01*
G54D12*
X633611Y735048D02*
X634304Y735048D01*
X634304Y735626D01*
X633611Y735626D01*
X633611Y735048D01*
X634304Y735048D01*
G54D12*
X633612Y754551D02*
X634305Y754551D01*
X634305Y755129D01*
X633612Y755129D01*
X633612Y754551D01*
X634305Y754551D01*
G54D15*
X715280Y755444D02*
X715280Y764333D01*
X711947Y764333D01*
X710614Y763778D01*
X709947Y762667D01*
X709947Y761556D01*
X710614Y760444D01*
X711947Y759889D01*
X710614Y759333D01*
X709947Y758222D01*
X709947Y757111D01*
X710614Y756000D01*
X711947Y755444D01*
X715280Y755444D01*
G54D15*
X715280Y759889D02*
X711947Y759889D01*
G54D15*
X706836Y764333D02*
X706836Y757111D01*
X706170Y756000D01*
X704836Y755444D01*
X703503Y755444D01*
X702170Y756000D01*
X701503Y757111D01*
X701503Y764333D01*
G54D15*
X695726Y759889D02*
X693726Y758778D01*
X693059Y757667D01*
X693059Y755444D01*
G54D15*
X698392Y755444D02*
X698392Y764333D01*
X695059Y764333D01*
X693726Y763778D01*
X693059Y762667D01*
X693059Y761556D01*
X693726Y760444D01*
X695059Y759889D01*
X698392Y759889D01*
G54D15*
X689948Y755444D02*
X689948Y764333D01*
X684615Y755444D01*
X684615Y764333D01*
G54D15*
X818214Y755044D02*
X818214Y763934D01*
G54D15*
X820880Y763934D02*
X815547Y763934D01*
G54D15*
X812436Y760044D02*
X807103Y755044D01*
G54D15*
X812436Y755044D02*
X807103Y760044D01*
G54D15*
X795714Y759389D02*
X793714Y758278D01*
X793047Y757167D01*
X793047Y754944D01*
G54D15*
X798380Y754944D02*
X798380Y763834D01*
X795047Y763834D01*
X793714Y763278D01*
X793047Y762167D01*
X793047Y761056D01*
X793714Y759944D01*
X795047Y759389D01*
X798380Y759389D01*
G54D15*
X789936Y759944D02*
X784603Y754944D01*
G54D15*
X789936Y754944D02*
X784603Y759944D01*
G54D15*
X627980Y770700D02*
X624647Y774033D01*
X624647Y765144D01*
G54D15*
X616203Y772367D02*
X616203Y766811D01*
X616870Y765700D01*
X618203Y765144D01*
X619536Y765144D01*
X620870Y765700D01*
X621536Y766811D01*
X621536Y772367D01*
X620870Y773478D01*
X619536Y774033D01*
X618203Y774033D01*
X616870Y773478D01*
X616203Y772367D01*
G54D15*
X613092Y765144D02*
X613092Y774033D01*
G54D15*
X611092Y768478D02*
X609092Y765144D01*
G54D15*
X613092Y767367D02*
X609092Y770144D01*
G54D15*
X761280Y843200D02*
X757947Y846533D01*
X757947Y837645D01*
G54D15*
X749503Y844867D02*
X749503Y839311D01*
X750170Y838200D01*
X751503Y837645D01*
X752836Y837645D01*
X754170Y838200D01*
X754836Y839311D01*
X754836Y844867D01*
X754170Y845978D01*
X752836Y846533D01*
X751503Y846533D01*
X750170Y845978D01*
X749503Y844867D01*
G54D15*
X746392Y837645D02*
X746392Y846533D01*
G54D15*
X744392Y840978D02*
X742392Y837645D01*
G54D15*
X746392Y839867D02*
X742392Y842645D01*
G54D15*
X691180Y844100D02*
X687847Y847433D01*
X687847Y838545D01*
G54D15*
X679403Y845767D02*
X679403Y840211D01*
X680070Y839100D01*
X681403Y838545D01*
X682736Y838545D01*
X684070Y839100D01*
X684736Y840211D01*
X684736Y845767D01*
X684070Y846878D01*
X682736Y847433D01*
X681403Y847433D01*
X680070Y846878D01*
X679403Y845767D01*
G54D15*
X676292Y838545D02*
X676292Y847433D01*
G54D15*
X674292Y841878D02*
X672292Y838545D01*
G54D15*
X676292Y840767D02*
X672292Y843545D01*
G54D15*
X837680Y884700D02*
X834347Y888033D01*
X834347Y879145D01*
G54D15*
X825903Y886367D02*
X825903Y880811D01*
X826570Y879700D01*
X827903Y879145D01*
X829236Y879145D01*
X830570Y879700D01*
X831236Y880811D01*
X831236Y886367D01*
X830570Y887478D01*
X829236Y888033D01*
X827903Y888033D01*
X826570Y887478D01*
X825903Y886367D01*
G54D15*
X822792Y879145D02*
X822792Y888033D01*
G54D15*
X820792Y882478D02*
X818792Y879145D01*
G54D15*
X822792Y881367D02*
X818792Y884145D01*
G54D15*
X752380Y889000D02*
X749047Y892333D01*
X749047Y883445D01*
G54D15*
X740603Y890667D02*
X740603Y885111D01*
X741270Y884000D01*
X742603Y883445D01*
X743936Y883445D01*
X745270Y884000D01*
X745936Y885111D01*
X745936Y890667D01*
X745270Y891778D01*
X743936Y892333D01*
X742603Y892333D01*
X741270Y891778D01*
X740603Y890667D01*
G54D15*
X737492Y883445D02*
X737492Y892333D01*
G54D15*
X735492Y886778D02*
X733492Y883445D01*
G54D15*
X737492Y885667D02*
X733492Y888445D01*
G54D15*
X808980Y916445D02*
X808980Y925333D01*
X812980Y919778D01*
X812980Y918667D01*
X807647Y918667D01*
G54D15*
X804536Y925333D02*
X799203Y925333D01*
X799870Y924222D01*
X801203Y922556D01*
X802536Y920333D01*
X803203Y918667D01*
X803203Y916445D01*
G54D15*
X790759Y923667D02*
X790759Y918111D01*
X791426Y917000D01*
X792759Y916445D01*
X794092Y916445D01*
X795426Y917000D01*
X796092Y918111D01*
X796092Y923667D01*
X795426Y924778D01*
X794092Y925333D01*
X792759Y925333D01*
X791426Y924778D01*
X790759Y923667D01*
G54D15*
X825814Y985389D02*
X823814Y984278D01*
X823147Y983167D01*
X823147Y980945D01*
G54D15*
X828480Y980945D02*
X828480Y989833D01*
X825147Y989833D01*
X823814Y989278D01*
X823147Y988167D01*
X823147Y987056D01*
X823814Y985945D01*
X825147Y985389D01*
X828480Y985389D01*
G54D15*
X820036Y981500D02*
X818703Y980945D01*
X817370Y980945D01*
X816036Y981500D01*
X816036Y982611D01*
X816703Y983167D01*
X819370Y983722D01*
X820036Y984278D01*
X820036Y985389D01*
X818703Y985945D01*
X817370Y985945D01*
X816036Y985389D01*
G54D15*
X811592Y989833D02*
X811592Y981500D01*
X810925Y980945D01*
X810259Y981167D01*
G54D15*
X812925Y985945D02*
X810259Y985945D01*
G54D15*
X660546Y982592D02*
X660546Y977037D01*
X661213Y975926D01*
X662546Y975370D01*
X663880Y975370D01*
X665213Y975926D01*
X665880Y977037D01*
X665880Y982592D01*
X665213Y983704D01*
X663880Y984259D01*
X662546Y984259D01*
X661213Y983704D01*
X660546Y982592D01*
G54D15*
X653436Y975370D02*
X653436Y984259D01*
X657436Y978704D01*
X657436Y977592D01*
X652102Y977592D01*
G54D15*
X699546Y992592D02*
X699546Y987037D01*
X700213Y985926D01*
X701546Y985370D01*
X702880Y985370D01*
X704213Y985926D01*
X704880Y987037D01*
X704880Y992592D01*
X704213Y993704D01*
X702880Y994259D01*
X701546Y994259D01*
X700213Y993704D01*
X699546Y992592D01*
G54D15*
X696436Y992592D02*
X695769Y993704D01*
X694436Y994259D01*
X693102Y994259D01*
X691769Y993704D01*
X691102Y992592D01*
X691102Y991481D01*
X691769Y990370D01*
X693102Y989815D01*
X691769Y989259D01*
X691102Y988148D01*
X691102Y987037D01*
X691769Y985926D01*
X693102Y985370D01*
X694436Y985370D01*
X695769Y985926D01*
X696436Y987037D01*
G54D15*
X743546Y761592D02*
X743546Y756037D01*
X744213Y754926D01*
X745546Y754370D01*
X746880Y754370D01*
X748213Y754926D01*
X748880Y756037D01*
X748880Y761592D01*
X748213Y762704D01*
X746880Y763259D01*
X745546Y763259D01*
X744213Y762704D01*
X743546Y761592D01*
G54D15*
X740436Y759926D02*
X737102Y763259D01*
X737102Y754370D01*
G54D15*
X765546Y761592D02*
X765546Y756037D01*
X766213Y754926D01*
X767546Y754370D01*
X768880Y754370D01*
X770213Y754926D01*
X770880Y756037D01*
X770880Y761592D01*
X770213Y762704D01*
X768880Y763259D01*
X767546Y763259D01*
X766213Y762704D01*
X765546Y761592D01*
G54D15*
X757102Y754370D02*
X762436Y754370D01*
X762436Y754926D01*
X761769Y756037D01*
X757769Y759370D01*
X757102Y760481D01*
X757102Y761592D01*
X757769Y762704D01*
X759102Y763259D01*
X760436Y763259D01*
X761769Y762704D01*
X762436Y761592D01*
G54D10*
X281575Y568700D02*
X6575Y568700D01*
X6575Y658700D01*
X281575Y658700D01*
X281575Y568700D01*
G54D17*
X247492Y487052D02*
X247492Y503052D01*
X239092Y503052D01*
G54D17*
X247492Y495052D02*
X239092Y495052D01*
G54D17*
X289384Y486552D02*
X289384Y502552D01*
X279783Y486552D01*
X279783Y502552D01*
G54D13*
X167183Y487885D02*
X167183Y501218D01*
X159183Y487885D01*
X159183Y501218D01*
G54D18*
X130656Y487822D02*
X130656Y501155D01*
G54D18*
X134656Y501155D02*
X126656Y501155D01*
G54D18*
X114989Y498655D02*
X114989Y490322D01*
X115989Y488655D01*
X117989Y487822D01*
X119989Y487822D01*
X121989Y488655D01*
X122989Y490322D01*
X122989Y498655D01*
X121989Y500322D01*
X119989Y501155D01*
X117989Y501155D01*
X115989Y500322D01*
X114989Y498655D01*
G54D19*
X293724Y551593D02*
X289724Y540926D01*
X285724Y551593D01*
G54D19*
X281991Y546926D02*
X278791Y540926D01*
X275591Y546926D01*
G54D19*
X267058Y542526D02*
X267058Y545193D01*
X267858Y546526D01*
X269458Y546926D01*
X271058Y546526D01*
X271858Y545193D01*
X271858Y542526D01*
X271058Y541193D01*
X269458Y540926D01*
X267858Y541193D01*
X267058Y542526D01*
G54D19*
X258525Y540926D02*
X258525Y551593D01*
G54D19*
X258525Y545193D02*
X259325Y546526D01*
X260925Y546926D01*
X262525Y546526D01*
X263325Y545193D01*
X263325Y542526D01*
X262525Y541193D01*
X260925Y540926D01*
X259325Y541193D01*
X258525Y542526D01*
G54D19*
X250899Y545593D02*
X250259Y546526D01*
X249299Y547060D01*
X248019Y547060D01*
X247059Y546526D01*
X246259Y545593D01*
X245619Y544660D01*
X244659Y544126D01*
X243219Y544126D01*
X242419Y544660D01*
X241779Y545593D01*
G54D19*
X231646Y540926D02*
X238046Y540926D01*
X238046Y541593D01*
X237246Y542926D01*
X232446Y546926D01*
X231646Y548260D01*
X231646Y549593D01*
X232446Y550926D01*
X234046Y551593D01*
X235646Y551593D01*
X237246Y550926D01*
X238046Y549593D01*
G54D19*
X221513Y540926D02*
X227913Y540926D01*
X227913Y541593D01*
X227113Y542926D01*
X222313Y546926D01*
X221513Y548260D01*
X221513Y549593D01*
X222313Y550926D01*
X223913Y551593D01*
X225513Y551593D01*
X227113Y550926D01*
X227913Y549593D01*
G54D19*
X211380Y549593D02*
X211380Y542926D01*
X212180Y541593D01*
X213780Y540926D01*
X215380Y540926D01*
X216980Y541593D01*
X217780Y542926D01*
X217780Y549593D01*
X216980Y550926D01*
X215380Y551593D01*
X213780Y551593D01*
X212180Y550926D01*
X211380Y549593D01*
G54D19*
X207647Y551593D02*
X203647Y540926D01*
X199647Y551593D01*
G54D13*
X67204Y487885D02*
X67204Y501218D01*
X59204Y487885D01*
X59204Y501218D01*
G54D18*
X30676Y487822D02*
X30676Y501155D01*
G54D18*
X34676Y501155D02*
X26676Y501155D01*
G54D18*
X15009Y498655D02*
X15009Y490322D01*
X16009Y488655D01*
X18009Y487822D01*
X20009Y487822D01*
X22009Y488655D01*
X23009Y490322D01*
X23009Y498655D01*
X22009Y500322D01*
X20009Y501155D01*
X18009Y501155D01*
X16009Y500322D01*
X15009Y498655D01*
G54D16*
X72775Y620599D02*
X103975Y620599D01*
X103975Y636199D01*
X72775Y636199D01*
X72775Y620599D01*
G54D12*
X48076Y595921D02*
X48770Y595921D01*
X48770Y596499D01*
X48076Y596499D01*
X48076Y595921D01*
X48770Y595921D01*
G54D12*
X65475Y612223D02*
X66169Y612223D01*
X66169Y612801D01*
X65475Y612801D01*
X65475Y612223D01*
X66169Y612223D01*
G54D16*
X56056Y583699D02*
X87256Y583699D01*
X87256Y599299D01*
X56056Y599299D01*
X56056Y583699D01*
G54D12*
X43755Y555821D02*
X44448Y555821D01*
X44448Y556399D01*
X43755Y556399D01*
X43755Y555821D01*
X44448Y555821D01*
G54D12*
X48757Y575322D02*
X49451Y575322D01*
X49451Y575900D01*
X48757Y575900D01*
X48757Y575322D01*
X49451Y575322D01*
G54D16*
X165375Y584699D02*
X196575Y584699D01*
X196575Y600299D01*
X165375Y600299D01*
X165375Y584699D01*
G54D12*
X153075Y556820D02*
X153769Y556820D01*
X153769Y557398D01*
X153075Y557398D01*
X153075Y556820D01*
X153769Y556820D01*
G54D12*
X158074Y576322D02*
X158768Y576322D01*
X158768Y576900D01*
X158074Y576900D01*
X158074Y576322D01*
X158768Y576322D01*
G54D16*
X110375Y584699D02*
X141575Y584699D01*
X141575Y600299D01*
X110375Y600299D01*
X110375Y584699D01*
G54D12*
X98074Y556819D02*
X98768Y556819D01*
X98768Y557397D01*
X98074Y557397D01*
X98074Y556819D01*
X98768Y556819D01*
G54D12*
X103076Y576322D02*
X103769Y576322D01*
X103769Y576900D01*
X103076Y576900D01*
X103076Y576322D01*
X103769Y576322D01*
G54D16*
X182775Y621599D02*
X213975Y621599D01*
X213975Y637199D01*
X182776Y637199D01*
X182775Y621599D01*
G54D12*
X158074Y596922D02*
X158768Y596922D01*
X158768Y597500D01*
X158074Y597500D01*
X158074Y596922D01*
X158768Y596922D01*
G54D12*
X175474Y613223D02*
X176168Y613223D01*
X176168Y613801D01*
X175474Y613801D01*
X175474Y613223D01*
X176168Y613223D01*
G54D16*
X127776Y621599D02*
X158975Y621599D01*
X158975Y637199D01*
X127776Y637199D01*
X127776Y621599D01*
G54D12*
X103076Y596923D02*
X103769Y596923D01*
X103769Y597501D01*
X103076Y597501D01*
X103076Y596923D01*
X103769Y596923D01*
G54D12*
X120474Y613221D02*
X121168Y613221D01*
X121168Y613799D01*
X120474Y613799D01*
X120474Y613221D01*
X121168Y613221D01*
G54D10*
X235803Y653503D02*
X235803Y563503D01*
X45803Y563503D01*
X45803Y653503D01*
X235803Y653503D01*
G54D10*
X163301Y743103D02*
X226801Y743103D01*
X226801Y666903D01*
X163301Y666903D01*
X163301Y743103D01*
G54D15*
X199956Y681569D02*
X199956Y676013D01*
X200623Y674902D01*
X201956Y674347D01*
X203290Y674347D01*
X204623Y674902D01*
X205290Y676013D01*
X205290Y681569D01*
X204623Y682680D01*
X203290Y683236D01*
X201956Y683236D01*
X200623Y682680D01*
X199956Y681569D01*
G54D15*
X196846Y683236D02*
X193512Y674347D01*
X190179Y683236D01*
G54D14*
X297531Y699739D02*
X286864Y699739D01*
G54D14*
X292198Y704183D02*
X292198Y695295D01*
G54D15*
X288956Y667569D02*
X288956Y662013D01*
X289623Y660902D01*
X290956Y660347D01*
X292290Y660347D01*
X293623Y660902D01*
X294290Y662013D01*
X294290Y667569D01*
X293623Y668680D01*
X292290Y669236D01*
X290956Y669236D01*
X289623Y668680D01*
X288956Y667569D01*
G54D15*
X285846Y669236D02*
X282512Y660347D01*
X279179Y669236D01*
G54D16*
X229700Y736250D02*
X229700Y744250D01*
X270900Y744250D01*
X270900Y736250D01*
G54D16*
G75*
G01X229600Y736350D02*
G03X271000Y736350I20700J0D01*
G01*
G54D20*
X269660Y722050D02*
X269660Y729150D01*
G54D20*
X267660Y722050D02*
X267660Y729150D01*
X263360Y722050D01*
X263360Y729150D01*
G54D14*
X201531Y724739D02*
X190864Y724739D01*
G54D14*
X196198Y729183D02*
X196198Y720295D01*
G54D20*
X294660Y740050D02*
X294660Y747150D01*
G54D20*
X292660Y740050D02*
X292660Y747150D01*
X288360Y740050D01*
X288360Y747150D01*
G54D20*
X275140Y695850D02*
X275140Y691350D01*
X275740Y690450D01*
X276740Y690050D01*
X277840Y690050D01*
X278940Y690450D01*
X279440Y691350D01*
X279440Y695850D01*
X278940Y696750D01*
X277840Y697150D01*
X276740Y697150D01*
X275740Y696750D01*
X275140Y695850D01*
G54D20*
X273140Y697150D02*
X273140Y691350D01*
X272640Y690450D01*
X271540Y690050D01*
X270440Y690050D01*
X269440Y690450D01*
X268840Y691350D01*
X268840Y697150D01*
G54D20*
X264740Y690050D02*
X264740Y697150D01*
G54D20*
X266840Y697150D02*
X262540Y697150D01*
G54D15*
X286268Y744464D02*
X280935Y744464D01*
G54D15*
X283601Y746687D02*
X283601Y742242D01*
G54D10*
X579870Y568305D02*
X304870Y568305D01*
X304870Y658305D01*
X579870Y658305D01*
X579870Y568305D01*
G54D17*
X545787Y486656D02*
X545787Y502656D01*
X537387Y502656D01*
G54D17*
X545787Y494656D02*
X537387Y494656D01*
G54D17*
X587678Y486156D02*
X587678Y502156D01*
X578078Y486156D01*
X578078Y502156D01*
G54D13*
X465478Y487489D02*
X465478Y500823D01*
X457478Y487489D01*
X457478Y500823D01*
G54D18*
X428950Y487426D02*
X428950Y500760D01*
G54D18*
X432950Y500760D02*
X424950Y500760D01*
G54D18*
X413283Y498260D02*
X413283Y489926D01*
X414283Y488260D01*
X416283Y487426D01*
X418283Y487426D01*
X420283Y488260D01*
X421283Y489926D01*
X421283Y498260D01*
X420283Y499926D01*
X418283Y500760D01*
X416283Y500760D01*
X414283Y499926D01*
X413283Y498260D01*
G54D19*
X592019Y551198D02*
X588019Y540531D01*
X584019Y551198D01*
G54D19*
X580286Y546531D02*
X577086Y540531D01*
X573886Y546531D01*
G54D19*
X565353Y542131D02*
X565353Y544798D01*
X566153Y546131D01*
X567753Y546531D01*
X569353Y546131D01*
X570153Y544798D01*
X570153Y542131D01*
X569353Y540798D01*
X567753Y540531D01*
X566153Y540798D01*
X565353Y542131D01*
G54D19*
X556820Y540531D02*
X556820Y551198D01*
G54D19*
X556820Y544798D02*
X557620Y546131D01*
X559220Y546531D01*
X560820Y546131D01*
X561620Y544798D01*
X561620Y542131D01*
X560820Y540798D01*
X559220Y540531D01*
X557620Y540798D01*
X556820Y542131D01*
G54D19*
X549194Y545198D02*
X548554Y546131D01*
X547594Y546665D01*
X546314Y546665D01*
X545354Y546131D01*
X544554Y545198D01*
X543914Y544265D01*
X542954Y543731D01*
X541514Y543731D01*
X540714Y544265D01*
X540074Y545198D01*
G54D19*
X529941Y540531D02*
X536341Y540531D01*
X536341Y541198D01*
X535541Y542531D01*
X530741Y546531D01*
X529941Y547865D01*
X529941Y549198D01*
X530741Y550531D01*
X532341Y551198D01*
X533941Y551198D01*
X535541Y550531D01*
X536341Y549198D01*
G54D19*
X519808Y540531D02*
X526208Y540531D01*
X526208Y541198D01*
X525408Y542531D01*
X520608Y546531D01*
X519808Y547865D01*
X519808Y549198D01*
X520608Y550531D01*
X522208Y551198D01*
X523808Y551198D01*
X525408Y550531D01*
X526208Y549198D01*
G54D19*
X509675Y549198D02*
X509675Y542531D01*
X510475Y541198D01*
X512075Y540531D01*
X513675Y540531D01*
X515275Y541198D01*
X516075Y542531D01*
X516075Y549198D01*
X515275Y550531D01*
X513675Y551198D01*
X512075Y551198D01*
X510475Y550531D01*
X509675Y549198D01*
G54D19*
X505942Y551198D02*
X501942Y540531D01*
X497942Y551198D01*
G54D13*
X365498Y487490D02*
X365498Y500823D01*
X357498Y487490D01*
X357498Y500823D01*
G54D18*
X328970Y487427D02*
X328970Y500760D01*
G54D18*
X332970Y500760D02*
X324970Y500760D01*
G54D18*
X313304Y498260D02*
X313304Y489927D01*
X314304Y488260D01*
X316304Y487427D01*
X318304Y487427D01*
X320304Y488260D01*
X321304Y489927D01*
X321304Y498260D01*
X320304Y499927D01*
X318304Y500760D01*
X316304Y500760D01*
X314304Y499927D01*
X313304Y498260D01*
G54D16*
X371070Y620204D02*
X402270Y620204D01*
X402270Y635804D01*
X371070Y635804D01*
X371070Y620204D01*
G54D12*
X346371Y595526D02*
X347064Y595526D01*
X347064Y596104D01*
X346371Y596104D01*
X346371Y595526D01*
X347064Y595526D01*
G54D12*
X363770Y611828D02*
X364463Y611828D01*
X364463Y612406D01*
X363770Y612406D01*
X363770Y611828D01*
X364463Y611828D01*
G54D16*
X354351Y583304D02*
X385550Y583304D01*
X385550Y598904D01*
X354350Y598904D01*
X354351Y583304D01*
G54D12*
X342050Y555426D02*
X342743Y555426D01*
X342743Y556003D01*
X342050Y556003D01*
X342050Y555426D01*
X342743Y555426D01*
G54D12*
X347052Y574927D02*
X347745Y574927D01*
X347745Y575505D01*
X347052Y575505D01*
X347052Y574927D01*
X347745Y574927D01*
G54D16*
X463670Y584304D02*
X494870Y584304D01*
X494870Y599904D01*
X463670Y599904D01*
X463670Y584304D01*
G54D12*
X451370Y556425D02*
X452063Y556425D01*
X452063Y557002D01*
X451370Y557002D01*
X451370Y556425D01*
X452063Y556425D01*
G54D12*
X456369Y575927D02*
X457062Y575927D01*
X457062Y576505D01*
X456369Y576505D01*
X456369Y575927D01*
X457062Y575927D01*
G54D16*
X408670Y584304D02*
X439870Y584304D01*
X439870Y599904D01*
X408670Y599904D01*
X408670Y584304D01*
G54D12*
X396369Y556424D02*
X397062Y556424D01*
X397062Y557002D01*
X396369Y557002D01*
X396369Y556424D01*
X397062Y556424D01*
G54D12*
X401370Y575927D02*
X402064Y575927D01*
X402064Y576505D01*
X401370Y576505D01*
X401370Y575927D01*
X402064Y575927D01*
G54D16*
X481070Y621204D02*
X512270Y621204D01*
X512270Y636804D01*
X481070Y636804D01*
X481070Y621204D01*
G54D12*
X456369Y596527D02*
X457062Y596527D01*
X457062Y597104D01*
X456369Y597104D01*
X456369Y596527D01*
X457062Y596527D01*
G54D12*
X473769Y612828D02*
X474462Y612828D01*
X474462Y613406D01*
X473769Y613406D01*
X473769Y612828D01*
X474462Y612828D01*
G54D16*
X426070Y621204D02*
X457270Y621204D01*
X457270Y636804D01*
X426070Y636804D01*
X426070Y621204D01*
G54D12*
X401370Y596528D02*
X402064Y596528D01*
X402064Y597106D01*
X401370Y597106D01*
X401370Y596528D01*
X402064Y596528D01*
G54D12*
X418769Y612826D02*
X419462Y612826D01*
X419462Y613404D01*
X418769Y613404D01*
X418769Y612826D01*
X419462Y612826D01*
G54D10*
X534098Y653108D02*
X534098Y563108D01*
X344098Y563108D01*
X344098Y653108D01*
X534098Y653108D01*
G54D10*
X461595Y742707D02*
X525095Y742707D01*
X525095Y666507D01*
X461595Y666507D01*
X461595Y742707D01*
G54D15*
X498251Y681174D02*
X498251Y675618D01*
X498918Y674507D01*
X500251Y673951D01*
X501584Y673951D01*
X502918Y674507D01*
X503584Y675618D01*
X503584Y681174D01*
X502918Y682285D01*
X501584Y682840D01*
X500251Y682840D01*
X498918Y682285D01*
X498251Y681174D01*
G54D15*
X495140Y682840D02*
X491807Y673951D01*
X488474Y682840D01*
G54D14*
X595825Y699344D02*
X585159Y699344D01*
G54D14*
X590492Y703788D02*
X590492Y694899D01*
G54D15*
X587251Y667174D02*
X587251Y661618D01*
X587918Y660507D01*
X589251Y659951D01*
X590584Y659951D01*
X591918Y660507D01*
X592584Y661618D01*
X592584Y667174D01*
X591918Y668285D01*
X590584Y668840D01*
X589251Y668840D01*
X587918Y668285D01*
X587251Y667174D01*
G54D15*
X584140Y668840D02*
X580807Y659951D01*
X577474Y668840D01*
G54D16*
X527994Y735855D02*
X527994Y743855D01*
X569194Y743855D01*
X569194Y735855D01*
G54D16*
G75*
G01X527895Y735955D02*
G03X569295Y735955I20700J0D01*
G01*
G54D20*
X567955Y721655D02*
X567955Y728755D01*
G54D20*
X565954Y721655D02*
X565954Y728755D01*
X561654Y721655D01*
X561655Y728755D01*
G54D14*
X499825Y724344D02*
X489159Y724344D01*
G54D14*
X494492Y728788D02*
X494492Y719899D01*
G54D20*
X592955Y739655D02*
X592955Y746755D01*
G54D20*
X590954Y739655D02*
X590954Y746755D01*
X586654Y739655D01*
X586655Y746755D01*
G54D20*
X573435Y695455D02*
X573435Y690955D01*
X574034Y690055D01*
X575035Y689655D01*
X576134Y689655D01*
X577234Y690055D01*
X577734Y690955D01*
X577734Y695455D01*
X577235Y696355D01*
X576134Y696755D01*
X575035Y696755D01*
X574035Y696355D01*
X573435Y695455D01*
G54D20*
X571434Y696755D02*
X571434Y690955D01*
X570934Y690055D01*
X569835Y689655D01*
X568734Y689655D01*
X567735Y690055D01*
X567134Y690955D01*
X567135Y696755D01*
G54D20*
X563034Y689655D02*
X563034Y696755D01*
G54D20*
X565134Y696755D02*
X560835Y696755D01*
G54D15*
X584563Y744069D02*
X579229Y744069D01*
G54D15*
X581896Y746291D02*
X581896Y741847D01*
G54D10*
X876870Y568305D02*
X601870Y568305D01*
X601870Y658305D01*
X876870Y658305D01*
X876870Y568305D01*
G54D17*
X842787Y486656D02*
X842787Y502656D01*
X834387Y502656D01*
G54D17*
X842787Y494656D02*
X834387Y494656D01*
G54D17*
X884678Y486156D02*
X884678Y502156D01*
X875078Y486156D01*
X875078Y502156D01*
G54D13*
X762478Y487489D02*
X762478Y500823D01*
X754478Y487489D01*
X754478Y500823D01*
G54D18*
X725950Y487426D02*
X725950Y500760D01*
G54D18*
X729950Y500760D02*
X721950Y500760D01*
G54D18*
X710283Y498260D02*
X710283Y489926D01*
X711283Y488260D01*
X713283Y487426D01*
X715283Y487426D01*
X717283Y488260D01*
X718283Y489926D01*
X718283Y498260D01*
X717283Y499926D01*
X715283Y500760D01*
X713283Y500760D01*
X711283Y499926D01*
X710283Y498260D01*
G54D19*
X889019Y551198D02*
X885019Y540531D01*
X881019Y551198D01*
G54D19*
X877286Y546531D02*
X874086Y540531D01*
X870886Y546531D01*
G54D19*
X862353Y542131D02*
X862353Y544798D01*
X863153Y546131D01*
X864753Y546531D01*
X866353Y546131D01*
X867153Y544798D01*
X867153Y542131D01*
X866353Y540798D01*
X864753Y540531D01*
X863153Y540798D01*
X862353Y542131D01*
G54D19*
X853820Y540531D02*
X853820Y551198D01*
G54D19*
X853820Y544798D02*
X854620Y546131D01*
X856220Y546531D01*
X857820Y546131D01*
X858620Y544798D01*
X858620Y542131D01*
X857820Y540798D01*
X856220Y540531D01*
X854620Y540798D01*
X853820Y542131D01*
G54D19*
X846194Y545198D02*
X845554Y546131D01*
X844594Y546665D01*
X843314Y546665D01*
X842354Y546131D01*
X841554Y545198D01*
X840914Y544265D01*
X839954Y543731D01*
X838514Y543731D01*
X837714Y544265D01*
X837074Y545198D01*
G54D19*
X826941Y540531D02*
X833341Y540531D01*
X833341Y541198D01*
X832541Y542531D01*
X827741Y546531D01*
X826941Y547865D01*
X826941Y549198D01*
X827741Y550531D01*
X829341Y551198D01*
X830941Y551198D01*
X832541Y550531D01*
X833341Y549198D01*
G54D19*
X816808Y540531D02*
X823208Y540531D01*
X823208Y541198D01*
X822408Y542531D01*
X817608Y546531D01*
X816808Y547865D01*
X816808Y549198D01*
X817608Y550531D01*
X819208Y551198D01*
X820808Y551198D01*
X822408Y550531D01*
X823208Y549198D01*
G54D19*
X806675Y549198D02*
X806675Y542531D01*
X807475Y541198D01*
X809075Y540531D01*
X810675Y540531D01*
X812275Y541198D01*
X813075Y542531D01*
X813075Y549198D01*
X812275Y550531D01*
X810675Y551198D01*
X809075Y551198D01*
X807475Y550531D01*
X806675Y549198D01*
G54D19*
X802942Y551198D02*
X798942Y540531D01*
X794942Y551198D01*
G54D13*
X662498Y487490D02*
X662498Y500823D01*
X654498Y487490D01*
X654498Y500823D01*
G54D18*
X625970Y487427D02*
X625970Y500760D01*
G54D18*
X629970Y500760D02*
X621970Y500760D01*
G54D18*
X610304Y498260D02*
X610304Y489927D01*
X611304Y488260D01*
X613304Y487427D01*
X615304Y487427D01*
X617304Y488260D01*
X618304Y489927D01*
X618304Y498260D01*
X617304Y499927D01*
X615304Y500760D01*
X613304Y500760D01*
X611304Y499927D01*
X610304Y498260D01*
G54D16*
X668070Y620204D02*
X699270Y620204D01*
X699270Y635804D01*
X668070Y635804D01*
X668070Y620204D01*
G54D12*
X643371Y595526D02*
X644064Y595526D01*
X644064Y596104D01*
X643371Y596104D01*
X643371Y595526D01*
X644064Y595526D01*
G54D12*
X660770Y611828D02*
X661463Y611828D01*
X661463Y612406D01*
X660770Y612406D01*
X660770Y611828D01*
X661463Y611828D01*
G54D16*
X651351Y583304D02*
X682550Y583304D01*
X682550Y598904D01*
X651350Y598904D01*
X651351Y583304D01*
G54D12*
X639050Y555426D02*
X639743Y555426D01*
X639743Y556003D01*
X639050Y556003D01*
X639050Y555426D01*
X639743Y555426D01*
G54D12*
X644052Y574927D02*
X644745Y574927D01*
X644745Y575505D01*
X644052Y575505D01*
X644052Y574927D01*
X644745Y574927D01*
G54D16*
X760670Y584304D02*
X791870Y584304D01*
X791870Y599904D01*
X760670Y599904D01*
X760670Y584304D01*
G54D12*
X748370Y556425D02*
X749063Y556425D01*
X749063Y557002D01*
X748370Y557002D01*
X748370Y556425D01*
X749063Y556425D01*
G54D12*
X753369Y575927D02*
X754062Y575927D01*
X754062Y576505D01*
X753369Y576505D01*
X753369Y575927D01*
X754062Y575927D01*
G54D16*
X705670Y584304D02*
X736870Y584304D01*
X736870Y599904D01*
X705670Y599904D01*
X705670Y584304D01*
G54D12*
X693369Y556424D02*
X694062Y556424D01*
X694062Y557002D01*
X693369Y557002D01*
X693369Y556424D01*
X694062Y556424D01*
G54D12*
X698370Y575927D02*
X699064Y575927D01*
X699064Y576505D01*
X698370Y576505D01*
X698370Y575927D01*
X699064Y575927D01*
G54D16*
X778070Y621204D02*
X809270Y621204D01*
X809270Y636804D01*
X778070Y636804D01*
X778070Y621204D01*
G54D12*
X753369Y596527D02*
X754062Y596527D01*
X754062Y597104D01*
X753369Y597104D01*
X753369Y596527D01*
X754062Y596527D01*
G54D12*
X770769Y612828D02*
X771462Y612828D01*
X771462Y613406D01*
X770769Y613406D01*
X770769Y612828D01*
X771462Y612828D01*
G54D16*
X723070Y621204D02*
X754270Y621204D01*
X754270Y636804D01*
X723070Y636804D01*
X723070Y621204D01*
G54D12*
X698370Y596528D02*
X699064Y596528D01*
X699064Y597106D01*
X698370Y597106D01*
X698370Y596528D01*
X699064Y596528D01*
G54D12*
X715769Y612826D02*
X716462Y612826D01*
X716462Y613404D01*
X715769Y613404D01*
X715769Y612826D01*
X716462Y612826D01*
G54D10*
X831098Y653108D02*
X831098Y563108D01*
X641098Y563108D01*
X641098Y653108D01*
X831098Y653108D01*
G54D10*
X758595Y742707D02*
X822095Y742707D01*
X822095Y666507D01*
X758595Y666507D01*
X758595Y742707D01*
G54D15*
X795251Y681174D02*
X795251Y675618D01*
X795918Y674507D01*
X797251Y673951D01*
X798584Y673951D01*
X799918Y674507D01*
X800584Y675618D01*
X800584Y681174D01*
X799918Y682285D01*
X798584Y682840D01*
X797251Y682840D01*
X795918Y682285D01*
X795251Y681174D01*
G54D15*
X792140Y682840D02*
X788807Y673951D01*
X785474Y682840D01*
G54D14*
X892825Y699344D02*
X882159Y699344D01*
G54D14*
X887492Y703788D02*
X887492Y694899D01*
G54D15*
X884251Y667174D02*
X884251Y661618D01*
X884918Y660507D01*
X886251Y659951D01*
X887584Y659951D01*
X888918Y660507D01*
X889584Y661618D01*
X889584Y667174D01*
X888918Y668285D01*
X887584Y668840D01*
X886251Y668840D01*
X884918Y668285D01*
X884251Y667174D01*
G54D15*
X881140Y668840D02*
X877807Y659951D01*
X874474Y668840D01*
G54D16*
X824994Y735855D02*
X824994Y743855D01*
X866194Y743855D01*
X866194Y735855D01*
G54D16*
G75*
G01X824895Y735955D02*
G03X866295Y735955I20700J0D01*
G01*
G54D20*
X864955Y721655D02*
X864955Y728755D01*
G54D20*
X862954Y721655D02*
X862954Y728755D01*
X858654Y721655D01*
X858655Y728755D01*
G54D14*
X796825Y724344D02*
X786159Y724344D01*
G54D14*
X791492Y728788D02*
X791492Y719899D01*
G54D20*
X889955Y739655D02*
X889955Y746755D01*
G54D20*
X887954Y739655D02*
X887954Y746755D01*
X883654Y739655D01*
X883655Y746755D01*
G54D20*
X870435Y695455D02*
X870435Y690955D01*
X871034Y690055D01*
X872035Y689655D01*
X873134Y689655D01*
X874234Y690055D01*
X874734Y690955D01*
X874734Y695455D01*
X874235Y696355D01*
X873134Y696755D01*
X872035Y696755D01*
X871035Y696355D01*
X870435Y695455D01*
G54D20*
X868434Y696755D02*
X868434Y690955D01*
X867934Y690055D01*
X866835Y689655D01*
X865734Y689655D01*
X864735Y690055D01*
X864134Y690955D01*
X864135Y696755D01*
G54D20*
X860034Y689655D02*
X860034Y696755D01*
G54D20*
X862134Y696755D02*
X857835Y696755D01*
G54D15*
X881563Y744069D02*
X876229Y744069D01*
G54D15*
X878896Y746291D02*
X878896Y741847D01*
G54D17*
X220066Y138981D02*
X220066Y154981D01*
X211666Y154981D01*
G54D17*
X220066Y146981D02*
X211666Y146981D01*
G54D17*
X206066Y151981D02*
X204866Y153981D01*
X202466Y154981D01*
X200066Y154981D01*
X197666Y153981D01*
X196466Y151981D01*
X196466Y149981D01*
X197666Y147981D01*
X200066Y146981D01*
X197666Y145981D01*
X196466Y143981D01*
X196466Y141981D01*
X197666Y139981D01*
X200066Y138981D01*
X202466Y138981D01*
X204866Y139981D01*
X206066Y141981D01*
G54D17*
X267457Y138981D02*
X267457Y154981D01*
X257857Y138981D01*
X257857Y154981D01*
G54D17*
X120066Y138981D02*
X120066Y154981D01*
X111666Y154981D01*
G54D17*
X120066Y146981D02*
X111666Y146981D01*
G54D17*
X96466Y138981D02*
X106066Y138981D01*
X106066Y139981D01*
X104866Y141981D01*
X97666Y147981D01*
X96466Y149981D01*
X96466Y151981D01*
X97666Y153981D01*
X100066Y154981D01*
X102466Y154981D01*
X104866Y153981D01*
X106066Y151981D01*
G54D17*
X167457Y138981D02*
X167457Y154981D01*
X157857Y138981D01*
X157857Y154981D01*
G54D21*
X79354Y371429D02*
X79354Y422229D01*
X3154Y422229D01*
X3154Y371429D01*
X79354Y371429D01*
G54D21*
X79354Y384129D02*
X79354Y409529D01*
X66654Y409529D01*
X66654Y384129D01*
X79354Y384129D01*
G54D12*
X-4096Y364188D02*
X-4790Y364188D01*
X-4790Y364766D01*
X-4096Y364766D01*
X-4096Y364188D01*
X-4790Y364188D01*
G54D12*
X-5483Y383688D02*
X-4790Y383688D01*
X-4790Y384266D01*
X-5483Y384266D01*
X-5483Y383688D01*
X-4790Y383688D01*
G54D12*
X-5483Y383688D02*
X-4790Y383688D01*
X-4790Y384266D01*
X-5483Y384266D01*
X-5483Y383688D01*
X-4790Y383688D01*
G54D17*
X35666Y138981D02*
X35666Y154981D01*
X27266Y154981D01*
G54D17*
X35666Y146981D02*
X27266Y146981D01*
G54D17*
X21666Y148981D02*
X15666Y154981D01*
X15666Y138981D01*
G54D17*
X67457Y138981D02*
X67457Y154981D01*
X57857Y138981D01*
X57857Y154981D01*
G54D21*
X178379Y371300D02*
X178379Y422100D01*
X102179Y422100D01*
X102179Y371300D01*
X178379Y371300D01*
G54D21*
X178379Y384000D02*
X178379Y409400D01*
X165679Y409400D01*
X165679Y384000D01*
X178379Y384000D01*
G54D12*
X94928Y364059D02*
X94235Y364059D01*
X94235Y364637D01*
X94928Y364637D01*
X94928Y364059D01*
X94235Y364059D01*
G54D12*
X93542Y383559D02*
X94235Y383559D01*
X94235Y384137D01*
X93542Y384137D01*
X93542Y383559D01*
X94235Y383559D01*
G54D12*
X93542Y383559D02*
X94235Y383559D01*
X94235Y384137D01*
X93542Y384137D01*
X93542Y383559D01*
X94235Y383559D01*
G54D21*
X277579Y371400D02*
X277579Y422200D01*
X201379Y422200D01*
X201379Y371400D01*
X277579Y371400D01*
G54D21*
X277579Y384100D02*
X277579Y409500D01*
X264879Y409500D01*
X264879Y384100D01*
X277579Y384100D01*
G54D12*
X194128Y364159D02*
X193435Y364159D01*
X193435Y364737D01*
X194128Y364737D01*
X194128Y364159D01*
X193435Y364159D01*
G54D12*
X192742Y383659D02*
X193435Y383659D01*
X193435Y384237D01*
X192742Y384237D01*
X192742Y383659D01*
X193435Y383659D01*
G54D12*
X192742Y383659D02*
X193435Y383659D01*
X193435Y384237D01*
X192742Y384237D01*
X192742Y383659D01*
X193435Y383659D01*
G54D12*
X57364Y460676D02*
X58058Y460676D01*
X58058Y461254D01*
X57364Y461254D01*
X57364Y460676D01*
X58058Y460676D01*
G54D16*
X102454Y474429D02*
X202454Y474429D01*
X202454Y131329D01*
X102454Y131329D01*
X102454Y474429D01*
G54D17*
X517566Y138481D02*
X517566Y154481D01*
X509166Y154481D01*
G54D17*
X517566Y146481D02*
X509166Y146481D01*
G54D17*
X503566Y151481D02*
X502366Y153481D01*
X499966Y154481D01*
X497566Y154481D01*
X495166Y153481D01*
X493966Y151481D01*
X493966Y149481D01*
X495166Y147481D01*
X497566Y146481D01*
X495166Y145481D01*
X493966Y143481D01*
X493966Y141481D01*
X495166Y139481D01*
X497566Y138481D01*
X499966Y138481D01*
X502366Y139481D01*
X503566Y141481D01*
G54D17*
X564957Y138481D02*
X564957Y154481D01*
X555357Y138481D01*
X555357Y154481D01*
G54D17*
X417566Y138481D02*
X417566Y154481D01*
X409166Y154481D01*
G54D17*
X417566Y146481D02*
X409166Y146481D01*
G54D17*
X393966Y138481D02*
X403566Y138481D01*
X403566Y139481D01*
X402366Y141481D01*
X395166Y147481D01*
X393966Y149481D01*
X393966Y151481D01*
X395166Y153481D01*
X397566Y154481D01*
X399966Y154481D01*
X402366Y153481D01*
X403566Y151481D01*
G54D17*
X464957Y138481D02*
X464957Y154481D01*
X455357Y138481D01*
X455357Y154481D01*
G54D21*
X376854Y370929D02*
X376854Y421729D01*
X300654Y421729D01*
X300654Y370929D01*
X376854Y370929D01*
G54D21*
X376854Y383629D02*
X376854Y409029D01*
X364154Y409029D01*
X364154Y383629D01*
X376854Y383629D01*
G54D12*
X293404Y363688D02*
X292710Y363688D01*
X292710Y364266D01*
X293404Y364266D01*
X293404Y363688D01*
X292710Y363688D01*
G54D12*
X292017Y383188D02*
X292710Y383188D01*
X292710Y383766D01*
X292017Y383766D01*
X292017Y383188D01*
X292710Y383188D01*
G54D12*
X292017Y383188D02*
X292710Y383188D01*
X292710Y383766D01*
X292017Y383766D01*
X292017Y383188D01*
X292710Y383188D01*
G54D17*
X333166Y138481D02*
X333166Y154481D01*
X324766Y154481D01*
G54D17*
X333166Y146481D02*
X324766Y146481D01*
G54D17*
X319166Y148481D02*
X313166Y154481D01*
X313166Y138481D01*
G54D17*
X364957Y138481D02*
X364957Y154481D01*
X355357Y138481D01*
X355357Y154481D01*
G54D21*
X475879Y370800D02*
X475879Y421600D01*
X399679Y421600D01*
X399679Y370800D01*
X475879Y370800D01*
G54D21*
X475879Y383500D02*
X475879Y408900D01*
X463179Y408900D01*
X463179Y383500D01*
X475879Y383500D01*
G54D12*
X392428Y363559D02*
X391735Y363559D01*
X391735Y364137D01*
X392428Y364137D01*
X392428Y363559D01*
X391735Y363559D01*
G54D12*
X391042Y383059D02*
X391735Y383059D01*
X391735Y383637D01*
X391042Y383637D01*
X391042Y383059D01*
X391735Y383059D01*
G54D12*
X391042Y383059D02*
X391735Y383059D01*
X391735Y383637D01*
X391042Y383637D01*
X391042Y383059D01*
X391735Y383059D01*
G54D21*
X575079Y370900D02*
X575079Y421700D01*
X498879Y421700D01*
X498879Y370900D01*
X575079Y370900D01*
G54D21*
X575079Y383600D02*
X575079Y409000D01*
X562379Y409000D01*
X562379Y383600D01*
X575079Y383600D01*
G54D12*
X491628Y363659D02*
X490935Y363659D01*
X490935Y364237D01*
X491628Y364237D01*
X491628Y363659D01*
X490935Y363659D01*
G54D12*
X490242Y383159D02*
X490935Y383159D01*
X490935Y383737D01*
X490242Y383737D01*
X490242Y383159D01*
X490935Y383159D01*
G54D12*
X490242Y383159D02*
X490935Y383159D01*
X490935Y383737D01*
X490242Y383737D01*
X490242Y383159D01*
X490935Y383159D01*
G54D12*
X354864Y460176D02*
X355558Y460176D01*
X355558Y460754D01*
X354864Y460754D01*
X354864Y460176D01*
X355558Y460176D01*
G54D16*
X399954Y473929D02*
X499954Y473929D01*
X499954Y130829D01*
X399954Y130829D01*
X399954Y473929D01*
G54D17*
X816366Y137381D02*
X816366Y153381D01*
X807966Y153381D01*
G54D17*
X816366Y145381D02*
X807966Y145381D01*
G54D17*
X802366Y150381D02*
X801166Y152381D01*
X798766Y153381D01*
X796366Y153381D01*
X793966Y152381D01*
X792766Y150381D01*
X792766Y148381D01*
X793966Y146381D01*
X796366Y145381D01*
X793966Y144381D01*
X792766Y142381D01*
X792766Y140381D01*
X793966Y138381D01*
X796366Y137381D01*
X798766Y137381D01*
X801166Y138381D01*
X802366Y140381D01*
G54D17*
X863757Y137381D02*
X863757Y153381D01*
X854157Y137381D01*
X854157Y153381D01*
G54D17*
X716366Y137381D02*
X716366Y153381D01*
X707966Y153381D01*
G54D17*
X716366Y145381D02*
X707966Y145381D01*
G54D17*
X692766Y137381D02*
X702366Y137381D01*
X702366Y138381D01*
X701166Y140381D01*
X693966Y146381D01*
X692766Y148381D01*
X692766Y150381D01*
X693966Y152381D01*
X696366Y153381D01*
X698766Y153381D01*
X701166Y152381D01*
X702366Y150381D01*
G54D17*
X763757Y137381D02*
X763757Y153381D01*
X754157Y137381D01*
X754157Y153381D01*
G54D21*
X675654Y369829D02*
X675654Y420629D01*
X599454Y420629D01*
X599454Y369829D01*
X675654Y369829D01*
G54D21*
X675654Y382529D02*
X675654Y407929D01*
X662954Y407929D01*
X662954Y382529D01*
X675654Y382529D01*
G54D12*
X592204Y362588D02*
X591510Y362588D01*
X591510Y363166D01*
X592204Y363166D01*
X592204Y362588D01*
X591510Y362588D01*
G54D12*
X590817Y382088D02*
X591510Y382088D01*
X591510Y382666D01*
X590817Y382666D01*
X590817Y382088D01*
X591510Y382088D01*
G54D12*
X590817Y382088D02*
X591510Y382088D01*
X591510Y382666D01*
X590817Y382666D01*
X590817Y382088D01*
X591510Y382088D01*
G54D17*
X631966Y137381D02*
X631966Y153381D01*
X623566Y153381D01*
G54D17*
X631966Y145381D02*
X623566Y145381D01*
G54D17*
X617966Y147381D02*
X611966Y153381D01*
X611966Y137381D01*
G54D17*
X663757Y137381D02*
X663757Y153381D01*
X654157Y137381D01*
X654157Y153381D01*
G54D21*
X774679Y369700D02*
X774679Y420500D01*
X698479Y420500D01*
X698479Y369700D01*
X774679Y369700D01*
G54D21*
X774679Y382400D02*
X774679Y407800D01*
X761979Y407800D01*
X761979Y382400D01*
X774679Y382400D01*
G54D12*
X691228Y362459D02*
X690535Y362459D01*
X690535Y363037D01*
X691228Y363037D01*
X691228Y362459D01*
X690535Y362459D01*
G54D12*
X689842Y381959D02*
X690535Y381959D01*
X690535Y382537D01*
X689842Y382537D01*
X689842Y381959D01*
X690535Y381959D01*
G54D12*
X689842Y381959D02*
X690535Y381959D01*
X690535Y382537D01*
X689842Y382537D01*
X689842Y381959D01*
X690535Y381959D01*
G54D21*
X873879Y369800D02*
X873879Y420600D01*
X797679Y420600D01*
X797679Y369800D01*
X873879Y369800D01*
G54D21*
X873879Y382500D02*
X873879Y407900D01*
X861179Y407900D01*
X861179Y382500D01*
X873879Y382500D01*
G54D12*
X790428Y362559D02*
X789735Y362559D01*
X789735Y363137D01*
X790428Y363137D01*
X790428Y362559D01*
X789735Y362559D01*
G54D12*
X789042Y382059D02*
X789735Y382059D01*
X789735Y382637D01*
X789042Y382637D01*
X789042Y382059D01*
X789735Y382059D01*
G54D12*
X789042Y382059D02*
X789735Y382059D01*
X789735Y382637D01*
X789042Y382637D01*
X789042Y382059D01*
X789735Y382059D01*
G54D12*
X653664Y459076D02*
X654358Y459076D01*
X654358Y459654D01*
X653664Y459654D01*
X653664Y459076D01*
X654358Y459076D01*
G54D16*
X698754Y472829D02*
X798754Y472829D01*
X798754Y129729D01*
X698754Y129729D01*
X698754Y472829D01*
M02*
