; Drill file
; Format: 3.2 (000.00)
M48
METRIC
T01C0.4
T02C0.6
T03C0.7
T04C0.72
T05C0.8
T06C0.9
T07C1.0
T08C1.5
T09C2.0
T10C2.5
%
G05
G90
T01
X02503Y06528
X02376Y06656
X02630Y06656
X05356Y06656
X05483Y06528
X05610Y06656
X08336Y06656
X08463Y06528
X08590Y06656
T02
X01508Y07701
X01708Y07701
X01707Y07976
X01507Y07976
X01307Y07976
X01107Y07976
X00907Y07976
X00707Y07976
X00557Y08274
X00557Y08474
X00557Y08674
X00557Y08874
X00557Y09074
X00557Y09274
X00707Y09574
X00907Y09574
X01107Y09574
X01307Y09574
X01507Y09574
X01707Y09574
X01907Y09574
X02107Y09574
X01046Y09792
X00806Y09792
X01907Y07976
X02107Y07976
X03537Y08274
X03537Y08474
X03537Y08674
X03537Y08874
X03537Y09074
X03537Y09274
X03687Y09574
X03887Y09574
X04087Y09574
X04287Y09574
X04487Y09574
X04687Y09574
X04887Y09574
X05087Y09574
X04026Y09792
X03786Y09792
X03687Y07976
X03887Y07976
X04087Y07976
X04287Y07976
X04487Y07976
X04687Y07976
X04887Y07976
X05087Y07976
X04688Y07701
X04488Y07701
X06517Y08274
X06517Y08474
X06517Y08674
X06517Y08874
X06517Y09074
X06517Y09274
X06667Y09574
X06867Y09574
X07067Y09574
X07267Y09574
X07467Y09574
X07667Y09574
X07867Y09574
X08067Y09574
X07006Y09792
X06766Y09792
X06667Y07976
X06867Y07976
X07067Y07976
X07267Y07976
X07467Y07976
X07667Y07976
X07867Y07976
X08067Y07976
X07668Y07701
X07468Y07701
T03
X00443Y06130
X00443Y06385
X01208Y06385
X01208Y06130
X03423Y06130
X03423Y06385
X04188Y06385
X04188Y06130
X06403Y06130
X06403Y06385
X07168Y06385
X07168Y06130
T04
X00159Y02387
X00413Y02387
X00667Y02387
X01149Y02386
X01403Y02386
X01657Y02386
X02141Y02387
X02395Y02387
X02649Y02387
X03139Y02387
X03393Y02387
X03647Y02387
X04129Y02386
X04383Y02386
X04637Y02386
X05121Y02387
X05375Y02387
X05629Y02387
X06119Y02387
X06373Y02387
X06627Y02387
X07109Y02386
X07363Y02386
X07617Y02386
X08101Y02387
X08355Y02387
X08609Y02387
X08609Y03149
X08608Y03373
X08354Y03373
X08355Y03149
X08101Y03149
X07617Y03148
X07619Y03373
X07365Y03373
X07363Y03148
X07109Y03148
X06627Y03149
X06628Y03373
X06374Y03373
X06373Y03149
X06119Y03149
X05629Y03149
X05628Y03373
X05374Y03373
X05375Y03149
X05121Y03149
X04637Y03148
X04639Y03373
X04385Y03373
X04383Y03148
X04129Y03148
X03647Y03149
X03648Y03373
X03394Y03373
X03393Y03149
X03139Y03149
X02649Y03149
X02648Y03373
X02394Y03373
X02395Y03149
X02141Y03149
X01657Y03148
X01659Y03373
X01405Y03373
X01403Y03148
X01149Y03148
X00667Y03149
X00668Y03373
X00414Y03373
X00413Y03149
X00159Y03149
X02199Y06105
X02199Y06359
X02497Y06104
X02799Y06105
X02799Y06359
X02847Y06624
X02187Y07739
X01933Y07739
X01259Y07736
X01005Y07736
X01457Y06654
X00313Y08846
X00313Y09100
X01300Y09817
X01723Y09819
X01977Y09819
X03293Y09100
X03293Y08846
X03985Y07736
X04239Y07736
X04913Y07739
X05167Y07739
X05827Y06624
X05779Y06359
X05779Y06105
X05477Y06104
X05179Y06105
X05179Y06359
X04437Y06654
X06965Y07736
X07219Y07736
X07893Y07739
X08147Y07739
X08807Y06624
X08759Y06359
X08759Y06105
X08457Y06104
X08159Y06105
X08159Y06359
X07417Y06654
X06273Y08846
X06273Y09100
X07260Y09817
X07683Y09819
X07937Y09819
X04957Y09819
X04703Y09819
X04280Y09817
T05
X00167Y00995
X00172Y01182
X00151Y01462
X00417Y01468
X00707Y01478
X00900Y01202
X01162Y01180
X01170Y01002
X01141Y01461
X01407Y01466
X01697Y01476
X01890Y01201
X02154Y01181
X02158Y01006
X02133Y01462
X02399Y01467
X02689Y01477
X02882Y01202
X03152Y01182
X03147Y00995
X03131Y01462
X03397Y01468
X03687Y01478
X03880Y01202
X04142Y01180
X04150Y01002
X04121Y01461
X04387Y01466
X04677Y01476
X04870Y01201
X05134Y01181
X05138Y01006
X05113Y01462
X05379Y01467
X05669Y01477
X05862Y01202
X06132Y01182
X06127Y00995
X06111Y01462
X06377Y01468
X06667Y01478
X06860Y01202
X07122Y01180
X07130Y01002
X07101Y01461
X07367Y01466
X07657Y01476
X07850Y01201
X08114Y01181
X08118Y01006
X08093Y01462
X08359Y01467
X08649Y01477
X08842Y01202
X08848Y02072
X07856Y02071
X06866Y02072
X05868Y02072
X04876Y02071
X03886Y02072
X02888Y02072
X01896Y02071
X00906Y02072
X01455Y06100
X01456Y06435
X02029Y06657
X03189Y06387
X03189Y06133
X04435Y06100
X04436Y06435
X05009Y06657
X06169Y06387
X06169Y06133
X07415Y06100
X07416Y06435
X07989Y06657
X06371Y07977
X06279Y08192
X06272Y08450
X06280Y09474
X03300Y09474
X03292Y08450
X03299Y08192
X03391Y07977
X00411Y07977
X00319Y08192
X00312Y08450
X00320Y09474
X00209Y06387
X00209Y06133
T06
X01760Y06096
X01760Y06350
X01760Y06604
X04740Y06604
X04740Y06350
X04740Y06096
X07720Y06096
X07720Y06350
X07720Y06604
T07
X00285Y00501
X00785Y00501
X01285Y00501
X01785Y00501
X02285Y00501
X02785Y00501
X03265Y00501
X03765Y00501
X04265Y00501
X04765Y00501
X05265Y00501
X05765Y00501
X06245Y00501
X06745Y00501
X07245Y00501
X07745Y00501
X08245Y00501
X08745Y00501
X08714Y04477
X08214Y04477
X07714Y04477
X07214Y04477
X06714Y04477
X06214Y04477
X05734Y04477
X05234Y04477
X04734Y04477
X04234Y04477
X03734Y04477
X03234Y04477
X02754Y04477
X02254Y04477
X01754Y04477
X01254Y04477
X00754Y04477
X00254Y04477
T08
X00273Y05407
X02573Y05407
X03253Y05407
X05553Y05407
X06233Y05407
X08533Y05407
T09
X00230Y06635
X01060Y06645
X03210Y06635
X04040Y06645
X06190Y06635
X07020Y06645
T10
X02810Y07690
X02810Y09790
X03190Y09790
X05790Y09790
X06170Y09790
X05790Y07690
X08770Y07690
X08770Y09790
X00210Y09790
M30
