%FSLAX34Y34*%
%MOMM*%
%LNSILK_TOP*%
G71*
G01*
%ADD10C, 0.300*%
%ADD11C, 0.144*%
%ADD12C, 0.286*%
%ADD13C, 0.150*%
%ADD14C, 0.238*%
%ADD15C, 0.318*%
%ADD16C, 0.159*%
%ADD17C, 0.000*%
%ADD18C, 0.040*%
%ADD19C, 0.020*%
%ADD20C, 0.030*%
%ADD21C, 0.191*%
%ADD22C, 0.167*%
%ADD23C, 0.100*%
%ADD24C, 0.090*%
%LPD*%
G54D10*
X295700Y797600D02*
X55700Y797600D01*
X55700Y957600D01*
X295700Y957600D01*
X295700Y797600D01*
G54D11*
X-465207Y1055300D02*
X-465900Y1055300D01*
X-465900Y1055878D01*
X-465207Y1055878D01*
X-465207Y1055300D01*
X-465900Y1055300D01*
G54D12*
X220104Y938452D02*
X226104Y944452D01*
X226104Y928452D01*
G54D12*
X232704Y810452D02*
X223104Y810452D01*
X223104Y811452D01*
X224304Y813452D01*
X231504Y819452D01*
X232704Y821452D01*
X232704Y823452D01*
X231504Y825452D01*
X229104Y826452D01*
X226704Y826452D01*
X224304Y825452D01*
X223104Y823452D01*
G54D12*
X247904Y810452D02*
X238304Y810452D01*
X238304Y811452D01*
X239504Y813452D01*
X246704Y819452D01*
X247904Y821452D01*
X247904Y823452D01*
X246704Y825452D01*
X244304Y826452D01*
X241904Y826452D01*
X239504Y825452D01*
X238304Y823452D01*
G54D12*
X221104Y974452D02*
X227104Y980452D01*
X227104Y964452D01*
G54D11*
X-465207Y1035800D02*
X-465900Y1035800D01*
X-465900Y1036378D01*
X-465207Y1036378D01*
X-465207Y1035800D01*
X-465900Y1035800D01*
G54D13*
X142716Y994395D02*
X142716Y968995D01*
X117316Y968995D01*
X117316Y994395D01*
X142716Y994395D01*
G54D11*
X143467Y941667D02*
X142774Y941667D01*
X142774Y942244D01*
X143467Y942244D01*
X143467Y941667D01*
X142774Y941667D01*
G54D11*
X143467Y961167D02*
X142774Y961167D01*
X142774Y961744D01*
X143467Y961744D01*
X143467Y961167D01*
X142774Y961167D01*
G54D13*
X44022Y871909D02*
X18622Y871909D01*
X18622Y922709D01*
X44022Y922709D01*
X44022Y871909D01*
G54D14*
X18057Y871855D02*
X18057Y863522D01*
X17057Y861855D01*
X15057Y861022D01*
X13057Y861022D01*
X11057Y861855D01*
X10057Y863522D01*
X10057Y871855D01*
X11057Y873522D01*
X13057Y874355D01*
X15057Y874355D01*
X17057Y873522D01*
X18057Y871855D01*
G54D14*
X22724Y874355D02*
X27724Y861022D01*
X32724Y874355D01*
G54D15*
X5620Y926056D02*
X16287Y926056D01*
G54D15*
X10954Y930501D02*
X10954Y921612D01*
G54D16*
X139523Y976370D02*
X139523Y985259D01*
X142857Y979704D01*
X146190Y985259D01*
X146190Y976370D01*
G54D13*
X159600Y969200D02*
X159600Y994600D01*
X210400Y994600D01*
X210400Y969200D01*
X159600Y969200D01*
G54D13*
X87800Y760900D02*
X87800Y786300D01*
X138600Y786300D01*
X138600Y760900D01*
X87800Y760900D01*
G54D16*
X104224Y755444D02*
X104224Y764333D01*
X107557Y764333D01*
X108890Y763778D01*
X109557Y762667D01*
X109557Y761556D01*
X108890Y760444D01*
X107557Y759889D01*
X108890Y759333D01*
X109557Y758222D01*
X109557Y757111D01*
X108890Y756000D01*
X107557Y755444D01*
X104224Y755444D01*
G54D16*
X104224Y759889D02*
X107557Y759889D01*
G54D16*
X112668Y764333D02*
X112668Y757111D01*
X113334Y756000D01*
X114668Y755444D01*
X116001Y755444D01*
X117334Y756000D01*
X118001Y757111D01*
X118001Y764333D01*
G54D16*
X123778Y759889D02*
X125778Y758778D01*
X126445Y757667D01*
X126445Y755444D01*
G54D16*
X121112Y755444D02*
X121112Y764333D01*
X124445Y764333D01*
X125778Y763778D01*
X126445Y762667D01*
X126445Y761556D01*
X125778Y760444D01*
X124445Y759889D01*
X121112Y759889D01*
G54D16*
X129556Y755444D02*
X129556Y764333D01*
X134889Y755444D01*
X134889Y764333D01*
G54D16*
X212490Y755044D02*
X212490Y763934D01*
G54D16*
X209824Y763934D02*
X215157Y763934D01*
G54D16*
X218268Y760044D02*
X223601Y755044D01*
G54D16*
X218268Y755044D02*
X223601Y760044D01*
G54D16*
X189990Y759389D02*
X191990Y758278D01*
X192657Y757167D01*
X192657Y754944D01*
G54D16*
X187324Y754944D02*
X187324Y763834D01*
X190657Y763834D01*
X191990Y763278D01*
X192657Y762167D01*
X192657Y761056D01*
X191990Y759944D01*
X190657Y759389D01*
X187324Y759389D01*
G54D16*
X195768Y759944D02*
X201101Y754944D01*
G54D16*
X195768Y754944D02*
X201101Y759944D01*
G54D16*
X16924Y770700D02*
X20257Y774033D01*
X20257Y765144D01*
G54D16*
X28701Y772367D02*
X28701Y766811D01*
X28034Y765700D01*
X26701Y765144D01*
X25368Y765144D01*
X24034Y765700D01*
X23368Y766811D01*
X23368Y772367D01*
X24034Y773478D01*
X25368Y774033D01*
X26701Y774033D01*
X28034Y773478D01*
X28701Y772367D01*
G54D16*
X31812Y765144D02*
X31812Y774033D01*
G54D16*
X33812Y768478D02*
X35812Y765144D01*
G54D16*
X31812Y767367D02*
X35812Y770144D01*
G54D16*
X150224Y843200D02*
X153557Y846534D01*
X153557Y837645D01*
G54D16*
X162001Y844867D02*
X162001Y839311D01*
X161334Y838200D01*
X160001Y837645D01*
X158668Y837645D01*
X157334Y838200D01*
X156668Y839311D01*
X156668Y844867D01*
X157334Y845978D01*
X158668Y846534D01*
X160001Y846534D01*
X161334Y845978D01*
X162001Y844867D01*
G54D16*
X165112Y837645D02*
X165112Y846534D01*
G54D16*
X167112Y840978D02*
X169112Y837645D01*
G54D16*
X165112Y839867D02*
X169112Y842645D01*
G54D16*
X80124Y844100D02*
X83457Y847434D01*
X83457Y838545D01*
G54D16*
X91901Y845767D02*
X91901Y840211D01*
X91234Y839100D01*
X89901Y838545D01*
X88568Y838545D01*
X87234Y839100D01*
X86568Y840211D01*
X86568Y845767D01*
X87234Y846878D01*
X88568Y847434D01*
X89901Y847434D01*
X91234Y846878D01*
X91901Y845767D01*
G54D16*
X95012Y838545D02*
X95012Y847434D01*
G54D16*
X97012Y841878D02*
X99012Y838545D01*
G54D16*
X95012Y840767D02*
X99012Y843545D01*
G54D16*
X226624Y884700D02*
X229957Y888033D01*
X229957Y879145D01*
G54D16*
X238401Y886367D02*
X238401Y880811D01*
X237734Y879700D01*
X236401Y879145D01*
X235068Y879145D01*
X233734Y879700D01*
X233068Y880811D01*
X233068Y886367D01*
X233734Y887478D01*
X235068Y888033D01*
X236401Y888033D01*
X237734Y887478D01*
X238401Y886367D01*
G54D16*
X241512Y879145D02*
X241512Y888033D01*
G54D16*
X243512Y882478D02*
X245512Y879145D01*
G54D16*
X241512Y881367D02*
X245512Y884145D01*
G54D16*
X141324Y889000D02*
X144657Y892333D01*
X144657Y883445D01*
G54D16*
X153101Y890667D02*
X153101Y885111D01*
X152434Y884000D01*
X151101Y883445D01*
X149768Y883445D01*
X148434Y884000D01*
X147768Y885111D01*
X147768Y890667D01*
X148434Y891778D01*
X149768Y892333D01*
X151101Y892333D01*
X152434Y891778D01*
X153101Y890667D01*
G54D16*
X156212Y883445D02*
X156212Y892333D01*
G54D16*
X158212Y886778D02*
X160212Y883445D01*
G54D16*
X156212Y885667D02*
X160212Y888445D01*
G54D16*
X205924Y916445D02*
X205924Y925333D01*
X201924Y919778D01*
X201924Y918667D01*
X207257Y918667D01*
G54D16*
X210368Y925333D02*
X215701Y925333D01*
X215034Y924222D01*
X213701Y922556D01*
X212368Y920333D01*
X211701Y918667D01*
X211701Y916445D01*
G54D16*
X224145Y923667D02*
X224145Y918111D01*
X223478Y917000D01*
X222145Y916445D01*
X220812Y916445D01*
X219478Y917000D01*
X218812Y918111D01*
X218812Y923667D01*
X219478Y924778D01*
X220812Y925333D01*
X222145Y925333D01*
X223478Y924778D01*
X224145Y923667D01*
G54D16*
X220090Y985389D02*
X222090Y984278D01*
X222757Y983167D01*
X222757Y980945D01*
G54D16*
X217424Y980945D02*
X217424Y989833D01*
X220757Y989833D01*
X222090Y989278D01*
X222757Y988167D01*
X222757Y987056D01*
X222090Y985945D01*
X220757Y985389D01*
X217424Y985389D01*
G54D16*
X225868Y981500D02*
X227201Y980945D01*
X228534Y980945D01*
X229868Y981500D01*
X229868Y982611D01*
X229201Y983167D01*
X226534Y983722D01*
X225868Y984278D01*
X225868Y985389D01*
X227201Y985945D01*
X228534Y985945D01*
X229868Y985389D01*
G54D16*
X234312Y989833D02*
X234312Y981500D01*
X234979Y980945D01*
X235646Y981167D01*
G54D16*
X232979Y985945D02*
X235646Y985945D01*
G54D16*
X65857Y982592D02*
X65857Y977037D01*
X65190Y975926D01*
X63857Y975370D01*
X62523Y975370D01*
X61190Y975926D01*
X60523Y977037D01*
X60523Y982592D01*
X61190Y983704D01*
X62523Y984259D01*
X63857Y984259D01*
X65190Y983704D01*
X65857Y982592D01*
G54D16*
X72967Y975370D02*
X72967Y984259D01*
X68967Y978704D01*
X68967Y977592D01*
X74301Y977592D01*
G54D16*
X104857Y992592D02*
X104857Y987037D01*
X104190Y985926D01*
X102857Y985370D01*
X101523Y985370D01*
X100190Y985926D01*
X99523Y987037D01*
X99523Y992592D01*
X100190Y993704D01*
X101523Y994259D01*
X102857Y994259D01*
X104190Y993704D01*
X104857Y992592D01*
G54D16*
X107967Y992592D02*
X108634Y993704D01*
X109967Y994259D01*
X111301Y994259D01*
X112634Y993704D01*
X113301Y992592D01*
X113301Y991481D01*
X112634Y990370D01*
X111301Y989815D01*
X112634Y989259D01*
X113301Y988148D01*
X113301Y987037D01*
X112634Y985926D01*
X111301Y985370D01*
X109967Y985370D01*
X108634Y985926D01*
X107967Y987037D01*
G54D16*
X148857Y761592D02*
X148857Y756037D01*
X148190Y754926D01*
X146857Y754370D01*
X145523Y754370D01*
X144190Y754926D01*
X143523Y756037D01*
X143523Y761592D01*
X144190Y762704D01*
X145523Y763259D01*
X146857Y763259D01*
X148190Y762704D01*
X148857Y761592D01*
G54D16*
X151967Y759926D02*
X155301Y763259D01*
X155301Y754370D01*
G54D16*
X170857Y761592D02*
X170857Y756037D01*
X170190Y754926D01*
X168857Y754370D01*
X167523Y754370D01*
X166190Y754926D01*
X165523Y756037D01*
X165523Y761592D01*
X166190Y762704D01*
X167523Y763259D01*
X168857Y763259D01*
X170190Y762704D01*
X170857Y761592D01*
G54D16*
X179301Y754370D02*
X173967Y754370D01*
X173967Y754926D01*
X174634Y756037D01*
X178634Y759370D01*
X179301Y760481D01*
X179301Y761592D01*
X178634Y762704D01*
X177301Y763259D01*
X175967Y763259D01*
X174634Y762704D01*
X173967Y761592D01*
G54D13*
X180600Y761200D02*
X180600Y786600D01*
X231400Y786600D01*
X231400Y761200D01*
X180600Y761200D01*
G54D10*
X283320Y497700D02*
X8320Y497700D01*
X8320Y587700D01*
X283320Y587700D01*
X283320Y497700D01*
G54D17*
X114832Y648461D02*
X114832Y602461D01*
X50832Y602461D01*
X50832Y648461D01*
X114832Y648461D01*
G54D18*
X91898Y610461D02*
X91898Y614017D01*
G54D18*
X90832Y614017D02*
X92965Y614017D01*
G54D18*
X93932Y614017D02*
X93932Y610461D01*
X95798Y610461D01*
G54D18*
X96832Y610461D02*
X96832Y614017D01*
X98165Y614017D01*
X98698Y613794D01*
X98965Y613350D01*
X98965Y612906D01*
X98698Y612461D01*
X98165Y612239D01*
X96832Y612239D01*
G54D18*
X102065Y614017D02*
X99932Y614017D01*
X99932Y612461D01*
X100198Y612461D01*
X100732Y612683D01*
X101265Y612683D01*
X101798Y612461D01*
X102065Y612017D01*
X102065Y611128D01*
X101798Y610683D01*
X101265Y610461D01*
X100732Y610461D01*
X100198Y610683D01*
X99932Y611128D01*
G54D18*
X105165Y610461D02*
X103032Y610461D01*
X103032Y610683D01*
X103298Y611128D01*
X104898Y612461D01*
X105165Y612906D01*
X105165Y613350D01*
X104898Y613794D01*
X104365Y614017D01*
X103832Y614017D01*
X103298Y613794D01*
X103032Y613350D01*
G54D18*
X106132Y612683D02*
X107465Y614017D01*
X107465Y610461D01*
G54D18*
X109498Y612239D02*
X110565Y612239D01*
X110565Y611128D01*
X110298Y610683D01*
X109765Y610461D01*
X109232Y610461D01*
X108698Y610683D01*
X108432Y611128D01*
X108432Y613350D01*
X108698Y613794D01*
X109232Y614017D01*
X109765Y614017D01*
X110298Y613794D01*
X110565Y613350D01*
G54D18*
X111532Y610461D02*
X111532Y614017D01*
X112865Y614017D01*
X113398Y613794D01*
X113665Y613350D01*
X113665Y612906D01*
X113398Y612461D01*
X112865Y612239D01*
X113398Y612017D01*
X113665Y611572D01*
X113665Y611128D01*
X113398Y610683D01*
X112865Y610461D01*
X111532Y610461D01*
G54D18*
X111532Y612239D02*
X112865Y612239D01*
G54D18*
X98032Y605661D02*
X98032Y609217D01*
X99365Y609217D01*
X99898Y608994D01*
X100165Y608550D01*
X100165Y606328D01*
X99898Y605883D01*
X99365Y605661D01*
X98032Y605661D01*
G54D18*
X101132Y605661D02*
X101132Y609217D01*
G54D18*
X102132Y609217D02*
X102132Y605661D01*
X103998Y605661D01*
G54D18*
X106632Y605661D02*
X106632Y609217D01*
X105032Y606994D01*
X105032Y606550D01*
X107165Y606550D01*
G54D17*
X55832Y648461D02*
X55832Y602461D01*
G54D18*
X52832Y638683D02*
X54165Y640017D01*
X54165Y636461D01*
G54D18*
X54965Y610461D02*
X52832Y610461D01*
X52832Y610683D01*
X53098Y611128D01*
X54698Y612461D01*
X54965Y612906D01*
X54965Y613350D01*
X54698Y613794D01*
X54165Y614017D01*
X53632Y614017D01*
X53098Y613794D01*
X52832Y613350D01*
G54D18*
X110832Y616350D02*
X111098Y616794D01*
X111632Y617017D01*
X112165Y617017D01*
X112698Y616794D01*
X112965Y616350D01*
X112965Y615906D01*
X112698Y615461D01*
X112165Y615239D01*
X112698Y615017D01*
X112965Y614572D01*
X112965Y614128D01*
X112698Y613683D01*
X112165Y613461D01*
X111632Y613461D01*
X111098Y613683D01*
X110832Y614128D01*
G54D18*
X112432Y637461D02*
X112432Y641017D01*
X110832Y638794D01*
X110832Y638350D01*
X112965Y638350D01*
G54D17*
X50832Y638461D02*
X64832Y638461D01*
X64832Y613461D01*
X51832Y613461D01*
G54D17*
X60832Y629461D02*
X67832Y629461D01*
X68832Y629461D01*
X64832Y623461D01*
X64832Y623461D01*
X60832Y629461D01*
G54D17*
X60832Y623461D02*
X68832Y623461D01*
G54D17*
G75*
G01X64831Y643461D02*
G03X64831Y643461I-3000J0D01*
G01*
G54D17*
X74832Y629461D02*
X90832Y629461D01*
G54D17*
X74832Y623461D02*
X90832Y623461D01*
G36*
X84863Y631417D02*
X90863Y629417D01*
X84863Y627417D01*
X85863Y629417D01*
X84863Y631417D01*
G37*
G54D17*
X84863Y631417D02*
X90863Y629417D01*
X84863Y627417D01*
X85863Y629417D01*
X84863Y631417D01*
G36*
X84863Y625417D02*
X90863Y623417D01*
X84863Y621417D01*
X85863Y623417D01*
X84863Y625417D01*
G37*
G54D17*
X84863Y625417D02*
X90863Y623417D01*
X84863Y621417D01*
X85863Y623417D01*
X84863Y625417D01*
G54D17*
X117832Y638461D02*
X108832Y638461D01*
X99832Y629461D01*
G54D17*
X117832Y612461D02*
X109832Y612461D01*
X108832Y613461D01*
X99832Y622461D01*
G54D17*
X99832Y633461D02*
X99832Y618461D01*
G54D17*
X107832Y616461D02*
X109832Y612461D01*
X105832Y614461D01*
G54D17*
X99832Y625461D02*
X96832Y625461D01*
G54D17*
X114832Y644461D02*
X122832Y644461D01*
X122832Y632461D01*
X114832Y632461D01*
G54D17*
X114832Y618961D02*
X122832Y618961D01*
X122832Y606961D01*
X114832Y606961D01*
G54D17*
X50832Y632461D02*
X42832Y632461D01*
X42832Y644461D01*
X50832Y644461D01*
G54D17*
X50832Y606961D02*
X42832Y606961D01*
X42832Y618961D01*
X50832Y618961D01*
G54D17*
X45832Y644461D02*
X45832Y632461D01*
G54D17*
X45832Y618961D02*
X45832Y606961D01*
G54D17*
X119832Y618961D02*
X119832Y606961D01*
G54D17*
X119832Y644461D02*
X119832Y632461D01*
G54D17*
X119832Y640961D02*
X122832Y640961D01*
G54D17*
X119832Y635961D02*
X122832Y635961D01*
G54D17*
X119832Y615461D02*
X122832Y615461D01*
G54D17*
X119832Y610461D02*
X122832Y610461D01*
G54D17*
X42832Y615461D02*
X45832Y615461D01*
G54D17*
X42832Y610461D02*
X45832Y610461D01*
G54D17*
X42832Y640961D02*
X45832Y640961D01*
G54D17*
X42832Y635961D02*
X45832Y635961D01*
G54D11*
X37025Y674511D02*
X36332Y674511D01*
X36332Y675088D01*
X37025Y675088D01*
X37025Y674511D01*
X36332Y674511D01*
G54D11*
X37025Y655011D02*
X36332Y655011D01*
X36332Y655588D01*
X37025Y655588D01*
X37025Y655011D01*
X36332Y655011D01*
G54D18*
X20885Y627584D02*
X20885Y623615D01*
G54D18*
X22472Y626790D02*
X19297Y626790D01*
G54D18*
X20885Y626790D02*
X19297Y624409D01*
X22472Y624409D01*
X22472Y624409D01*
X20885Y626790D01*
G54D19*
X18503Y624409D02*
X16916Y625996D01*
G54D19*
X18503Y625996D02*
X16916Y627584D01*
G54D19*
X16916Y625203D02*
X16916Y625996D01*
X17710Y625996D01*
G54D19*
X16916Y626790D02*
X16916Y627584D01*
X17710Y627584D01*
G54D17*
X18503Y610915D02*
X18503Y615678D01*
X23266Y615678D01*
X23266Y610915D01*
X18503Y610915D01*
G54D17*
X18503Y636315D02*
X18503Y641078D01*
X23266Y641078D01*
X23266Y636315D01*
X18503Y636315D01*
G54D19*
X29882Y623465D02*
X31660Y623465D01*
X31660Y624398D01*
G54D19*
X30882Y624865D02*
X30882Y625932D01*
G54D19*
X31326Y626465D02*
X31548Y626598D01*
X31660Y626865D01*
X31660Y627132D01*
X31548Y627398D01*
X31326Y627532D01*
X30771Y627532D01*
X30660Y627532D01*
X30882Y627132D01*
X30882Y626865D01*
X30771Y626598D01*
X30548Y626465D01*
X30215Y626465D01*
X29993Y626598D01*
X29882Y626865D01*
X29882Y627132D01*
X29993Y627398D01*
X30215Y627532D01*
X30771Y627532D01*
G54D19*
X30215Y628065D02*
X29993Y628198D01*
X29882Y628465D01*
X29882Y628732D01*
X29993Y628998D01*
X30215Y629132D01*
X30437Y629132D01*
X30660Y628998D01*
X30771Y628732D01*
X30882Y628998D01*
X31104Y629132D01*
X31326Y629132D01*
X31548Y628998D01*
X31660Y628732D01*
X31660Y628465D01*
X31548Y628198D01*
X31326Y628065D01*
G54D19*
X31660Y630465D02*
X29882Y630465D01*
X30993Y629665D01*
X31215Y629665D01*
X31215Y630732D01*
G54D19*
X31326Y632332D02*
X31548Y632198D01*
X31660Y631932D01*
X31660Y631665D01*
X31548Y631398D01*
X31326Y631265D01*
X30215Y631265D01*
X29993Y631398D01*
X29882Y631665D01*
X29882Y631932D01*
X29993Y632198D01*
X30215Y632332D01*
G54D19*
X31660Y632865D02*
X29882Y632865D01*
X29882Y633532D01*
X29993Y633798D01*
X30215Y633932D01*
X30437Y633932D01*
X30660Y633798D01*
X30771Y633532D01*
X30882Y633798D01*
X31104Y633932D01*
X31326Y633932D01*
X31548Y633798D01*
X31660Y633532D01*
X31660Y632865D01*
G54D19*
X30771Y632865D02*
X30771Y633532D01*
G54D19*
X31660Y634465D02*
X29882Y635532D01*
G54D19*
X31326Y636065D02*
X31548Y636198D01*
X31660Y636465D01*
X31660Y636732D01*
X31548Y636998D01*
X31326Y637132D01*
X31104Y637132D01*
X30882Y636998D01*
X30771Y636732D01*
X30771Y636465D01*
X30660Y636198D01*
X30437Y636065D01*
X30215Y636065D01*
X29993Y636198D01*
X29882Y636465D01*
X29882Y636732D01*
X29993Y636998D01*
X30215Y637132D01*
G54D19*
X30771Y638198D02*
X30993Y638598D01*
X31215Y638732D01*
X31660Y638732D01*
G54D19*
X31660Y637665D02*
X29882Y637665D01*
X29882Y638332D01*
X29993Y638598D01*
X30215Y638732D01*
X30437Y638732D01*
X30660Y638598D01*
X30771Y638332D01*
X30771Y637665D01*
G54D19*
X31660Y639265D02*
X29882Y639265D01*
X29882Y639932D01*
X29993Y640198D01*
X30215Y640332D01*
X31326Y640332D01*
X31548Y640198D01*
X31660Y639932D01*
X31660Y639265D01*
G54D18*
X20019Y618290D02*
X18685Y619623D01*
X22241Y619623D01*
G54D18*
X22241Y633917D02*
X22241Y631784D01*
X22019Y631784D01*
X21574Y632051D01*
X20241Y633651D01*
X19796Y633917D01*
X19352Y633917D01*
X18908Y633651D01*
X18685Y633117D01*
X18685Y632584D01*
X18908Y632051D01*
X19352Y631784D01*
G54D20*
X27197Y611046D02*
X24530Y611046D01*
G54D20*
X26797Y612946D02*
X26130Y612946D01*
X25797Y612746D01*
X25697Y612346D01*
X25797Y611946D01*
X26130Y611746D01*
X26797Y611746D01*
X27130Y611946D01*
X27197Y612346D01*
X27130Y612746D01*
X26797Y612946D01*
G54D20*
X27197Y613646D02*
X25697Y613646D01*
G54D20*
X26030Y613646D02*
X25797Y613846D01*
X25697Y614246D01*
X25797Y614646D01*
X26030Y614846D01*
X27197Y614846D01*
G54D20*
X27697Y615546D02*
X27864Y615946D01*
X27864Y616226D01*
X27697Y616626D01*
X27364Y616746D01*
X25697Y616746D01*
G54D20*
X26130Y616746D02*
X25797Y616546D01*
X25697Y616146D01*
X25797Y615746D01*
X26130Y615546D01*
X26797Y615546D01*
X27130Y615746D01*
X27197Y616146D01*
X27130Y616546D01*
X26797Y616746D01*
G54D17*
G75*
G01X35185Y625996D02*
G03X35185Y625996I-14300J0D01*
G01*
G54D17*
G75*
G01X36785Y625996D02*
G03X36785Y625996I-15900J0D01*
G01*
G54D11*
X-20989Y610590D02*
X-20989Y609896D01*
X-21567Y609896D01*
X-21567Y610590D01*
X-20989Y610590D01*
X-20989Y609896D01*
G54D11*
X-1489Y605989D02*
X-1489Y605296D01*
X-2067Y605296D01*
X-2067Y605989D01*
X-1489Y605989D01*
X-1489Y605296D01*
G54D12*
X236284Y417352D02*
X236284Y433352D01*
X244684Y433352D01*
G54D12*
X236284Y425352D02*
X244684Y425352D01*
G54D12*
X283784Y417552D02*
X283784Y433552D01*
X293384Y417552D01*
X293384Y433552D01*
G54D21*
X200180Y482166D02*
X204180Y471500D01*
X208180Y482166D01*
G54D21*
X211913Y477500D02*
X215113Y471500D01*
X218313Y477500D01*
G54D21*
X226846Y473100D02*
X226846Y475766D01*
X226046Y477100D01*
X224446Y477500D01*
X222846Y477100D01*
X222046Y475766D01*
X222046Y473100D01*
X222846Y471766D01*
X224446Y471500D01*
X226046Y471766D01*
X226846Y473100D01*
G54D21*
X235379Y471500D02*
X235379Y482166D01*
G54D21*
X235379Y475766D02*
X234579Y477100D01*
X232979Y477500D01*
X231379Y477100D01*
X230579Y475766D01*
X230579Y473100D01*
X231379Y471766D01*
X232979Y471500D01*
X234579Y471766D01*
X235379Y473100D01*
G54D21*
X243005Y476166D02*
X243645Y477100D01*
X244605Y477633D01*
X245885Y477633D01*
X246845Y477100D01*
X247645Y476166D01*
X248285Y475233D01*
X249245Y474700D01*
X250685Y474700D01*
X251485Y475233D01*
X252125Y476166D01*
G54D21*
X262258Y471500D02*
X255858Y471500D01*
X255858Y472166D01*
X256658Y473500D01*
X261458Y477500D01*
X262258Y478833D01*
X262258Y480166D01*
X261458Y481500D01*
X259858Y482166D01*
X258258Y482166D01*
X256658Y481500D01*
X255858Y480166D01*
G54D21*
X272391Y471500D02*
X265991Y471500D01*
X265991Y472166D01*
X266791Y473500D01*
X271591Y477500D01*
X272391Y478833D01*
X272391Y480166D01*
X271591Y481500D01*
X269991Y482166D01*
X268391Y482166D01*
X266791Y481500D01*
X265991Y480166D01*
G54D21*
X282524Y480166D02*
X282524Y473500D01*
X281724Y472166D01*
X280124Y471500D01*
X278524Y471500D01*
X276924Y472166D01*
X276124Y473500D01*
X276124Y480166D01*
X276924Y481500D01*
X278524Y482166D01*
X280124Y482166D01*
X281724Y481500D01*
X282524Y480166D01*
G54D21*
X286257Y482166D02*
X290257Y471500D01*
X294257Y482166D01*
G54D10*
X103847Y489627D02*
X196647Y489627D01*
X196680Y449100D01*
X196647Y414527D01*
X103847Y414627D01*
X103847Y489627D01*
G54D14*
X156184Y417885D02*
X156184Y431218D01*
X164184Y417885D01*
X164184Y431218D01*
G54D22*
X117876Y417122D02*
X117876Y430455D01*
G54D22*
X113876Y430455D02*
X121876Y430455D01*
G54D22*
X133543Y427955D02*
X133543Y419622D01*
X132543Y417955D01*
X130543Y417122D01*
X128543Y417122D01*
X126543Y417955D01*
X125543Y419622D01*
X125543Y427955D01*
X126543Y429622D01*
X128543Y430455D01*
X130543Y430455D01*
X132543Y429622D01*
X133543Y427955D01*
G54D10*
X200147Y489727D02*
X292947Y489727D01*
X292980Y449200D01*
X292947Y414627D01*
X200147Y414727D01*
X200147Y489727D01*
G54D10*
X7867Y489627D02*
X100667Y489627D01*
X100700Y449100D01*
X100667Y414527D01*
X7867Y414627D01*
X7867Y489627D01*
G54D14*
X56204Y417885D02*
X56204Y431218D01*
X64204Y417885D01*
X64204Y431218D01*
G54D22*
X17896Y417122D02*
X17896Y430455D01*
G54D22*
X13896Y430455D02*
X21896Y430455D01*
G54D22*
X33564Y427955D02*
X33564Y419622D01*
X32564Y417955D01*
X30564Y417122D01*
X28564Y417122D01*
X26564Y417955D01*
X25564Y419622D01*
X25564Y427955D01*
X26564Y429622D01*
X28564Y430455D01*
X30564Y430455D01*
X32564Y429622D01*
X33564Y427955D01*
G54D23*
X137847Y642673D02*
X137847Y611473D01*
X153447Y611473D01*
X153447Y642673D01*
X137847Y642673D01*
G54D11*
X109968Y649974D02*
X109968Y649281D01*
X110545Y649281D01*
X110545Y649974D01*
X109968Y649974D01*
X109968Y649281D01*
G54D11*
X129471Y649973D02*
X129471Y649280D01*
X130048Y649280D01*
X130048Y649973D01*
X129471Y649973D01*
X129471Y649280D01*
G54D10*
X163301Y673103D02*
X226801Y673103D01*
X226801Y596903D01*
X163301Y596903D01*
X163301Y673103D01*
G54D16*
X195564Y611569D02*
X195564Y606013D01*
X194898Y604902D01*
X193564Y604347D01*
X192231Y604347D01*
X190898Y604902D01*
X190231Y606013D01*
X190231Y611569D01*
X190898Y612680D01*
X192231Y613236D01*
X193564Y613236D01*
X194898Y612680D01*
X195564Y611569D01*
G54D16*
X198675Y613236D02*
X202008Y604347D01*
X205342Y613236D01*
G54D13*
X292571Y597779D02*
X267171Y597779D01*
X267171Y648579D01*
X292571Y648579D01*
X292571Y597779D01*
G54D13*
X232571Y597779D02*
X207171Y597779D01*
X207171Y648579D01*
X232571Y648579D01*
X232571Y597779D01*
G54D13*
X133006Y652695D02*
X133006Y678095D01*
X158406Y678095D01*
X158406Y652695D01*
X133006Y652695D01*
G54D11*
X248344Y671973D02*
X247651Y671973D01*
X247651Y671395D01*
X248344Y671395D01*
X248344Y671973D01*
X247651Y671973D01*
G54D11*
X132949Y685345D02*
X132256Y685345D01*
X132256Y685923D01*
X132949Y685923D01*
X132949Y685345D01*
X132256Y685345D01*
G54D16*
X129424Y659174D02*
X129424Y668063D01*
X132757Y662508D01*
X136091Y668063D01*
X136091Y659174D01*
G54D23*
X212071Y639079D02*
X212071Y607880D01*
X227671Y607879D01*
X227671Y639079D01*
X212071Y639079D01*
G54D11*
X184190Y646382D02*
X184190Y645688D01*
X184768Y645688D01*
X184768Y646382D01*
X184190Y646382D01*
X184190Y645688D01*
G54D11*
X203695Y646380D02*
X203695Y645686D01*
X204273Y645686D01*
X204273Y646380D01*
X203695Y646380D01*
X203695Y645686D01*
G54D15*
X282874Y627839D02*
X293541Y627839D01*
G54D15*
X288208Y632284D02*
X288208Y623394D01*
G54D16*
X284564Y597569D02*
X284564Y592013D01*
X283898Y590902D01*
X282564Y590347D01*
X281231Y590347D01*
X279898Y590902D01*
X279231Y592013D01*
X279231Y597569D01*
X279898Y598680D01*
X281231Y599236D01*
X282564Y599236D01*
X283898Y598680D01*
X284564Y597569D01*
G54D16*
X287675Y599236D02*
X291008Y590347D01*
X294342Y599236D01*
G54D23*
X270900Y666250D02*
X270900Y674250D01*
X229700Y674250D01*
X229700Y666250D01*
G54D23*
G75*
G01X229600Y666350D02*
G03X271000Y666350I20700J0D01*
G01*
G54D24*
X263940Y652050D02*
X263940Y659150D01*
G54D24*
X265940Y652050D02*
X265940Y659150D01*
X270240Y652050D01*
X270240Y659150D01*
G54D13*
X237006Y597695D02*
X237006Y623095D01*
X262406Y623095D01*
X262406Y597695D01*
X237006Y597695D01*
G54D11*
X358949Y616845D02*
X358256Y616845D01*
X358256Y617423D01*
X358949Y617423D01*
X358949Y616845D01*
X358256Y616845D01*
G54D11*
X236949Y630345D02*
X236256Y630345D01*
X236256Y630923D01*
X236949Y630923D01*
X236949Y630345D01*
X236256Y630345D01*
G54D13*
X272006Y649695D02*
X272006Y675095D01*
X297406Y675095D01*
X297406Y649695D01*
X272006Y649695D01*
G54D11*
X393949Y668845D02*
X393256Y668845D01*
X393256Y669423D01*
X393949Y669423D01*
X393949Y668845D01*
X393256Y668845D01*
G54D11*
X271949Y682345D02*
X271256Y682345D01*
X271256Y682923D01*
X271949Y682923D01*
X271949Y682345D01*
X271256Y682345D01*
G54D15*
X186874Y652839D02*
X197541Y652839D01*
G54D15*
X192208Y657284D02*
X192208Y648394D01*
G54D24*
X288940Y670050D02*
X288940Y677150D01*
G54D24*
X290940Y670050D02*
X290940Y677150D01*
X295240Y670050D01*
X295240Y677150D01*
G54D24*
X267460Y625850D02*
X267460Y621350D01*
X266860Y620450D01*
X265860Y620050D01*
X264760Y620050D01*
X263660Y620450D01*
X263160Y621350D01*
X263160Y625850D01*
X263660Y626750D01*
X264760Y627150D01*
X265860Y627150D01*
X266860Y626750D01*
X267460Y625850D01*
G54D24*
X269460Y627150D02*
X269460Y621350D01*
X269960Y620450D01*
X271060Y620050D01*
X272160Y620050D01*
X273160Y620450D01*
X273760Y621350D01*
X273760Y627150D01*
G54D24*
X277860Y620050D02*
X277860Y627150D01*
G54D24*
X275760Y627150D02*
X280060Y627150D01*
G54D16*
X276945Y672564D02*
X282278Y672564D01*
G54D16*
X279612Y674786D02*
X279612Y670342D01*
G54D10*
X204321Y92056D02*
X297321Y91056D01*
X297354Y51329D01*
X297321Y16956D01*
X204321Y17056D01*
X204321Y92056D01*
G54D12*
X211858Y18981D02*
X211858Y34981D01*
X220258Y34981D01*
G54D12*
X211858Y26981D02*
X220258Y26981D01*
G54D12*
X225858Y31981D02*
X227058Y33981D01*
X229458Y34981D01*
X231858Y34981D01*
X234258Y33981D01*
X235458Y31981D01*
X235458Y29981D01*
X234258Y27981D01*
X231858Y26981D01*
X234258Y25981D01*
X235458Y23981D01*
X235458Y21981D01*
X234258Y19981D01*
X231858Y18981D01*
X229458Y18981D01*
X227058Y19981D01*
X225858Y21981D01*
G54D12*
X254858Y18981D02*
X254858Y34981D01*
X264458Y18981D01*
X264458Y34981D01*
G54D10*
X106921Y92056D02*
X199921Y91056D01*
X199954Y51329D01*
X199921Y16956D01*
X106921Y17056D01*
X106921Y92056D01*
G54D12*
X111858Y18981D02*
X111858Y34981D01*
X120258Y34981D01*
G54D12*
X111858Y26981D02*
X120258Y26981D01*
G54D12*
X135458Y18981D02*
X125858Y18981D01*
X125858Y19981D01*
X127058Y21981D01*
X134258Y27981D01*
X135458Y29981D01*
X135458Y31981D01*
X134258Y33981D01*
X131858Y34981D01*
X129458Y34981D01*
X127058Y33981D01*
X125858Y31981D01*
G54D12*
X154858Y18981D02*
X154858Y34981D01*
X164458Y18981D01*
X164458Y34981D01*
G54D23*
X8472Y197400D02*
X75172Y197400D01*
X75172Y159200D01*
X8472Y159200D01*
X8472Y197400D01*
G54D11*
X82866Y205801D02*
X82172Y205801D01*
X82172Y206378D01*
X82866Y206378D01*
X82866Y205801D01*
X82172Y205801D01*
G54D11*
X82866Y186301D02*
X82172Y186301D01*
X82172Y186878D01*
X82866Y186878D01*
X82866Y186301D01*
X82172Y186301D01*
G54D17*
X18757Y127080D02*
X47216Y113810D01*
X40454Y99309D01*
X11995Y112580D01*
X18757Y127080D01*
G54D17*
X21358Y117040D02*
X28608Y113660D01*
X30722Y118191D01*
X26496Y109128D01*
G54D17*
X32534Y117346D02*
X28308Y108283D01*
G54D17*
X30421Y112814D02*
X37672Y109434D01*
G54D11*
X26815Y152066D02*
X26187Y152358D01*
X26431Y152882D01*
X27059Y152589D01*
X26815Y152066D01*
X26187Y152358D01*
G54D11*
X18574Y134392D02*
X17946Y134686D01*
X18190Y135209D01*
X18818Y134916D01*
X18574Y134392D01*
X17946Y134686D01*
G54D23*
X98375Y208029D02*
X98375Y239229D01*
X82775Y239229D01*
X82775Y208029D01*
X98375Y208029D01*
G54D11*
X126254Y200727D02*
X126254Y201421D01*
X125677Y201421D01*
X125677Y200727D01*
X126254Y200727D01*
X126254Y201421D01*
G54D11*
X106752Y200728D02*
X106752Y201421D01*
X106175Y201421D01*
X106175Y200728D01*
X106752Y200728D01*
X106752Y201421D01*
G54D23*
X82935Y184172D02*
X82935Y152972D01*
X98535Y152972D01*
X98535Y184172D01*
X82935Y184172D01*
G54D11*
X55055Y191474D02*
X55055Y190781D01*
X55633Y190781D01*
X55633Y191474D01*
X55055Y191474D01*
X55055Y190781D01*
G54D11*
X74560Y191473D02*
X74560Y190779D01*
X75138Y190779D01*
X75138Y191473D01*
X74560Y191473D01*
X74560Y190779D01*
G54D23*
X64384Y99849D02*
X92661Y113035D01*
X86068Y127174D01*
X57792Y113988D01*
X64384Y99849D01*
G54D11*
X69551Y71496D02*
X70179Y71789D01*
X69935Y72312D01*
X69307Y72019D01*
X69551Y71496D01*
X70179Y71789D01*
G54D11*
X61309Y89173D02*
X61937Y89466D01*
X61693Y89990D01*
X61064Y89697D01*
X61309Y89173D01*
X61937Y89466D01*
G54D13*
X79354Y251429D02*
X79354Y302229D01*
X3154Y302229D01*
X3154Y251429D01*
X79354Y251429D01*
G54D13*
X79354Y264129D02*
X79354Y289529D01*
X66654Y289529D01*
X66654Y264129D01*
X79354Y264129D01*
G54D11*
X-4096Y244188D02*
X-4790Y244188D01*
X-4790Y244766D01*
X-4096Y244766D01*
X-4096Y244188D01*
X-4790Y244188D01*
G54D23*
X82429Y315757D02*
X82429Y284557D01*
X98029Y284557D01*
X98029Y315757D01*
X82429Y315757D01*
G54D11*
X50528Y322884D02*
X50528Y322191D01*
X51106Y322191D01*
X51106Y322884D01*
X50528Y322884D01*
X50528Y322191D01*
G54D11*
X74052Y323058D02*
X74052Y322364D01*
X74630Y322364D01*
X74630Y323058D01*
X74052Y323058D01*
X74052Y322364D01*
G54D10*
X7821Y92056D02*
X100821Y91056D01*
X100854Y51329D01*
X100821Y16956D01*
X7821Y17056D01*
X7821Y92056D01*
G54D12*
X11858Y18981D02*
X11858Y34981D01*
X20258Y34981D01*
G54D12*
X11858Y26981D02*
X20258Y26981D01*
G54D12*
X25858Y28981D02*
X31858Y34981D01*
X31858Y18981D01*
G54D12*
X54858Y18981D02*
X54858Y34981D01*
X64458Y18981D01*
X64458Y34981D01*
G54D23*
X107497Y197272D02*
X174197Y197272D01*
X174197Y159072D01*
X107497Y159072D01*
X107497Y197272D01*
G54D11*
X181891Y205672D02*
X181197Y205672D01*
X181197Y206250D01*
X181891Y206250D01*
X181891Y205672D01*
X181197Y205672D01*
G54D11*
X181891Y186172D02*
X181197Y186172D01*
X181197Y186750D01*
X181891Y186750D01*
X181891Y186172D01*
X181197Y186172D01*
G54D17*
X117782Y126952D02*
X146240Y113681D01*
X139478Y99180D01*
X111020Y112451D01*
X117782Y126952D01*
G54D17*
X120383Y116912D02*
X127634Y113531D01*
X129746Y118062D01*
X125520Y108999D01*
G54D17*
X131559Y117217D02*
X127333Y108154D01*
G54D17*
X129446Y112686D02*
X136696Y109305D01*
G54D11*
X125840Y151937D02*
X125212Y152230D01*
X125456Y152753D01*
X126084Y152460D01*
X125840Y151937D01*
X125212Y152230D01*
G54D11*
X117599Y134264D02*
X116970Y134557D01*
X117215Y135080D01*
X117843Y134787D01*
X117599Y134264D01*
X116970Y134557D01*
G54D23*
X197400Y207900D02*
X197400Y239100D01*
X181800Y239100D01*
X181800Y207900D01*
X197400Y207900D01*
G54D11*
X225280Y200598D02*
X225280Y201292D01*
X224702Y201292D01*
X224702Y200598D01*
X225280Y200598D01*
X225280Y201292D01*
G54D11*
X205777Y200599D02*
X205777Y201292D01*
X205200Y201292D01*
X205200Y200599D01*
X205777Y200599D01*
X205777Y201292D01*
G54D23*
X181960Y184044D02*
X181960Y152844D01*
X197560Y152844D01*
X197560Y184044D01*
X181960Y184044D01*
G54D11*
X154080Y191346D02*
X154080Y190652D01*
X154658Y190652D01*
X154658Y191346D01*
X154080Y191346D01*
X154080Y190652D01*
G54D11*
X173585Y191344D02*
X173585Y190650D01*
X174162Y190650D01*
X174162Y191344D01*
X173585Y191344D01*
X173585Y190650D01*
G54D23*
X163409Y99720D02*
X191686Y112906D01*
X185093Y127045D01*
X156816Y113859D01*
X163409Y99720D01*
G54D11*
X168576Y71367D02*
X169204Y71660D01*
X168960Y72184D01*
X168332Y71890D01*
X168576Y71367D01*
X169204Y71660D01*
G54D11*
X160334Y89044D02*
X160962Y89338D01*
X160718Y89861D01*
X160089Y89568D01*
X160334Y89044D01*
X160962Y89338D01*
G54D13*
X178378Y251300D02*
X178379Y302100D01*
X102178Y302100D01*
X102179Y251300D01*
X178378Y251300D01*
G54D13*
X178378Y264000D02*
X178379Y289400D01*
X165679Y289400D01*
X165679Y264000D01*
X178378Y264000D01*
G54D11*
X94928Y244059D02*
X94235Y244059D01*
X94235Y244637D01*
X94928Y244637D01*
X94928Y244059D01*
X94235Y244059D01*
G54D23*
X181454Y315629D02*
X181454Y284429D01*
X197054Y284429D01*
X197054Y315629D01*
X181454Y315629D01*
G54D11*
X149553Y322756D02*
X149553Y322062D01*
X150131Y322062D01*
X150131Y322756D01*
X149553Y322756D01*
X149553Y322062D01*
G54D11*
X173077Y322929D02*
X173077Y322236D01*
X173655Y322236D01*
X173655Y322929D01*
X173077Y322929D01*
X173077Y322236D01*
G54D23*
X206697Y197372D02*
X273397Y197372D01*
X273397Y159172D01*
X206697Y159172D01*
X206697Y197372D01*
G54D11*
X281091Y205772D02*
X280397Y205772D01*
X280397Y206350D01*
X281091Y206350D01*
X281091Y205772D01*
X280397Y205772D01*
G54D11*
X281091Y186272D02*
X280397Y186272D01*
X280397Y186850D01*
X281091Y186850D01*
X281091Y186272D01*
X280397Y186272D01*
G54D17*
X216982Y127052D02*
X245440Y113781D01*
X238678Y99280D01*
X210220Y112551D01*
X216982Y127052D01*
G54D17*
X219583Y117012D02*
X226834Y113631D01*
X228946Y118162D01*
X224720Y109099D01*
G54D17*
X230759Y117317D02*
X226533Y108254D01*
G54D17*
X228646Y112786D02*
X235896Y109405D01*
G54D11*
X225040Y152037D02*
X224412Y152330D01*
X224656Y152853D01*
X225284Y152560D01*
X225040Y152037D01*
X224412Y152330D01*
G54D11*
X216799Y134364D02*
X216170Y134657D01*
X216415Y135180D01*
X217043Y134887D01*
X216799Y134364D01*
X216170Y134657D01*
G54D23*
X296600Y208000D02*
X296600Y239200D01*
X281000Y239200D01*
X281000Y208000D01*
X296600Y208000D01*
G54D11*
X324480Y200698D02*
X324480Y201392D01*
X323902Y201392D01*
X323902Y200698D01*
X324480Y200698D01*
X324480Y201392D01*
G54D11*
X304977Y200699D02*
X304977Y201392D01*
X304400Y201392D01*
X304400Y200699D01*
X304977Y200699D01*
X304977Y201392D01*
G54D23*
X281160Y184144D02*
X281160Y152944D01*
X296760Y152944D01*
X296760Y184144D01*
X281160Y184144D01*
G54D11*
X253280Y191446D02*
X253280Y190752D01*
X253858Y190752D01*
X253858Y191446D01*
X253280Y191446D01*
X253280Y190752D01*
G54D11*
X272785Y191444D02*
X272785Y190750D01*
X273362Y190750D01*
X273362Y191444D01*
X272785Y191444D01*
X272785Y190750D01*
G54D23*
X262609Y99820D02*
X290886Y113006D01*
X284293Y127145D01*
X256016Y113959D01*
X262609Y99820D01*
G54D11*
X267776Y71467D02*
X268404Y71760D01*
X268160Y72284D01*
X267532Y71990D01*
X267776Y71467D01*
X268404Y71760D01*
G54D11*
X259534Y89144D02*
X260162Y89438D01*
X259918Y89961D01*
X259289Y89668D01*
X259534Y89144D01*
X260162Y89438D01*
G54D13*
X277578Y251400D02*
X277579Y302200D01*
X201378Y302200D01*
X201379Y251400D01*
X277578Y251400D01*
G54D13*
X277578Y264100D02*
X277579Y289500D01*
X264879Y289500D01*
X264879Y264100D01*
X277578Y264100D01*
G54D11*
X194128Y244159D02*
X193435Y244159D01*
X193435Y244737D01*
X194128Y244737D01*
X194128Y244159D01*
X193435Y244159D01*
G54D23*
X280654Y315729D02*
X280654Y284529D01*
X296254Y284529D01*
X296254Y315729D01*
X280654Y315729D01*
G54D11*
X248753Y322856D02*
X248753Y322162D01*
X249331Y322162D01*
X249331Y322856D01*
X248753Y322856D01*
X248753Y322162D01*
G54D11*
X272277Y323029D02*
X272277Y322336D01*
X272855Y322336D01*
X272855Y323029D01*
X272277Y323029D01*
X272277Y322336D01*
G54D11*
X18097Y221171D02*
X18097Y220478D01*
X18674Y220478D01*
X18674Y221171D01*
X18097Y221171D01*
X18097Y220478D01*
G54D13*
X28654Y324629D02*
X28654Y350029D01*
X79454Y350029D01*
X79454Y324629D01*
X28654Y324629D01*
G54D13*
X127754Y324629D02*
X127754Y350029D01*
X178554Y350029D01*
X178554Y324629D01*
X127754Y324629D01*
G54D13*
X226654Y324629D02*
X226654Y350029D01*
X277454Y350029D01*
X277454Y324629D01*
X226654Y324629D01*
G54D23*
X102454Y354429D02*
X202454Y354429D01*
X202454Y11329D01*
X102454Y11329D01*
X102454Y354429D01*
G54D10*
X593700Y797600D02*
X353700Y797600D01*
X353700Y957600D01*
X593700Y957600D01*
X593700Y797600D01*
G54D11*
X-167207Y1055300D02*
X-167900Y1055300D01*
X-167900Y1055878D01*
X-167207Y1055878D01*
X-167207Y1055300D01*
X-167900Y1055300D01*
G54D12*
X518104Y938452D02*
X524104Y944452D01*
X524104Y928452D01*
G54D12*
X530704Y810452D02*
X521104Y810452D01*
X521104Y811452D01*
X522304Y813452D01*
X529504Y819452D01*
X530704Y821452D01*
X530704Y823452D01*
X529504Y825452D01*
X527104Y826452D01*
X524704Y826452D01*
X522304Y825452D01*
X521104Y823452D01*
G54D12*
X545904Y810452D02*
X536304Y810452D01*
X536304Y811452D01*
X537504Y813452D01*
X544704Y819452D01*
X545904Y821452D01*
X545904Y823452D01*
X544704Y825452D01*
X542304Y826452D01*
X539904Y826452D01*
X537504Y825452D01*
X536304Y823452D01*
G54D12*
X519104Y974452D02*
X525104Y980452D01*
X525104Y964452D01*
G54D11*
X-167207Y1035800D02*
X-167900Y1035800D01*
X-167900Y1036378D01*
X-167207Y1036378D01*
X-167207Y1035800D01*
X-167900Y1035800D01*
G54D13*
X440716Y994395D02*
X440716Y968995D01*
X415316Y968995D01*
X415316Y994395D01*
X440716Y994395D01*
G54D11*
X441467Y941667D02*
X440774Y941667D01*
X440774Y942244D01*
X441467Y942244D01*
X441467Y941667D01*
X440774Y941667D01*
G54D11*
X441467Y961167D02*
X440774Y961167D01*
X440774Y961744D01*
X441467Y961744D01*
X441467Y961167D01*
X440774Y961167D01*
G54D13*
X342022Y871909D02*
X316622Y871909D01*
X316622Y922709D01*
X342022Y922709D01*
X342022Y871909D01*
G54D14*
X316057Y871855D02*
X316057Y863522D01*
X315057Y861855D01*
X313057Y861022D01*
X311057Y861022D01*
X309057Y861855D01*
X308057Y863522D01*
X308057Y871855D01*
X309057Y873522D01*
X311057Y874355D01*
X313057Y874355D01*
X315057Y873522D01*
X316057Y871855D01*
G54D14*
X320724Y874355D02*
X325724Y861022D01*
X330724Y874355D01*
G54D15*
X303620Y926056D02*
X314287Y926056D01*
G54D15*
X308954Y930501D02*
X308954Y921612D01*
G54D16*
X437523Y976370D02*
X437523Y985259D01*
X440857Y979704D01*
X444190Y985259D01*
X444190Y976370D01*
G54D13*
X457600Y969200D02*
X457600Y994600D01*
X508400Y994600D01*
X508400Y969200D01*
X457600Y969200D01*
G54D13*
X385800Y760900D02*
X385800Y786300D01*
X436600Y786300D01*
X436600Y760900D01*
X385800Y760900D01*
G54D16*
X402224Y755444D02*
X402224Y764333D01*
X405557Y764333D01*
X406890Y763778D01*
X407557Y762667D01*
X407557Y761556D01*
X406890Y760444D01*
X405557Y759889D01*
X406890Y759333D01*
X407557Y758222D01*
X407557Y757111D01*
X406890Y756000D01*
X405557Y755444D01*
X402224Y755444D01*
G54D16*
X402224Y759889D02*
X405557Y759889D01*
G54D16*
X410668Y764333D02*
X410668Y757111D01*
X411334Y756000D01*
X412668Y755444D01*
X414001Y755444D01*
X415334Y756000D01*
X416001Y757111D01*
X416001Y764333D01*
G54D16*
X421778Y759889D02*
X423778Y758778D01*
X424445Y757667D01*
X424445Y755444D01*
G54D16*
X419112Y755444D02*
X419112Y764333D01*
X422445Y764333D01*
X423778Y763778D01*
X424445Y762667D01*
X424445Y761556D01*
X423778Y760444D01*
X422445Y759889D01*
X419112Y759889D01*
G54D16*
X427556Y755444D02*
X427556Y764333D01*
X432889Y755444D01*
X432889Y764333D01*
G54D16*
X510490Y755044D02*
X510490Y763934D01*
G54D16*
X507824Y763934D02*
X513157Y763934D01*
G54D16*
X516268Y760044D02*
X521601Y755044D01*
G54D16*
X516268Y755044D02*
X521601Y760044D01*
G54D16*
X487990Y759389D02*
X489990Y758278D01*
X490657Y757167D01*
X490657Y754944D01*
G54D16*
X485324Y754944D02*
X485324Y763834D01*
X488657Y763834D01*
X489990Y763278D01*
X490657Y762167D01*
X490657Y761056D01*
X489990Y759944D01*
X488657Y759389D01*
X485324Y759389D01*
G54D16*
X493768Y759944D02*
X499101Y754944D01*
G54D16*
X493768Y754944D02*
X499101Y759944D01*
G54D16*
X314924Y770700D02*
X318257Y774033D01*
X318257Y765144D01*
G54D16*
X326701Y772367D02*
X326701Y766811D01*
X326034Y765700D01*
X324701Y765144D01*
X323368Y765144D01*
X322034Y765700D01*
X321368Y766811D01*
X321368Y772367D01*
X322034Y773478D01*
X323368Y774033D01*
X324701Y774033D01*
X326034Y773478D01*
X326701Y772367D01*
G54D16*
X329812Y765144D02*
X329812Y774033D01*
G54D16*
X331812Y768478D02*
X333812Y765144D01*
G54D16*
X329812Y767367D02*
X333812Y770144D01*
G54D16*
X448224Y843200D02*
X451557Y846534D01*
X451557Y837645D01*
G54D16*
X460001Y844867D02*
X460001Y839311D01*
X459334Y838200D01*
X458001Y837645D01*
X456668Y837645D01*
X455334Y838200D01*
X454668Y839311D01*
X454668Y844867D01*
X455334Y845978D01*
X456668Y846534D01*
X458001Y846534D01*
X459334Y845978D01*
X460001Y844867D01*
G54D16*
X463112Y837645D02*
X463112Y846534D01*
G54D16*
X465112Y840978D02*
X467112Y837645D01*
G54D16*
X463112Y839867D02*
X467112Y842645D01*
G54D16*
X378124Y844100D02*
X381457Y847434D01*
X381457Y838545D01*
G54D16*
X389901Y845767D02*
X389901Y840211D01*
X389234Y839100D01*
X387901Y838545D01*
X386568Y838545D01*
X385234Y839100D01*
X384568Y840211D01*
X384568Y845767D01*
X385234Y846878D01*
X386568Y847434D01*
X387901Y847434D01*
X389234Y846878D01*
X389901Y845767D01*
G54D16*
X393012Y838545D02*
X393012Y847434D01*
G54D16*
X395012Y841878D02*
X397012Y838545D01*
G54D16*
X393012Y840767D02*
X397012Y843545D01*
G54D16*
X524624Y884700D02*
X527957Y888033D01*
X527957Y879145D01*
G54D16*
X536401Y886367D02*
X536401Y880811D01*
X535734Y879700D01*
X534401Y879145D01*
X533068Y879145D01*
X531734Y879700D01*
X531068Y880811D01*
X531068Y886367D01*
X531734Y887478D01*
X533068Y888033D01*
X534401Y888033D01*
X535734Y887478D01*
X536401Y886367D01*
G54D16*
X539512Y879145D02*
X539512Y888033D01*
G54D16*
X541512Y882478D02*
X543512Y879145D01*
G54D16*
X539512Y881367D02*
X543512Y884145D01*
G54D16*
X439324Y889000D02*
X442657Y892333D01*
X442657Y883445D01*
G54D16*
X451101Y890667D02*
X451101Y885111D01*
X450434Y884000D01*
X449101Y883445D01*
X447768Y883445D01*
X446434Y884000D01*
X445768Y885111D01*
X445768Y890667D01*
X446434Y891778D01*
X447768Y892333D01*
X449101Y892333D01*
X450434Y891778D01*
X451101Y890667D01*
G54D16*
X454212Y883445D02*
X454212Y892333D01*
G54D16*
X456212Y886778D02*
X458212Y883445D01*
G54D16*
X454212Y885667D02*
X458212Y888445D01*
G54D16*
X503924Y916445D02*
X503924Y925333D01*
X499924Y919778D01*
X499924Y918667D01*
X505257Y918667D01*
G54D16*
X508368Y925333D02*
X513701Y925333D01*
X513034Y924222D01*
X511701Y922556D01*
X510368Y920333D01*
X509701Y918667D01*
X509701Y916445D01*
G54D16*
X522145Y923667D02*
X522145Y918111D01*
X521478Y917000D01*
X520145Y916445D01*
X518812Y916445D01*
X517478Y917000D01*
X516812Y918111D01*
X516812Y923667D01*
X517478Y924778D01*
X518812Y925333D01*
X520145Y925333D01*
X521478Y924778D01*
X522145Y923667D01*
G54D16*
X518090Y985389D02*
X520090Y984278D01*
X520757Y983167D01*
X520757Y980945D01*
G54D16*
X515424Y980945D02*
X515424Y989833D01*
X518757Y989833D01*
X520090Y989278D01*
X520757Y988167D01*
X520757Y987056D01*
X520090Y985945D01*
X518757Y985389D01*
X515424Y985389D01*
G54D16*
X523868Y981500D02*
X525201Y980945D01*
X526534Y980945D01*
X527868Y981500D01*
X527868Y982611D01*
X527201Y983167D01*
X524534Y983722D01*
X523868Y984278D01*
X523868Y985389D01*
X525201Y985945D01*
X526534Y985945D01*
X527868Y985389D01*
G54D16*
X532312Y989833D02*
X532312Y981500D01*
X532979Y980945D01*
X533646Y981167D01*
G54D16*
X530979Y985945D02*
X533646Y985945D01*
G54D16*
X363857Y982592D02*
X363857Y977037D01*
X363190Y975926D01*
X361857Y975370D01*
X360523Y975370D01*
X359190Y975926D01*
X358523Y977037D01*
X358523Y982592D01*
X359190Y983704D01*
X360523Y984259D01*
X361857Y984259D01*
X363190Y983704D01*
X363857Y982592D01*
G54D16*
X370967Y975370D02*
X370967Y984259D01*
X366967Y978704D01*
X366967Y977592D01*
X372301Y977592D01*
G54D16*
X402857Y992592D02*
X402857Y987037D01*
X402190Y985926D01*
X400857Y985370D01*
X399523Y985370D01*
X398190Y985926D01*
X397523Y987037D01*
X397523Y992592D01*
X398190Y993704D01*
X399523Y994259D01*
X400857Y994259D01*
X402190Y993704D01*
X402857Y992592D01*
G54D16*
X405967Y992592D02*
X406634Y993704D01*
X407967Y994259D01*
X409301Y994259D01*
X410634Y993704D01*
X411301Y992592D01*
X411301Y991481D01*
X410634Y990370D01*
X409301Y989815D01*
X410634Y989259D01*
X411301Y988148D01*
X411301Y987037D01*
X410634Y985926D01*
X409301Y985370D01*
X407967Y985370D01*
X406634Y985926D01*
X405967Y987037D01*
G54D16*
X446857Y761592D02*
X446857Y756037D01*
X446190Y754926D01*
X444857Y754370D01*
X443523Y754370D01*
X442190Y754926D01*
X441523Y756037D01*
X441523Y761592D01*
X442190Y762704D01*
X443523Y763259D01*
X444857Y763259D01*
X446190Y762704D01*
X446857Y761592D01*
G54D16*
X449967Y759926D02*
X453301Y763259D01*
X453301Y754370D01*
G54D16*
X468857Y761592D02*
X468857Y756037D01*
X468190Y754926D01*
X466857Y754370D01*
X465523Y754370D01*
X464190Y754926D01*
X463523Y756037D01*
X463523Y761592D01*
X464190Y762704D01*
X465523Y763259D01*
X466857Y763259D01*
X468190Y762704D01*
X468857Y761592D01*
G54D16*
X477301Y754370D02*
X471967Y754370D01*
X471967Y754926D01*
X472634Y756037D01*
X476634Y759370D01*
X477301Y760481D01*
X477301Y761592D01*
X476634Y762704D01*
X475301Y763259D01*
X473967Y763259D01*
X472634Y762704D01*
X471967Y761592D01*
G54D13*
X478600Y761200D02*
X478600Y786600D01*
X529400Y786600D01*
X529400Y761200D01*
X478600Y761200D01*
G54D10*
X581320Y497700D02*
X306320Y497700D01*
X306320Y587700D01*
X581320Y587700D01*
X581320Y497700D01*
G54D17*
X412832Y648461D02*
X412832Y602461D01*
X348832Y602461D01*
X348832Y648461D01*
X412832Y648461D01*
G54D18*
X389898Y610461D02*
X389898Y614017D01*
G54D18*
X388832Y614017D02*
X390965Y614017D01*
G54D18*
X391932Y614017D02*
X391932Y610461D01*
X393798Y610461D01*
G54D18*
X394832Y610461D02*
X394832Y614017D01*
X396165Y614017D01*
X396698Y613794D01*
X396965Y613350D01*
X396965Y612906D01*
X396698Y612461D01*
X396165Y612239D01*
X394832Y612239D01*
G54D18*
X400065Y614017D02*
X397932Y614017D01*
X397932Y612461D01*
X398198Y612461D01*
X398732Y612683D01*
X399265Y612683D01*
X399798Y612461D01*
X400065Y612017D01*
X400065Y611128D01*
X399798Y610683D01*
X399265Y610461D01*
X398732Y610461D01*
X398198Y610683D01*
X397932Y611128D01*
G54D18*
X403165Y610461D02*
X401032Y610461D01*
X401032Y610683D01*
X401298Y611128D01*
X402898Y612461D01*
X403165Y612906D01*
X403165Y613350D01*
X402898Y613794D01*
X402365Y614017D01*
X401832Y614017D01*
X401298Y613794D01*
X401032Y613350D01*
G54D18*
X404132Y612683D02*
X405465Y614017D01*
X405465Y610461D01*
G54D18*
X407498Y612239D02*
X408565Y612239D01*
X408565Y611128D01*
X408298Y610683D01*
X407765Y610461D01*
X407232Y610461D01*
X406698Y610683D01*
X406432Y611128D01*
X406432Y613350D01*
X406698Y613794D01*
X407232Y614017D01*
X407765Y614017D01*
X408298Y613794D01*
X408565Y613350D01*
G54D18*
X409532Y610461D02*
X409532Y614017D01*
X410865Y614017D01*
X411398Y613794D01*
X411665Y613350D01*
X411665Y612906D01*
X411398Y612461D01*
X410865Y612239D01*
X411398Y612017D01*
X411665Y611572D01*
X411665Y611128D01*
X411398Y610683D01*
X410865Y610461D01*
X409532Y610461D01*
G54D18*
X409532Y612239D02*
X410865Y612239D01*
G54D18*
X396032Y605661D02*
X396032Y609217D01*
X397365Y609217D01*
X397898Y608994D01*
X398165Y608550D01*
X398165Y606328D01*
X397898Y605883D01*
X397365Y605661D01*
X396032Y605661D01*
G54D18*
X399132Y605661D02*
X399132Y609217D01*
G54D18*
X400132Y609217D02*
X400132Y605661D01*
X401998Y605661D01*
G54D18*
X404632Y605661D02*
X404632Y609217D01*
X403032Y606994D01*
X403032Y606550D01*
X405165Y606550D01*
G54D17*
X353832Y648461D02*
X353832Y602461D01*
G54D18*
X350832Y638683D02*
X352165Y640017D01*
X352165Y636461D01*
G54D18*
X352965Y610461D02*
X350832Y610461D01*
X350832Y610683D01*
X351098Y611128D01*
X352698Y612461D01*
X352965Y612906D01*
X352965Y613350D01*
X352698Y613794D01*
X352165Y614017D01*
X351632Y614017D01*
X351098Y613794D01*
X350832Y613350D01*
G54D18*
X408832Y616350D02*
X409098Y616794D01*
X409632Y617017D01*
X410165Y617017D01*
X410698Y616794D01*
X410965Y616350D01*
X410965Y615906D01*
X410698Y615461D01*
X410165Y615239D01*
X410698Y615017D01*
X410965Y614572D01*
X410965Y614128D01*
X410698Y613683D01*
X410165Y613461D01*
X409632Y613461D01*
X409098Y613683D01*
X408832Y614128D01*
G54D18*
X410432Y637461D02*
X410432Y641017D01*
X408832Y638794D01*
X408832Y638350D01*
X410965Y638350D01*
G54D17*
X348832Y638461D02*
X362832Y638461D01*
X362832Y613461D01*
X349832Y613461D01*
G54D17*
X358832Y629461D02*
X365832Y629461D01*
X366832Y629461D01*
X362832Y623461D01*
X362832Y623461D01*
X358832Y629461D01*
G54D17*
X358832Y623461D02*
X366832Y623461D01*
G54D17*
G75*
G01X362831Y643461D02*
G03X362831Y643461I-3000J0D01*
G01*
G54D17*
X372832Y629461D02*
X388832Y629461D01*
G54D17*
X372832Y623461D02*
X388832Y623461D01*
G36*
X382863Y631417D02*
X388863Y629417D01*
X382863Y627417D01*
X383863Y629417D01*
X382863Y631417D01*
G37*
G54D17*
X382863Y631417D02*
X388863Y629417D01*
X382863Y627417D01*
X383863Y629417D01*
X382863Y631417D01*
G36*
X382863Y625417D02*
X388863Y623417D01*
X382863Y621417D01*
X383863Y623417D01*
X382863Y625417D01*
G37*
G54D17*
X382863Y625417D02*
X388863Y623417D01*
X382863Y621417D01*
X383863Y623417D01*
X382863Y625417D01*
G54D17*
X415832Y638461D02*
X406832Y638461D01*
X397832Y629461D01*
G54D17*
X415832Y612461D02*
X407832Y612461D01*
X406832Y613461D01*
X397832Y622461D01*
G54D17*
X397832Y633461D02*
X397832Y618461D01*
G54D17*
X405832Y616461D02*
X407832Y612461D01*
X403832Y614461D01*
G54D17*
X397832Y625461D02*
X394832Y625461D01*
G54D17*
X412832Y644461D02*
X420832Y644461D01*
X420832Y632461D01*
X412832Y632461D01*
G54D17*
X412832Y618961D02*
X420832Y618961D01*
X420832Y606961D01*
X412832Y606961D01*
G54D17*
X348832Y632461D02*
X340832Y632461D01*
X340832Y644461D01*
X348832Y644461D01*
G54D17*
X348832Y606961D02*
X340832Y606961D01*
X340832Y618961D01*
X348832Y618961D01*
G54D17*
X343832Y644461D02*
X343832Y632461D01*
G54D17*
X343832Y618961D02*
X343832Y606961D01*
G54D17*
X417832Y618961D02*
X417832Y606961D01*
G54D17*
X417832Y644461D02*
X417832Y632461D01*
G54D17*
X417832Y640961D02*
X420832Y640961D01*
G54D17*
X417832Y635961D02*
X420832Y635961D01*
G54D17*
X417832Y615461D02*
X420832Y615461D01*
G54D17*
X417832Y610461D02*
X420832Y610461D01*
G54D17*
X340832Y615461D02*
X343832Y615461D01*
G54D17*
X340832Y610461D02*
X343832Y610461D01*
G54D17*
X340832Y640961D02*
X343832Y640961D01*
G54D17*
X340832Y635961D02*
X343832Y635961D01*
G54D11*
X335025Y674511D02*
X334332Y674511D01*
X334332Y675088D01*
X335025Y675088D01*
X335025Y674511D01*
X334332Y674511D01*
G54D11*
X335025Y655011D02*
X334332Y655011D01*
X334332Y655588D01*
X335025Y655588D01*
X335025Y655011D01*
X334332Y655011D01*
G54D18*
X318885Y627584D02*
X318885Y623615D01*
G54D18*
X320472Y626790D02*
X317297Y626790D01*
G54D18*
X318885Y626790D02*
X317297Y624409D01*
X320472Y624409D01*
X320472Y624409D01*
X318885Y626790D01*
G54D19*
X316503Y624409D02*
X314916Y625996D01*
G54D19*
X316503Y625996D02*
X314916Y627584D01*
G54D19*
X314916Y625203D02*
X314916Y625996D01*
X315710Y625996D01*
G54D19*
X314916Y626790D02*
X314916Y627584D01*
X315710Y627584D01*
G54D17*
X316503Y610915D02*
X316503Y615678D01*
X321266Y615678D01*
X321266Y610915D01*
X316503Y610915D01*
G54D17*
X316503Y636315D02*
X316503Y641078D01*
X321266Y641078D01*
X321266Y636315D01*
X316503Y636315D01*
G54D19*
X327882Y623465D02*
X329660Y623465D01*
X329660Y624398D01*
G54D19*
X328882Y624865D02*
X328882Y625932D01*
G54D19*
X329326Y626465D02*
X329548Y626598D01*
X329660Y626865D01*
X329660Y627132D01*
X329548Y627398D01*
X329326Y627532D01*
X328771Y627532D01*
X328660Y627532D01*
X328882Y627132D01*
X328882Y626865D01*
X328771Y626598D01*
X328548Y626465D01*
X328215Y626465D01*
X327993Y626598D01*
X327882Y626865D01*
X327882Y627132D01*
X327993Y627398D01*
X328215Y627532D01*
X328771Y627532D01*
G54D19*
X328215Y628065D02*
X327993Y628198D01*
X327882Y628465D01*
X327882Y628732D01*
X327993Y628998D01*
X328215Y629132D01*
X328437Y629132D01*
X328660Y628998D01*
X328771Y628732D01*
X328882Y628998D01*
X329104Y629132D01*
X329326Y629132D01*
X329548Y628998D01*
X329660Y628732D01*
X329660Y628465D01*
X329548Y628198D01*
X329326Y628065D01*
G54D19*
X329660Y630465D02*
X327882Y630465D01*
X328993Y629665D01*
X329215Y629665D01*
X329215Y630732D01*
G54D19*
X329326Y632332D02*
X329548Y632198D01*
X329660Y631932D01*
X329660Y631665D01*
X329548Y631398D01*
X329326Y631265D01*
X328215Y631265D01*
X327993Y631398D01*
X327882Y631665D01*
X327882Y631932D01*
X327993Y632198D01*
X328215Y632332D01*
G54D19*
X329660Y632865D02*
X327882Y632865D01*
X327882Y633532D01*
X327993Y633798D01*
X328215Y633932D01*
X328437Y633932D01*
X328660Y633798D01*
X328771Y633532D01*
X328882Y633798D01*
X329104Y633932D01*
X329326Y633932D01*
X329548Y633798D01*
X329660Y633532D01*
X329660Y632865D01*
G54D19*
X328771Y632865D02*
X328771Y633532D01*
G54D19*
X329660Y634465D02*
X327882Y635532D01*
G54D19*
X329326Y636065D02*
X329548Y636198D01*
X329660Y636465D01*
X329660Y636732D01*
X329548Y636998D01*
X329326Y637132D01*
X329104Y637132D01*
X328882Y636998D01*
X328771Y636732D01*
X328771Y636465D01*
X328660Y636198D01*
X328437Y636065D01*
X328215Y636065D01*
X327993Y636198D01*
X327882Y636465D01*
X327882Y636732D01*
X327993Y636998D01*
X328215Y637132D01*
G54D19*
X328771Y638198D02*
X328993Y638598D01*
X329215Y638732D01*
X329660Y638732D01*
G54D19*
X329660Y637665D02*
X327882Y637665D01*
X327882Y638332D01*
X327993Y638598D01*
X328215Y638732D01*
X328437Y638732D01*
X328660Y638598D01*
X328771Y638332D01*
X328771Y637665D01*
G54D19*
X329660Y639265D02*
X327882Y639265D01*
X327882Y639932D01*
X327993Y640198D01*
X328215Y640332D01*
X329326Y640332D01*
X329548Y640198D01*
X329660Y639932D01*
X329660Y639265D01*
G54D18*
X318019Y618290D02*
X316685Y619623D01*
X320241Y619623D01*
G54D18*
X320241Y633917D02*
X320241Y631784D01*
X320019Y631784D01*
X319574Y632051D01*
X318241Y633651D01*
X317796Y633917D01*
X317352Y633917D01*
X316908Y633651D01*
X316685Y633117D01*
X316685Y632584D01*
X316908Y632051D01*
X317352Y631784D01*
G54D20*
X325197Y611046D02*
X322530Y611046D01*
G54D20*
X324797Y612946D02*
X324130Y612946D01*
X323797Y612746D01*
X323697Y612346D01*
X323797Y611946D01*
X324130Y611746D01*
X324797Y611746D01*
X325130Y611946D01*
X325197Y612346D01*
X325130Y612746D01*
X324797Y612946D01*
G54D20*
X325197Y613646D02*
X323697Y613646D01*
G54D20*
X324030Y613646D02*
X323797Y613846D01*
X323697Y614246D01*
X323797Y614646D01*
X324030Y614846D01*
X325197Y614846D01*
G54D20*
X325697Y615546D02*
X325864Y615946D01*
X325864Y616226D01*
X325697Y616626D01*
X325364Y616746D01*
X323697Y616746D01*
G54D20*
X324130Y616746D02*
X323797Y616546D01*
X323697Y616146D01*
X323797Y615746D01*
X324130Y615546D01*
X324797Y615546D01*
X325130Y615746D01*
X325197Y616146D01*
X325130Y616546D01*
X324797Y616746D01*
G54D17*
G75*
G01X333185Y625996D02*
G03X333185Y625996I-14300J0D01*
G01*
G54D17*
G75*
G01X334785Y625996D02*
G03X334785Y625996I-15900J0D01*
G01*
G54D11*
X277011Y610590D02*
X277011Y609896D01*
X276433Y609896D01*
X276433Y610590D01*
X277011Y610590D01*
X277011Y609896D01*
G54D11*
X296511Y605989D02*
X296511Y605296D01*
X295933Y605296D01*
X295933Y605989D01*
X296511Y605989D01*
X296511Y605296D01*
G54D12*
X534284Y417352D02*
X534284Y433352D01*
X542684Y433352D01*
G54D12*
X534284Y425352D02*
X542684Y425352D01*
G54D12*
X581784Y417552D02*
X581784Y433552D01*
X591384Y417552D01*
X591384Y433552D01*
G54D21*
X498180Y482166D02*
X502180Y471500D01*
X506180Y482166D01*
G54D21*
X509913Y477500D02*
X513113Y471500D01*
X516313Y477500D01*
G54D21*
X524846Y473100D02*
X524846Y475766D01*
X524046Y477100D01*
X522446Y477500D01*
X520846Y477100D01*
X520046Y475766D01*
X520046Y473100D01*
X520846Y471766D01*
X522446Y471500D01*
X524046Y471766D01*
X524846Y473100D01*
G54D21*
X533379Y471500D02*
X533379Y482166D01*
G54D21*
X533379Y475766D02*
X532579Y477100D01*
X530979Y477500D01*
X529379Y477100D01*
X528579Y475766D01*
X528579Y473100D01*
X529379Y471766D01*
X530979Y471500D01*
X532579Y471766D01*
X533379Y473100D01*
G54D21*
X541005Y476166D02*
X541645Y477100D01*
X542605Y477633D01*
X543885Y477633D01*
X544845Y477100D01*
X545645Y476166D01*
X546285Y475233D01*
X547245Y474700D01*
X548685Y474700D01*
X549485Y475233D01*
X550125Y476166D01*
G54D21*
X560258Y471500D02*
X553858Y471500D01*
X553858Y472166D01*
X554658Y473500D01*
X559458Y477500D01*
X560258Y478833D01*
X560258Y480166D01*
X559458Y481500D01*
X557858Y482166D01*
X556258Y482166D01*
X554658Y481500D01*
X553858Y480166D01*
G54D21*
X570391Y471500D02*
X563991Y471500D01*
X563991Y472166D01*
X564791Y473500D01*
X569591Y477500D01*
X570391Y478833D01*
X570391Y480166D01*
X569591Y481500D01*
X567991Y482166D01*
X566391Y482166D01*
X564791Y481500D01*
X563991Y480166D01*
G54D21*
X580524Y480166D02*
X580524Y473500D01*
X579724Y472166D01*
X578124Y471500D01*
X576524Y471500D01*
X574924Y472166D01*
X574124Y473500D01*
X574124Y480166D01*
X574924Y481500D01*
X576524Y482166D01*
X578124Y482166D01*
X579724Y481500D01*
X580524Y480166D01*
G54D21*
X584257Y482166D02*
X588257Y471500D01*
X592257Y482166D01*
G54D10*
X401847Y489627D02*
X494647Y489627D01*
X494680Y449100D01*
X494647Y414527D01*
X401847Y414627D01*
X401847Y489627D01*
G54D14*
X454184Y417885D02*
X454184Y431218D01*
X462184Y417885D01*
X462184Y431218D01*
G54D22*
X415876Y417122D02*
X415876Y430455D01*
G54D22*
X411876Y430455D02*
X419876Y430455D01*
G54D22*
X431543Y427955D02*
X431543Y419622D01*
X430543Y417955D01*
X428543Y417122D01*
X426543Y417122D01*
X424543Y417955D01*
X423543Y419622D01*
X423543Y427955D01*
X424543Y429622D01*
X426543Y430455D01*
X428543Y430455D01*
X430543Y429622D01*
X431543Y427955D01*
G54D10*
X498147Y489727D02*
X590947Y489727D01*
X590980Y449200D01*
X590947Y414627D01*
X498147Y414727D01*
X498147Y489727D01*
G54D10*
X305867Y489627D02*
X398667Y489627D01*
X398700Y449100D01*
X398667Y414527D01*
X305867Y414627D01*
X305867Y489627D01*
G54D14*
X354204Y417885D02*
X354204Y431218D01*
X362204Y417885D01*
X362204Y431218D01*
G54D22*
X315896Y417122D02*
X315896Y430455D01*
G54D22*
X311896Y430455D02*
X319896Y430455D01*
G54D22*
X331564Y427955D02*
X331564Y419622D01*
X330564Y417955D01*
X328564Y417122D01*
X326564Y417122D01*
X324564Y417955D01*
X323564Y419622D01*
X323564Y427955D01*
X324564Y429622D01*
X326564Y430455D01*
X328564Y430455D01*
X330564Y429622D01*
X331564Y427955D01*
G54D23*
X435847Y642673D02*
X435847Y611473D01*
X451447Y611473D01*
X451447Y642673D01*
X435847Y642673D01*
G54D11*
X407968Y649974D02*
X407968Y649281D01*
X408545Y649281D01*
X408545Y649974D01*
X407968Y649974D01*
X407968Y649281D01*
G54D11*
X427471Y649973D02*
X427471Y649280D01*
X428048Y649280D01*
X428048Y649973D01*
X427471Y649973D01*
X427471Y649280D01*
G54D10*
X461301Y673103D02*
X524801Y673103D01*
X524801Y596903D01*
X461301Y596903D01*
X461301Y673103D01*
G54D16*
X493564Y611569D02*
X493564Y606013D01*
X492898Y604902D01*
X491564Y604347D01*
X490231Y604347D01*
X488898Y604902D01*
X488231Y606013D01*
X488231Y611569D01*
X488898Y612680D01*
X490231Y613236D01*
X491564Y613236D01*
X492898Y612680D01*
X493564Y611569D01*
G54D16*
X496675Y613236D02*
X500008Y604347D01*
X503342Y613236D01*
G54D13*
X590571Y597779D02*
X565171Y597779D01*
X565171Y648579D01*
X590571Y648579D01*
X590571Y597779D01*
G54D13*
X530571Y597779D02*
X505171Y597779D01*
X505171Y648579D01*
X530571Y648579D01*
X530571Y597779D01*
G54D13*
X431006Y652695D02*
X431006Y678095D01*
X456406Y678095D01*
X456406Y652695D01*
X431006Y652695D01*
G54D11*
X546344Y671973D02*
X545651Y671973D01*
X545651Y671395D01*
X546344Y671395D01*
X546344Y671973D01*
X545651Y671973D01*
G54D11*
X430949Y685345D02*
X430256Y685345D01*
X430256Y685923D01*
X430949Y685923D01*
X430949Y685345D01*
X430256Y685345D01*
G54D16*
X427424Y659174D02*
X427424Y668063D01*
X430757Y662508D01*
X434091Y668063D01*
X434091Y659174D01*
G54D23*
X510071Y639079D02*
X510071Y607880D01*
X525671Y607879D01*
X525671Y639079D01*
X510071Y639079D01*
G54D11*
X482190Y646382D02*
X482190Y645688D01*
X482768Y645688D01*
X482768Y646382D01*
X482190Y646382D01*
X482190Y645688D01*
G54D11*
X501695Y646380D02*
X501695Y645686D01*
X502273Y645686D01*
X502273Y646380D01*
X501695Y646380D01*
X501695Y645686D01*
G54D15*
X580874Y627839D02*
X591541Y627839D01*
G54D15*
X586208Y632284D02*
X586208Y623394D01*
G54D16*
X582564Y597569D02*
X582564Y592013D01*
X581898Y590902D01*
X580564Y590347D01*
X579231Y590347D01*
X577898Y590902D01*
X577231Y592013D01*
X577231Y597569D01*
X577898Y598680D01*
X579231Y599236D01*
X580564Y599236D01*
X581898Y598680D01*
X582564Y597569D01*
G54D16*
X585675Y599236D02*
X589008Y590347D01*
X592342Y599236D01*
G54D23*
X568900Y666250D02*
X568900Y674250D01*
X527700Y674250D01*
X527700Y666250D01*
G54D23*
G75*
G01X527600Y666350D02*
G03X569000Y666350I20700J0D01*
G01*
G54D24*
X561940Y652050D02*
X561940Y659150D01*
G54D24*
X563940Y652050D02*
X563940Y659150D01*
X568240Y652050D01*
X568240Y659150D01*
G54D13*
X535006Y597695D02*
X535006Y623095D01*
X560406Y623095D01*
X560406Y597695D01*
X535006Y597695D01*
G54D11*
X656949Y616845D02*
X656256Y616845D01*
X656256Y617423D01*
X656949Y617423D01*
X656949Y616845D01*
X656256Y616845D01*
G54D11*
X534949Y630345D02*
X534256Y630345D01*
X534256Y630923D01*
X534949Y630923D01*
X534949Y630345D01*
X534256Y630345D01*
G54D13*
X570006Y649695D02*
X570006Y675095D01*
X595406Y675095D01*
X595406Y649695D01*
X570006Y649695D01*
G54D11*
X691949Y668845D02*
X691256Y668845D01*
X691256Y669423D01*
X691949Y669423D01*
X691949Y668845D01*
X691256Y668845D01*
G54D11*
X569949Y682345D02*
X569256Y682345D01*
X569256Y682923D01*
X569949Y682923D01*
X569949Y682345D01*
X569256Y682345D01*
G54D15*
X484874Y652839D02*
X495541Y652839D01*
G54D15*
X490208Y657284D02*
X490208Y648394D01*
G54D24*
X586940Y670050D02*
X586940Y677150D01*
G54D24*
X588940Y670050D02*
X588940Y677150D01*
X593240Y670050D01*
X593240Y677150D01*
G54D24*
X565460Y625850D02*
X565460Y621350D01*
X564860Y620450D01*
X563860Y620050D01*
X562760Y620050D01*
X561660Y620450D01*
X561160Y621350D01*
X561160Y625850D01*
X561660Y626750D01*
X562760Y627150D01*
X563860Y627150D01*
X564860Y626750D01*
X565460Y625850D01*
G54D24*
X567460Y627150D02*
X567460Y621350D01*
X567960Y620450D01*
X569060Y620050D01*
X570160Y620050D01*
X571160Y620450D01*
X571760Y621350D01*
X571760Y627150D01*
G54D24*
X575860Y620050D02*
X575860Y627150D01*
G54D24*
X573760Y627150D02*
X578060Y627150D01*
G54D16*
X574945Y672564D02*
X580278Y672564D01*
G54D16*
X577612Y674786D02*
X577612Y670342D01*
G54D10*
X502321Y92056D02*
X595321Y91056D01*
X595354Y51329D01*
X595321Y16956D01*
X502321Y17056D01*
X502321Y92056D01*
G54D12*
X509858Y18981D02*
X509858Y34981D01*
X518258Y34981D01*
G54D12*
X509858Y26981D02*
X518258Y26981D01*
G54D12*
X523858Y31981D02*
X525058Y33981D01*
X527458Y34981D01*
X529858Y34981D01*
X532258Y33981D01*
X533458Y31981D01*
X533458Y29981D01*
X532258Y27981D01*
X529858Y26981D01*
X532258Y25981D01*
X533458Y23981D01*
X533458Y21981D01*
X532258Y19981D01*
X529858Y18981D01*
X527458Y18981D01*
X525058Y19981D01*
X523858Y21981D01*
G54D12*
X552858Y18981D02*
X552858Y34981D01*
X562458Y18981D01*
X562458Y34981D01*
G54D10*
X404921Y92056D02*
X497921Y91056D01*
X497954Y51329D01*
X497921Y16956D01*
X404921Y17056D01*
X404921Y92056D01*
G54D12*
X409858Y18981D02*
X409858Y34981D01*
X418258Y34981D01*
G54D12*
X409858Y26981D02*
X418258Y26981D01*
G54D12*
X433458Y18981D02*
X423858Y18981D01*
X423858Y19981D01*
X425058Y21981D01*
X432258Y27981D01*
X433458Y29981D01*
X433458Y31981D01*
X432258Y33981D01*
X429858Y34981D01*
X427458Y34981D01*
X425058Y33981D01*
X423858Y31981D01*
G54D12*
X452858Y18981D02*
X452858Y34981D01*
X462458Y18981D01*
X462458Y34981D01*
G54D23*
X306472Y197400D02*
X373172Y197400D01*
X373172Y159200D01*
X306472Y159200D01*
X306472Y197400D01*
G54D11*
X380866Y205801D02*
X380172Y205801D01*
X380172Y206378D01*
X380866Y206378D01*
X380866Y205801D01*
X380172Y205801D01*
G54D11*
X380866Y186301D02*
X380172Y186301D01*
X380172Y186878D01*
X380866Y186878D01*
X380866Y186301D01*
X380172Y186301D01*
G54D17*
X316757Y127080D02*
X345216Y113810D01*
X338454Y99309D01*
X309995Y112580D01*
X316757Y127080D01*
G54D17*
X319358Y117040D02*
X326608Y113660D01*
X328722Y118191D01*
X324496Y109128D01*
G54D17*
X330534Y117346D02*
X326308Y108283D01*
G54D17*
X328421Y112814D02*
X335672Y109434D01*
G54D11*
X324815Y152066D02*
X324187Y152358D01*
X324431Y152882D01*
X325059Y152589D01*
X324815Y152066D01*
X324187Y152358D01*
G54D11*
X316574Y134392D02*
X315946Y134686D01*
X316190Y135209D01*
X316818Y134916D01*
X316574Y134392D01*
X315946Y134686D01*
G54D23*
X396375Y208029D02*
X396375Y239229D01*
X380775Y239229D01*
X380775Y208029D01*
X396375Y208029D01*
G54D11*
X424254Y200727D02*
X424254Y201421D01*
X423677Y201421D01*
X423677Y200727D01*
X424254Y200727D01*
X424254Y201421D01*
G54D11*
X404752Y200728D02*
X404752Y201421D01*
X404175Y201421D01*
X404175Y200728D01*
X404752Y200728D01*
X404752Y201421D01*
G54D23*
X380935Y184172D02*
X380935Y152972D01*
X396535Y152972D01*
X396535Y184172D01*
X380935Y184172D01*
G54D11*
X353055Y191474D02*
X353055Y190781D01*
X353633Y190781D01*
X353633Y191474D01*
X353055Y191474D01*
X353055Y190781D01*
G54D11*
X372560Y191473D02*
X372560Y190779D01*
X373138Y190779D01*
X373138Y191473D01*
X372560Y191473D01*
X372560Y190779D01*
G54D23*
X362384Y99849D02*
X390661Y113035D01*
X384068Y127174D01*
X355792Y113988D01*
X362384Y99849D01*
G54D11*
X367551Y71496D02*
X368179Y71789D01*
X367935Y72312D01*
X367307Y72019D01*
X367551Y71496D01*
X368179Y71789D01*
G54D11*
X359309Y89173D02*
X359937Y89466D01*
X359693Y89990D01*
X359064Y89697D01*
X359309Y89173D01*
X359937Y89466D01*
G54D13*
X377354Y251429D02*
X377354Y302229D01*
X301154Y302229D01*
X301154Y251429D01*
X377354Y251429D01*
G54D13*
X377354Y264129D02*
X377354Y289529D01*
X364654Y289529D01*
X364654Y264129D01*
X377354Y264129D01*
G54D11*
X293904Y244188D02*
X293210Y244188D01*
X293210Y244766D01*
X293904Y244766D01*
X293904Y244188D01*
X293210Y244188D01*
G54D23*
X380429Y315757D02*
X380429Y284557D01*
X396029Y284557D01*
X396029Y315757D01*
X380429Y315757D01*
G54D11*
X348528Y322884D02*
X348528Y322191D01*
X349106Y322191D01*
X349106Y322884D01*
X348528Y322884D01*
X348528Y322191D01*
G54D11*
X372052Y323058D02*
X372052Y322364D01*
X372630Y322364D01*
X372630Y323058D01*
X372052Y323058D01*
X372052Y322364D01*
G54D10*
X305821Y92056D02*
X398821Y91056D01*
X398854Y51329D01*
X398821Y16956D01*
X305821Y17056D01*
X305821Y92056D01*
G54D12*
X309858Y18981D02*
X309858Y34981D01*
X318258Y34981D01*
G54D12*
X309858Y26981D02*
X318258Y26981D01*
G54D12*
X323858Y28981D02*
X329858Y34981D01*
X329858Y18981D01*
G54D12*
X352858Y18981D02*
X352858Y34981D01*
X362458Y18981D01*
X362458Y34981D01*
G54D23*
X405497Y197272D02*
X472197Y197272D01*
X472197Y159072D01*
X405497Y159072D01*
X405497Y197272D01*
G54D11*
X479891Y205672D02*
X479197Y205672D01*
X479197Y206250D01*
X479891Y206250D01*
X479891Y205672D01*
X479197Y205672D01*
G54D11*
X479891Y186172D02*
X479197Y186172D01*
X479197Y186750D01*
X479891Y186750D01*
X479891Y186172D01*
X479197Y186172D01*
G54D17*
X415782Y126952D02*
X444240Y113681D01*
X437478Y99180D01*
X409020Y112451D01*
X415782Y126952D01*
G54D17*
X418383Y116912D02*
X425634Y113531D01*
X427746Y118062D01*
X423520Y108999D01*
G54D17*
X429559Y117217D02*
X425333Y108154D01*
G54D17*
X427446Y112686D02*
X434696Y109305D01*
G54D11*
X423840Y151937D02*
X423212Y152230D01*
X423456Y152753D01*
X424084Y152460D01*
X423840Y151937D01*
X423212Y152230D01*
G54D11*
X415599Y134264D02*
X414970Y134557D01*
X415215Y135080D01*
X415843Y134787D01*
X415599Y134264D01*
X414970Y134557D01*
G54D23*
X495400Y207900D02*
X495400Y239100D01*
X479800Y239100D01*
X479800Y207900D01*
X495400Y207900D01*
G54D11*
X523280Y200598D02*
X523280Y201292D01*
X522702Y201292D01*
X522702Y200598D01*
X523280Y200598D01*
X523280Y201292D01*
G54D11*
X503777Y200599D02*
X503777Y201292D01*
X503200Y201292D01*
X503200Y200599D01*
X503777Y200599D01*
X503777Y201292D01*
G54D23*
X479960Y184044D02*
X479960Y152844D01*
X495560Y152844D01*
X495560Y184044D01*
X479960Y184044D01*
G54D11*
X452080Y191346D02*
X452080Y190652D01*
X452658Y190652D01*
X452658Y191346D01*
X452080Y191346D01*
X452080Y190652D01*
G54D11*
X471585Y191344D02*
X471585Y190650D01*
X472162Y190650D01*
X472162Y191344D01*
X471585Y191344D01*
X471585Y190650D01*
G54D23*
X461409Y99720D02*
X489686Y112906D01*
X483093Y127045D01*
X454816Y113859D01*
X461409Y99720D01*
G54D11*
X466576Y71367D02*
X467204Y71660D01*
X466960Y72184D01*
X466332Y71890D01*
X466576Y71367D01*
X467204Y71660D01*
G54D11*
X458334Y89044D02*
X458962Y89338D01*
X458718Y89861D01*
X458089Y89568D01*
X458334Y89044D01*
X458962Y89338D01*
G54D13*
X476378Y251300D02*
X476379Y302100D01*
X400178Y302100D01*
X400179Y251300D01*
X476378Y251300D01*
G54D13*
X476378Y264000D02*
X476379Y289400D01*
X463679Y289400D01*
X463679Y264000D01*
X476378Y264000D01*
G54D11*
X392928Y244059D02*
X392235Y244059D01*
X392235Y244637D01*
X392928Y244637D01*
X392928Y244059D01*
X392235Y244059D01*
G54D23*
X479454Y315629D02*
X479454Y284429D01*
X495054Y284429D01*
X495054Y315629D01*
X479454Y315629D01*
G54D11*
X447553Y322756D02*
X447553Y322062D01*
X448131Y322062D01*
X448131Y322756D01*
X447553Y322756D01*
X447553Y322062D01*
G54D11*
X471077Y322929D02*
X471077Y322236D01*
X471655Y322236D01*
X471655Y322929D01*
X471077Y322929D01*
X471077Y322236D01*
G54D23*
X504697Y197372D02*
X571397Y197372D01*
X571397Y159172D01*
X504697Y159172D01*
X504697Y197372D01*
G54D11*
X579091Y205772D02*
X578397Y205772D01*
X578397Y206350D01*
X579091Y206350D01*
X579091Y205772D01*
X578397Y205772D01*
G54D11*
X579091Y186272D02*
X578397Y186272D01*
X578397Y186850D01*
X579091Y186850D01*
X579091Y186272D01*
X578397Y186272D01*
G54D17*
X514982Y127052D02*
X543440Y113781D01*
X536678Y99280D01*
X508220Y112551D01*
X514982Y127052D01*
G54D17*
X517583Y117012D02*
X524834Y113631D01*
X526946Y118162D01*
X522720Y109099D01*
G54D17*
X528759Y117317D02*
X524533Y108254D01*
G54D17*
X526646Y112786D02*
X533896Y109405D01*
G54D11*
X523040Y152037D02*
X522412Y152330D01*
X522656Y152853D01*
X523284Y152560D01*
X523040Y152037D01*
X522412Y152330D01*
G54D11*
X514799Y134364D02*
X514170Y134657D01*
X514415Y135180D01*
X515043Y134887D01*
X514799Y134364D01*
X514170Y134657D01*
G54D23*
X594600Y208000D02*
X594600Y239200D01*
X579000Y239200D01*
X579000Y208000D01*
X594600Y208000D01*
G54D11*
X622480Y200698D02*
X622480Y201392D01*
X621902Y201392D01*
X621902Y200698D01*
X622480Y200698D01*
X622480Y201392D01*
G54D11*
X602977Y200699D02*
X602977Y201392D01*
X602400Y201392D01*
X602400Y200699D01*
X602977Y200699D01*
X602977Y201392D01*
G54D23*
X579160Y184144D02*
X579160Y152944D01*
X594760Y152944D01*
X594760Y184144D01*
X579160Y184144D01*
G54D11*
X551280Y191446D02*
X551280Y190752D01*
X551858Y190752D01*
X551858Y191446D01*
X551280Y191446D01*
X551280Y190752D01*
G54D11*
X570785Y191444D02*
X570785Y190750D01*
X571362Y190750D01*
X571362Y191444D01*
X570785Y191444D01*
X570785Y190750D01*
G54D23*
X560609Y99820D02*
X588886Y113006D01*
X582293Y127145D01*
X554016Y113959D01*
X560609Y99820D01*
G54D11*
X565776Y71467D02*
X566404Y71760D01*
X566160Y72284D01*
X565532Y71990D01*
X565776Y71467D01*
X566404Y71760D01*
G54D11*
X557534Y89144D02*
X558162Y89438D01*
X557918Y89961D01*
X557289Y89668D01*
X557534Y89144D01*
X558162Y89438D01*
G54D13*
X575578Y251400D02*
X575579Y302200D01*
X499378Y302200D01*
X499379Y251400D01*
X575578Y251400D01*
G54D13*
X575578Y264100D02*
X575579Y289500D01*
X562879Y289500D01*
X562879Y264100D01*
X575578Y264100D01*
G54D11*
X492128Y244159D02*
X491435Y244159D01*
X491435Y244737D01*
X492128Y244737D01*
X492128Y244159D01*
X491435Y244159D01*
G54D23*
X578654Y315729D02*
X578654Y284529D01*
X594254Y284529D01*
X594254Y315729D01*
X578654Y315729D01*
G54D11*
X546753Y322856D02*
X546753Y322162D01*
X547331Y322162D01*
X547331Y322856D01*
X546753Y322856D01*
X546753Y322162D01*
G54D11*
X570277Y323029D02*
X570277Y322336D01*
X570855Y322336D01*
X570855Y323029D01*
X570277Y323029D01*
X570277Y322336D01*
G54D11*
X316097Y221171D02*
X316097Y220478D01*
X316674Y220478D01*
X316674Y221171D01*
X316097Y221171D01*
X316097Y220478D01*
G54D13*
X326654Y324629D02*
X326654Y350029D01*
X377454Y350029D01*
X377454Y324629D01*
X326654Y324629D01*
G54D13*
X425754Y324629D02*
X425754Y350029D01*
X476554Y350029D01*
X476554Y324629D01*
X425754Y324629D01*
G54D13*
X524654Y324629D02*
X524654Y350029D01*
X575454Y350029D01*
X575454Y324629D01*
X524654Y324629D01*
G54D23*
X400454Y354429D02*
X500454Y354429D01*
X500454Y11329D01*
X400454Y11329D01*
X400454Y354429D01*
G54D10*
X891700Y797600D02*
X651700Y797600D01*
X651700Y957600D01*
X891700Y957600D01*
X891700Y797600D01*
G54D11*
X130793Y1055300D02*
X130100Y1055300D01*
X130100Y1055878D01*
X130793Y1055878D01*
X130793Y1055300D01*
X130100Y1055300D01*
G54D12*
X816104Y938452D02*
X822104Y944452D01*
X822104Y928452D01*
G54D12*
X828704Y810452D02*
X819104Y810452D01*
X819104Y811452D01*
X820304Y813452D01*
X827504Y819452D01*
X828704Y821452D01*
X828704Y823452D01*
X827504Y825452D01*
X825104Y826452D01*
X822704Y826452D01*
X820304Y825452D01*
X819104Y823452D01*
G54D12*
X843904Y810452D02*
X834304Y810452D01*
X834304Y811452D01*
X835504Y813452D01*
X842704Y819452D01*
X843904Y821452D01*
X843904Y823452D01*
X842704Y825452D01*
X840304Y826452D01*
X837904Y826452D01*
X835504Y825452D01*
X834304Y823452D01*
G54D12*
X817104Y974452D02*
X823104Y980452D01*
X823104Y964452D01*
G54D11*
X130793Y1035800D02*
X130100Y1035800D01*
X130100Y1036378D01*
X130793Y1036378D01*
X130793Y1035800D01*
X130100Y1035800D01*
G54D13*
X738716Y994395D02*
X738716Y968995D01*
X713316Y968995D01*
X713316Y994395D01*
X738716Y994395D01*
G54D11*
X739467Y941667D02*
X738774Y941667D01*
X738774Y942244D01*
X739467Y942244D01*
X739467Y941667D01*
X738774Y941667D01*
G54D11*
X739467Y961167D02*
X738774Y961167D01*
X738774Y961744D01*
X739467Y961744D01*
X739467Y961167D01*
X738774Y961167D01*
G54D13*
X640022Y871909D02*
X614622Y871909D01*
X614622Y922709D01*
X640022Y922709D01*
X640022Y871909D01*
G54D14*
X614057Y871855D02*
X614057Y863522D01*
X613057Y861855D01*
X611057Y861022D01*
X609057Y861022D01*
X607057Y861855D01*
X606057Y863522D01*
X606057Y871855D01*
X607057Y873522D01*
X609057Y874355D01*
X611057Y874355D01*
X613057Y873522D01*
X614057Y871855D01*
G54D14*
X618724Y874355D02*
X623724Y861022D01*
X628724Y874355D01*
G54D15*
X601620Y926056D02*
X612287Y926056D01*
G54D15*
X606954Y930501D02*
X606954Y921612D01*
G54D16*
X735523Y976370D02*
X735523Y985259D01*
X738857Y979704D01*
X742190Y985259D01*
X742190Y976370D01*
G54D13*
X755600Y969200D02*
X755600Y994600D01*
X806400Y994600D01*
X806400Y969200D01*
X755600Y969200D01*
G54D13*
X683800Y760900D02*
X683800Y786300D01*
X734600Y786300D01*
X734600Y760900D01*
X683800Y760900D01*
G54D16*
X700224Y755444D02*
X700224Y764333D01*
X703557Y764333D01*
X704890Y763778D01*
X705557Y762667D01*
X705557Y761556D01*
X704890Y760444D01*
X703557Y759889D01*
X704890Y759333D01*
X705557Y758222D01*
X705557Y757111D01*
X704890Y756000D01*
X703557Y755444D01*
X700224Y755444D01*
G54D16*
X700224Y759889D02*
X703557Y759889D01*
G54D16*
X708668Y764333D02*
X708668Y757111D01*
X709334Y756000D01*
X710668Y755444D01*
X712001Y755444D01*
X713334Y756000D01*
X714001Y757111D01*
X714001Y764333D01*
G54D16*
X719778Y759889D02*
X721778Y758778D01*
X722445Y757667D01*
X722445Y755444D01*
G54D16*
X717112Y755444D02*
X717112Y764333D01*
X720445Y764333D01*
X721778Y763778D01*
X722445Y762667D01*
X722445Y761556D01*
X721778Y760444D01*
X720445Y759889D01*
X717112Y759889D01*
G54D16*
X725556Y755444D02*
X725556Y764333D01*
X730889Y755444D01*
X730889Y764333D01*
G54D16*
X808490Y755044D02*
X808490Y763934D01*
G54D16*
X805824Y763934D02*
X811157Y763934D01*
G54D16*
X814268Y760044D02*
X819601Y755044D01*
G54D16*
X814268Y755044D02*
X819601Y760044D01*
G54D16*
X785990Y759389D02*
X787990Y758278D01*
X788657Y757167D01*
X788657Y754944D01*
G54D16*
X783324Y754944D02*
X783324Y763834D01*
X786657Y763834D01*
X787990Y763278D01*
X788657Y762167D01*
X788657Y761056D01*
X787990Y759944D01*
X786657Y759389D01*
X783324Y759389D01*
G54D16*
X791768Y759944D02*
X797101Y754944D01*
G54D16*
X791768Y754944D02*
X797101Y759944D01*
G54D16*
X612924Y770700D02*
X616257Y774033D01*
X616257Y765144D01*
G54D16*
X624701Y772367D02*
X624701Y766811D01*
X624034Y765700D01*
X622701Y765144D01*
X621368Y765144D01*
X620034Y765700D01*
X619368Y766811D01*
X619368Y772367D01*
X620034Y773478D01*
X621368Y774033D01*
X622701Y774033D01*
X624034Y773478D01*
X624701Y772367D01*
G54D16*
X627812Y765144D02*
X627812Y774033D01*
G54D16*
X629812Y768478D02*
X631812Y765144D01*
G54D16*
X627812Y767367D02*
X631812Y770144D01*
G54D16*
X746224Y843200D02*
X749557Y846534D01*
X749557Y837645D01*
G54D16*
X758001Y844867D02*
X758001Y839311D01*
X757334Y838200D01*
X756001Y837645D01*
X754668Y837645D01*
X753334Y838200D01*
X752668Y839311D01*
X752668Y844867D01*
X753334Y845978D01*
X754668Y846534D01*
X756001Y846534D01*
X757334Y845978D01*
X758001Y844867D01*
G54D16*
X761112Y837645D02*
X761112Y846534D01*
G54D16*
X763112Y840978D02*
X765112Y837645D01*
G54D16*
X761112Y839867D02*
X765112Y842645D01*
G54D16*
X676124Y844100D02*
X679457Y847434D01*
X679457Y838545D01*
G54D16*
X687901Y845767D02*
X687901Y840211D01*
X687234Y839100D01*
X685901Y838545D01*
X684568Y838545D01*
X683234Y839100D01*
X682568Y840211D01*
X682568Y845767D01*
X683234Y846878D01*
X684568Y847434D01*
X685901Y847434D01*
X687234Y846878D01*
X687901Y845767D01*
G54D16*
X691012Y838545D02*
X691012Y847434D01*
G54D16*
X693012Y841878D02*
X695012Y838545D01*
G54D16*
X691012Y840767D02*
X695012Y843545D01*
G54D16*
X822624Y884700D02*
X825957Y888033D01*
X825957Y879145D01*
G54D16*
X834401Y886367D02*
X834401Y880811D01*
X833734Y879700D01*
X832401Y879145D01*
X831068Y879145D01*
X829734Y879700D01*
X829068Y880811D01*
X829068Y886367D01*
X829734Y887478D01*
X831068Y888033D01*
X832401Y888033D01*
X833734Y887478D01*
X834401Y886367D01*
G54D16*
X837512Y879145D02*
X837512Y888033D01*
G54D16*
X839512Y882478D02*
X841512Y879145D01*
G54D16*
X837512Y881367D02*
X841512Y884145D01*
G54D16*
X737324Y889000D02*
X740657Y892333D01*
X740657Y883445D01*
G54D16*
X749101Y890667D02*
X749101Y885111D01*
X748434Y884000D01*
X747101Y883445D01*
X745768Y883445D01*
X744434Y884000D01*
X743768Y885111D01*
X743768Y890667D01*
X744434Y891778D01*
X745768Y892333D01*
X747101Y892333D01*
X748434Y891778D01*
X749101Y890667D01*
G54D16*
X752212Y883445D02*
X752212Y892333D01*
G54D16*
X754212Y886778D02*
X756212Y883445D01*
G54D16*
X752212Y885667D02*
X756212Y888445D01*
G54D16*
X801924Y916445D02*
X801924Y925333D01*
X797924Y919778D01*
X797924Y918667D01*
X803257Y918667D01*
G54D16*
X806368Y925333D02*
X811701Y925333D01*
X811034Y924222D01*
X809701Y922556D01*
X808368Y920333D01*
X807701Y918667D01*
X807701Y916445D01*
G54D16*
X820145Y923667D02*
X820145Y918111D01*
X819478Y917000D01*
X818145Y916445D01*
X816812Y916445D01*
X815478Y917000D01*
X814812Y918111D01*
X814812Y923667D01*
X815478Y924778D01*
X816812Y925333D01*
X818145Y925333D01*
X819478Y924778D01*
X820145Y923667D01*
G54D16*
X816090Y985389D02*
X818090Y984278D01*
X818757Y983167D01*
X818757Y980945D01*
G54D16*
X813424Y980945D02*
X813424Y989833D01*
X816757Y989833D01*
X818090Y989278D01*
X818757Y988167D01*
X818757Y987056D01*
X818090Y985945D01*
X816757Y985389D01*
X813424Y985389D01*
G54D16*
X821868Y981500D02*
X823201Y980945D01*
X824534Y980945D01*
X825868Y981500D01*
X825868Y982611D01*
X825201Y983167D01*
X822534Y983722D01*
X821868Y984278D01*
X821868Y985389D01*
X823201Y985945D01*
X824534Y985945D01*
X825868Y985389D01*
G54D16*
X830312Y989833D02*
X830312Y981500D01*
X830979Y980945D01*
X831646Y981167D01*
G54D16*
X828979Y985945D02*
X831646Y985945D01*
G54D16*
X661857Y982592D02*
X661857Y977037D01*
X661190Y975926D01*
X659857Y975370D01*
X658523Y975370D01*
X657190Y975926D01*
X656523Y977037D01*
X656523Y982592D01*
X657190Y983704D01*
X658523Y984259D01*
X659857Y984259D01*
X661190Y983704D01*
X661857Y982592D01*
G54D16*
X668967Y975370D02*
X668967Y984259D01*
X664967Y978704D01*
X664967Y977592D01*
X670301Y977592D01*
G54D16*
X700857Y992592D02*
X700857Y987037D01*
X700190Y985926D01*
X698857Y985370D01*
X697523Y985370D01*
X696190Y985926D01*
X695523Y987037D01*
X695523Y992592D01*
X696190Y993704D01*
X697523Y994259D01*
X698857Y994259D01*
X700190Y993704D01*
X700857Y992592D01*
G54D16*
X703967Y992592D02*
X704634Y993704D01*
X705967Y994259D01*
X707301Y994259D01*
X708634Y993704D01*
X709301Y992592D01*
X709301Y991481D01*
X708634Y990370D01*
X707301Y989815D01*
X708634Y989259D01*
X709301Y988148D01*
X709301Y987037D01*
X708634Y985926D01*
X707301Y985370D01*
X705967Y985370D01*
X704634Y985926D01*
X703967Y987037D01*
G54D16*
X744857Y761592D02*
X744857Y756037D01*
X744190Y754926D01*
X742857Y754370D01*
X741523Y754370D01*
X740190Y754926D01*
X739523Y756037D01*
X739523Y761592D01*
X740190Y762704D01*
X741523Y763259D01*
X742857Y763259D01*
X744190Y762704D01*
X744857Y761592D01*
G54D16*
X747967Y759926D02*
X751301Y763259D01*
X751301Y754370D01*
G54D16*
X766857Y761592D02*
X766857Y756037D01*
X766190Y754926D01*
X764857Y754370D01*
X763523Y754370D01*
X762190Y754926D01*
X761523Y756037D01*
X761523Y761592D01*
X762190Y762704D01*
X763523Y763259D01*
X764857Y763259D01*
X766190Y762704D01*
X766857Y761592D01*
G54D16*
X775301Y754370D02*
X769967Y754370D01*
X769967Y754926D01*
X770634Y756037D01*
X774634Y759370D01*
X775301Y760481D01*
X775301Y761592D01*
X774634Y762704D01*
X773301Y763259D01*
X771967Y763259D01*
X770634Y762704D01*
X769967Y761592D01*
G54D13*
X776600Y761200D02*
X776600Y786600D01*
X827400Y786600D01*
X827400Y761200D01*
X776600Y761200D01*
G54D10*
X879320Y497700D02*
X604320Y497700D01*
X604320Y587700D01*
X879320Y587700D01*
X879320Y497700D01*
G54D17*
X710832Y648461D02*
X710832Y602461D01*
X646832Y602461D01*
X646832Y648461D01*
X710832Y648461D01*
G54D18*
X687898Y610461D02*
X687898Y614017D01*
G54D18*
X686832Y614017D02*
X688965Y614017D01*
G54D18*
X689932Y614017D02*
X689932Y610461D01*
X691798Y610461D01*
G54D18*
X692832Y610461D02*
X692832Y614017D01*
X694165Y614017D01*
X694698Y613794D01*
X694965Y613350D01*
X694965Y612906D01*
X694698Y612461D01*
X694165Y612239D01*
X692832Y612239D01*
G54D18*
X698065Y614017D02*
X695932Y614017D01*
X695932Y612461D01*
X696198Y612461D01*
X696732Y612683D01*
X697265Y612683D01*
X697798Y612461D01*
X698065Y612017D01*
X698065Y611128D01*
X697798Y610683D01*
X697265Y610461D01*
X696732Y610461D01*
X696198Y610683D01*
X695932Y611128D01*
G54D18*
X701165Y610461D02*
X699032Y610461D01*
X699032Y610683D01*
X699298Y611128D01*
X700898Y612461D01*
X701165Y612906D01*
X701165Y613350D01*
X700898Y613794D01*
X700365Y614017D01*
X699832Y614017D01*
X699298Y613794D01*
X699032Y613350D01*
G54D18*
X702132Y612683D02*
X703465Y614017D01*
X703465Y610461D01*
G54D18*
X705498Y612239D02*
X706565Y612239D01*
X706565Y611128D01*
X706298Y610683D01*
X705765Y610461D01*
X705232Y610461D01*
X704698Y610683D01*
X704432Y611128D01*
X704432Y613350D01*
X704698Y613794D01*
X705232Y614017D01*
X705765Y614017D01*
X706298Y613794D01*
X706565Y613350D01*
G54D18*
X707532Y610461D02*
X707532Y614017D01*
X708865Y614017D01*
X709398Y613794D01*
X709665Y613350D01*
X709665Y612906D01*
X709398Y612461D01*
X708865Y612239D01*
X709398Y612017D01*
X709665Y611572D01*
X709665Y611128D01*
X709398Y610683D01*
X708865Y610461D01*
X707532Y610461D01*
G54D18*
X707532Y612239D02*
X708865Y612239D01*
G54D18*
X694032Y605661D02*
X694032Y609217D01*
X695365Y609217D01*
X695898Y608994D01*
X696165Y608550D01*
X696165Y606328D01*
X695898Y605883D01*
X695365Y605661D01*
X694032Y605661D01*
G54D18*
X697132Y605661D02*
X697132Y609217D01*
G54D18*
X698132Y609217D02*
X698132Y605661D01*
X699998Y605661D01*
G54D18*
X702632Y605661D02*
X702632Y609217D01*
X701032Y606994D01*
X701032Y606550D01*
X703165Y606550D01*
G54D17*
X651832Y648461D02*
X651832Y602461D01*
G54D18*
X648832Y638683D02*
X650165Y640017D01*
X650165Y636461D01*
G54D18*
X650965Y610461D02*
X648832Y610461D01*
X648832Y610683D01*
X649098Y611128D01*
X650698Y612461D01*
X650965Y612906D01*
X650965Y613350D01*
X650698Y613794D01*
X650165Y614017D01*
X649632Y614017D01*
X649098Y613794D01*
X648832Y613350D01*
G54D18*
X706832Y616350D02*
X707098Y616794D01*
X707632Y617017D01*
X708165Y617017D01*
X708698Y616794D01*
X708965Y616350D01*
X708965Y615906D01*
X708698Y615461D01*
X708165Y615239D01*
X708698Y615017D01*
X708965Y614572D01*
X708965Y614128D01*
X708698Y613683D01*
X708165Y613461D01*
X707632Y613461D01*
X707098Y613683D01*
X706832Y614128D01*
G54D18*
X708432Y637461D02*
X708432Y641017D01*
X706832Y638794D01*
X706832Y638350D01*
X708965Y638350D01*
G54D17*
X646832Y638461D02*
X660832Y638461D01*
X660832Y613461D01*
X647832Y613461D01*
G54D17*
X656832Y629461D02*
X663832Y629461D01*
X664832Y629461D01*
X660832Y623461D01*
X660832Y623461D01*
X656832Y629461D01*
G54D17*
X656832Y623461D02*
X664832Y623461D01*
G54D17*
G75*
G01X660831Y643461D02*
G03X660831Y643461I-3000J0D01*
G01*
G54D17*
X670832Y629461D02*
X686832Y629461D01*
G54D17*
X670832Y623461D02*
X686832Y623461D01*
G36*
X680863Y631417D02*
X686863Y629417D01*
X680863Y627417D01*
X681863Y629417D01*
X680863Y631417D01*
G37*
G54D17*
X680863Y631417D02*
X686863Y629417D01*
X680863Y627417D01*
X681863Y629417D01*
X680863Y631417D01*
G36*
X680863Y625417D02*
X686863Y623417D01*
X680863Y621417D01*
X681863Y623417D01*
X680863Y625417D01*
G37*
G54D17*
X680863Y625417D02*
X686863Y623417D01*
X680863Y621417D01*
X681863Y623417D01*
X680863Y625417D01*
G54D17*
X713832Y638461D02*
X704832Y638461D01*
X695832Y629461D01*
G54D17*
X713832Y612461D02*
X705832Y612461D01*
X704832Y613461D01*
X695832Y622461D01*
G54D17*
X695832Y633461D02*
X695832Y618461D01*
G54D17*
X703832Y616461D02*
X705832Y612461D01*
X701832Y614461D01*
G54D17*
X695832Y625461D02*
X692832Y625461D01*
G54D17*
X710832Y644461D02*
X718832Y644461D01*
X718832Y632461D01*
X710832Y632461D01*
G54D17*
X710832Y618961D02*
X718832Y618961D01*
X718832Y606961D01*
X710832Y606961D01*
G54D17*
X646832Y632461D02*
X638832Y632461D01*
X638832Y644461D01*
X646832Y644461D01*
G54D17*
X646832Y606961D02*
X638832Y606961D01*
X638832Y618961D01*
X646832Y618961D01*
G54D17*
X641832Y644461D02*
X641832Y632461D01*
G54D17*
X641832Y618961D02*
X641832Y606961D01*
G54D17*
X715832Y618961D02*
X715832Y606961D01*
G54D17*
X715832Y644461D02*
X715832Y632461D01*
G54D17*
X715832Y640961D02*
X718832Y640961D01*
G54D17*
X715832Y635961D02*
X718832Y635961D01*
G54D17*
X715832Y615461D02*
X718832Y615461D01*
G54D17*
X715832Y610461D02*
X718832Y610461D01*
G54D17*
X638832Y615461D02*
X641832Y615461D01*
G54D17*
X638832Y610461D02*
X641832Y610461D01*
G54D17*
X638832Y640961D02*
X641832Y640961D01*
G54D17*
X638832Y635961D02*
X641832Y635961D01*
G54D11*
X633025Y674511D02*
X632332Y674511D01*
X632332Y675088D01*
X633025Y675088D01*
X633025Y674511D01*
X632332Y674511D01*
G54D11*
X633025Y655011D02*
X632332Y655011D01*
X632332Y655588D01*
X633025Y655588D01*
X633025Y655011D01*
X632332Y655011D01*
G54D18*
X616885Y627584D02*
X616885Y623615D01*
G54D18*
X618472Y626790D02*
X615297Y626790D01*
G54D18*
X616885Y626790D02*
X615297Y624409D01*
X618472Y624409D01*
X618472Y624409D01*
X616885Y626790D01*
G54D19*
X614503Y624409D02*
X612916Y625996D01*
G54D19*
X614503Y625996D02*
X612916Y627584D01*
G54D19*
X612916Y625203D02*
X612916Y625996D01*
X613710Y625996D01*
G54D19*
X612916Y626790D02*
X612916Y627584D01*
X613710Y627584D01*
G54D17*
X614503Y610915D02*
X614503Y615678D01*
X619266Y615678D01*
X619266Y610915D01*
X614503Y610915D01*
G54D17*
X614503Y636315D02*
X614503Y641078D01*
X619266Y641078D01*
X619266Y636315D01*
X614503Y636315D01*
G54D19*
X625882Y623465D02*
X627660Y623465D01*
X627660Y624398D01*
G54D19*
X626882Y624865D02*
X626882Y625932D01*
G54D19*
X627326Y626465D02*
X627548Y626598D01*
X627660Y626865D01*
X627660Y627132D01*
X627548Y627398D01*
X627326Y627532D01*
X626771Y627532D01*
X626660Y627532D01*
X626882Y627132D01*
X626882Y626865D01*
X626771Y626598D01*
X626548Y626465D01*
X626215Y626465D01*
X625993Y626598D01*
X625882Y626865D01*
X625882Y627132D01*
X625993Y627398D01*
X626215Y627532D01*
X626771Y627532D01*
G54D19*
X626215Y628065D02*
X625993Y628198D01*
X625882Y628465D01*
X625882Y628732D01*
X625993Y628998D01*
X626215Y629132D01*
X626437Y629132D01*
X626660Y628998D01*
X626771Y628732D01*
X626882Y628998D01*
X627104Y629132D01*
X627326Y629132D01*
X627548Y628998D01*
X627660Y628732D01*
X627660Y628465D01*
X627548Y628198D01*
X627326Y628065D01*
G54D19*
X627660Y630465D02*
X625882Y630465D01*
X626993Y629665D01*
X627215Y629665D01*
X627215Y630732D01*
G54D19*
X627326Y632332D02*
X627548Y632198D01*
X627660Y631932D01*
X627660Y631665D01*
X627548Y631398D01*
X627326Y631265D01*
X626215Y631265D01*
X625993Y631398D01*
X625882Y631665D01*
X625882Y631932D01*
X625993Y632198D01*
X626215Y632332D01*
G54D19*
X627660Y632865D02*
X625882Y632865D01*
X625882Y633532D01*
X625993Y633798D01*
X626215Y633932D01*
X626437Y633932D01*
X626660Y633798D01*
X626771Y633532D01*
X626882Y633798D01*
X627104Y633932D01*
X627326Y633932D01*
X627548Y633798D01*
X627660Y633532D01*
X627660Y632865D01*
G54D19*
X626771Y632865D02*
X626771Y633532D01*
G54D19*
X627660Y634465D02*
X625882Y635532D01*
G54D19*
X627326Y636065D02*
X627548Y636198D01*
X627660Y636465D01*
X627660Y636732D01*
X627548Y636998D01*
X627326Y637132D01*
X627104Y637132D01*
X626882Y636998D01*
X626771Y636732D01*
X626771Y636465D01*
X626660Y636198D01*
X626437Y636065D01*
X626215Y636065D01*
X625993Y636198D01*
X625882Y636465D01*
X625882Y636732D01*
X625993Y636998D01*
X626215Y637132D01*
G54D19*
X626771Y638198D02*
X626993Y638598D01*
X627215Y638732D01*
X627660Y638732D01*
G54D19*
X627660Y637665D02*
X625882Y637665D01*
X625882Y638332D01*
X625993Y638598D01*
X626215Y638732D01*
X626437Y638732D01*
X626660Y638598D01*
X626771Y638332D01*
X626771Y637665D01*
G54D19*
X627660Y639265D02*
X625882Y639265D01*
X625882Y639932D01*
X625993Y640198D01*
X626215Y640332D01*
X627326Y640332D01*
X627548Y640198D01*
X627660Y639932D01*
X627660Y639265D01*
G54D18*
X616019Y618290D02*
X614685Y619623D01*
X618241Y619623D01*
G54D18*
X618241Y633917D02*
X618241Y631784D01*
X618019Y631784D01*
X617574Y632051D01*
X616241Y633651D01*
X615796Y633917D01*
X615352Y633917D01*
X614908Y633651D01*
X614685Y633117D01*
X614685Y632584D01*
X614908Y632051D01*
X615352Y631784D01*
G54D20*
X623197Y611046D02*
X620530Y611046D01*
G54D20*
X622797Y612946D02*
X622130Y612946D01*
X621797Y612746D01*
X621697Y612346D01*
X621797Y611946D01*
X622130Y611746D01*
X622797Y611746D01*
X623130Y611946D01*
X623197Y612346D01*
X623130Y612746D01*
X622797Y612946D01*
G54D20*
X623197Y613646D02*
X621697Y613646D01*
G54D20*
X622030Y613646D02*
X621797Y613846D01*
X621697Y614246D01*
X621797Y614646D01*
X622030Y614846D01*
X623197Y614846D01*
G54D20*
X623697Y615546D02*
X623864Y615946D01*
X623864Y616226D01*
X623697Y616626D01*
X623364Y616746D01*
X621697Y616746D01*
G54D20*
X622130Y616746D02*
X621797Y616546D01*
X621697Y616146D01*
X621797Y615746D01*
X622130Y615546D01*
X622797Y615546D01*
X623130Y615746D01*
X623197Y616146D01*
X623130Y616546D01*
X622797Y616746D01*
G54D17*
G75*
G01X631185Y625996D02*
G03X631185Y625996I-14300J0D01*
G01*
G54D17*
G75*
G01X632785Y625996D02*
G03X632785Y625996I-15900J0D01*
G01*
G54D11*
X575011Y610590D02*
X575011Y609896D01*
X574433Y609896D01*
X574433Y610590D01*
X575011Y610590D01*
X575011Y609896D01*
G54D11*
X594511Y605989D02*
X594511Y605296D01*
X593933Y605296D01*
X593933Y605989D01*
X594511Y605989D01*
X594511Y605296D01*
G54D12*
X832284Y417352D02*
X832284Y433352D01*
X840684Y433352D01*
G54D12*
X832284Y425352D02*
X840684Y425352D01*
G54D12*
X879784Y417552D02*
X879784Y433552D01*
X889384Y417552D01*
X889384Y433552D01*
G54D21*
X796180Y482166D02*
X800180Y471500D01*
X804180Y482166D01*
G54D21*
X807913Y477500D02*
X811113Y471500D01*
X814313Y477500D01*
G54D21*
X822846Y473100D02*
X822846Y475766D01*
X822046Y477100D01*
X820446Y477500D01*
X818846Y477100D01*
X818046Y475766D01*
X818046Y473100D01*
X818846Y471766D01*
X820446Y471500D01*
X822046Y471766D01*
X822846Y473100D01*
G54D21*
X831379Y471500D02*
X831379Y482166D01*
G54D21*
X831379Y475766D02*
X830579Y477100D01*
X828979Y477500D01*
X827379Y477100D01*
X826579Y475766D01*
X826579Y473100D01*
X827379Y471766D01*
X828979Y471500D01*
X830579Y471766D01*
X831379Y473100D01*
G54D21*
X839005Y476166D02*
X839645Y477100D01*
X840605Y477633D01*
X841885Y477633D01*
X842845Y477100D01*
X843645Y476166D01*
X844285Y475233D01*
X845245Y474700D01*
X846685Y474700D01*
X847485Y475233D01*
X848125Y476166D01*
G54D21*
X858258Y471500D02*
X851858Y471500D01*
X851858Y472166D01*
X852658Y473500D01*
X857458Y477500D01*
X858258Y478833D01*
X858258Y480166D01*
X857458Y481500D01*
X855858Y482166D01*
X854258Y482166D01*
X852658Y481500D01*
X851858Y480166D01*
G54D21*
X868391Y471500D02*
X861991Y471500D01*
X861991Y472166D01*
X862791Y473500D01*
X867591Y477500D01*
X868391Y478833D01*
X868391Y480166D01*
X867591Y481500D01*
X865991Y482166D01*
X864391Y482166D01*
X862791Y481500D01*
X861991Y480166D01*
G54D21*
X878524Y480166D02*
X878524Y473500D01*
X877724Y472166D01*
X876124Y471500D01*
X874524Y471500D01*
X872924Y472166D01*
X872124Y473500D01*
X872124Y480166D01*
X872924Y481500D01*
X874524Y482166D01*
X876124Y482166D01*
X877724Y481500D01*
X878524Y480166D01*
G54D21*
X882257Y482166D02*
X886257Y471500D01*
X890257Y482166D01*
G54D10*
X699847Y489627D02*
X792647Y489627D01*
X792680Y449100D01*
X792647Y414527D01*
X699847Y414627D01*
X699847Y489627D01*
G54D14*
X752184Y417885D02*
X752184Y431218D01*
X760184Y417885D01*
X760184Y431218D01*
G54D22*
X713876Y417122D02*
X713876Y430455D01*
G54D22*
X709876Y430455D02*
X717876Y430455D01*
G54D22*
X729543Y427955D02*
X729543Y419622D01*
X728543Y417955D01*
X726543Y417122D01*
X724543Y417122D01*
X722543Y417955D01*
X721543Y419622D01*
X721543Y427955D01*
X722543Y429622D01*
X724543Y430455D01*
X726543Y430455D01*
X728543Y429622D01*
X729543Y427955D01*
G54D10*
X796147Y489727D02*
X888947Y489727D01*
X888980Y449200D01*
X888947Y414627D01*
X796147Y414727D01*
X796147Y489727D01*
G54D10*
X603867Y489627D02*
X696667Y489627D01*
X696700Y449100D01*
X696667Y414527D01*
X603867Y414627D01*
X603867Y489627D01*
G54D14*
X652204Y417885D02*
X652204Y431218D01*
X660204Y417885D01*
X660204Y431218D01*
G54D22*
X613896Y417122D02*
X613896Y430455D01*
G54D22*
X609896Y430455D02*
X617896Y430455D01*
G54D22*
X629564Y427955D02*
X629564Y419622D01*
X628564Y417955D01*
X626564Y417122D01*
X624564Y417122D01*
X622564Y417955D01*
X621564Y419622D01*
X621564Y427955D01*
X622564Y429622D01*
X624564Y430455D01*
X626564Y430455D01*
X628564Y429622D01*
X629564Y427955D01*
G54D23*
X733847Y642673D02*
X733847Y611473D01*
X749447Y611473D01*
X749447Y642673D01*
X733847Y642673D01*
G54D11*
X705968Y649974D02*
X705968Y649281D01*
X706545Y649281D01*
X706545Y649974D01*
X705968Y649974D01*
X705968Y649281D01*
G54D11*
X725471Y649973D02*
X725471Y649280D01*
X726048Y649280D01*
X726048Y649973D01*
X725471Y649973D01*
X725471Y649280D01*
G54D10*
X759301Y673103D02*
X822801Y673103D01*
X822801Y596903D01*
X759301Y596903D01*
X759301Y673103D01*
G54D16*
X791564Y611569D02*
X791564Y606013D01*
X790898Y604902D01*
X789564Y604347D01*
X788231Y604347D01*
X786898Y604902D01*
X786231Y606013D01*
X786231Y611569D01*
X786898Y612680D01*
X788231Y613236D01*
X789564Y613236D01*
X790898Y612680D01*
X791564Y611569D01*
G54D16*
X794675Y613236D02*
X798008Y604347D01*
X801342Y613236D01*
G54D13*
X888571Y597779D02*
X863171Y597779D01*
X863171Y648579D01*
X888571Y648579D01*
X888571Y597779D01*
G54D13*
X828571Y597779D02*
X803171Y597779D01*
X803171Y648579D01*
X828571Y648579D01*
X828571Y597779D01*
G54D13*
X729006Y652695D02*
X729006Y678095D01*
X754406Y678095D01*
X754406Y652695D01*
X729006Y652695D01*
G54D11*
X844344Y671973D02*
X843651Y671973D01*
X843651Y671395D01*
X844344Y671395D01*
X844344Y671973D01*
X843651Y671973D01*
G54D11*
X728949Y685345D02*
X728256Y685345D01*
X728256Y685923D01*
X728949Y685923D01*
X728949Y685345D01*
X728256Y685345D01*
G54D16*
X725424Y659174D02*
X725424Y668063D01*
X728757Y662508D01*
X732091Y668063D01*
X732091Y659174D01*
G54D23*
X808071Y639079D02*
X808071Y607880D01*
X823671Y607879D01*
X823671Y639079D01*
X808071Y639079D01*
G54D11*
X780190Y646382D02*
X780190Y645688D01*
X780768Y645688D01*
X780768Y646382D01*
X780190Y646382D01*
X780190Y645688D01*
G54D11*
X799695Y646380D02*
X799695Y645686D01*
X800273Y645686D01*
X800273Y646380D01*
X799695Y646380D01*
X799695Y645686D01*
G54D15*
X878874Y627839D02*
X889541Y627839D01*
G54D15*
X884208Y632284D02*
X884208Y623394D01*
G54D16*
X880564Y597569D02*
X880564Y592013D01*
X879898Y590902D01*
X878564Y590347D01*
X877231Y590347D01*
X875898Y590902D01*
X875231Y592013D01*
X875231Y597569D01*
X875898Y598680D01*
X877231Y599236D01*
X878564Y599236D01*
X879898Y598680D01*
X880564Y597569D01*
G54D16*
X883675Y599236D02*
X887008Y590347D01*
X890342Y599236D01*
G54D23*
X866900Y666250D02*
X866900Y674250D01*
X825700Y674250D01*
X825700Y666250D01*
G54D23*
G75*
G01X825600Y666350D02*
G03X867000Y666350I20700J0D01*
G01*
G54D24*
X859940Y652050D02*
X859940Y659150D01*
G54D24*
X861940Y652050D02*
X861940Y659150D01*
X866240Y652050D01*
X866240Y659150D01*
G54D13*
X833006Y597695D02*
X833006Y623095D01*
X858406Y623095D01*
X858406Y597695D01*
X833006Y597695D01*
G54D11*
X954949Y616845D02*
X954256Y616845D01*
X954256Y617423D01*
X954949Y617423D01*
X954949Y616845D01*
X954256Y616845D01*
G54D11*
X832949Y630345D02*
X832256Y630345D01*
X832256Y630923D01*
X832949Y630923D01*
X832949Y630345D01*
X832256Y630345D01*
G54D13*
X868006Y649695D02*
X868006Y675095D01*
X893406Y675095D01*
X893406Y649695D01*
X868006Y649695D01*
G54D11*
X989949Y668845D02*
X989256Y668845D01*
X989256Y669423D01*
X989949Y669423D01*
X989949Y668845D01*
X989256Y668845D01*
G54D11*
X867949Y682345D02*
X867256Y682345D01*
X867256Y682923D01*
X867949Y682923D01*
X867949Y682345D01*
X867256Y682345D01*
G54D15*
X782874Y652839D02*
X793541Y652839D01*
G54D15*
X788208Y657284D02*
X788208Y648394D01*
G54D24*
X884940Y670050D02*
X884940Y677150D01*
G54D24*
X886940Y670050D02*
X886940Y677150D01*
X891240Y670050D01*
X891240Y677150D01*
G54D24*
X863460Y625850D02*
X863460Y621350D01*
X862860Y620450D01*
X861860Y620050D01*
X860760Y620050D01*
X859660Y620450D01*
X859160Y621350D01*
X859160Y625850D01*
X859660Y626750D01*
X860760Y627150D01*
X861860Y627150D01*
X862860Y626750D01*
X863460Y625850D01*
G54D24*
X865460Y627150D02*
X865460Y621350D01*
X865960Y620450D01*
X867060Y620050D01*
X868160Y620050D01*
X869160Y620450D01*
X869760Y621350D01*
X869760Y627150D01*
G54D24*
X873860Y620050D02*
X873860Y627150D01*
G54D24*
X871760Y627150D02*
X876060Y627150D01*
G54D16*
X872945Y672564D02*
X878278Y672564D01*
G54D16*
X875612Y674786D02*
X875612Y670342D01*
G54D10*
X800321Y92056D02*
X893321Y91056D01*
X893354Y51329D01*
X893321Y16956D01*
X800321Y17056D01*
X800321Y92056D01*
G54D12*
X807858Y18981D02*
X807858Y34981D01*
X816258Y34981D01*
G54D12*
X807858Y26981D02*
X816258Y26981D01*
G54D12*
X821858Y31981D02*
X823058Y33981D01*
X825458Y34981D01*
X827858Y34981D01*
X830258Y33981D01*
X831458Y31981D01*
X831458Y29981D01*
X830258Y27981D01*
X827858Y26981D01*
X830258Y25981D01*
X831458Y23981D01*
X831458Y21981D01*
X830258Y19981D01*
X827858Y18981D01*
X825458Y18981D01*
X823058Y19981D01*
X821858Y21981D01*
G54D12*
X850858Y18981D02*
X850858Y34981D01*
X860458Y18981D01*
X860458Y34981D01*
G54D10*
X702921Y92056D02*
X795921Y91056D01*
X795954Y51329D01*
X795921Y16956D01*
X702921Y17056D01*
X702921Y92056D01*
G54D12*
X707858Y18981D02*
X707858Y34981D01*
X716258Y34981D01*
G54D12*
X707858Y26981D02*
X716258Y26981D01*
G54D12*
X731458Y18981D02*
X721858Y18981D01*
X721858Y19981D01*
X723058Y21981D01*
X730258Y27981D01*
X731458Y29981D01*
X731458Y31981D01*
X730258Y33981D01*
X727858Y34981D01*
X725458Y34981D01*
X723058Y33981D01*
X721858Y31981D01*
G54D12*
X750858Y18981D02*
X750858Y34981D01*
X760458Y18981D01*
X760458Y34981D01*
G54D23*
X604472Y197400D02*
X671172Y197400D01*
X671172Y159200D01*
X604472Y159200D01*
X604472Y197400D01*
G54D11*
X678866Y205801D02*
X678172Y205801D01*
X678172Y206378D01*
X678866Y206378D01*
X678866Y205801D01*
X678172Y205801D01*
G54D11*
X678866Y186301D02*
X678172Y186301D01*
X678172Y186878D01*
X678866Y186878D01*
X678866Y186301D01*
X678172Y186301D01*
G54D17*
X614757Y127080D02*
X643216Y113810D01*
X636454Y99309D01*
X607995Y112580D01*
X614757Y127080D01*
G54D17*
X617358Y117040D02*
X624608Y113660D01*
X626722Y118191D01*
X622496Y109128D01*
G54D17*
X628534Y117346D02*
X624308Y108283D01*
G54D17*
X626421Y112814D02*
X633672Y109434D01*
G54D11*
X622815Y152066D02*
X622187Y152358D01*
X622431Y152882D01*
X623059Y152589D01*
X622815Y152066D01*
X622187Y152358D01*
G54D11*
X614574Y134392D02*
X613946Y134686D01*
X614190Y135209D01*
X614818Y134916D01*
X614574Y134392D01*
X613946Y134686D01*
G54D23*
X694375Y208029D02*
X694375Y239229D01*
X678775Y239229D01*
X678775Y208029D01*
X694375Y208029D01*
G54D11*
X722254Y200727D02*
X722254Y201421D01*
X721677Y201421D01*
X721677Y200727D01*
X722254Y200727D01*
X722254Y201421D01*
G54D11*
X702752Y200728D02*
X702752Y201421D01*
X702175Y201421D01*
X702175Y200728D01*
X702752Y200728D01*
X702752Y201421D01*
G54D23*
X678935Y184172D02*
X678935Y152972D01*
X694535Y152972D01*
X694535Y184172D01*
X678935Y184172D01*
G54D11*
X651055Y191474D02*
X651055Y190781D01*
X651633Y190781D01*
X651633Y191474D01*
X651055Y191474D01*
X651055Y190781D01*
G54D11*
X670560Y191473D02*
X670560Y190779D01*
X671138Y190779D01*
X671138Y191473D01*
X670560Y191473D01*
X670560Y190779D01*
G54D23*
X660384Y99849D02*
X688661Y113035D01*
X682068Y127174D01*
X653792Y113988D01*
X660384Y99849D01*
G54D11*
X665551Y71496D02*
X666179Y71789D01*
X665935Y72312D01*
X665307Y72019D01*
X665551Y71496D01*
X666179Y71789D01*
G54D11*
X657309Y89173D02*
X657937Y89466D01*
X657693Y89990D01*
X657064Y89697D01*
X657309Y89173D01*
X657937Y89466D01*
G54D13*
X675354Y251429D02*
X675354Y302229D01*
X599154Y302229D01*
X599154Y251429D01*
X675354Y251429D01*
G54D13*
X675354Y264129D02*
X675354Y289529D01*
X662654Y289529D01*
X662654Y264129D01*
X675354Y264129D01*
G54D11*
X591904Y244188D02*
X591210Y244188D01*
X591210Y244766D01*
X591904Y244766D01*
X591904Y244188D01*
X591210Y244188D01*
G54D23*
X678429Y315757D02*
X678429Y284557D01*
X694029Y284557D01*
X694029Y315757D01*
X678429Y315757D01*
G54D11*
X646528Y322884D02*
X646528Y322191D01*
X647106Y322191D01*
X647106Y322884D01*
X646528Y322884D01*
X646528Y322191D01*
G54D11*
X670052Y323058D02*
X670052Y322364D01*
X670630Y322364D01*
X670630Y323058D01*
X670052Y323058D01*
X670052Y322364D01*
G54D10*
X603821Y92056D02*
X696821Y91056D01*
X696854Y51329D01*
X696821Y16956D01*
X603821Y17056D01*
X603821Y92056D01*
G54D12*
X607858Y18981D02*
X607858Y34981D01*
X616258Y34981D01*
G54D12*
X607858Y26981D02*
X616258Y26981D01*
G54D12*
X621858Y28981D02*
X627858Y34981D01*
X627858Y18981D01*
G54D12*
X650858Y18981D02*
X650858Y34981D01*
X660458Y18981D01*
X660458Y34981D01*
G54D23*
X703497Y197272D02*
X770197Y197272D01*
X770197Y159072D01*
X703497Y159072D01*
X703497Y197272D01*
G54D11*
X777891Y205672D02*
X777197Y205672D01*
X777197Y206250D01*
X777891Y206250D01*
X777891Y205672D01*
X777197Y205672D01*
G54D11*
X777891Y186172D02*
X777197Y186172D01*
X777197Y186750D01*
X777891Y186750D01*
X777891Y186172D01*
X777197Y186172D01*
G54D17*
X713782Y126952D02*
X742240Y113681D01*
X735478Y99180D01*
X707020Y112451D01*
X713782Y126952D01*
G54D17*
X716383Y116912D02*
X723634Y113531D01*
X725746Y118062D01*
X721520Y108999D01*
G54D17*
X727559Y117217D02*
X723333Y108154D01*
G54D17*
X725446Y112686D02*
X732696Y109305D01*
G54D11*
X721840Y151937D02*
X721212Y152230D01*
X721456Y152753D01*
X722084Y152460D01*
X721840Y151937D01*
X721212Y152230D01*
G54D11*
X713599Y134264D02*
X712970Y134557D01*
X713215Y135080D01*
X713843Y134787D01*
X713599Y134264D01*
X712970Y134557D01*
G54D23*
X793400Y207900D02*
X793400Y239100D01*
X777800Y239100D01*
X777800Y207900D01*
X793400Y207900D01*
G54D11*
X821280Y200598D02*
X821280Y201292D01*
X820702Y201292D01*
X820702Y200598D01*
X821280Y200598D01*
X821280Y201292D01*
G54D11*
X801777Y200599D02*
X801777Y201292D01*
X801200Y201292D01*
X801200Y200599D01*
X801777Y200599D01*
X801777Y201292D01*
G54D23*
X777960Y184044D02*
X777960Y152844D01*
X793560Y152844D01*
X793560Y184044D01*
X777960Y184044D01*
G54D11*
X750080Y191346D02*
X750080Y190652D01*
X750658Y190652D01*
X750658Y191346D01*
X750080Y191346D01*
X750080Y190652D01*
G54D11*
X769585Y191344D02*
X769585Y190650D01*
X770162Y190650D01*
X770162Y191344D01*
X769585Y191344D01*
X769585Y190650D01*
G54D23*
X759409Y99720D02*
X787686Y112906D01*
X781093Y127045D01*
X752816Y113859D01*
X759409Y99720D01*
G54D11*
X764576Y71367D02*
X765204Y71660D01*
X764960Y72184D01*
X764332Y71890D01*
X764576Y71367D01*
X765204Y71660D01*
G54D11*
X756334Y89044D02*
X756962Y89338D01*
X756718Y89861D01*
X756089Y89568D01*
X756334Y89044D01*
X756962Y89338D01*
G54D13*
X774378Y251300D02*
X774379Y302100D01*
X698178Y302100D01*
X698179Y251300D01*
X774378Y251300D01*
G54D13*
X774378Y264000D02*
X774379Y289400D01*
X761679Y289400D01*
X761679Y264000D01*
X774378Y264000D01*
G54D11*
X690928Y244059D02*
X690235Y244059D01*
X690235Y244637D01*
X690928Y244637D01*
X690928Y244059D01*
X690235Y244059D01*
G54D23*
X777454Y315629D02*
X777454Y284429D01*
X793054Y284429D01*
X793054Y315629D01*
X777454Y315629D01*
G54D11*
X745553Y322756D02*
X745553Y322062D01*
X746131Y322062D01*
X746131Y322756D01*
X745553Y322756D01*
X745553Y322062D01*
G54D11*
X769077Y322929D02*
X769077Y322236D01*
X769655Y322236D01*
X769655Y322929D01*
X769077Y322929D01*
X769077Y322236D01*
G54D23*
X802697Y197372D02*
X869397Y197372D01*
X869397Y159172D01*
X802697Y159172D01*
X802697Y197372D01*
G54D11*
X877091Y205772D02*
X876397Y205772D01*
X876397Y206350D01*
X877091Y206350D01*
X877091Y205772D01*
X876397Y205772D01*
G54D11*
X877091Y186272D02*
X876397Y186272D01*
X876397Y186850D01*
X877091Y186850D01*
X877091Y186272D01*
X876397Y186272D01*
G54D17*
X812982Y127052D02*
X841440Y113781D01*
X834678Y99280D01*
X806220Y112551D01*
X812982Y127052D01*
G54D17*
X815583Y117012D02*
X822834Y113631D01*
X824946Y118162D01*
X820720Y109099D01*
G54D17*
X826759Y117317D02*
X822533Y108254D01*
G54D17*
X824646Y112786D02*
X831896Y109405D01*
G54D11*
X821040Y152037D02*
X820412Y152330D01*
X820656Y152853D01*
X821284Y152560D01*
X821040Y152037D01*
X820412Y152330D01*
G54D11*
X812799Y134364D02*
X812170Y134657D01*
X812415Y135180D01*
X813043Y134887D01*
X812799Y134364D01*
X812170Y134657D01*
G54D23*
X892600Y208000D02*
X892600Y239200D01*
X877000Y239200D01*
X877000Y208000D01*
X892600Y208000D01*
G54D11*
X920480Y200698D02*
X920480Y201392D01*
X919902Y201392D01*
X919902Y200698D01*
X920480Y200698D01*
X920480Y201392D01*
G54D11*
X900977Y200699D02*
X900977Y201392D01*
X900400Y201392D01*
X900400Y200699D01*
X900977Y200699D01*
X900977Y201392D01*
G54D23*
X877160Y184144D02*
X877160Y152944D01*
X892760Y152944D01*
X892760Y184144D01*
X877160Y184144D01*
G54D11*
X849280Y191446D02*
X849280Y190752D01*
X849858Y190752D01*
X849858Y191446D01*
X849280Y191446D01*
X849280Y190752D01*
G54D11*
X868785Y191444D02*
X868785Y190750D01*
X869362Y190750D01*
X869362Y191444D01*
X868785Y191444D01*
X868785Y190750D01*
G54D23*
X858609Y99820D02*
X886886Y113006D01*
X880293Y127145D01*
X852016Y113959D01*
X858609Y99820D01*
G54D11*
X863776Y71467D02*
X864404Y71760D01*
X864160Y72284D01*
X863532Y71990D01*
X863776Y71467D01*
X864404Y71760D01*
G54D11*
X855534Y89144D02*
X856162Y89438D01*
X855918Y89961D01*
X855289Y89668D01*
X855534Y89144D01*
X856162Y89438D01*
G54D13*
X873578Y251400D02*
X873579Y302200D01*
X797378Y302200D01*
X797379Y251400D01*
X873578Y251400D01*
G54D13*
X873578Y264100D02*
X873579Y289500D01*
X860879Y289500D01*
X860879Y264100D01*
X873578Y264100D01*
G54D11*
X790128Y244159D02*
X789435Y244159D01*
X789435Y244737D01*
X790128Y244737D01*
X790128Y244159D01*
X789435Y244159D01*
G54D23*
X876654Y315729D02*
X876654Y284529D01*
X892254Y284529D01*
X892254Y315729D01*
X876654Y315729D01*
G54D11*
X844753Y322856D02*
X844753Y322162D01*
X845331Y322162D01*
X845331Y322856D01*
X844753Y322856D01*
X844753Y322162D01*
G54D11*
X868277Y323029D02*
X868277Y322336D01*
X868855Y322336D01*
X868855Y323029D01*
X868277Y323029D01*
X868277Y322336D01*
G54D11*
X614097Y221171D02*
X614097Y220478D01*
X614674Y220478D01*
X614674Y221171D01*
X614097Y221171D01*
X614097Y220478D01*
G54D13*
X624654Y324629D02*
X624654Y350029D01*
X675454Y350029D01*
X675454Y324629D01*
X624654Y324629D01*
G54D13*
X723754Y324629D02*
X723754Y350029D01*
X774554Y350029D01*
X774554Y324629D01*
X723754Y324629D01*
G54D13*
X822654Y324629D02*
X822654Y350029D01*
X873454Y350029D01*
X873454Y324629D01*
X822654Y324629D01*
G54D23*
X698454Y354429D02*
X798454Y354429D01*
X798454Y11329D01*
X698454Y11329D01*
X698454Y354429D01*
M02*
