%FSLAX34Y34*%
%MOMM*%
%LNSOLDERMASK_TOP*%
G71*
G01*
%ADD10R, 1.250X2.200*%
%ADD11R, 2.200X1.200*%
%ADD12C, 2.200*%
%ADD13C, 1.800*%
%ADD14C, 2.120*%
%ADD15C, 4.100*%
%ADD16C, 2.200*%
%ADD17C, 3.600*%
%ADD18R, 2.000X1.500*%
%ADD19C, 2.900*%
%ADD20C, 1.800*%
%ADD21R, 1.100X2.200*%
%ADD22R, 4.300X2.600*%
%ADD23C, 2.200*%
%ADD24R, 1.700X1.800*%
%ADD25R, 1.800X1.800*%
%ADD26C, 2.200*%
%ADD27C, 1.600*%
%LPD*%
X210700Y957600D02*
G54D10*
D03*
X190700Y957600D02*
G54D10*
D03*
X170700Y957600D02*
G54D10*
D03*
X150700Y957600D02*
G54D10*
D03*
X130700Y957600D02*
G54D10*
D03*
X110700Y957600D02*
G54D10*
D03*
X90700Y957600D02*
G54D10*
D03*
X70700Y957600D02*
G54D10*
D03*
X210700Y797600D02*
G54D10*
D03*
X190700Y797600D02*
G54D10*
D03*
X170700Y797600D02*
G54D10*
D03*
X150700Y797600D02*
G54D10*
D03*
X130700Y797600D02*
G54D10*
D03*
X110700Y797600D02*
G54D10*
D03*
X90700Y797600D02*
G54D10*
D03*
X70700Y797600D02*
G54D10*
D03*
X55700Y927600D02*
G54D11*
D03*
X55700Y907600D02*
G54D11*
D03*
X55700Y887600D02*
G54D11*
D03*
X55700Y867600D02*
G54D11*
D03*
X55700Y847600D02*
G54D11*
D03*
X55700Y827600D02*
G54D11*
D03*
X32022Y947422D02*
G54D12*
D03*
X31932Y819178D02*
G54D12*
D03*
X210739Y957395D02*
G54D13*
D03*
X190739Y957395D02*
G54D13*
D03*
X170739Y957395D02*
G54D13*
D03*
X150739Y957395D02*
G54D13*
D03*
X130739Y957395D02*
G54D13*
D03*
X110739Y957395D02*
G54D13*
D03*
X90739Y957395D02*
G54D13*
D03*
X70739Y957395D02*
G54D13*
D03*
X55739Y927395D02*
G54D13*
D03*
X55739Y907395D02*
G54D13*
D03*
X55739Y887395D02*
G54D13*
D03*
X55739Y867395D02*
G54D13*
D03*
X55739Y847395D02*
G54D13*
D03*
X55739Y827395D02*
G54D13*
D03*
X70700Y797600D02*
G54D13*
D03*
X90700Y797600D02*
G54D13*
D03*
X110700Y797600D02*
G54D13*
D03*
X130700Y797600D02*
G54D13*
D03*
X150700Y797600D02*
G54D13*
D03*
X170700Y797600D02*
G54D13*
D03*
X190700Y797600D02*
G54D13*
D03*
X210700Y797600D02*
G54D13*
D03*
X41100Y797700D02*
G54D12*
D03*
X31222Y844978D02*
G54D12*
D03*
G36*
X140616Y971095D02*
X119416Y971095D01*
X119416Y992295D01*
X140616Y992295D01*
X140616Y971095D01*
G37*
G36*
X20722Y874009D02*
X20722Y895209D01*
X41922Y895209D01*
X41922Y874009D01*
X20722Y874009D01*
G37*
X31322Y910009D02*
G54D14*
D03*
G36*
X161700Y992500D02*
X182900Y992500D01*
X182900Y971300D01*
X161700Y971300D01*
X161700Y992500D01*
G37*
X197700Y981900D02*
G54D14*
D03*
G36*
X89900Y784200D02*
X111100Y784200D01*
X111100Y763000D01*
X89900Y763000D01*
X89900Y784200D01*
G37*
X125900Y773600D02*
G54D14*
D03*
X104639Y979195D02*
G54D13*
D03*
X80639Y979195D02*
G54D13*
D03*
X150800Y770100D02*
G54D13*
D03*
X170800Y770100D02*
G54D13*
D03*
G36*
X182700Y784500D02*
X203900Y784500D01*
X203900Y763300D01*
X182700Y763300D01*
X182700Y784500D01*
G37*
X218700Y773900D02*
G54D14*
D03*
X27320Y540700D02*
G54D15*
D03*
X257320Y540700D02*
G54D15*
D03*
X27320Y540700D02*
G54D15*
D03*
X257320Y540700D02*
G54D15*
D03*
G36*
X33332Y649461D02*
X55332Y649461D01*
X55332Y627461D01*
X33332Y627461D01*
X33332Y649461D01*
G37*
X44332Y612961D02*
G54D16*
D03*
X120832Y638461D02*
G54D16*
D03*
X120832Y612961D02*
G54D16*
D03*
X20885Y638696D02*
G54D12*
D03*
G36*
X9885Y602296D02*
X9885Y624296D01*
X31885Y624296D01*
X31885Y602296D01*
X9885Y602296D01*
G37*
X202877Y665724D02*
G54D12*
D03*
X275380Y447700D02*
G54D17*
D03*
X225380Y447700D02*
G54D17*
D03*
X175380Y447700D02*
G54D17*
D03*
X125380Y447700D02*
G54D17*
D03*
X75400Y447700D02*
G54D17*
D03*
X25400Y447700D02*
G54D17*
D03*
X145647Y643473D02*
G54D18*
D03*
X145547Y610973D02*
G54D18*
D03*
X176001Y660403D02*
G54D19*
D03*
X176001Y635003D02*
G54D19*
D03*
X176001Y609603D02*
G54D19*
D03*
X176001Y660403D02*
G54D19*
D03*
X176001Y635003D02*
G54D19*
D03*
X176001Y609603D02*
G54D19*
D03*
X145547Y609973D02*
G54D12*
D03*
G36*
X269271Y599879D02*
X269271Y621079D01*
X290471Y621079D01*
X290471Y599879D01*
X269271Y599879D01*
G37*
X279871Y635879D02*
G54D14*
D03*
G36*
X209271Y599879D02*
X209271Y621079D01*
X230471Y621079D01*
X230471Y599879D01*
X209271Y599879D01*
G37*
X219871Y635879D02*
G54D14*
D03*
G36*
X135106Y675995D02*
X156306Y675995D01*
X156306Y654795D01*
X135106Y654795D01*
X135106Y675995D01*
G37*
X219871Y639879D02*
G54D18*
D03*
X219771Y607379D02*
G54D18*
D03*
X237600Y665550D02*
G54D20*
D03*
X250300Y652850D02*
G54D20*
D03*
X263000Y665550D02*
G54D20*
D03*
X237600Y665550D02*
G54D20*
D03*
X250300Y652850D02*
G54D20*
D03*
X263000Y665550D02*
G54D20*
D03*
X145647Y643473D02*
G54D12*
D03*
G36*
X239106Y620995D02*
X260306Y620995D01*
X260306Y599795D01*
X239106Y599795D01*
X239106Y620995D01*
G37*
G36*
X274106Y672995D02*
X295306Y672995D01*
X295306Y651795D01*
X274106Y651795D01*
X274106Y672995D01*
G37*
X278454Y50129D02*
G54D17*
D03*
X228454Y50129D02*
G54D17*
D03*
X178454Y50129D02*
G54D17*
D03*
X128454Y50129D02*
G54D17*
D03*
X20372Y148000D02*
G54D21*
D03*
X42572Y148000D02*
G54D21*
D03*
X64872Y148000D02*
G54D21*
D03*
X42572Y206800D02*
G54D22*
D03*
G36*
X14652Y129988D02*
X24349Y125465D01*
X16741Y109152D01*
X7044Y113674D01*
X14652Y129988D01*
G37*
G36*
X42203Y117140D02*
X51901Y112618D01*
X44294Y96304D01*
X34596Y100826D01*
X42203Y117140D01*
G37*
G36*
X77654Y303929D02*
X55654Y303929D01*
X55654Y325929D01*
X77654Y325929D01*
X77654Y303929D01*
G37*
X41254Y314929D02*
G54D23*
D03*
X15854Y314929D02*
G54D23*
D03*
X15854Y238729D02*
G54D23*
D03*
X41254Y238729D02*
G54D23*
D03*
X66654Y238729D02*
G54D23*
D03*
X90575Y207228D02*
G54D18*
D03*
X90675Y239729D02*
G54D18*
D03*
X90735Y184972D02*
G54D18*
D03*
X90635Y152472D02*
G54D18*
D03*
G36*
X49340Y112474D02*
X62934Y118813D01*
X71387Y100687D01*
X57792Y94348D01*
X49340Y112474D01*
G37*
G36*
X78837Y126118D02*
X92432Y132458D01*
X100884Y114331D01*
X87290Y107992D01*
X78837Y126118D01*
G37*
X14433Y121588D02*
G54D24*
D03*
X41685Y146764D02*
G54D12*
D03*
X15099Y146240D02*
G54D12*
D03*
X17196Y118170D02*
G54D12*
D03*
X89963Y120225D02*
G54D12*
D03*
X14999Y146240D02*
G54D25*
D03*
G54D26*
X43168Y147782D02*
X43362Y147954D01*
X70685Y147764D02*
G54D12*
D03*
X90229Y316557D02*
G54D18*
D03*
X90129Y284057D02*
G54D18*
D03*
X90575Y207228D02*
G54D12*
D03*
X78454Y50129D02*
G54D17*
D03*
X28454Y50129D02*
G54D17*
D03*
G54D27*
X46254Y102429D02*
X56211Y102429D01*
X60363Y106580D01*
X50902Y106580D01*
X45754Y111729D01*
X55215Y111729D01*
X60363Y106580D01*
X119397Y147872D02*
G54D21*
D03*
X141597Y147872D02*
G54D21*
D03*
X163897Y147872D02*
G54D21*
D03*
X141597Y206672D02*
G54D22*
D03*
G36*
X113677Y129861D02*
X123374Y125339D01*
X115766Y109025D01*
X106069Y113548D01*
X113677Y129861D01*
G37*
G36*
X141228Y117013D02*
X150926Y112491D01*
X143319Y96177D01*
X133621Y100699D01*
X141228Y117013D01*
G37*
G36*
X176679Y303800D02*
X154679Y303800D01*
X154679Y325800D01*
X176679Y325800D01*
X176679Y303800D01*
G37*
X140279Y314800D02*
G54D23*
D03*
X114879Y314800D02*
G54D23*
D03*
X114879Y238600D02*
G54D23*
D03*
X140279Y238600D02*
G54D23*
D03*
X165679Y238600D02*
G54D23*
D03*
X189600Y207100D02*
G54D18*
D03*
X189700Y239600D02*
G54D18*
D03*
X189760Y184844D02*
G54D18*
D03*
X189660Y152344D02*
G54D18*
D03*
G36*
X148364Y112345D02*
X161959Y118685D01*
X170411Y100558D01*
X156817Y94219D01*
X148364Y112345D01*
G37*
G36*
X177862Y125990D02*
X191456Y132329D01*
X199908Y114203D01*
X186314Y107863D01*
X177862Y125990D01*
G37*
X113458Y121459D02*
G54D24*
D03*
X140710Y146636D02*
G54D12*
D03*
X114124Y146111D02*
G54D12*
D03*
X116222Y118042D02*
G54D12*
D03*
X188988Y120096D02*
G54D12*
D03*
X114024Y146111D02*
G54D25*
D03*
G54D26*
X142193Y147653D02*
X142387Y147826D01*
X169710Y147636D02*
G54D12*
D03*
X189254Y316429D02*
G54D18*
D03*
X189154Y283929D02*
G54D18*
D03*
X189600Y207100D02*
G54D12*
D03*
G54D27*
X145279Y102300D02*
X155236Y102300D01*
X159388Y106452D01*
X149927Y106452D01*
X144779Y111600D01*
X154240Y111600D01*
X159388Y106452D01*
X218597Y147972D02*
G54D21*
D03*
X240797Y147972D02*
G54D21*
D03*
X263097Y147972D02*
G54D21*
D03*
X240797Y206772D02*
G54D22*
D03*
G36*
X212877Y129959D02*
X222574Y125437D01*
X214966Y109124D01*
X205269Y113646D01*
X212877Y129959D01*
G37*
G36*
X240428Y117112D02*
X250125Y112590D01*
X242519Y96276D01*
X232821Y100798D01*
X240428Y117112D01*
G37*
G36*
X275879Y303900D02*
X253879Y303900D01*
X253879Y325900D01*
X275879Y325900D01*
X275879Y303900D01*
G37*
X239479Y314900D02*
G54D23*
D03*
X214079Y314900D02*
G54D23*
D03*
X214079Y238700D02*
G54D23*
D03*
X239479Y238700D02*
G54D23*
D03*
X264879Y238700D02*
G54D23*
D03*
X288800Y207200D02*
G54D18*
D03*
X288900Y239700D02*
G54D18*
D03*
X288960Y184944D02*
G54D18*
D03*
X288860Y152444D02*
G54D18*
D03*
G36*
X247564Y112445D02*
X261159Y118784D01*
X269611Y100658D01*
X256017Y94319D01*
X247564Y112445D01*
G37*
G36*
X277062Y126090D02*
X290656Y132429D01*
X299108Y114303D01*
X285514Y107963D01*
X277062Y126090D01*
G37*
X212658Y121559D02*
G54D24*
D03*
X239910Y146736D02*
G54D12*
D03*
X213324Y146211D02*
G54D12*
D03*
X215422Y118142D02*
G54D12*
D03*
X288188Y120196D02*
G54D12*
D03*
X213224Y146211D02*
G54D25*
D03*
G54D26*
X241393Y147753D02*
X241587Y147926D01*
X268910Y147736D02*
G54D12*
D03*
X288454Y316529D02*
G54D18*
D03*
X288354Y284029D02*
G54D18*
D03*
X288800Y207200D02*
G54D12*
D03*
G54D27*
X244479Y102400D02*
X254436Y102400D01*
X258588Y106552D01*
X249127Y106552D01*
X243979Y111700D01*
X253440Y111700D01*
X258588Y106552D01*
X16675Y99507D02*
G54D12*
D03*
X116975Y100207D02*
G54D12*
D03*
X215775Y100607D02*
G54D12*
D03*
G36*
X30754Y347929D02*
X51954Y347929D01*
X51954Y326729D01*
X30754Y326729D01*
X30754Y347929D01*
G37*
X66754Y337329D02*
G54D14*
D03*
G36*
X129854Y347929D02*
X151054Y347929D01*
X151054Y326729D01*
X129854Y326729D01*
X129854Y347929D01*
G37*
X165854Y337329D02*
G54D14*
D03*
G36*
X228754Y347929D02*
X249954Y347929D01*
X249954Y326729D01*
X228754Y326729D01*
X228754Y347929D01*
G37*
X264754Y337329D02*
G54D14*
D03*
X508700Y957600D02*
G54D10*
D03*
X488700Y957600D02*
G54D10*
D03*
X468700Y957600D02*
G54D10*
D03*
X448700Y957600D02*
G54D10*
D03*
X428700Y957600D02*
G54D10*
D03*
X408700Y957600D02*
G54D10*
D03*
X388700Y957600D02*
G54D10*
D03*
X368700Y957600D02*
G54D10*
D03*
X508700Y797600D02*
G54D10*
D03*
X488700Y797600D02*
G54D10*
D03*
X468700Y797600D02*
G54D10*
D03*
X448700Y797600D02*
G54D10*
D03*
X428700Y797600D02*
G54D10*
D03*
X408700Y797600D02*
G54D10*
D03*
X388700Y797600D02*
G54D10*
D03*
X368700Y797600D02*
G54D10*
D03*
X353700Y927600D02*
G54D11*
D03*
X353700Y907600D02*
G54D11*
D03*
X353700Y887600D02*
G54D11*
D03*
X353700Y867600D02*
G54D11*
D03*
X353700Y847600D02*
G54D11*
D03*
X353700Y827600D02*
G54D11*
D03*
X330022Y947422D02*
G54D12*
D03*
X329932Y819178D02*
G54D12*
D03*
X508739Y957395D02*
G54D13*
D03*
X488739Y957395D02*
G54D13*
D03*
X468739Y957395D02*
G54D13*
D03*
X448739Y957395D02*
G54D13*
D03*
X428739Y957395D02*
G54D13*
D03*
X408739Y957395D02*
G54D13*
D03*
X388739Y957395D02*
G54D13*
D03*
X368739Y957395D02*
G54D13*
D03*
X353739Y927395D02*
G54D13*
D03*
X353739Y907395D02*
G54D13*
D03*
X353739Y887395D02*
G54D13*
D03*
X353739Y867395D02*
G54D13*
D03*
X353739Y847395D02*
G54D13*
D03*
X353739Y827395D02*
G54D13*
D03*
X368700Y797600D02*
G54D13*
D03*
X388700Y797600D02*
G54D13*
D03*
X408700Y797600D02*
G54D13*
D03*
X428700Y797600D02*
G54D13*
D03*
X448700Y797600D02*
G54D13*
D03*
X468700Y797600D02*
G54D13*
D03*
X488700Y797600D02*
G54D13*
D03*
X508700Y797600D02*
G54D13*
D03*
X339100Y797700D02*
G54D12*
D03*
X329222Y844978D02*
G54D12*
D03*
G36*
X438616Y971095D02*
X417416Y971095D01*
X417416Y992295D01*
X438616Y992295D01*
X438616Y971095D01*
G37*
G36*
X318722Y874009D02*
X318722Y895209D01*
X339922Y895209D01*
X339922Y874009D01*
X318722Y874009D01*
G37*
X329322Y910009D02*
G54D14*
D03*
G36*
X459700Y992500D02*
X480900Y992500D01*
X480900Y971300D01*
X459700Y971300D01*
X459700Y992500D01*
G37*
X495700Y981900D02*
G54D14*
D03*
G36*
X387900Y784200D02*
X409100Y784200D01*
X409100Y763000D01*
X387900Y763000D01*
X387900Y784200D01*
G37*
X423900Y773600D02*
G54D14*
D03*
X402639Y979195D02*
G54D13*
D03*
X378639Y979195D02*
G54D13*
D03*
X448800Y770100D02*
G54D13*
D03*
X468800Y770100D02*
G54D13*
D03*
G36*
X480700Y784500D02*
X501900Y784500D01*
X501900Y763300D01*
X480700Y763300D01*
X480700Y784500D01*
G37*
X516700Y773900D02*
G54D14*
D03*
X325320Y540700D02*
G54D15*
D03*
X555320Y540700D02*
G54D15*
D03*
X325320Y540700D02*
G54D15*
D03*
X555320Y540700D02*
G54D15*
D03*
G36*
X331332Y649461D02*
X353332Y649461D01*
X353332Y627461D01*
X331332Y627461D01*
X331332Y649461D01*
G37*
X342332Y612961D02*
G54D16*
D03*
X418832Y638461D02*
G54D16*
D03*
X418832Y612961D02*
G54D16*
D03*
X318885Y638696D02*
G54D12*
D03*
G36*
X307885Y602296D02*
X307885Y624296D01*
X329885Y624296D01*
X329885Y602296D01*
X307885Y602296D01*
G37*
X500877Y665724D02*
G54D12*
D03*
X573380Y447700D02*
G54D17*
D03*
X523380Y447700D02*
G54D17*
D03*
X473380Y447700D02*
G54D17*
D03*
X423380Y447700D02*
G54D17*
D03*
X373400Y447700D02*
G54D17*
D03*
X323400Y447700D02*
G54D17*
D03*
X443647Y643473D02*
G54D18*
D03*
X443547Y610973D02*
G54D18*
D03*
X474001Y660403D02*
G54D19*
D03*
X474001Y635003D02*
G54D19*
D03*
X474001Y609603D02*
G54D19*
D03*
X474001Y660403D02*
G54D19*
D03*
X474001Y635003D02*
G54D19*
D03*
X474001Y609603D02*
G54D19*
D03*
X443547Y609973D02*
G54D12*
D03*
G36*
X567271Y599879D02*
X567271Y621079D01*
X588471Y621079D01*
X588471Y599879D01*
X567271Y599879D01*
G37*
X577871Y635879D02*
G54D14*
D03*
G36*
X507271Y599879D02*
X507271Y621079D01*
X528471Y621079D01*
X528471Y599879D01*
X507271Y599879D01*
G37*
X517871Y635879D02*
G54D14*
D03*
G36*
X433106Y675995D02*
X454306Y675995D01*
X454306Y654795D01*
X433106Y654795D01*
X433106Y675995D01*
G37*
X517871Y639879D02*
G54D18*
D03*
X517771Y607379D02*
G54D18*
D03*
X535600Y665550D02*
G54D20*
D03*
X548300Y652850D02*
G54D20*
D03*
X561000Y665550D02*
G54D20*
D03*
X535600Y665550D02*
G54D20*
D03*
X548300Y652850D02*
G54D20*
D03*
X561000Y665550D02*
G54D20*
D03*
X443647Y643473D02*
G54D12*
D03*
G36*
X537106Y620995D02*
X558306Y620995D01*
X558306Y599795D01*
X537106Y599795D01*
X537106Y620995D01*
G37*
G36*
X572106Y672995D02*
X593306Y672995D01*
X593306Y651795D01*
X572106Y651795D01*
X572106Y672995D01*
G37*
X576454Y50129D02*
G54D17*
D03*
X526454Y50129D02*
G54D17*
D03*
X476454Y50129D02*
G54D17*
D03*
X426454Y50129D02*
G54D17*
D03*
X318372Y148000D02*
G54D21*
D03*
X340572Y148000D02*
G54D21*
D03*
X362872Y148000D02*
G54D21*
D03*
X340572Y206800D02*
G54D22*
D03*
G36*
X312652Y129988D02*
X322349Y125465D01*
X314741Y109152D01*
X305044Y113674D01*
X312652Y129988D01*
G37*
G36*
X340203Y117140D02*
X349901Y112618D01*
X342294Y96304D01*
X332596Y100826D01*
X340203Y117140D01*
G37*
G36*
X375654Y303929D02*
X353654Y303929D01*
X353654Y325929D01*
X375654Y325929D01*
X375654Y303929D01*
G37*
X339254Y314929D02*
G54D23*
D03*
X313854Y314929D02*
G54D23*
D03*
X313854Y238729D02*
G54D23*
D03*
X339254Y238729D02*
G54D23*
D03*
X364654Y238729D02*
G54D23*
D03*
X388575Y207228D02*
G54D18*
D03*
X388675Y239729D02*
G54D18*
D03*
X388735Y184972D02*
G54D18*
D03*
X388635Y152472D02*
G54D18*
D03*
G36*
X347340Y112474D02*
X360934Y118813D01*
X369387Y100687D01*
X355792Y94348D01*
X347340Y112474D01*
G37*
G36*
X376837Y126118D02*
X390432Y132458D01*
X398884Y114331D01*
X385290Y107992D01*
X376837Y126118D01*
G37*
X312433Y121588D02*
G54D24*
D03*
X339685Y146764D02*
G54D12*
D03*
X313099Y146240D02*
G54D12*
D03*
X315196Y118170D02*
G54D12*
D03*
X387963Y120225D02*
G54D12*
D03*
X312999Y146240D02*
G54D25*
D03*
G54D26*
X341168Y147782D02*
X341362Y147954D01*
X368685Y147764D02*
G54D12*
D03*
X388229Y316557D02*
G54D18*
D03*
X388129Y284057D02*
G54D18*
D03*
X388575Y207228D02*
G54D12*
D03*
X376454Y50129D02*
G54D17*
D03*
X326454Y50129D02*
G54D17*
D03*
G54D27*
X344254Y102429D02*
X354211Y102429D01*
X358363Y106580D01*
X348902Y106580D01*
X343754Y111729D01*
X353215Y111729D01*
X358363Y106580D01*
X417397Y147872D02*
G54D21*
D03*
X439597Y147872D02*
G54D21*
D03*
X461897Y147872D02*
G54D21*
D03*
X439597Y206672D02*
G54D22*
D03*
G36*
X411677Y129861D02*
X421374Y125339D01*
X413766Y109025D01*
X404069Y113548D01*
X411677Y129861D01*
G37*
G36*
X439228Y117013D02*
X448926Y112491D01*
X441319Y96177D01*
X431621Y100699D01*
X439228Y117013D01*
G37*
G36*
X474679Y303800D02*
X452679Y303800D01*
X452679Y325800D01*
X474679Y325800D01*
X474679Y303800D01*
G37*
X438279Y314800D02*
G54D23*
D03*
X412879Y314800D02*
G54D23*
D03*
X412879Y238600D02*
G54D23*
D03*
X438279Y238600D02*
G54D23*
D03*
X463679Y238600D02*
G54D23*
D03*
X487600Y207100D02*
G54D18*
D03*
X487700Y239600D02*
G54D18*
D03*
X487760Y184844D02*
G54D18*
D03*
X487660Y152344D02*
G54D18*
D03*
G36*
X446364Y112345D02*
X459959Y118685D01*
X468411Y100558D01*
X454817Y94219D01*
X446364Y112345D01*
G37*
G36*
X475862Y125990D02*
X489456Y132329D01*
X497909Y114203D01*
X484314Y107863D01*
X475862Y125990D01*
G37*
X411458Y121459D02*
G54D24*
D03*
X438710Y146636D02*
G54D12*
D03*
X412124Y146111D02*
G54D12*
D03*
X414222Y118042D02*
G54D12*
D03*
X486988Y120096D02*
G54D12*
D03*
X412024Y146111D02*
G54D25*
D03*
G54D26*
X440193Y147653D02*
X440387Y147826D01*
X467710Y147636D02*
G54D12*
D03*
X487254Y316429D02*
G54D18*
D03*
X487154Y283929D02*
G54D18*
D03*
X487600Y207100D02*
G54D12*
D03*
G54D27*
X443279Y102300D02*
X453236Y102300D01*
X457388Y106452D01*
X447927Y106452D01*
X442779Y111600D01*
X452240Y111600D01*
X457388Y106452D01*
X516597Y147972D02*
G54D21*
D03*
X538797Y147972D02*
G54D21*
D03*
X561097Y147972D02*
G54D21*
D03*
X538797Y206772D02*
G54D22*
D03*
G36*
X510877Y129959D02*
X520574Y125437D01*
X512966Y109124D01*
X503269Y113646D01*
X510877Y129959D01*
G37*
G36*
X538428Y117112D02*
X548126Y112590D01*
X540519Y96276D01*
X530821Y100798D01*
X538428Y117112D01*
G37*
G36*
X573879Y303900D02*
X551879Y303900D01*
X551879Y325900D01*
X573879Y325900D01*
X573879Y303900D01*
G37*
X537479Y314900D02*
G54D23*
D03*
X512079Y314900D02*
G54D23*
D03*
X512079Y238700D02*
G54D23*
D03*
X537479Y238700D02*
G54D23*
D03*
X562879Y238700D02*
G54D23*
D03*
X586800Y207200D02*
G54D18*
D03*
X586900Y239700D02*
G54D18*
D03*
X586960Y184944D02*
G54D18*
D03*
X586860Y152444D02*
G54D18*
D03*
G36*
X545564Y112445D02*
X559159Y118784D01*
X567611Y100658D01*
X554017Y94319D01*
X545564Y112445D01*
G37*
G36*
X575062Y126090D02*
X588656Y132429D01*
X597108Y114303D01*
X583514Y107963D01*
X575062Y126090D01*
G37*
X510658Y121559D02*
G54D24*
D03*
X537910Y146736D02*
G54D12*
D03*
X511324Y146211D02*
G54D12*
D03*
X513422Y118142D02*
G54D12*
D03*
X586188Y120196D02*
G54D12*
D03*
X511224Y146211D02*
G54D25*
D03*
G54D26*
X539393Y147753D02*
X539587Y147926D01*
X566910Y147736D02*
G54D12*
D03*
X586454Y316529D02*
G54D18*
D03*
X586354Y284029D02*
G54D18*
D03*
X586800Y207200D02*
G54D12*
D03*
G54D27*
X542479Y102400D02*
X552436Y102400D01*
X556588Y106552D01*
X547127Y106552D01*
X541979Y111700D01*
X551440Y111700D01*
X556588Y106552D01*
X314675Y99507D02*
G54D12*
D03*
X414975Y100207D02*
G54D12*
D03*
X513775Y100607D02*
G54D12*
D03*
G36*
X328754Y347929D02*
X349954Y347929D01*
X349954Y326729D01*
X328754Y326729D01*
X328754Y347929D01*
G37*
X364754Y337329D02*
G54D14*
D03*
G36*
X427854Y347929D02*
X449054Y347929D01*
X449054Y326729D01*
X427854Y326729D01*
X427854Y347929D01*
G37*
X463854Y337329D02*
G54D14*
D03*
G36*
X526754Y347929D02*
X547954Y347929D01*
X547954Y326729D01*
X526754Y326729D01*
X526754Y347929D01*
G37*
X562754Y337329D02*
G54D14*
D03*
X806700Y957600D02*
G54D10*
D03*
X786700Y957600D02*
G54D10*
D03*
X766700Y957600D02*
G54D10*
D03*
X746700Y957600D02*
G54D10*
D03*
X726700Y957600D02*
G54D10*
D03*
X706700Y957600D02*
G54D10*
D03*
X686700Y957600D02*
G54D10*
D03*
X666700Y957600D02*
G54D10*
D03*
X806700Y797600D02*
G54D10*
D03*
X786700Y797600D02*
G54D10*
D03*
X766700Y797600D02*
G54D10*
D03*
X746700Y797600D02*
G54D10*
D03*
X726700Y797600D02*
G54D10*
D03*
X706700Y797600D02*
G54D10*
D03*
X686700Y797600D02*
G54D10*
D03*
X666700Y797600D02*
G54D10*
D03*
X651700Y927600D02*
G54D11*
D03*
X651700Y907600D02*
G54D11*
D03*
X651700Y887600D02*
G54D11*
D03*
X651700Y867600D02*
G54D11*
D03*
X651700Y847600D02*
G54D11*
D03*
X651700Y827600D02*
G54D11*
D03*
X628022Y947422D02*
G54D12*
D03*
X627932Y819178D02*
G54D12*
D03*
X806739Y957395D02*
G54D13*
D03*
X786739Y957395D02*
G54D13*
D03*
X766739Y957395D02*
G54D13*
D03*
X746739Y957395D02*
G54D13*
D03*
X726739Y957395D02*
G54D13*
D03*
X706739Y957395D02*
G54D13*
D03*
X686739Y957395D02*
G54D13*
D03*
X666739Y957395D02*
G54D13*
D03*
X651739Y927395D02*
G54D13*
D03*
X651739Y907395D02*
G54D13*
D03*
X651739Y887395D02*
G54D13*
D03*
X651739Y867395D02*
G54D13*
D03*
X651739Y847395D02*
G54D13*
D03*
X651739Y827395D02*
G54D13*
D03*
X666700Y797600D02*
G54D13*
D03*
X686700Y797600D02*
G54D13*
D03*
X706700Y797600D02*
G54D13*
D03*
X726700Y797600D02*
G54D13*
D03*
X746700Y797600D02*
G54D13*
D03*
X766700Y797600D02*
G54D13*
D03*
X786700Y797600D02*
G54D13*
D03*
X806700Y797600D02*
G54D13*
D03*
X637100Y797700D02*
G54D12*
D03*
X627222Y844978D02*
G54D12*
D03*
G36*
X736616Y971095D02*
X715416Y971095D01*
X715416Y992295D01*
X736616Y992295D01*
X736616Y971095D01*
G37*
G36*
X616722Y874009D02*
X616722Y895209D01*
X637922Y895209D01*
X637922Y874009D01*
X616722Y874009D01*
G37*
X627322Y910009D02*
G54D14*
D03*
G36*
X757700Y992500D02*
X778900Y992500D01*
X778900Y971300D01*
X757700Y971300D01*
X757700Y992500D01*
G37*
X793700Y981900D02*
G54D14*
D03*
G36*
X685900Y784200D02*
X707100Y784200D01*
X707100Y763000D01*
X685900Y763000D01*
X685900Y784200D01*
G37*
X721900Y773600D02*
G54D14*
D03*
X700639Y979195D02*
G54D13*
D03*
X676639Y979195D02*
G54D13*
D03*
X746800Y770100D02*
G54D13*
D03*
X766800Y770100D02*
G54D13*
D03*
G36*
X778700Y784500D02*
X799900Y784500D01*
X799900Y763300D01*
X778700Y763300D01*
X778700Y784500D01*
G37*
X814700Y773900D02*
G54D14*
D03*
X623320Y540700D02*
G54D15*
D03*
X853320Y540700D02*
G54D15*
D03*
X623320Y540700D02*
G54D15*
D03*
X853320Y540700D02*
G54D15*
D03*
G36*
X629332Y649461D02*
X651332Y649461D01*
X651332Y627461D01*
X629332Y627461D01*
X629332Y649461D01*
G37*
X640332Y612961D02*
G54D16*
D03*
X716832Y638461D02*
G54D16*
D03*
X716832Y612961D02*
G54D16*
D03*
X616885Y638696D02*
G54D12*
D03*
G36*
X605885Y602296D02*
X605885Y624296D01*
X627885Y624296D01*
X627885Y602296D01*
X605885Y602296D01*
G37*
X798877Y665724D02*
G54D12*
D03*
X871380Y447700D02*
G54D17*
D03*
X821380Y447700D02*
G54D17*
D03*
X771380Y447700D02*
G54D17*
D03*
X721380Y447700D02*
G54D17*
D03*
X671400Y447700D02*
G54D17*
D03*
X621400Y447700D02*
G54D17*
D03*
X741647Y643473D02*
G54D18*
D03*
X741547Y610973D02*
G54D18*
D03*
X772001Y660403D02*
G54D19*
D03*
X772001Y635003D02*
G54D19*
D03*
X772001Y609603D02*
G54D19*
D03*
X772001Y660403D02*
G54D19*
D03*
X772001Y635003D02*
G54D19*
D03*
X772001Y609603D02*
G54D19*
D03*
X741547Y609973D02*
G54D12*
D03*
G36*
X865271Y599879D02*
X865271Y621079D01*
X886471Y621079D01*
X886471Y599879D01*
X865271Y599879D01*
G37*
X875871Y635879D02*
G54D14*
D03*
G36*
X805271Y599879D02*
X805271Y621079D01*
X826471Y621079D01*
X826471Y599879D01*
X805271Y599879D01*
G37*
X815871Y635879D02*
G54D14*
D03*
G36*
X731106Y675995D02*
X752306Y675995D01*
X752306Y654795D01*
X731106Y654795D01*
X731106Y675995D01*
G37*
X815871Y639879D02*
G54D18*
D03*
X815771Y607379D02*
G54D18*
D03*
X833600Y665550D02*
G54D20*
D03*
X846300Y652850D02*
G54D20*
D03*
X859000Y665550D02*
G54D20*
D03*
X833600Y665550D02*
G54D20*
D03*
X846300Y652850D02*
G54D20*
D03*
X859000Y665550D02*
G54D20*
D03*
X741647Y643473D02*
G54D12*
D03*
G36*
X835106Y620995D02*
X856306Y620995D01*
X856306Y599795D01*
X835106Y599795D01*
X835106Y620995D01*
G37*
G36*
X870106Y672995D02*
X891306Y672995D01*
X891306Y651795D01*
X870106Y651795D01*
X870106Y672995D01*
G37*
X874454Y50129D02*
G54D17*
D03*
X824454Y50129D02*
G54D17*
D03*
X774454Y50129D02*
G54D17*
D03*
X724454Y50129D02*
G54D17*
D03*
X616372Y148000D02*
G54D21*
D03*
X638572Y148000D02*
G54D21*
D03*
X660872Y148000D02*
G54D21*
D03*
X638572Y206800D02*
G54D22*
D03*
G36*
X610652Y129988D02*
X620349Y125465D01*
X612741Y109152D01*
X603044Y113674D01*
X610652Y129988D01*
G37*
G36*
X638203Y117140D02*
X647901Y112618D01*
X640294Y96304D01*
X630596Y100826D01*
X638203Y117140D01*
G37*
G36*
X673654Y303929D02*
X651654Y303929D01*
X651654Y325929D01*
X673654Y325929D01*
X673654Y303929D01*
G37*
X637254Y314929D02*
G54D23*
D03*
X611854Y314929D02*
G54D23*
D03*
X611854Y238729D02*
G54D23*
D03*
X637254Y238729D02*
G54D23*
D03*
X662654Y238729D02*
G54D23*
D03*
X686575Y207228D02*
G54D18*
D03*
X686675Y239729D02*
G54D18*
D03*
X686735Y184972D02*
G54D18*
D03*
X686635Y152472D02*
G54D18*
D03*
G36*
X645340Y112474D02*
X658934Y118813D01*
X667387Y100687D01*
X653792Y94348D01*
X645340Y112474D01*
G37*
G36*
X674837Y126118D02*
X688432Y132458D01*
X696884Y114331D01*
X683290Y107992D01*
X674837Y126118D01*
G37*
X610433Y121588D02*
G54D24*
D03*
X637685Y146764D02*
G54D12*
D03*
X611099Y146240D02*
G54D12*
D03*
X613196Y118170D02*
G54D12*
D03*
X685963Y120225D02*
G54D12*
D03*
X610999Y146240D02*
G54D25*
D03*
G54D26*
X639168Y147782D02*
X639362Y147954D01*
X666685Y147764D02*
G54D12*
D03*
X686229Y316557D02*
G54D18*
D03*
X686129Y284057D02*
G54D18*
D03*
X686575Y207228D02*
G54D12*
D03*
X674454Y50129D02*
G54D17*
D03*
X624454Y50129D02*
G54D17*
D03*
G54D27*
X642254Y102429D02*
X652211Y102429D01*
X656363Y106580D01*
X646902Y106580D01*
X641754Y111729D01*
X651215Y111729D01*
X656363Y106580D01*
X715397Y147872D02*
G54D21*
D03*
X737597Y147872D02*
G54D21*
D03*
X759897Y147872D02*
G54D21*
D03*
X737597Y206672D02*
G54D22*
D03*
G36*
X709676Y129861D02*
X719374Y125339D01*
X711766Y109025D01*
X702069Y113548D01*
X709676Y129861D01*
G37*
G36*
X737228Y117013D02*
X746926Y112491D01*
X739319Y96177D01*
X729621Y100699D01*
X737228Y117013D01*
G37*
G36*
X772679Y303800D02*
X750679Y303800D01*
X750679Y325800D01*
X772679Y325800D01*
X772679Y303800D01*
G37*
X736279Y314800D02*
G54D23*
D03*
X710879Y314800D02*
G54D23*
D03*
X710879Y238600D02*
G54D23*
D03*
X736279Y238600D02*
G54D23*
D03*
X761679Y238600D02*
G54D23*
D03*
X785600Y207100D02*
G54D18*
D03*
X785700Y239600D02*
G54D18*
D03*
X785760Y184844D02*
G54D18*
D03*
X785660Y152344D02*
G54D18*
D03*
G36*
X744364Y112345D02*
X757959Y118685D01*
X766411Y100558D01*
X752817Y94219D01*
X744364Y112345D01*
G37*
G36*
X773862Y125990D02*
X787456Y132329D01*
X795908Y114203D01*
X782314Y107863D01*
X773862Y125990D01*
G37*
X709458Y121459D02*
G54D24*
D03*
X736710Y146636D02*
G54D12*
D03*
X710124Y146111D02*
G54D12*
D03*
X712222Y118042D02*
G54D12*
D03*
X784988Y120096D02*
G54D12*
D03*
X710024Y146111D02*
G54D25*
D03*
G54D26*
X738193Y147653D02*
X738387Y147826D01*
X765710Y147636D02*
G54D12*
D03*
X785254Y316429D02*
G54D18*
D03*
X785154Y283929D02*
G54D18*
D03*
X785600Y207100D02*
G54D12*
D03*
G54D27*
X741279Y102300D02*
X751236Y102300D01*
X755388Y106452D01*
X745927Y106452D01*
X740779Y111600D01*
X750240Y111600D01*
X755388Y106452D01*
X814597Y147972D02*
G54D21*
D03*
X836797Y147972D02*
G54D21*
D03*
X859097Y147972D02*
G54D21*
D03*
X836797Y206772D02*
G54D22*
D03*
G36*
X808877Y129959D02*
X818574Y125437D01*
X810966Y109124D01*
X801269Y113646D01*
X808877Y129959D01*
G37*
G36*
X836428Y117112D02*
X846126Y112590D01*
X838519Y96276D01*
X828821Y100798D01*
X836428Y117112D01*
G37*
G36*
X871879Y303900D02*
X849879Y303900D01*
X849879Y325900D01*
X871879Y325900D01*
X871879Y303900D01*
G37*
X835479Y314900D02*
G54D23*
D03*
X810079Y314900D02*
G54D23*
D03*
X810079Y238700D02*
G54D23*
D03*
X835479Y238700D02*
G54D23*
D03*
X860879Y238700D02*
G54D23*
D03*
X884800Y207200D02*
G54D18*
D03*
X884900Y239700D02*
G54D18*
D03*
X884960Y184944D02*
G54D18*
D03*
X884860Y152444D02*
G54D18*
D03*
G36*
X843564Y112445D02*
X857159Y118784D01*
X865611Y100658D01*
X852017Y94319D01*
X843564Y112445D01*
G37*
G36*
X873062Y126090D02*
X886656Y132429D01*
X895108Y114303D01*
X881514Y107963D01*
X873062Y126090D01*
G37*
X808658Y121559D02*
G54D24*
D03*
X835910Y146736D02*
G54D12*
D03*
X809324Y146211D02*
G54D12*
D03*
X811422Y118142D02*
G54D12*
D03*
X884188Y120196D02*
G54D12*
D03*
X809224Y146211D02*
G54D25*
D03*
G54D26*
X837393Y147753D02*
X837587Y147926D01*
X864910Y147736D02*
G54D12*
D03*
X884454Y316529D02*
G54D18*
D03*
X884354Y284029D02*
G54D18*
D03*
X884800Y207200D02*
G54D12*
D03*
G54D27*
X840479Y102400D02*
X850436Y102400D01*
X854588Y106552D01*
X845127Y106552D01*
X839979Y111700D01*
X849440Y111700D01*
X854588Y106552D01*
X612675Y99507D02*
G54D12*
D03*
X712975Y100207D02*
G54D12*
D03*
X811775Y100607D02*
G54D12*
D03*
G36*
X626754Y347929D02*
X647954Y347929D01*
X647954Y326729D01*
X626754Y326729D01*
X626754Y347929D01*
G37*
X662754Y337329D02*
G54D14*
D03*
G36*
X725854Y347929D02*
X747054Y347929D01*
X747054Y326729D01*
X725854Y326729D01*
X725854Y347929D01*
G37*
X761854Y337329D02*
G54D14*
D03*
G36*
X824754Y347929D02*
X845954Y347929D01*
X845954Y326729D01*
X824754Y326729D01*
X824754Y347929D01*
G37*
X860754Y337329D02*
G54D14*
D03*
M02*
