%FSLAX34Y34*%
%MOMM*%
%LNSOLDERMASK_BOTTOM*%
G71*
G01*
%ADD10C, 2.200*%
%ADD11C, 1.800*%
%ADD12R, 1.800X1.070*%
%ADD13C, 2.120*%
%ADD14R, 2.000X1.500*%
%ADD15R, 1.500X2.000*%
%ADD16C, 4.100*%
%ADD17C, 2.200*%
%ADD18C, 3.600*%
%ADD19C, 2.900*%
%ADD20C, 1.800*%
%ADD21C, 2.200*%
%ADD22C, 2.000*%
%LPD*%
X32022Y947422D02*
G54D10*
D03*
X31932Y819178D02*
G54D10*
D03*
X210739Y957395D02*
G54D11*
D03*
X190739Y957395D02*
G54D11*
D03*
X170739Y957395D02*
G54D11*
D03*
X150739Y957395D02*
G54D11*
D03*
X130739Y957395D02*
G54D11*
D03*
X110739Y957395D02*
G54D11*
D03*
X90739Y957395D02*
G54D11*
D03*
X70739Y957395D02*
G54D11*
D03*
X55739Y927395D02*
G54D11*
D03*
X55739Y907395D02*
G54D11*
D03*
X55739Y887395D02*
G54D11*
D03*
X55739Y867395D02*
G54D11*
D03*
X55739Y847395D02*
G54D11*
D03*
X55739Y827395D02*
G54D11*
D03*
X70700Y797600D02*
G54D11*
D03*
X90700Y797600D02*
G54D11*
D03*
X110700Y797600D02*
G54D11*
D03*
X130700Y797600D02*
G54D11*
D03*
X150700Y797600D02*
G54D11*
D03*
X170700Y797600D02*
G54D11*
D03*
X190700Y797600D02*
G54D11*
D03*
X210700Y797600D02*
G54D11*
D03*
X41100Y797700D02*
G54D10*
D03*
X31222Y844978D02*
G54D10*
D03*
G36*
X140616Y971095D02*
X119416Y971095D01*
X119416Y992295D01*
X140616Y992295D01*
X140616Y971095D01*
G37*
X15622Y912609D02*
G54D12*
D03*
X15622Y882209D02*
G54D12*
D03*
G36*
X20722Y874009D02*
X20722Y895209D01*
X41922Y895209D01*
X41922Y874009D01*
X20722Y874009D01*
G37*
X31322Y910009D02*
G54D13*
D03*
G36*
X161700Y992500D02*
X182900Y992500D01*
X182900Y971300D01*
X161700Y971300D01*
X161700Y992500D01*
G37*
X197700Y981900D02*
G54D13*
D03*
X211501Y904316D02*
G54D14*
D03*
X211401Y871816D02*
G54D14*
D03*
X170801Y903616D02*
G54D14*
D03*
X170701Y871116D02*
G54D14*
D03*
G36*
X146312Y939128D02*
X161312Y939128D01*
X161312Y919128D01*
X146312Y919128D01*
X146312Y939128D01*
G37*
X186312Y929028D02*
G54D15*
D03*
X109201Y858516D02*
G54D14*
D03*
X109101Y826016D02*
G54D14*
D03*
X133901Y858616D02*
G54D14*
D03*
X133801Y826116D02*
G54D14*
D03*
G36*
X36612Y780728D02*
X51612Y780728D01*
X51612Y760728D01*
X36612Y760728D01*
X36612Y780728D01*
G37*
X76612Y770628D02*
G54D15*
D03*
G36*
X89900Y784200D02*
X111100Y784200D01*
X111100Y763000D01*
X89900Y763000D01*
X89900Y784200D01*
G37*
X125900Y773600D02*
G54D13*
D03*
X104639Y979195D02*
G54D11*
D03*
X80639Y979195D02*
G54D11*
D03*
X150800Y770100D02*
G54D11*
D03*
X170800Y770100D02*
G54D11*
D03*
G36*
X182700Y784500D02*
X203900Y784500D01*
X203900Y763300D01*
X182700Y763300D01*
X182700Y784500D01*
G37*
X218700Y773900D02*
G54D13*
D03*
X27320Y540700D02*
G54D16*
D03*
X257320Y540700D02*
G54D16*
D03*
X27320Y540700D02*
G54D16*
D03*
X257320Y540700D02*
G54D16*
D03*
G36*
X33332Y649461D02*
X55332Y649461D01*
X55332Y627461D01*
X33332Y627461D01*
X33332Y649461D01*
G37*
X44332Y612961D02*
G54D17*
D03*
X120832Y638461D02*
G54D17*
D03*
X120832Y612961D02*
G54D17*
D03*
X20885Y638696D02*
G54D10*
D03*
G36*
X9885Y602296D02*
X9885Y624296D01*
X31885Y624296D01*
X31885Y602296D01*
X9885Y602296D01*
G37*
X202877Y665724D02*
G54D10*
D03*
X275380Y447700D02*
G54D18*
D03*
X225380Y447700D02*
G54D18*
D03*
X175380Y447700D02*
G54D18*
D03*
X125380Y447700D02*
G54D18*
D03*
X75400Y447700D02*
G54D18*
D03*
X25400Y447700D02*
G54D18*
D03*
G36*
X64475Y568399D02*
X79475Y568400D01*
X79476Y548400D01*
X64476Y548399D01*
X64475Y568399D01*
G37*
X104476Y558299D02*
G54D15*
D03*
X55256Y521499D02*
G54D15*
D03*
X87756Y521399D02*
G54D15*
D03*
X164576Y522499D02*
G54D15*
D03*
X197075Y522399D02*
G54D15*
D03*
G36*
X102075Y532499D02*
X117075Y532500D01*
X117076Y512500D01*
X102076Y512499D01*
X102075Y532499D01*
G37*
X142076Y522400D02*
G54D15*
D03*
X181976Y559400D02*
G54D15*
D03*
X214476Y559300D02*
G54D15*
D03*
G36*
X119475Y569399D02*
X134475Y569400D01*
X134476Y549400D01*
X119476Y549399D01*
X119475Y569399D01*
G37*
X159475Y559299D02*
G54D15*
D03*
X176001Y660403D02*
G54D19*
D03*
X176001Y635003D02*
G54D19*
D03*
X176001Y609603D02*
G54D19*
D03*
X176001Y660403D02*
G54D19*
D03*
X176001Y635003D02*
G54D19*
D03*
X176001Y609603D02*
G54D19*
D03*
X145547Y609973D02*
G54D10*
D03*
G36*
X269271Y599879D02*
X269271Y621079D01*
X290471Y621079D01*
X290471Y599879D01*
X269271Y599879D01*
G37*
X279871Y635879D02*
G54D13*
D03*
G36*
X209271Y599879D02*
X209271Y621079D01*
X230471Y621079D01*
X230471Y599879D01*
X209271Y599879D01*
G37*
X219871Y635879D02*
G54D13*
D03*
G36*
X135106Y675995D02*
X156306Y675995D01*
X156306Y654795D01*
X135106Y654795D01*
X135106Y675995D01*
G37*
X237600Y665550D02*
G54D20*
D03*
X250300Y652850D02*
G54D20*
D03*
X263000Y665550D02*
G54D20*
D03*
X237600Y665550D02*
G54D20*
D03*
X250300Y652850D02*
G54D20*
D03*
X263000Y665550D02*
G54D20*
D03*
X145647Y643473D02*
G54D10*
D03*
G36*
X239106Y620995D02*
X260306Y620995D01*
X260306Y599795D01*
X239106Y599795D01*
X239106Y620995D01*
G37*
G36*
X274106Y672995D02*
X295306Y672995D01*
X295306Y651795D01*
X274106Y651795D01*
X274106Y672995D01*
G37*
X278454Y50129D02*
G54D18*
D03*
X228454Y50129D02*
G54D18*
D03*
X178454Y50129D02*
G54D18*
D03*
X128454Y50129D02*
G54D18*
D03*
G36*
X77654Y303929D02*
X55654Y303929D01*
X55654Y325929D01*
X77654Y325929D01*
X77654Y303929D01*
G37*
X41254Y314929D02*
G54D21*
D03*
X15854Y314929D02*
G54D21*
D03*
X15854Y238729D02*
G54D21*
D03*
X41254Y238729D02*
G54D21*
D03*
X66654Y238729D02*
G54D21*
D03*
G36*
X76654Y304929D02*
X56654Y304929D01*
X56654Y324929D01*
X76654Y324929D01*
X76654Y304929D01*
G37*
X41254Y314929D02*
G54D22*
D03*
X15854Y314929D02*
G54D22*
D03*
X15854Y238729D02*
G54D22*
D03*
X41254Y238729D02*
G54D22*
D03*
X66654Y238729D02*
G54D22*
D03*
X41685Y146764D02*
G54D10*
D03*
X15099Y146240D02*
G54D10*
D03*
X17196Y118170D02*
G54D10*
D03*
X89963Y120225D02*
G54D10*
D03*
X70685Y147764D02*
G54D10*
D03*
X90575Y207228D02*
G54D10*
D03*
X78454Y50129D02*
G54D18*
D03*
X28454Y50129D02*
G54D18*
D03*
G36*
X176679Y303800D02*
X154679Y303800D01*
X154679Y325800D01*
X176679Y325800D01*
X176679Y303800D01*
G37*
X140279Y314800D02*
G54D21*
D03*
X114879Y314800D02*
G54D21*
D03*
X114879Y238600D02*
G54D21*
D03*
X140279Y238600D02*
G54D21*
D03*
X165679Y238600D02*
G54D21*
D03*
G36*
X175679Y304800D02*
X155679Y304800D01*
X155679Y324800D01*
X175679Y324800D01*
X175679Y304800D01*
G37*
X140279Y314800D02*
G54D22*
D03*
X114879Y314800D02*
G54D22*
D03*
X114879Y238600D02*
G54D22*
D03*
X140279Y238600D02*
G54D22*
D03*
X165678Y238600D02*
G54D22*
D03*
X140710Y146636D02*
G54D10*
D03*
X114124Y146111D02*
G54D10*
D03*
X116222Y118042D02*
G54D10*
D03*
X188988Y120096D02*
G54D10*
D03*
X169710Y147636D02*
G54D10*
D03*
X189600Y207100D02*
G54D10*
D03*
G36*
X275879Y303900D02*
X253879Y303900D01*
X253879Y325900D01*
X275879Y325900D01*
X275879Y303900D01*
G37*
X239479Y314900D02*
G54D21*
D03*
X214079Y314900D02*
G54D21*
D03*
X214079Y238700D02*
G54D21*
D03*
X239479Y238700D02*
G54D21*
D03*
X264879Y238700D02*
G54D21*
D03*
G36*
X274879Y304900D02*
X254879Y304900D01*
X254879Y324900D01*
X274879Y324900D01*
X274879Y304900D01*
G37*
X239479Y314900D02*
G54D22*
D03*
X214079Y314900D02*
G54D22*
D03*
X214079Y238700D02*
G54D22*
D03*
X239479Y238700D02*
G54D22*
D03*
X264878Y238700D02*
G54D22*
D03*
X239910Y146736D02*
G54D10*
D03*
X213324Y146211D02*
G54D10*
D03*
X215422Y118142D02*
G54D10*
D03*
X288188Y120196D02*
G54D10*
D03*
X268910Y147736D02*
G54D10*
D03*
X288800Y207200D02*
G54D10*
D03*
X16675Y99507D02*
G54D10*
D03*
X116975Y100207D02*
G54D10*
D03*
X215775Y100607D02*
G54D10*
D03*
G36*
X30754Y347929D02*
X51954Y347929D01*
X51954Y326729D01*
X30754Y326729D01*
X30754Y347929D01*
G37*
X66754Y337329D02*
G54D13*
D03*
G36*
X129854Y347929D02*
X151054Y347929D01*
X151054Y326729D01*
X129854Y326729D01*
X129854Y347929D01*
G37*
X165854Y337329D02*
G54D13*
D03*
G36*
X228754Y347929D02*
X249954Y347929D01*
X249954Y326729D01*
X228754Y326729D01*
X228754Y347929D01*
G37*
X264754Y337329D02*
G54D13*
D03*
X330022Y947422D02*
G54D10*
D03*
X329932Y819178D02*
G54D10*
D03*
X508739Y957395D02*
G54D11*
D03*
X488739Y957395D02*
G54D11*
D03*
X468739Y957395D02*
G54D11*
D03*
X448739Y957395D02*
G54D11*
D03*
X428739Y957395D02*
G54D11*
D03*
X408739Y957395D02*
G54D11*
D03*
X388739Y957395D02*
G54D11*
D03*
X368739Y957395D02*
G54D11*
D03*
X353739Y927395D02*
G54D11*
D03*
X353739Y907395D02*
G54D11*
D03*
X353739Y887395D02*
G54D11*
D03*
X353739Y867395D02*
G54D11*
D03*
X353739Y847395D02*
G54D11*
D03*
X353739Y827395D02*
G54D11*
D03*
X368700Y797600D02*
G54D11*
D03*
X388700Y797600D02*
G54D11*
D03*
X408700Y797600D02*
G54D11*
D03*
X428700Y797600D02*
G54D11*
D03*
X448700Y797600D02*
G54D11*
D03*
X468700Y797600D02*
G54D11*
D03*
X488700Y797600D02*
G54D11*
D03*
X508700Y797600D02*
G54D11*
D03*
X339100Y797700D02*
G54D10*
D03*
X329222Y844978D02*
G54D10*
D03*
G36*
X438616Y971095D02*
X417416Y971095D01*
X417416Y992295D01*
X438616Y992295D01*
X438616Y971095D01*
G37*
X313622Y912609D02*
G54D12*
D03*
X313622Y882209D02*
G54D12*
D03*
G36*
X318722Y874009D02*
X318722Y895209D01*
X339922Y895209D01*
X339922Y874009D01*
X318722Y874009D01*
G37*
X329322Y910009D02*
G54D13*
D03*
G36*
X459700Y992500D02*
X480900Y992500D01*
X480900Y971300D01*
X459700Y971300D01*
X459700Y992500D01*
G37*
X495700Y981900D02*
G54D13*
D03*
X509501Y904316D02*
G54D14*
D03*
X509401Y871816D02*
G54D14*
D03*
X468801Y903616D02*
G54D14*
D03*
X468701Y871116D02*
G54D14*
D03*
G36*
X444312Y939128D02*
X459312Y939128D01*
X459312Y919128D01*
X444312Y919128D01*
X444312Y939128D01*
G37*
X484312Y929028D02*
G54D15*
D03*
X407201Y858516D02*
G54D14*
D03*
X407101Y826016D02*
G54D14*
D03*
X431901Y858616D02*
G54D14*
D03*
X431801Y826116D02*
G54D14*
D03*
G36*
X334612Y780728D02*
X349612Y780728D01*
X349612Y760728D01*
X334612Y760728D01*
X334612Y780728D01*
G37*
X374612Y770628D02*
G54D15*
D03*
G36*
X387900Y784200D02*
X409100Y784200D01*
X409100Y763000D01*
X387900Y763000D01*
X387900Y784200D01*
G37*
X423900Y773600D02*
G54D13*
D03*
X402639Y979195D02*
G54D11*
D03*
X378639Y979195D02*
G54D11*
D03*
X448800Y770100D02*
G54D11*
D03*
X468800Y770100D02*
G54D11*
D03*
G36*
X480700Y784500D02*
X501900Y784500D01*
X501900Y763300D01*
X480700Y763300D01*
X480700Y784500D01*
G37*
X516700Y773900D02*
G54D13*
D03*
X325320Y540700D02*
G54D16*
D03*
X555320Y540700D02*
G54D16*
D03*
X325320Y540700D02*
G54D16*
D03*
X555320Y540700D02*
G54D16*
D03*
G36*
X331332Y649461D02*
X353332Y649461D01*
X353332Y627461D01*
X331332Y627461D01*
X331332Y649461D01*
G37*
X342332Y612961D02*
G54D17*
D03*
X418832Y638461D02*
G54D17*
D03*
X418832Y612961D02*
G54D17*
D03*
X318885Y638696D02*
G54D10*
D03*
G36*
X307885Y602296D02*
X307885Y624296D01*
X329885Y624296D01*
X329885Y602296D01*
X307885Y602296D01*
G37*
X500877Y665724D02*
G54D10*
D03*
X573380Y447700D02*
G54D18*
D03*
X523380Y447700D02*
G54D18*
D03*
X473380Y447700D02*
G54D18*
D03*
X423380Y447700D02*
G54D18*
D03*
X373400Y447700D02*
G54D18*
D03*
X323400Y447700D02*
G54D18*
D03*
G36*
X362475Y568399D02*
X377475Y568400D01*
X377476Y548400D01*
X362476Y548399D01*
X362475Y568399D01*
G37*
X402476Y558299D02*
G54D15*
D03*
X353256Y521499D02*
G54D15*
D03*
X385756Y521399D02*
G54D15*
D03*
X462576Y522499D02*
G54D15*
D03*
X495075Y522399D02*
G54D15*
D03*
G36*
X400075Y532499D02*
X415075Y532500D01*
X415076Y512500D01*
X400076Y512499D01*
X400075Y532499D01*
G37*
X440076Y522400D02*
G54D15*
D03*
X479976Y559400D02*
G54D15*
D03*
X512476Y559300D02*
G54D15*
D03*
G36*
X417475Y569399D02*
X432475Y569400D01*
X432476Y549400D01*
X417476Y549399D01*
X417475Y569399D01*
G37*
X457475Y559299D02*
G54D15*
D03*
X474001Y660403D02*
G54D19*
D03*
X474001Y635003D02*
G54D19*
D03*
X474001Y609603D02*
G54D19*
D03*
X474001Y660403D02*
G54D19*
D03*
X474001Y635003D02*
G54D19*
D03*
X474001Y609603D02*
G54D19*
D03*
X443547Y609973D02*
G54D10*
D03*
G36*
X567271Y599879D02*
X567271Y621079D01*
X588471Y621079D01*
X588471Y599879D01*
X567271Y599879D01*
G37*
X577871Y635879D02*
G54D13*
D03*
G36*
X507271Y599879D02*
X507271Y621079D01*
X528471Y621079D01*
X528471Y599879D01*
X507271Y599879D01*
G37*
X517871Y635879D02*
G54D13*
D03*
G36*
X433106Y675995D02*
X454306Y675995D01*
X454306Y654795D01*
X433106Y654795D01*
X433106Y675995D01*
G37*
X535600Y665550D02*
G54D20*
D03*
X548300Y652850D02*
G54D20*
D03*
X561000Y665550D02*
G54D20*
D03*
X535600Y665550D02*
G54D20*
D03*
X548300Y652850D02*
G54D20*
D03*
X561000Y665550D02*
G54D20*
D03*
X443647Y643473D02*
G54D10*
D03*
G36*
X537106Y620995D02*
X558306Y620995D01*
X558306Y599795D01*
X537106Y599795D01*
X537106Y620995D01*
G37*
G36*
X572106Y672995D02*
X593306Y672995D01*
X593306Y651795D01*
X572106Y651795D01*
X572106Y672995D01*
G37*
X576454Y50129D02*
G54D18*
D03*
X526454Y50129D02*
G54D18*
D03*
X476454Y50129D02*
G54D18*
D03*
X426454Y50129D02*
G54D18*
D03*
G36*
X375654Y303929D02*
X353654Y303929D01*
X353654Y325929D01*
X375654Y325929D01*
X375654Y303929D01*
G37*
X339254Y314929D02*
G54D21*
D03*
X313854Y314929D02*
G54D21*
D03*
X313854Y238729D02*
G54D21*
D03*
X339254Y238729D02*
G54D21*
D03*
X364654Y238729D02*
G54D21*
D03*
G36*
X374654Y304929D02*
X354654Y304929D01*
X354654Y324929D01*
X374654Y324929D01*
X374654Y304929D01*
G37*
X339254Y314929D02*
G54D22*
D03*
X313854Y314929D02*
G54D22*
D03*
X313854Y238729D02*
G54D22*
D03*
X339254Y238729D02*
G54D22*
D03*
X364654Y238729D02*
G54D22*
D03*
X339685Y146764D02*
G54D10*
D03*
X313099Y146240D02*
G54D10*
D03*
X315196Y118170D02*
G54D10*
D03*
X387963Y120225D02*
G54D10*
D03*
X368685Y147764D02*
G54D10*
D03*
X388575Y207228D02*
G54D10*
D03*
X376454Y50129D02*
G54D18*
D03*
X326454Y50129D02*
G54D18*
D03*
G36*
X474679Y303800D02*
X452679Y303800D01*
X452679Y325800D01*
X474679Y325800D01*
X474679Y303800D01*
G37*
X438279Y314800D02*
G54D21*
D03*
X412879Y314800D02*
G54D21*
D03*
X412879Y238600D02*
G54D21*
D03*
X438279Y238600D02*
G54D21*
D03*
X463679Y238600D02*
G54D21*
D03*
G36*
X473679Y304800D02*
X453679Y304800D01*
X453679Y324800D01*
X473679Y324800D01*
X473679Y304800D01*
G37*
X438279Y314800D02*
G54D22*
D03*
X412879Y314800D02*
G54D22*
D03*
X412879Y238600D02*
G54D22*
D03*
X438279Y238600D02*
G54D22*
D03*
X463678Y238600D02*
G54D22*
D03*
X438710Y146636D02*
G54D10*
D03*
X412124Y146111D02*
G54D10*
D03*
X414222Y118042D02*
G54D10*
D03*
X486988Y120096D02*
G54D10*
D03*
X467710Y147636D02*
G54D10*
D03*
X487600Y207100D02*
G54D10*
D03*
G36*
X573879Y303900D02*
X551879Y303900D01*
X551879Y325900D01*
X573879Y325900D01*
X573879Y303900D01*
G37*
X537479Y314900D02*
G54D21*
D03*
X512079Y314900D02*
G54D21*
D03*
X512079Y238700D02*
G54D21*
D03*
X537479Y238700D02*
G54D21*
D03*
X562879Y238700D02*
G54D21*
D03*
G36*
X572879Y304900D02*
X552879Y304900D01*
X552879Y324900D01*
X572879Y324900D01*
X572879Y304900D01*
G37*
X537479Y314900D02*
G54D22*
D03*
X512079Y314900D02*
G54D22*
D03*
X512079Y238700D02*
G54D22*
D03*
X537479Y238700D02*
G54D22*
D03*
X562878Y238700D02*
G54D22*
D03*
X537910Y146736D02*
G54D10*
D03*
X511324Y146211D02*
G54D10*
D03*
X513422Y118142D02*
G54D10*
D03*
X586188Y120196D02*
G54D10*
D03*
X566910Y147736D02*
G54D10*
D03*
X586800Y207200D02*
G54D10*
D03*
X314675Y99507D02*
G54D10*
D03*
X414975Y100207D02*
G54D10*
D03*
X513775Y100607D02*
G54D10*
D03*
G36*
X328754Y347929D02*
X349954Y347929D01*
X349954Y326729D01*
X328754Y326729D01*
X328754Y347929D01*
G37*
X364754Y337329D02*
G54D13*
D03*
G36*
X427854Y347929D02*
X449054Y347929D01*
X449054Y326729D01*
X427854Y326729D01*
X427854Y347929D01*
G37*
X463854Y337329D02*
G54D13*
D03*
G36*
X526754Y347929D02*
X547954Y347929D01*
X547954Y326729D01*
X526754Y326729D01*
X526754Y347929D01*
G37*
X562754Y337329D02*
G54D13*
D03*
X628022Y947422D02*
G54D10*
D03*
X627932Y819178D02*
G54D10*
D03*
X806739Y957395D02*
G54D11*
D03*
X786739Y957395D02*
G54D11*
D03*
X766739Y957395D02*
G54D11*
D03*
X746739Y957395D02*
G54D11*
D03*
X726739Y957395D02*
G54D11*
D03*
X706739Y957395D02*
G54D11*
D03*
X686739Y957395D02*
G54D11*
D03*
X666739Y957395D02*
G54D11*
D03*
X651739Y927395D02*
G54D11*
D03*
X651739Y907395D02*
G54D11*
D03*
X651739Y887395D02*
G54D11*
D03*
X651739Y867395D02*
G54D11*
D03*
X651739Y847395D02*
G54D11*
D03*
X651739Y827395D02*
G54D11*
D03*
X666700Y797600D02*
G54D11*
D03*
X686700Y797600D02*
G54D11*
D03*
X706700Y797600D02*
G54D11*
D03*
X726700Y797600D02*
G54D11*
D03*
X746700Y797600D02*
G54D11*
D03*
X766700Y797600D02*
G54D11*
D03*
X786700Y797600D02*
G54D11*
D03*
X806700Y797600D02*
G54D11*
D03*
X637100Y797700D02*
G54D10*
D03*
X627222Y844978D02*
G54D10*
D03*
G36*
X736616Y971095D02*
X715416Y971095D01*
X715416Y992295D01*
X736616Y992295D01*
X736616Y971095D01*
G37*
X611622Y912609D02*
G54D12*
D03*
X611622Y882209D02*
G54D12*
D03*
G36*
X616722Y874009D02*
X616722Y895209D01*
X637922Y895209D01*
X637922Y874009D01*
X616722Y874009D01*
G37*
X627322Y910009D02*
G54D13*
D03*
G36*
X757700Y992500D02*
X778900Y992500D01*
X778900Y971300D01*
X757700Y971300D01*
X757700Y992500D01*
G37*
X793700Y981900D02*
G54D13*
D03*
X807501Y904316D02*
G54D14*
D03*
X807401Y871816D02*
G54D14*
D03*
X766801Y903616D02*
G54D14*
D03*
X766701Y871116D02*
G54D14*
D03*
G36*
X742312Y939128D02*
X757312Y939128D01*
X757312Y919128D01*
X742312Y919128D01*
X742312Y939128D01*
G37*
X782312Y929028D02*
G54D15*
D03*
X705201Y858516D02*
G54D14*
D03*
X705101Y826016D02*
G54D14*
D03*
X729901Y858616D02*
G54D14*
D03*
X729801Y826116D02*
G54D14*
D03*
G36*
X632612Y780728D02*
X647612Y780728D01*
X647612Y760728D01*
X632612Y760728D01*
X632612Y780728D01*
G37*
X672612Y770628D02*
G54D15*
D03*
G36*
X685900Y784200D02*
X707100Y784200D01*
X707100Y763000D01*
X685900Y763000D01*
X685900Y784200D01*
G37*
X721900Y773600D02*
G54D13*
D03*
X700639Y979195D02*
G54D11*
D03*
X676639Y979195D02*
G54D11*
D03*
X746800Y770100D02*
G54D11*
D03*
X766800Y770100D02*
G54D11*
D03*
G36*
X778700Y784500D02*
X799900Y784500D01*
X799900Y763300D01*
X778700Y763300D01*
X778700Y784500D01*
G37*
X814700Y773900D02*
G54D13*
D03*
X623320Y540700D02*
G54D16*
D03*
X853320Y540700D02*
G54D16*
D03*
X623320Y540700D02*
G54D16*
D03*
X853320Y540700D02*
G54D16*
D03*
G36*
X629332Y649461D02*
X651332Y649461D01*
X651332Y627461D01*
X629332Y627461D01*
X629332Y649461D01*
G37*
X640332Y612961D02*
G54D17*
D03*
X716832Y638461D02*
G54D17*
D03*
X716832Y612961D02*
G54D17*
D03*
X616885Y638696D02*
G54D10*
D03*
G36*
X605885Y602296D02*
X605885Y624296D01*
X627885Y624296D01*
X627885Y602296D01*
X605885Y602296D01*
G37*
X798877Y665724D02*
G54D10*
D03*
X871380Y447700D02*
G54D18*
D03*
X821380Y447700D02*
G54D18*
D03*
X771380Y447700D02*
G54D18*
D03*
X721380Y447700D02*
G54D18*
D03*
X671400Y447700D02*
G54D18*
D03*
X621400Y447700D02*
G54D18*
D03*
G36*
X660475Y568399D02*
X675475Y568400D01*
X675476Y548400D01*
X660476Y548399D01*
X660475Y568399D01*
G37*
X700476Y558299D02*
G54D15*
D03*
X651256Y521499D02*
G54D15*
D03*
X683756Y521399D02*
G54D15*
D03*
X760576Y522499D02*
G54D15*
D03*
X793075Y522399D02*
G54D15*
D03*
G36*
X698075Y532499D02*
X713075Y532500D01*
X713076Y512500D01*
X698076Y512499D01*
X698075Y532499D01*
G37*
X738076Y522400D02*
G54D15*
D03*
X777976Y559400D02*
G54D15*
D03*
X810476Y559300D02*
G54D15*
D03*
G36*
X715475Y569399D02*
X730475Y569400D01*
X730476Y549400D01*
X715476Y549399D01*
X715475Y569399D01*
G37*
X755475Y559299D02*
G54D15*
D03*
X772001Y660403D02*
G54D19*
D03*
X772001Y635003D02*
G54D19*
D03*
X772001Y609603D02*
G54D19*
D03*
X772001Y660403D02*
G54D19*
D03*
X772001Y635003D02*
G54D19*
D03*
X772001Y609603D02*
G54D19*
D03*
X741547Y609973D02*
G54D10*
D03*
G36*
X865271Y599879D02*
X865271Y621079D01*
X886471Y621079D01*
X886471Y599879D01*
X865271Y599879D01*
G37*
X875871Y635879D02*
G54D13*
D03*
G36*
X805271Y599879D02*
X805271Y621079D01*
X826471Y621079D01*
X826471Y599879D01*
X805271Y599879D01*
G37*
X815871Y635879D02*
G54D13*
D03*
G36*
X731106Y675995D02*
X752306Y675995D01*
X752306Y654795D01*
X731106Y654795D01*
X731106Y675995D01*
G37*
X833600Y665550D02*
G54D20*
D03*
X846300Y652850D02*
G54D20*
D03*
X859000Y665550D02*
G54D20*
D03*
X833600Y665550D02*
G54D20*
D03*
X846300Y652850D02*
G54D20*
D03*
X859000Y665550D02*
G54D20*
D03*
X741647Y643473D02*
G54D10*
D03*
G36*
X835106Y620995D02*
X856306Y620995D01*
X856306Y599795D01*
X835106Y599795D01*
X835106Y620995D01*
G37*
G36*
X870106Y672995D02*
X891306Y672995D01*
X891306Y651795D01*
X870106Y651795D01*
X870106Y672995D01*
G37*
X874454Y50129D02*
G54D18*
D03*
X824454Y50129D02*
G54D18*
D03*
X774454Y50129D02*
G54D18*
D03*
X724454Y50129D02*
G54D18*
D03*
G36*
X673654Y303929D02*
X651654Y303929D01*
X651654Y325929D01*
X673654Y325929D01*
X673654Y303929D01*
G37*
X637254Y314929D02*
G54D21*
D03*
X611854Y314929D02*
G54D21*
D03*
X611854Y238729D02*
G54D21*
D03*
X637254Y238729D02*
G54D21*
D03*
X662654Y238729D02*
G54D21*
D03*
G36*
X672654Y304929D02*
X652654Y304929D01*
X652654Y324929D01*
X672654Y324929D01*
X672654Y304929D01*
G37*
X637254Y314929D02*
G54D22*
D03*
X611854Y314929D02*
G54D22*
D03*
X611854Y238729D02*
G54D22*
D03*
X637254Y238729D02*
G54D22*
D03*
X662654Y238729D02*
G54D22*
D03*
X637685Y146764D02*
G54D10*
D03*
X611099Y146240D02*
G54D10*
D03*
X613196Y118170D02*
G54D10*
D03*
X685963Y120225D02*
G54D10*
D03*
X666685Y147764D02*
G54D10*
D03*
X686575Y207228D02*
G54D10*
D03*
X674454Y50129D02*
G54D18*
D03*
X624454Y50129D02*
G54D18*
D03*
G36*
X772679Y303800D02*
X750679Y303800D01*
X750679Y325800D01*
X772679Y325800D01*
X772679Y303800D01*
G37*
X736279Y314800D02*
G54D21*
D03*
X710879Y314800D02*
G54D21*
D03*
X710879Y238600D02*
G54D21*
D03*
X736279Y238600D02*
G54D21*
D03*
X761679Y238600D02*
G54D21*
D03*
G36*
X771679Y304800D02*
X751679Y304800D01*
X751679Y324800D01*
X771679Y324800D01*
X771679Y304800D01*
G37*
X736279Y314800D02*
G54D22*
D03*
X710879Y314800D02*
G54D22*
D03*
X710879Y238600D02*
G54D22*
D03*
X736279Y238600D02*
G54D22*
D03*
X761678Y238600D02*
G54D22*
D03*
X736710Y146636D02*
G54D10*
D03*
X710124Y146111D02*
G54D10*
D03*
X712222Y118042D02*
G54D10*
D03*
X784988Y120096D02*
G54D10*
D03*
X765710Y147636D02*
G54D10*
D03*
X785600Y207100D02*
G54D10*
D03*
G36*
X871879Y303900D02*
X849879Y303900D01*
X849879Y325900D01*
X871879Y325900D01*
X871879Y303900D01*
G37*
X835479Y314900D02*
G54D21*
D03*
X810079Y314900D02*
G54D21*
D03*
X810079Y238700D02*
G54D21*
D03*
X835479Y238700D02*
G54D21*
D03*
X860879Y238700D02*
G54D21*
D03*
G36*
X870879Y304900D02*
X850879Y304900D01*
X850879Y324900D01*
X870879Y324900D01*
X870879Y304900D01*
G37*
X835479Y314900D02*
G54D22*
D03*
X810079Y314900D02*
G54D22*
D03*
X810079Y238700D02*
G54D22*
D03*
X835479Y238700D02*
G54D22*
D03*
X860878Y238700D02*
G54D22*
D03*
X835910Y146736D02*
G54D10*
D03*
X809324Y146211D02*
G54D10*
D03*
X811422Y118142D02*
G54D10*
D03*
X884188Y120196D02*
G54D10*
D03*
X864910Y147736D02*
G54D10*
D03*
X884800Y207200D02*
G54D10*
D03*
X612675Y99507D02*
G54D10*
D03*
X712975Y100207D02*
G54D10*
D03*
X811775Y100607D02*
G54D10*
D03*
G36*
X626754Y347929D02*
X647954Y347929D01*
X647954Y326729D01*
X626754Y326729D01*
X626754Y347929D01*
G37*
X662754Y337329D02*
G54D13*
D03*
G36*
X725854Y347929D02*
X747054Y347929D01*
X747054Y326729D01*
X725854Y326729D01*
X725854Y347929D01*
G37*
X761854Y337329D02*
G54D13*
D03*
G36*
X824754Y347929D02*
X845954Y347929D01*
X845954Y326729D01*
X824754Y326729D01*
X824754Y347929D01*
G37*
X860754Y337329D02*
G54D13*
D03*
M02*
