%FSLAX34Y34*%
%MOMM*%
%LNCOPPER_BOTTOM*%
G71*
G01*
%ADD10C, 1.600*%
%ADD11C, 1.200*%
%ADD12R, 1.600X0.870*%
%ADD13C, 1.520*%
%ADD14R, 1.800X1.300*%
%ADD15R, 1.300X1.800*%
%ADD16C, 0.400*%
%ADD17C, 0.300*%
%ADD18C, 0.600*%
%ADD19C, 3.500*%
%ADD20C, 1.600*%
%ADD21C, 3.000*%
%ADD22C, 1.800*%
%ADD23C, 2.800*%
%ADD24C, 2.300*%
%ADD25C, 1.200*%
%ADD26C, 0.800*%
%ADD27C, 1.600*%
%ADD28C, 1.400*%
%ADD29C, 1.400*%
%LPD*%
X32022Y947422D02*
G54D10*
D03*
X31932Y819178D02*
G54D10*
D03*
X210739Y957395D02*
G54D11*
D03*
X190739Y957395D02*
G54D11*
D03*
X170739Y957395D02*
G54D11*
D03*
X150739Y957395D02*
G54D11*
D03*
X130739Y957395D02*
G54D11*
D03*
X110739Y957395D02*
G54D11*
D03*
X90739Y957395D02*
G54D11*
D03*
X70739Y957395D02*
G54D11*
D03*
X55739Y927395D02*
G54D11*
D03*
X55739Y907395D02*
G54D11*
D03*
X55739Y887395D02*
G54D11*
D03*
X55739Y867395D02*
G54D11*
D03*
X55739Y847395D02*
G54D11*
D03*
X55739Y827395D02*
G54D11*
D03*
X70700Y797600D02*
G54D11*
D03*
X90700Y797600D02*
G54D11*
D03*
X110700Y797600D02*
G54D11*
D03*
X130700Y797600D02*
G54D11*
D03*
X150700Y797600D02*
G54D11*
D03*
X170700Y797600D02*
G54D11*
D03*
X190700Y797600D02*
G54D11*
D03*
X210700Y797600D02*
G54D11*
D03*
X41100Y797700D02*
G54D10*
D03*
X31222Y844978D02*
G54D10*
D03*
G36*
X137616Y974095D02*
X122416Y974095D01*
X122416Y989295D01*
X137616Y989295D01*
X137616Y974095D01*
G37*
X15622Y912609D02*
G54D12*
D03*
X15622Y882209D02*
G54D12*
D03*
G36*
X23722Y877009D02*
X23722Y892209D01*
X38922Y892209D01*
X38922Y877009D01*
X23722Y877009D01*
G37*
X31322Y910009D02*
G54D13*
D03*
G36*
X164700Y989500D02*
X179900Y989500D01*
X179900Y974300D01*
X164700Y974300D01*
X164700Y989500D01*
G37*
X197700Y981900D02*
G54D13*
D03*
X211501Y904316D02*
G54D14*
D03*
X211401Y871816D02*
G54D14*
D03*
X170801Y903616D02*
G54D14*
D03*
X170701Y871116D02*
G54D14*
D03*
G36*
X147312Y938128D02*
X160312Y938128D01*
X160312Y920128D01*
X147312Y920128D01*
X147312Y938128D01*
G37*
X186312Y929028D02*
G54D15*
D03*
X109201Y858516D02*
G54D14*
D03*
X109101Y826016D02*
G54D14*
D03*
X133901Y858616D02*
G54D14*
D03*
X133801Y826116D02*
G54D14*
D03*
G36*
X37612Y779728D02*
X50612Y779728D01*
X50612Y761728D01*
X37612Y761728D01*
X37612Y779728D01*
G37*
X76612Y770628D02*
G54D15*
D03*
G54D16*
X71100Y796800D02*
X51300Y777916D01*
X44112Y770728D01*
G54D16*
X90700Y797200D02*
X76612Y770628D01*
G54D16*
X110700Y797600D02*
X110700Y824417D01*
X109101Y826016D01*
G54D16*
X130700Y797600D02*
X130700Y823015D01*
X133801Y826116D01*
G36*
X92900Y781200D02*
X108100Y781200D01*
X108100Y766000D01*
X92900Y766000D01*
X92900Y781200D01*
G37*
X125900Y773600D02*
G54D13*
D03*
G54D17*
X170700Y957600D02*
X170700Y903717D01*
X170801Y903616D01*
G54D17*
X210700Y957600D02*
X210700Y905117D01*
X211501Y904316D01*
G54D17*
X150700Y957600D02*
X150700Y932239D01*
X153812Y929128D01*
G54D17*
X210739Y957395D02*
X210739Y937839D01*
X201900Y929000D01*
X186339Y929000D01*
X186312Y929028D01*
G54D16*
X70739Y957395D02*
X70739Y940361D01*
X108800Y902300D01*
X108800Y858917D01*
X109201Y858516D01*
X133801Y858516D01*
X133901Y858616D01*
X133901Y867801D01*
X138600Y872500D01*
X169317Y872500D01*
X170701Y871116D01*
X210701Y871116D01*
X211401Y871816D01*
X104639Y979195D02*
G54D11*
D03*
X80639Y979195D02*
G54D11*
D03*
X150800Y770100D02*
G54D11*
D03*
X170800Y770100D02*
G54D11*
D03*
G54D18*
X31322Y910009D02*
X18222Y910009D01*
X15622Y912609D01*
G54D18*
X31322Y884609D02*
X18022Y884609D01*
X15622Y882209D01*
G36*
X185700Y781500D02*
X200900Y781500D01*
X200900Y766300D01*
X185700Y766300D01*
X185700Y781500D01*
G37*
X218700Y773900D02*
G54D13*
D03*
X27320Y540700D02*
G54D19*
D03*
X257320Y540700D02*
G54D19*
D03*
X27320Y540700D02*
G54D19*
D03*
X257320Y540700D02*
G54D19*
D03*
X27320Y540700D02*
G54D19*
D03*
X257320Y540700D02*
G54D19*
D03*
G36*
X36332Y646461D02*
X52332Y646461D01*
X52332Y630461D01*
X36332Y630461D01*
X36332Y646461D01*
G37*
X44332Y612961D02*
G54D20*
D03*
X120832Y638461D02*
G54D20*
D03*
X120832Y612961D02*
G54D20*
D03*
X20885Y638696D02*
G54D10*
D03*
G36*
X12885Y605296D02*
X12885Y621296D01*
X28885Y621296D01*
X28885Y605296D01*
X12885Y605296D01*
G37*
X202877Y665724D02*
G54D10*
D03*
X275380Y447700D02*
G54D21*
D03*
X225380Y447700D02*
G54D21*
D03*
X175380Y447700D02*
G54D21*
D03*
X125380Y447700D02*
G54D21*
D03*
X75400Y447700D02*
G54D21*
D03*
X25400Y447700D02*
G54D21*
D03*
G36*
X65475Y567399D02*
X78475Y567400D01*
X78476Y549400D01*
X65476Y549399D01*
X65475Y567399D01*
G37*
X104476Y558299D02*
G54D15*
D03*
X55256Y521499D02*
G54D15*
D03*
X87756Y521399D02*
G54D15*
D03*
X164576Y522499D02*
G54D15*
D03*
X197075Y522399D02*
G54D15*
D03*
G36*
X103075Y531499D02*
X116075Y531500D01*
X116076Y513500D01*
X103076Y513499D01*
X103075Y531499D01*
G37*
X142076Y522400D02*
G54D15*
D03*
X181976Y559400D02*
G54D15*
D03*
X214476Y559300D02*
G54D15*
D03*
G36*
X120475Y568399D02*
X133475Y568400D01*
X133476Y550400D01*
X120476Y550399D01*
X120475Y568399D01*
G37*
X159475Y559299D02*
G54D15*
D03*
G54D22*
G75*
G01X122984Y561865D02*
G03X122984Y561865I-9000J0D01*
G01*
G54D22*
G75*
G01X178664Y562865D02*
G03X178664Y562865I-9000J0D01*
G01*
G54D22*
G75*
G01X106945Y522064D02*
G03X106945Y522064I-9000J0D01*
G01*
G54D22*
G75*
G01X161264Y522065D02*
G03X161264Y522065I-9000J0D01*
G01*
G54D23*
X221976Y565600D02*
X203723Y523703D01*
X203723Y526703D01*
G54D23*
X71975Y558399D02*
X58976Y581137D01*
X69152Y580961D01*
G54D23*
X27320Y540700D02*
X37055Y540700D01*
X55256Y521499D01*
X176001Y660403D02*
G54D24*
D03*
X176001Y635003D02*
G54D24*
D03*
X176001Y609603D02*
G54D24*
D03*
X176001Y660403D02*
G54D24*
D03*
X176001Y635003D02*
G54D24*
D03*
X176001Y609603D02*
G54D24*
D03*
X145547Y609973D02*
G54D10*
D03*
G36*
X272271Y602879D02*
X272271Y618079D01*
X287471Y618079D01*
X287471Y602879D01*
X272271Y602879D01*
G37*
X279871Y635879D02*
G54D13*
D03*
G36*
X212271Y602879D02*
X212271Y618079D01*
X227471Y618079D01*
X227471Y602879D01*
X212271Y602879D01*
G37*
X219871Y635879D02*
G54D13*
D03*
G36*
X138106Y672995D02*
X153306Y672995D01*
X153306Y657795D01*
X138106Y657795D01*
X138106Y672995D01*
G37*
X237600Y665550D02*
G54D25*
D03*
X250300Y652850D02*
G54D25*
D03*
X263000Y665550D02*
G54D25*
D03*
X237600Y665550D02*
G54D25*
D03*
X250300Y652850D02*
G54D25*
D03*
X263000Y665550D02*
G54D25*
D03*
X145647Y643473D02*
G54D10*
D03*
G54D26*
X120832Y638461D02*
X121539Y638461D01*
X133000Y627000D01*
X155000Y627000D01*
X155000Y629000D01*
X164000Y635000D01*
X176001Y635003D01*
G36*
X242106Y617995D02*
X257306Y617995D01*
X257306Y602795D01*
X242106Y602795D01*
X242106Y617995D01*
G37*
G36*
X277106Y669995D02*
X292306Y669995D01*
X292306Y654795D01*
X277106Y654795D01*
X277106Y669995D01*
G37*
G54D26*
X249706Y610395D02*
X249706Y653444D01*
X250300Y652850D01*
G54D18*
X63000Y582000D02*
X63000Y639000D01*
X44000Y639000D01*
X21000Y639000D01*
X278454Y50129D02*
G54D21*
D03*
X228454Y50129D02*
G54D21*
D03*
X178454Y50129D02*
G54D21*
D03*
X128454Y50129D02*
G54D21*
D03*
G36*
X74654Y306929D02*
X58654Y306929D01*
X58654Y322929D01*
X74654Y322929D01*
X74654Y306929D01*
G37*
X41254Y314929D02*
G54D27*
D03*
X15854Y314929D02*
G54D27*
D03*
X15854Y238729D02*
G54D27*
D03*
X41254Y238729D02*
G54D27*
D03*
X66654Y238729D02*
G54D27*
D03*
G36*
X73654Y307929D02*
X59654Y307929D01*
X59654Y321929D01*
X73654Y321929D01*
X73654Y307929D01*
G37*
X41254Y314929D02*
G54D28*
D03*
X15854Y314929D02*
G54D28*
D03*
X15854Y238729D02*
G54D28*
D03*
X41254Y238729D02*
G54D28*
D03*
X66654Y238729D02*
G54D28*
D03*
G54D29*
X28454Y50129D02*
X46447Y86882D01*
X41685Y146764D01*
X40668Y147782D01*
G54D18*
X89963Y120225D02*
X90575Y207229D01*
X41685Y146764D02*
G54D10*
D03*
X15099Y146240D02*
G54D10*
D03*
X17196Y118170D02*
G54D10*
D03*
X89963Y120225D02*
G54D10*
D03*
X70685Y147764D02*
G54D10*
D03*
G54D16*
X15854Y238729D02*
X15854Y202596D01*
X70685Y147764D01*
G54D16*
X89963Y120225D02*
X41076Y120225D01*
X39848Y121453D01*
X90575Y207228D02*
G54D10*
D03*
X78454Y50129D02*
G54D21*
D03*
X28454Y50129D02*
G54D21*
D03*
G36*
X173679Y306800D02*
X157679Y306800D01*
X157679Y322800D01*
X173679Y322800D01*
X173679Y306800D01*
G37*
X140279Y314800D02*
G54D27*
D03*
X114879Y314800D02*
G54D27*
D03*
X114879Y238600D02*
G54D27*
D03*
X140279Y238600D02*
G54D27*
D03*
X165679Y238600D02*
G54D27*
D03*
G36*
X172679Y307800D02*
X158679Y307800D01*
X158679Y321800D01*
X172679Y321800D01*
X172679Y307800D01*
G37*
X140279Y314800D02*
G54D28*
D03*
X114879Y314800D02*
G54D28*
D03*
X114879Y238600D02*
G54D28*
D03*
X140279Y238600D02*
G54D28*
D03*
X165678Y238600D02*
G54D28*
D03*
G54D29*
X128454Y50129D02*
X145472Y86753D01*
X140710Y146636D01*
X139693Y147653D01*
G54D18*
X188988Y120096D02*
X189600Y207100D01*
X140710Y146636D02*
G54D10*
D03*
X114124Y146111D02*
G54D10*
D03*
X116222Y118042D02*
G54D10*
D03*
X188988Y120096D02*
G54D10*
D03*
X169710Y147636D02*
G54D10*
D03*
G54D16*
X114879Y238600D02*
X114879Y202467D01*
X169710Y147636D01*
G54D16*
X188988Y120096D02*
X140101Y120096D01*
X138872Y121324D01*
X189600Y207100D02*
G54D10*
D03*
G36*
X272879Y322900D02*
X256879Y322900D01*
X256879Y306900D01*
X272879Y306900D01*
X272879Y322900D01*
G37*
X239479Y314900D02*
G54D27*
D03*
X214079Y314900D02*
G54D27*
D03*
X214079Y238700D02*
G54D27*
D03*
X239479Y238700D02*
G54D27*
D03*
X264879Y238700D02*
G54D27*
D03*
G36*
X271879Y307900D02*
X257879Y307900D01*
X257879Y321900D01*
X271879Y321900D01*
X271879Y307900D01*
G37*
X239479Y314900D02*
G54D28*
D03*
X214079Y314900D02*
G54D28*
D03*
X214079Y238700D02*
G54D28*
D03*
X239479Y238700D02*
G54D28*
D03*
X264878Y238700D02*
G54D28*
D03*
G54D29*
X228454Y50129D02*
X244672Y86853D01*
X239910Y146736D01*
X238893Y147753D01*
G54D18*
X288188Y120196D02*
X288800Y207200D01*
X239910Y146736D02*
G54D10*
D03*
X213324Y146211D02*
G54D10*
D03*
X215422Y118142D02*
G54D10*
D03*
X288188Y120196D02*
G54D10*
D03*
X268910Y147736D02*
G54D10*
D03*
G54D16*
X214079Y238700D02*
X214079Y202567D01*
X268910Y147736D01*
G54D16*
X288188Y120196D02*
X239301Y120196D01*
X238072Y121424D01*
X288800Y207200D02*
G54D10*
D03*
G54D16*
X41454Y299500D02*
X239454Y299500D01*
X239454Y326704D01*
X239479Y341728D01*
G54D16*
X140279Y314800D02*
X140279Y341754D01*
X140454Y341929D01*
X16675Y99507D02*
G54D10*
D03*
X116975Y100207D02*
G54D10*
D03*
X215775Y100607D02*
G54D10*
D03*
G54D16*
X41254Y314929D02*
X41254Y299700D01*
X41454Y299500D01*
G54D16*
X140279Y314800D02*
X140279Y299404D01*
X140454Y299229D01*
G36*
X33754Y344929D02*
X48954Y344929D01*
X48954Y329729D01*
X33754Y329729D01*
X33754Y344929D01*
G37*
X66754Y337329D02*
G54D13*
D03*
G36*
X132854Y344929D02*
X148054Y344929D01*
X148054Y329729D01*
X132854Y329729D01*
X132854Y344929D01*
G37*
X165854Y337329D02*
G54D13*
D03*
G36*
X231754Y329729D02*
X246954Y329729D01*
X246954Y344929D01*
X231754Y344929D01*
X231754Y329729D01*
G37*
X264754Y337329D02*
G54D13*
D03*
G54D17*
X41354Y337329D02*
X41354Y315029D01*
X41254Y314929D01*
X330022Y947422D02*
G54D10*
D03*
X329932Y819178D02*
G54D10*
D03*
X508739Y957395D02*
G54D11*
D03*
X488739Y957395D02*
G54D11*
D03*
X468739Y957395D02*
G54D11*
D03*
X448739Y957395D02*
G54D11*
D03*
X428739Y957395D02*
G54D11*
D03*
X408739Y957395D02*
G54D11*
D03*
X388739Y957395D02*
G54D11*
D03*
X368739Y957395D02*
G54D11*
D03*
X353739Y927395D02*
G54D11*
D03*
X353739Y907395D02*
G54D11*
D03*
X353739Y887395D02*
G54D11*
D03*
X353739Y867395D02*
G54D11*
D03*
X353739Y847395D02*
G54D11*
D03*
X353739Y827395D02*
G54D11*
D03*
X368700Y797600D02*
G54D11*
D03*
X388700Y797600D02*
G54D11*
D03*
X408700Y797600D02*
G54D11*
D03*
X428700Y797600D02*
G54D11*
D03*
X448700Y797600D02*
G54D11*
D03*
X468700Y797600D02*
G54D11*
D03*
X488700Y797600D02*
G54D11*
D03*
X508700Y797600D02*
G54D11*
D03*
X339100Y797700D02*
G54D10*
D03*
X329222Y844978D02*
G54D10*
D03*
G36*
X435616Y974095D02*
X420416Y974095D01*
X420416Y989295D01*
X435616Y989295D01*
X435616Y974095D01*
G37*
X313622Y912609D02*
G54D12*
D03*
X313622Y882209D02*
G54D12*
D03*
G36*
X321722Y877009D02*
X321722Y892209D01*
X336922Y892209D01*
X336922Y877009D01*
X321722Y877009D01*
G37*
X329322Y910009D02*
G54D13*
D03*
G36*
X462700Y989500D02*
X477900Y989500D01*
X477900Y974300D01*
X462700Y974300D01*
X462700Y989500D01*
G37*
X495700Y981900D02*
G54D13*
D03*
X509501Y904316D02*
G54D14*
D03*
X509401Y871816D02*
G54D14*
D03*
X468801Y903616D02*
G54D14*
D03*
X468701Y871116D02*
G54D14*
D03*
G36*
X445312Y938128D02*
X458312Y938128D01*
X458312Y920128D01*
X445312Y920128D01*
X445312Y938128D01*
G37*
X484312Y929028D02*
G54D15*
D03*
X407201Y858516D02*
G54D14*
D03*
X407101Y826016D02*
G54D14*
D03*
X431901Y858616D02*
G54D14*
D03*
X431801Y826116D02*
G54D14*
D03*
G36*
X335612Y779728D02*
X348612Y779728D01*
X348612Y761728D01*
X335612Y761728D01*
X335612Y779728D01*
G37*
X374612Y770628D02*
G54D15*
D03*
G54D16*
X369100Y796800D02*
X349300Y777916D01*
X342112Y770728D01*
G54D16*
X388700Y797200D02*
X374612Y770628D01*
G54D16*
X408700Y797600D02*
X408700Y824417D01*
X407101Y826016D01*
G54D16*
X428700Y797600D02*
X428700Y823015D01*
X431801Y826116D01*
G36*
X390900Y781200D02*
X406100Y781200D01*
X406100Y766000D01*
X390900Y766000D01*
X390900Y781200D01*
G37*
X423900Y773600D02*
G54D13*
D03*
G54D17*
X468700Y957600D02*
X468700Y903717D01*
X468801Y903616D01*
G54D17*
X508700Y957600D02*
X508700Y905117D01*
X509501Y904316D01*
G54D17*
X448700Y957600D02*
X448700Y932239D01*
X451812Y929128D01*
G54D17*
X508739Y957395D02*
X508739Y937839D01*
X499900Y929000D01*
X484339Y929000D01*
X484312Y929028D01*
G54D16*
X368739Y957395D02*
X368739Y940361D01*
X406800Y902300D01*
X406800Y858917D01*
X407201Y858516D01*
X431801Y858516D01*
X431901Y858616D01*
X431901Y867801D01*
X436600Y872500D01*
X467317Y872500D01*
X468701Y871116D01*
X508701Y871116D01*
X509401Y871816D01*
X402639Y979195D02*
G54D11*
D03*
X378639Y979195D02*
G54D11*
D03*
X448800Y770100D02*
G54D11*
D03*
X468800Y770100D02*
G54D11*
D03*
G54D18*
X329322Y910009D02*
X316222Y910009D01*
X313622Y912609D01*
G54D18*
X329322Y884609D02*
X316022Y884609D01*
X313622Y882209D01*
G36*
X483700Y781500D02*
X498900Y781500D01*
X498900Y766300D01*
X483700Y766300D01*
X483700Y781500D01*
G37*
X516700Y773900D02*
G54D13*
D03*
X325320Y540700D02*
G54D19*
D03*
X555320Y540700D02*
G54D19*
D03*
X325320Y540700D02*
G54D19*
D03*
X555320Y540700D02*
G54D19*
D03*
X325320Y540700D02*
G54D19*
D03*
X555320Y540700D02*
G54D19*
D03*
G36*
X334332Y646461D02*
X350332Y646461D01*
X350332Y630461D01*
X334332Y630461D01*
X334332Y646461D01*
G37*
X342332Y612961D02*
G54D20*
D03*
X418832Y638461D02*
G54D20*
D03*
X418832Y612961D02*
G54D20*
D03*
X318885Y638696D02*
G54D10*
D03*
G36*
X310885Y605296D02*
X310885Y621296D01*
X326885Y621296D01*
X326885Y605296D01*
X310885Y605296D01*
G37*
X500877Y665724D02*
G54D10*
D03*
X573380Y447700D02*
G54D21*
D03*
X523380Y447700D02*
G54D21*
D03*
X473380Y447700D02*
G54D21*
D03*
X423380Y447700D02*
G54D21*
D03*
X373400Y447700D02*
G54D21*
D03*
X323400Y447700D02*
G54D21*
D03*
G36*
X363475Y567399D02*
X376475Y567400D01*
X376476Y549400D01*
X363476Y549399D01*
X363475Y567399D01*
G37*
X402476Y558299D02*
G54D15*
D03*
X353256Y521499D02*
G54D15*
D03*
X385756Y521399D02*
G54D15*
D03*
X462576Y522499D02*
G54D15*
D03*
X495075Y522399D02*
G54D15*
D03*
G36*
X401075Y531499D02*
X414075Y531500D01*
X414076Y513500D01*
X401076Y513499D01*
X401075Y531499D01*
G37*
X440076Y522400D02*
G54D15*
D03*
X479976Y559400D02*
G54D15*
D03*
X512476Y559300D02*
G54D15*
D03*
G36*
X418475Y568399D02*
X431475Y568400D01*
X431476Y550400D01*
X418476Y550399D01*
X418475Y568399D01*
G37*
X457475Y559299D02*
G54D15*
D03*
G54D22*
G75*
G01X420984Y561865D02*
G03X420984Y561865I-9000J0D01*
G01*
G54D22*
G75*
G01X476664Y562865D02*
G03X476664Y562865I-9000J0D01*
G01*
G54D22*
G75*
G01X404945Y522064D02*
G03X404945Y522064I-9000J0D01*
G01*
G54D22*
G75*
G01X459264Y522065D02*
G03X459264Y522065I-9000J0D01*
G01*
G54D23*
X519976Y565600D02*
X501723Y523703D01*
X501723Y526703D01*
G54D23*
X369975Y558399D02*
X356976Y581137D01*
X367152Y580961D01*
G54D23*
X325320Y540700D02*
X335055Y540700D01*
X353256Y521499D01*
X474001Y660403D02*
G54D24*
D03*
X474001Y635003D02*
G54D24*
D03*
X474001Y609603D02*
G54D24*
D03*
X474001Y660403D02*
G54D24*
D03*
X474001Y635003D02*
G54D24*
D03*
X474001Y609603D02*
G54D24*
D03*
X443547Y609973D02*
G54D10*
D03*
G36*
X570271Y602879D02*
X570271Y618079D01*
X585471Y618079D01*
X585471Y602879D01*
X570271Y602879D01*
G37*
X577871Y635879D02*
G54D13*
D03*
G36*
X510271Y602879D02*
X510271Y618079D01*
X525471Y618079D01*
X525471Y602879D01*
X510271Y602879D01*
G37*
X517871Y635879D02*
G54D13*
D03*
G36*
X436106Y672995D02*
X451306Y672995D01*
X451306Y657795D01*
X436106Y657795D01*
X436106Y672995D01*
G37*
X535600Y665550D02*
G54D25*
D03*
X548300Y652850D02*
G54D25*
D03*
X561000Y665550D02*
G54D25*
D03*
X535600Y665550D02*
G54D25*
D03*
X548300Y652850D02*
G54D25*
D03*
X561000Y665550D02*
G54D25*
D03*
X443647Y643473D02*
G54D10*
D03*
G54D26*
X418832Y638461D02*
X419539Y638461D01*
X431000Y627000D01*
X453000Y627000D01*
X453000Y629000D01*
X462000Y635000D01*
X474001Y635003D01*
G36*
X540106Y617995D02*
X555306Y617995D01*
X555306Y602795D01*
X540106Y602795D01*
X540106Y617995D01*
G37*
G36*
X575106Y669995D02*
X590306Y669995D01*
X590306Y654795D01*
X575106Y654795D01*
X575106Y669995D01*
G37*
G54D26*
X547706Y610395D02*
X547706Y653444D01*
X548300Y652850D01*
G54D18*
X361000Y582000D02*
X361000Y639000D01*
X342000Y639000D01*
X319000Y639000D01*
X576454Y50129D02*
G54D21*
D03*
X526454Y50129D02*
G54D21*
D03*
X476454Y50129D02*
G54D21*
D03*
X426454Y50129D02*
G54D21*
D03*
G36*
X372654Y306929D02*
X356654Y306929D01*
X356654Y322929D01*
X372654Y322929D01*
X372654Y306929D01*
G37*
X339254Y314929D02*
G54D27*
D03*
X313854Y314929D02*
G54D27*
D03*
X313854Y238729D02*
G54D27*
D03*
X339254Y238729D02*
G54D27*
D03*
X364654Y238729D02*
G54D27*
D03*
G36*
X371654Y307929D02*
X357654Y307929D01*
X357654Y321929D01*
X371654Y321929D01*
X371654Y307929D01*
G37*
X339254Y314929D02*
G54D28*
D03*
X313854Y314929D02*
G54D28*
D03*
X313854Y238729D02*
G54D28*
D03*
X339254Y238729D02*
G54D28*
D03*
X364654Y238729D02*
G54D28*
D03*
G54D29*
X326454Y50129D02*
X344447Y86882D01*
X339685Y146764D01*
X338668Y147782D01*
G54D18*
X387963Y120225D02*
X388575Y207229D01*
X339685Y146764D02*
G54D10*
D03*
X313099Y146240D02*
G54D10*
D03*
X315196Y118170D02*
G54D10*
D03*
X387963Y120225D02*
G54D10*
D03*
X368685Y147764D02*
G54D10*
D03*
G54D16*
X313854Y238729D02*
X313854Y202596D01*
X368685Y147764D01*
G54D16*
X387963Y120225D02*
X339076Y120225D01*
X337848Y121453D01*
X388575Y207228D02*
G54D10*
D03*
X376454Y50129D02*
G54D21*
D03*
X326454Y50129D02*
G54D21*
D03*
G36*
X471679Y306800D02*
X455679Y306800D01*
X455679Y322800D01*
X471679Y322800D01*
X471679Y306800D01*
G37*
X438279Y314800D02*
G54D27*
D03*
X412879Y314800D02*
G54D27*
D03*
X412879Y238600D02*
G54D27*
D03*
X438279Y238600D02*
G54D27*
D03*
X463679Y238600D02*
G54D27*
D03*
G36*
X470679Y307800D02*
X456679Y307800D01*
X456679Y321800D01*
X470679Y321800D01*
X470679Y307800D01*
G37*
X438279Y314800D02*
G54D28*
D03*
X412879Y314800D02*
G54D28*
D03*
X412879Y238600D02*
G54D28*
D03*
X438279Y238600D02*
G54D28*
D03*
X463678Y238600D02*
G54D28*
D03*
G54D29*
X426454Y50129D02*
X443472Y86753D01*
X438710Y146636D01*
X437693Y147653D01*
G54D18*
X486988Y120096D02*
X487600Y207100D01*
X438710Y146636D02*
G54D10*
D03*
X412124Y146111D02*
G54D10*
D03*
X414222Y118042D02*
G54D10*
D03*
X486988Y120096D02*
G54D10*
D03*
X467710Y147636D02*
G54D10*
D03*
G54D16*
X412879Y238600D02*
X412879Y202467D01*
X467710Y147636D01*
G54D16*
X486988Y120096D02*
X438101Y120096D01*
X436872Y121324D01*
X487600Y207100D02*
G54D10*
D03*
G36*
X570879Y322900D02*
X554879Y322900D01*
X554879Y306900D01*
X570879Y306900D01*
X570879Y322900D01*
G37*
X537479Y314900D02*
G54D27*
D03*
X512079Y314900D02*
G54D27*
D03*
X512079Y238700D02*
G54D27*
D03*
X537479Y238700D02*
G54D27*
D03*
X562879Y238700D02*
G54D27*
D03*
G36*
X569879Y307900D02*
X555879Y307900D01*
X555879Y321900D01*
X569879Y321900D01*
X569879Y307900D01*
G37*
X537479Y314900D02*
G54D28*
D03*
X512079Y314900D02*
G54D28*
D03*
X512079Y238700D02*
G54D28*
D03*
X537479Y238700D02*
G54D28*
D03*
X562878Y238700D02*
G54D28*
D03*
G54D29*
X526454Y50129D02*
X542672Y86853D01*
X537910Y146736D01*
X536893Y147753D01*
G54D18*
X586188Y120196D02*
X586800Y207200D01*
X537910Y146736D02*
G54D10*
D03*
X511324Y146211D02*
G54D10*
D03*
X513422Y118142D02*
G54D10*
D03*
X586188Y120196D02*
G54D10*
D03*
X566910Y147736D02*
G54D10*
D03*
G54D16*
X512079Y238700D02*
X512079Y202567D01*
X566910Y147736D01*
G54D16*
X586188Y120196D02*
X537301Y120196D01*
X536072Y121424D01*
X586800Y207200D02*
G54D10*
D03*
G54D16*
X339454Y299500D02*
X537454Y299500D01*
X537454Y326704D01*
X537479Y341728D01*
G54D16*
X438279Y314800D02*
X438279Y341754D01*
X438454Y341929D01*
X314675Y99507D02*
G54D10*
D03*
X414975Y100207D02*
G54D10*
D03*
X513775Y100607D02*
G54D10*
D03*
G54D16*
X339254Y314929D02*
X339254Y299700D01*
X339454Y299500D01*
G54D16*
X438279Y314800D02*
X438279Y299404D01*
X438454Y299229D01*
G36*
X331754Y344929D02*
X346954Y344929D01*
X346954Y329729D01*
X331754Y329729D01*
X331754Y344929D01*
G37*
X364754Y337329D02*
G54D13*
D03*
G36*
X430854Y344929D02*
X446054Y344929D01*
X446054Y329729D01*
X430854Y329729D01*
X430854Y344929D01*
G37*
X463854Y337329D02*
G54D13*
D03*
G36*
X529754Y344929D02*
X544954Y344929D01*
X544954Y329729D01*
X529754Y329729D01*
X529754Y344929D01*
G37*
X562754Y337329D02*
G54D13*
D03*
G54D17*
X339354Y337329D02*
X339354Y315029D01*
X339254Y314929D01*
X628022Y947422D02*
G54D10*
D03*
X627932Y819178D02*
G54D10*
D03*
X806739Y957395D02*
G54D11*
D03*
X786739Y957395D02*
G54D11*
D03*
X766739Y957395D02*
G54D11*
D03*
X746739Y957395D02*
G54D11*
D03*
X726739Y957395D02*
G54D11*
D03*
X706739Y957395D02*
G54D11*
D03*
X686739Y957395D02*
G54D11*
D03*
X666739Y957395D02*
G54D11*
D03*
X651739Y927395D02*
G54D11*
D03*
X651739Y907395D02*
G54D11*
D03*
X651739Y887395D02*
G54D11*
D03*
X651739Y867395D02*
G54D11*
D03*
X651739Y847395D02*
G54D11*
D03*
X651739Y827395D02*
G54D11*
D03*
X666700Y797600D02*
G54D11*
D03*
X686700Y797600D02*
G54D11*
D03*
X706700Y797600D02*
G54D11*
D03*
X726700Y797600D02*
G54D11*
D03*
X746700Y797600D02*
G54D11*
D03*
X766700Y797600D02*
G54D11*
D03*
X786700Y797600D02*
G54D11*
D03*
X806700Y797600D02*
G54D11*
D03*
X637100Y797700D02*
G54D10*
D03*
X627222Y844978D02*
G54D10*
D03*
G36*
X733616Y974095D02*
X718416Y974095D01*
X718416Y989295D01*
X733616Y989295D01*
X733616Y974095D01*
G37*
X611622Y912609D02*
G54D12*
D03*
X611622Y882209D02*
G54D12*
D03*
G36*
X619722Y877009D02*
X619722Y892209D01*
X634922Y892209D01*
X634922Y877009D01*
X619722Y877009D01*
G37*
X627322Y910009D02*
G54D13*
D03*
G36*
X760700Y989500D02*
X775900Y989500D01*
X775900Y974300D01*
X760700Y974300D01*
X760700Y989500D01*
G37*
X793700Y981900D02*
G54D13*
D03*
X807501Y904316D02*
G54D14*
D03*
X807401Y871816D02*
G54D14*
D03*
X766801Y903616D02*
G54D14*
D03*
X766701Y871116D02*
G54D14*
D03*
G36*
X743312Y938128D02*
X756312Y938128D01*
X756312Y920128D01*
X743312Y920128D01*
X743312Y938128D01*
G37*
X782312Y929028D02*
G54D15*
D03*
X705201Y858516D02*
G54D14*
D03*
X705101Y826016D02*
G54D14*
D03*
X729901Y858616D02*
G54D14*
D03*
X729801Y826116D02*
G54D14*
D03*
G36*
X633612Y779728D02*
X646612Y779728D01*
X646612Y761728D01*
X633612Y761728D01*
X633612Y779728D01*
G37*
X672612Y770628D02*
G54D15*
D03*
G54D16*
X667100Y796800D02*
X647300Y777916D01*
X640112Y770728D01*
G54D16*
X686700Y797200D02*
X672612Y770628D01*
G54D16*
X706700Y797600D02*
X706700Y824417D01*
X705101Y826016D01*
G54D16*
X726700Y797600D02*
X726700Y823015D01*
X729801Y826116D01*
G36*
X688900Y781200D02*
X704100Y781200D01*
X704100Y766000D01*
X688900Y766000D01*
X688900Y781200D01*
G37*
X721900Y773600D02*
G54D13*
D03*
G54D17*
X766700Y957600D02*
X766700Y903717D01*
X766801Y903616D01*
G54D17*
X806700Y957600D02*
X806700Y905117D01*
X807501Y904316D01*
G54D17*
X746700Y957600D02*
X746700Y932239D01*
X749812Y929128D01*
G54D17*
X806739Y957395D02*
X806739Y937839D01*
X797900Y929000D01*
X782339Y929000D01*
X782312Y929028D01*
G54D16*
X666739Y957395D02*
X666739Y940361D01*
X704800Y902300D01*
X704800Y858917D01*
X705201Y858516D01*
X729801Y858516D01*
X729901Y858616D01*
X729901Y867801D01*
X734600Y872500D01*
X765317Y872500D01*
X766701Y871116D01*
X806701Y871116D01*
X807401Y871816D01*
X700639Y979195D02*
G54D11*
D03*
X676639Y979195D02*
G54D11*
D03*
X746800Y770100D02*
G54D11*
D03*
X766800Y770100D02*
G54D11*
D03*
G54D18*
X627322Y910009D02*
X614222Y910009D01*
X611622Y912609D01*
G54D18*
X627322Y884609D02*
X614022Y884609D01*
X611622Y882209D01*
G36*
X781700Y781500D02*
X796900Y781500D01*
X796900Y766300D01*
X781700Y766300D01*
X781700Y781500D01*
G37*
X814700Y773900D02*
G54D13*
D03*
X623320Y540700D02*
G54D19*
D03*
X853320Y540700D02*
G54D19*
D03*
X623320Y540700D02*
G54D19*
D03*
X853320Y540700D02*
G54D19*
D03*
X623320Y540700D02*
G54D19*
D03*
X853320Y540700D02*
G54D19*
D03*
G36*
X632332Y646461D02*
X648332Y646461D01*
X648332Y630461D01*
X632332Y630461D01*
X632332Y646461D01*
G37*
X640332Y612961D02*
G54D20*
D03*
X716832Y638461D02*
G54D20*
D03*
X716832Y612961D02*
G54D20*
D03*
X616885Y638696D02*
G54D10*
D03*
G36*
X608885Y605296D02*
X608885Y621296D01*
X624885Y621296D01*
X624885Y605296D01*
X608885Y605296D01*
G37*
X798877Y665724D02*
G54D10*
D03*
X871380Y447700D02*
G54D21*
D03*
X821380Y447700D02*
G54D21*
D03*
X771380Y447700D02*
G54D21*
D03*
X721380Y447700D02*
G54D21*
D03*
X671400Y447700D02*
G54D21*
D03*
X621400Y447700D02*
G54D21*
D03*
G36*
X661475Y567399D02*
X674475Y567400D01*
X674476Y549400D01*
X661476Y549399D01*
X661475Y567399D01*
G37*
X700476Y558299D02*
G54D15*
D03*
X651256Y521499D02*
G54D15*
D03*
X683756Y521399D02*
G54D15*
D03*
X760576Y522499D02*
G54D15*
D03*
X793075Y522399D02*
G54D15*
D03*
G36*
X699075Y531499D02*
X712075Y531500D01*
X712076Y513500D01*
X699076Y513499D01*
X699075Y531499D01*
G37*
X738076Y522400D02*
G54D15*
D03*
X777976Y559400D02*
G54D15*
D03*
X810476Y559300D02*
G54D15*
D03*
G36*
X716475Y568399D02*
X729475Y568400D01*
X729476Y550400D01*
X716476Y550399D01*
X716475Y568399D01*
G37*
X755475Y559299D02*
G54D15*
D03*
G54D22*
G75*
G01X718984Y561865D02*
G03X718984Y561865I-9000J0D01*
G01*
G54D22*
G75*
G01X774664Y562865D02*
G03X774664Y562865I-9000J0D01*
G01*
G54D22*
G75*
G01X702945Y522064D02*
G03X702945Y522064I-9000J0D01*
G01*
G54D22*
G75*
G01X757264Y522065D02*
G03X757264Y522065I-9000J0D01*
G01*
G54D23*
X817976Y565600D02*
X799723Y523703D01*
X799723Y526703D01*
G54D23*
X667975Y558399D02*
X654976Y581137D01*
X665152Y580961D01*
G54D23*
X623320Y540700D02*
X633055Y540700D01*
X651256Y521499D01*
X772001Y660403D02*
G54D24*
D03*
X772001Y635003D02*
G54D24*
D03*
X772001Y609603D02*
G54D24*
D03*
X772001Y660403D02*
G54D24*
D03*
X772001Y635003D02*
G54D24*
D03*
X772001Y609603D02*
G54D24*
D03*
X741547Y609973D02*
G54D10*
D03*
G36*
X868271Y602879D02*
X868271Y618079D01*
X883471Y618079D01*
X883471Y602879D01*
X868271Y602879D01*
G37*
X875871Y635879D02*
G54D13*
D03*
G36*
X808271Y602879D02*
X808271Y618079D01*
X823471Y618079D01*
X823471Y602879D01*
X808271Y602879D01*
G37*
X815871Y635879D02*
G54D13*
D03*
G36*
X734106Y672995D02*
X749306Y672995D01*
X749306Y657795D01*
X734106Y657795D01*
X734106Y672995D01*
G37*
X833600Y665550D02*
G54D25*
D03*
X846300Y652850D02*
G54D25*
D03*
X859000Y665550D02*
G54D25*
D03*
X833600Y665550D02*
G54D25*
D03*
X846300Y652850D02*
G54D25*
D03*
X859000Y665550D02*
G54D25*
D03*
X741647Y643473D02*
G54D10*
D03*
G54D26*
X716832Y638461D02*
X717539Y638461D01*
X729000Y627000D01*
X751000Y627000D01*
X751000Y629000D01*
X760000Y635000D01*
X772001Y635003D01*
G36*
X838106Y617995D02*
X853306Y617995D01*
X853306Y602795D01*
X838106Y602795D01*
X838106Y617995D01*
G37*
G36*
X873106Y669995D02*
X888306Y669995D01*
X888306Y654795D01*
X873106Y654795D01*
X873106Y669995D01*
G37*
G54D26*
X845706Y610395D02*
X845706Y653444D01*
X846300Y652850D01*
G54D18*
X659000Y582000D02*
X659000Y639000D01*
X640000Y639000D01*
X617000Y639000D01*
X874454Y50129D02*
G54D21*
D03*
X824454Y50129D02*
G54D21*
D03*
X774454Y50129D02*
G54D21*
D03*
X724454Y50129D02*
G54D21*
D03*
G36*
X670654Y306929D02*
X654654Y306929D01*
X654654Y322929D01*
X670654Y322929D01*
X670654Y306929D01*
G37*
X637254Y314929D02*
G54D27*
D03*
X611854Y314929D02*
G54D27*
D03*
X611854Y238729D02*
G54D27*
D03*
X637254Y238729D02*
G54D27*
D03*
X662654Y238729D02*
G54D27*
D03*
G36*
X669654Y307929D02*
X655654Y307929D01*
X655654Y321929D01*
X669654Y321929D01*
X669654Y307929D01*
G37*
X637254Y314929D02*
G54D28*
D03*
X611854Y314929D02*
G54D28*
D03*
X611854Y238729D02*
G54D28*
D03*
X637254Y238729D02*
G54D28*
D03*
X662654Y238729D02*
G54D28*
D03*
G54D29*
X624454Y50129D02*
X642447Y86882D01*
X637685Y146764D01*
X636668Y147782D01*
G54D18*
X685963Y120225D02*
X686575Y207229D01*
X637685Y146764D02*
G54D10*
D03*
X611099Y146240D02*
G54D10*
D03*
X613196Y118170D02*
G54D10*
D03*
X685963Y120225D02*
G54D10*
D03*
X666685Y147764D02*
G54D10*
D03*
G54D16*
X611854Y238729D02*
X611854Y202596D01*
X666685Y147764D01*
G54D16*
X685963Y120225D02*
X637076Y120225D01*
X635848Y121453D01*
X686575Y207228D02*
G54D10*
D03*
X674454Y50129D02*
G54D21*
D03*
X624454Y50129D02*
G54D21*
D03*
G36*
X769679Y306800D02*
X753679Y306800D01*
X753679Y322800D01*
X769679Y322800D01*
X769679Y306800D01*
G37*
X736279Y314800D02*
G54D27*
D03*
X710879Y314800D02*
G54D27*
D03*
X710879Y238600D02*
G54D27*
D03*
X736279Y238600D02*
G54D27*
D03*
X761679Y238600D02*
G54D27*
D03*
G36*
X768679Y307800D02*
X754679Y307800D01*
X754679Y321800D01*
X768679Y321800D01*
X768679Y307800D01*
G37*
X736279Y314800D02*
G54D28*
D03*
X710879Y314800D02*
G54D28*
D03*
X710879Y238600D02*
G54D28*
D03*
X736279Y238600D02*
G54D28*
D03*
X761678Y238600D02*
G54D28*
D03*
G54D29*
X724454Y50129D02*
X741472Y86753D01*
X736710Y146636D01*
X735693Y147653D01*
G54D18*
X784988Y120096D02*
X785600Y207100D01*
X736710Y146636D02*
G54D10*
D03*
X710124Y146111D02*
G54D10*
D03*
X712222Y118042D02*
G54D10*
D03*
X784988Y120096D02*
G54D10*
D03*
X765710Y147636D02*
G54D10*
D03*
G54D16*
X710879Y238600D02*
X710879Y202467D01*
X765710Y147636D01*
G54D16*
X784988Y120096D02*
X736101Y120096D01*
X734872Y121324D01*
X785600Y207100D02*
G54D10*
D03*
G36*
X868879Y306900D02*
X852879Y306900D01*
X852879Y322900D01*
X868879Y322900D01*
X868879Y306900D01*
G37*
X835479Y314900D02*
G54D27*
D03*
X810079Y314900D02*
G54D27*
D03*
X810079Y238700D02*
G54D27*
D03*
X835479Y238700D02*
G54D27*
D03*
X860879Y238700D02*
G54D27*
D03*
G36*
X867879Y307900D02*
X853879Y307900D01*
X853879Y321900D01*
X867879Y321900D01*
X867879Y307900D01*
G37*
X835479Y314900D02*
G54D28*
D03*
X810079Y314900D02*
G54D28*
D03*
X810079Y238700D02*
G54D28*
D03*
X835479Y238700D02*
G54D28*
D03*
X860878Y238700D02*
G54D28*
D03*
G54D29*
X824454Y50129D02*
X840672Y86853D01*
X835910Y146736D01*
X834893Y147753D01*
G54D18*
X884188Y120196D02*
X884800Y207200D01*
X835910Y146736D02*
G54D10*
D03*
X809324Y146211D02*
G54D10*
D03*
X811422Y118142D02*
G54D10*
D03*
X884188Y120196D02*
G54D10*
D03*
X864910Y147736D02*
G54D10*
D03*
G54D16*
X810079Y238700D02*
X810079Y202567D01*
X864910Y147736D01*
G54D16*
X884188Y120196D02*
X835301Y120196D01*
X834072Y121424D01*
X884800Y207200D02*
G54D10*
D03*
G54D16*
X637454Y299500D02*
X835454Y299500D01*
X835454Y326704D01*
X835479Y341728D01*
G54D16*
X736279Y314800D02*
X736279Y341754D01*
X736454Y341929D01*
X612675Y99507D02*
G54D10*
D03*
X712975Y100207D02*
G54D10*
D03*
X811775Y100607D02*
G54D10*
D03*
G54D16*
X637254Y314929D02*
X637254Y299700D01*
X637454Y299500D01*
G54D16*
X736279Y314800D02*
X736279Y299404D01*
X736454Y299229D01*
G36*
X629754Y344929D02*
X644954Y344929D01*
X644954Y329729D01*
X629754Y329729D01*
X629754Y344929D01*
G37*
X662754Y337329D02*
G54D13*
D03*
G36*
X728854Y344929D02*
X744054Y344929D01*
X744054Y329729D01*
X728854Y329729D01*
X728854Y344929D01*
G37*
X761854Y337329D02*
G54D13*
D03*
G36*
X827754Y344929D02*
X842954Y344929D01*
X842954Y329729D01*
X827754Y329729D01*
X827754Y344929D01*
G37*
X860754Y337329D02*
G54D13*
D03*
G54D17*
X637354Y337329D02*
X637354Y315029D01*
X637254Y314929D01*
M02*
